<?xml version="1.0" encoding="utf-8"?>
<!-- Generator: Adobe Illustrator 16.0.4, SVG Export Plug-In . SVG Version: 6.00 Build 0)  -->
<!DOCTYPE svg PUBLIC "-//W3C//DTD SVG 1.1 Tiny//EN" "http://www.w3.org/Graphics/SVG/1.1/DTD/svg11-tiny.dtd">
<svg version="1.1" baseProfile="tiny" id="Layer_1" xmlns="http://www.w3.org/2000/svg" xmlns:xlink="http://www.w3.org/1999/xlink"
	 x="0px" y="0px" width="86.057px" height="21.283px" viewBox="0 0 86.057 21.283" xml:space="preserve">
<g>
	<path fill="#FFFFFF" d="M0,0h7.211l2.457,7.435L12.125,0h4.659l2.457,7.435L21.698,0h7.211l-7.02,21.283h-5.296l-2.138-6.446
		l-2.138,6.446H7.02L0,0z M10.211,18.73l4.244-13.37l4.244,13.37h0.797l5.329-16.178h-0.862l-4.85,14.71l-4.659-14.71l-4.659,14.71
		l-4.85-14.71H4.084L9.413,18.73H10.211z"/>
	<path fill="#FFFFFF" d="M45.948,8.105c0,1.468-0.255,2.718-0.766,3.749c-0.511,1.032-1.208,1.867-2.09,2.505
		c-0.883,0.638-1.915,1.106-3.095,1.404s-2.452,0.447-3.813,0.447v5.073h-6.797V0h6.797c1.361,0,2.632,0.149,3.813,0.447
		c1.181,0.298,2.212,0.766,3.095,1.404c0.882,0.638,1.579,1.474,2.09,2.505C45.693,5.388,45.948,6.637,45.948,8.105z M42.854,8.105
		c0-0.958-0.165-1.787-0.495-2.489c-0.33-0.702-0.793-1.276-1.388-1.723c-0.596-0.447-1.303-0.782-2.122-1.005
		c-0.819-0.223-1.707-0.335-2.664-0.335h-3.606V18.73h0.83v-5.073h2.776c0.957,0,1.845-0.112,2.664-0.335
		c0.819-0.223,1.526-0.558,2.122-1.005c0.595-0.447,1.058-1.021,1.388-1.723C42.688,9.892,42.854,9.062,42.854,8.105z M41.96,8.105
		c0,0.915-0.16,1.681-0.479,2.297c-0.319,0.617-0.745,1.106-1.276,1.468c-0.532,0.362-1.144,0.622-1.835,0.782
		c-0.691,0.16-1.42,0.239-2.186,0.239h-2.776V3.318h2.776c0.766,0,1.494,0.08,2.186,0.24c0.691,0.159,1.303,0.42,1.835,0.782
		c0.531,0.362,0.957,0.851,1.276,1.468C41.8,6.425,41.96,7.19,41.96,8.105z M36.185,10.466h0.287c0.893,0,1.537-0.208,1.93-0.623
		c0.394-0.415,0.59-0.994,0.59-1.739s-0.197-1.324-0.59-1.739c-0.394-0.415-1.037-0.622-1.93-0.622h-0.287V10.466z"/>
	<path fill="#FFFFFF" d="M51.309,0h5.105l8.073,21.283h-6.701l-0.702-1.915h-6.445l-0.702,1.915h-6.701L51.309,0z M47.991,18.73
		l0.606-1.595h10.53l0.606,1.595h0.894L54.468,2.553h-1.212L47.097,18.73H47.991z M53.862,3.318l4.978,13.051h-9.956L53.862,3.318z
		 M55.298,14.678l-1.436-3.733l-1.436,3.733H55.298z"/>
	<path fill="#FFFFFF" d="M72.878,0h5.105l8.073,21.283h-6.701l-0.702-1.915h-6.445l-0.702,1.915h-6.701L72.878,0z M69.56,18.73
		l0.606-1.595h10.53l0.606,1.595h0.894L76.038,2.553h-1.212L68.667,18.73H69.56z M75.431,3.318l4.978,13.051h-9.956L75.431,3.318z
		 M76.867,14.678l-1.436-3.733l-1.436,3.733H76.867z"/>
</g>
</svg>
