<?xml version="1.0" standalone="no"?>
<!DOCTYPE svg PUBLIC "-//W3C//DTD SVG 1.1//EN" "http://www.w3.org/Graphics/SVG/1.1/DTD/svg11.dtd" >
<svg>
<metadata>
Created by FontForge 20110222 at Sun Feb  1 20:26:11 2015
 By deploy user
Copyright (c) Avid Technology, Inc. 2007-2010
</metadata>
<defs>
<font id="RepriseStamp" horiz-adv-x="762" >
  <font-face 
    font-family="Reprise Stamp"
    font-weight="400"
    font-stretch="normal"
    units-per-em="1000"
    panose-1="2 0 0 0 0 0 0 0 0 0"
    ascent="800"
    descent="-200"
    x-height="924"
    cap-height="936"
    bbox="-76 -275.143 1212 1199"
    underline-thickness="50"
    underline-position="-75"
    unicode-range="U+0020-2122"
  />
<missing-glyph horiz-adv-x="0" 
 />
    <glyph glyph-name=".notdef" horiz-adv-x="0" 
 />
    <glyph glyph-name="quotesingle" unicode="'" horiz-adv-x="189" 
d="M21 574q-2 0 -3 2.5t-1.5 5t0 4.5t0.5 3v5.5t56 151.5v16h-52v152q0 1 1.5 2.5t2.5 1.5t3.5 1t5 1.5t4.5 1t3 0.5t4 -0.5t6 -1.5t6 -1.5t4 -0.5h4h7h8h7h6h9h7h4.5t3.5 0.5t6 1.5t6 1.5t4 0.5t5 -0.5t8.5 -1t8.5 -1.5t6 -1q1 0 2.5 -1.5t1.5 -2.5v-156q-2 -4 -6.5 -13.5
t-10 -20.5t-9.5 -20.5t-6 -13.5l-12 -32q-5 -12 -10 -27.5t-12 -29t-17.5 -22.5t-26.5 -9h-2q-2 0 -6.5 0.5t-9.5 1t-9.5 1.5t-6.5 1z" />
    <glyph glyph-name="comma" unicode="," horiz-adv-x="197" 
d="M21 16q1 5 4.5 14.5t7 22t8 26l8.5 25.5t7 21.5t5 14.5q1 3 4 10.5t6 15.5t6 15.5t4 10.5v8q-10 -3 -17 -3.5t-17 -0.5h-7h-7q-3 3 -5 12.5t-2.5 23t-1 28.5t0 29t0.5 25.5v18.5v11l8 8h136q2 0 4 -3t3 -6t1 -5v-2l-4 -40q0 -6 -1 -20t-1.5 -30t-1 -30t-0.5 -20l-4 -8
l-64 -168q-1 -2 -2 -5.5t-3 -6.5t-4.5 -5.5t-6.5 -2.5h-52q-5 0 -8.5 5t-3.5 9v2z" />
    <glyph glyph-name="hyphen" unicode="-" horiz-adv-x="371" 
d="M21 373v5v6v5q0 3 2 5t8 2.5t16.5 1t23 0.5t25.5 0.5t24.5 1t20.5 0.5q46 1 91.5 2.5t91.5 1.5h6h9h6q4 0 8 -4v-84q0 -1 -16 -2.5t-42 -3.5t-58.5 -4t-65.5 -3t-63 -2t-51 -1h-5h-7h-8h-4q-7 5 -10 14t-3.5 20t0.5 21.5t1 17.5zM257 360q0 -2 3 -5t5 -3l6 1.5t3.5 1t2 1
t0.5 1v1.5q0 4 -2 7t-6 3t-7 -1.5t-5 -6.5z" />
    <glyph glyph-name="period" unicode="." horiz-adv-x="210" 
d="M25 20q0 4 -0.5 12t-1 18.5t-0.5 21.5t-0.5 21.5t-1 18.5t-0.5 12v4v4q0 2 0.5 7t1 11t1.5 11t1 7q2 2 6 5t6 3h128q2 0 6 -3t6 -5q-1 -21 -0.5 -39.5t1.5 -35.5t2 -35t1 -37v-5.5t-1.5 -4t-4 -3.5t-6.5 -4q-19 0 -35 -0.5t-30.5 -1t-28.5 -1.5t-31 -1q-9 0 -13.5 5.5
t-5.5 14.5z" />
    <glyph glyph-name="zero" unicode="0" horiz-adv-x="656" 
d="M3 480v15.5t0.5 24.5t0.5 24.5v15.5q3 15 3.5 30t1 30.5t2 30.5t5.5 29q18 63 44 113t63.5 84.5t89.5 52.5t121 18q51 0 92 -13.5t73 -37.5t56 -57.5t41 -72.5t27.5 -82.5t16.5 -88.5q0 -4 2 -17t4 -29t4 -29t2 -17q2 -58 -1.5 -117.5t-15.5 -116t-35 -105.5t-59 -86
t-87.5 -58.5t-121.5 -21.5q-67 0 -117 20t-86.5 55t-61 81.5t-39 100t-20 111t-5.5 113.5zM108 488q0 -29 1.5 -67.5t7 -79.5t15.5 -82t28 -75.5t44.5 -59t63.5 -32.5q10 -2 17 -3t13.5 -1.5t14 0t19.5 0.5h8h12h12h8q32 9 56.5 23.5t42 33.5t29.5 42t20.5 49.5t14 55.5
t9.5 60v16v25v25v16q0 28 -0.5 61.5t-3.5 68.5t-9.5 70.5t-17 68t-26 60.5t-38.5 48.5t-53.5 32.5t-69.5 12q-51 0 -87 -16t-60 -44t-38.5 -65t-21.5 -78t-9 -83.5t-2 -81.5zM68 320q-3 0 -3 -4t3 -4t3 4t-3 4z" />
    <glyph glyph-name="one" unicode="1" horiz-adv-x="484" 
d="M57 74v7t4 5q41 1 78 0.5t75 3.5v14q1 26 -0.5 50t-3.5 52l3 140l-4 12q-1 22 -1 37.5t-0.5 32t-0.5 26.5q0 92 -2.5 183.5t0.5 184.5l-16 1l-145 -21q-1 0 -3.5 0.5t-3.5 0.5q-5 0 -7 8t-3.5 18.5t-1 20t0.5 13.5v8q27 9 56.5 19.5t56.5 21.5q14 6 25.5 10.5t20.5 9
t17 7t18.5 4t23.5 2t31 -0.5h5h7h6t11 -4q2 -15 2 -25v-21v-18q1 -125 2 -248.5t1 -248.5q0 -36 -0.5 -72l-1 -72t-0.5 -72t3 -72h8q8 0 13.5 0.5t14.5 2.5l104 -2q5 -1 10.5 -4t4.5 -9l-1 -68l-8 -4q-13 -1 -21 -1.5t-17.5 -0.5h-14.5q-13 0 -21.5 0.5t-17.5 0.5
q-8 0 -17 -0.5t-20 -2.5l-144 4l9 7q-1 1 -4 2.5t-3.5 2t-1.5 0.5h-1.5t-2 -2.5t-5 -6t-9 -6t-12.5 -2.5q-2 0 -6 1t-7 9q-3 -5 -8 -7.5t-11 -3.5t-12 -1q-5 1 -10 1q-12 0 -20 7.5t-13.5 19.5t-7 24.5t-1.5 21.5zM88 17q-3 0 -3 -4q-1 -4 2 -4t4 4q0 4 -3 4zM172 15
q3 0 3 -4q-1 -4 -4 -4t-2 4q0 4 3 4zM120 20q-3 0 -3 -4t3 -4t3 4t-3 4zM212 18q-3 0 -3 -4t3 -4t3 4t-3 4zM144 20q1 2 -2 2t-2 -2t2 -2t2 2zM152 23q-3 0 -3 -4t3 -4t3 4t-3 4zM168 23q-3 0 -3 -4t3 -4t3 4t-3 4zM172 35q0 -5 3 -7.5t7.5 -4t9.5 -2.5t8 -3q1 3 1 4
q0 3 -3.5 5t-8 3.5l-9 3t-6.5 1.5h-2zM164 27q-3 0 -3 -4t3 -4t3 4t-3 4zM344 34q2 -1 3.5 -3.5t3 -5.5t3.5 -5t4 -2h2q1 0 2.5 1.5t1.5 2.5q-2 1 -3.5 4t-3 5.5t-3 4.5t-4.5 2h-2q-1 0 -2.5 -1.5t-1.5 -2.5zM156 27q1 2 -2 2t-2 -2t2 -2t2 2zM208 30q-3 0 -3 -4t3 -4t3 4
t-3 4zM216 30q-2 0 -2 -2q0 -3 2 -2t2 2t-2 2zM225 49v-4t0.5 -6t1.5 -6t1 -4t1.5 -2.5t2.5 -1.5l28 8q3 5 4 7q1 1 1 2q-7 1 -11.5 2t-8 2t-7.5 2t-9 1h-2.5h-1.5zM276 24q0 1 -1 1.5t-3 0.5t-3 -0.5t-1 -1.5q1 -2 4 -2t4 2zM164 35q-3 0 -3 -4t3 -4t3 4t-3 4zM264 32
q-3 0 -3 -4t3 -4t3 4t-3 4zM138 50q-3 0 -6.5 -0.5t-7.5 -2t-6 -3.5t-2 -6q0 -2 2 -1t5.5 1.5t6.5 1.5t5 3.5t3 6.5zM212 42q-9 0 -9 -9q5 0 8 3t5 6h-4zM332 35q-3 0 -3 -4t3 -4t3 4t-3 4zM368 34q-3 0 -3 -4t3 -4t3 4t-3 4zM272 43q6 0 9 5h-8zM377 45q-3 1 -4 -3
q0 -4 3 -5q3 0 3 4q1 4 -2 4zM289 56q-3 0 -3 -4t3 -4t3 4t-3 4zM405 61q-3 0 -3 -4t3 -4t3 4t-3 4z" />
    <glyph glyph-name="two" unicode="2" horiz-adv-x="632" 
d="M27 104q0 1 2.5 5.5t5 10.5t5 11.5t4.5 8.5q34 55 76 101.5t90 89.5q27 24 59.5 47.5t65.5 47.5t63.5 49.5t54.5 55t39 64.5t16 77q2 40 -7.5 72.5t-30.5 54.5t-51.5 34.5t-70.5 13.5q-78 3 -130.5 -33.5t-80.5 -108.5q-2 -4 -3.5 -12t-4 -16.5t-5.5 -15.5t-8 -11
q-20 3 -42 7.5t-42 11.5v5.5t1 6.5q0 19 5 36.5t13 34.5q81 194 293 187q36 -1 70 -9t64.5 -23t56 -36t43 -48.5t27 -61t8.5 -72.5q-1 -41 -12 -76.5t-29.5 -67.5t-44 -61t-54.5 -57q-1 -1 -5.5 -4.5t-10 -8.5t-11 -9t-6.5 -5q-2 -1 -6.5 -5t-5.5 -6q-6 -5 -19 -14
t-28.5 -21.5t-33 -26t-33 -26t-28 -22t-18.5 -14.5q-2 -2 -8.5 -7.5t-14.5 -13t-14 -13.5l-8 -8q-1 -1 -3.5 -3t-5.5 -4t-5 -3.5t-3 -2t-5 1.5t-8.5 3.5t-8 3t-5.5 1.5q-1 0 -4 -1.5t-4 -2.5q2 -4 5.5 -5.5t6.5 -3.5t5 -5t2 -8q0 -4 -4.5 -11t-11.5 -16t-15 -19.5
t-14.5 -21.5t-11.5 -21.5t-5 -18.5q58 -1 115.5 -0.5t115.5 1.5t116 1.5t116 -0.5h5q4 -1 8 -1.5t7.5 -2.5t3.5 -5l-2 -74l-582 -8l-7 8zM260 54q-4 0 -5 -3.5t-1 -6.5v-3t-1 -3l7 3.5t5.5 3t0.5 1v1.5v2q0 1 -1.5 2.5t-2 1.5t-1.5 0.5zM466 39q-3 1 -4 -3q0 -4 3 -5
q3 0 3 4q1 4 -2 4zM218 51h4l-4 4v-4zM466 67q-3 0 -3 -4t3 -4t3 4t-3 4zM83 107q-3 0 -3 -4t3 -4t3 4t-3 4zM241 274q-6 -2 -6 -8h5zM228 289q0 -4 1.5 -7t5.5 -4q2 0 1.5 2t-2.5 5t-6 4zM257 282h4l-4 4v-4zM225 291v4h-4zM257 298q-3 0 -3 -4t3 -4t3 4t-3 4zM253 302
q-3 0 -3 -4t3 -4t3 4t-3 4zM274 313h5q0 6 -5 8v-8zM294 317q1 2 -2 2t-2 -2t2 -2t2 2zM270 329q-3 0 -3 -4t3 -4t3 4t-3 4zM286 353q0 -6 5 -8v8h-5zM372 390q-3 0 -3 -4t3 -4t3 4t-3 4zM383 407q-5 0 -11 -1.5t-6 -7.5q5 -1 10.5 1t6.5 8zM417 437q-3 0 -3 -4t3 -4t3 4
t-3 4zM467 484q0 -2 -1.5 -6.5t-3.5 -5.5h4l9 15q0 -1 1.5 -2.5t2 -1.5h1.5h2t2.5 2t2 5.5t1 6.5t0.5 4h-6.5t-7.5 -1t-7 -2.5t-4 -5.5q0 -1 2 -4t2 -4zM515 502q1 2 -2 2t-2 -2t2 -2t2 2zM496 511q2 -5 8 -6v5zM508 518q0 -2 3 -4t6 -3t5 -1h2q-8 16 -9 16h-3
q-1 -1 -2.5 -4t-1.5 -4zM521 544q0 -3 1.5 -7.5t5.5 -4.5l1 19q-3 0 -5.5 -2t-2.5 -5zM546 573q-1 0 -3 -1.5t-2 -2.5t-1 -4t-1.5 -6t-1 -5.5t-0.5 -3.5q1 -1 2.5 0.5t1.5 2.5q1 2 2.5 4.5t2.5 5t3 6.5zM525 566h8l-4 4zM546 593h16l-12 12zM543 613q-3 0 -3 -4t3 -4t3 4
t-3 4zM563 613q-3 0 -3 -4q-1 -4 2 -4t4 4q0 4 -3 4zM571 621q0 2 -2 2t-2 -2t2 -2t2 2zM563 633q-3 0 -3 -4t3 -4t3 4t-3 4zM548 645q0 -4 1.5 -9t7.5 -5v3v6t-1.5 5.5t-3.5 3.5q-1 0 -2.5 -1.5t-1.5 -2.5z" />
    <glyph glyph-name="three" unicode="3" horiz-adv-x="677" 
d="M23 168v3t4.5 6t12 10.5t16.5 11.5t17 10.5t14 7.5t8 3h2.5t14.5 -10.5t38.5 -34t53 -43t58 -32t66.5 -12.5q18 0 34.5 1t32.5 4t32 7.5t32 11.5q3 5 5.5 6.5t4.5 2.5t5.5 2t8.5 5q18 14 31 28.5t21 31t12 35.5t4 41q0 51 -15 85.5t-40.5 56.5t-59.5 33.5t-72.5 16.5
t-78.5 5t-78 -1l-4 4v76q4 0 12 0.5t18 1t18.5 1.5t11.5 1q2 0 8 1t13 2.5t13.5 2.5t9.5 2q1 0 4 1.5t4 2.5q44 0 75.5 8t54 26.5t36 47.5t22.5 70v2q0 36 -14 64.5t-37 48.5t-53.5 30.5t-64.5 10.5q-13 0 -28.5 -2t-31 -6t-30 -10t-25.5 -14q-3 -2 -11 -10t-19 -19.5
t-22.5 -24t-22 -23t-17.5 -17t-8 -6.5q-6 0 -18 5.5t-24 13.5t-21 16t-9 13q0 7 4 15t9.5 15.5t12 14t10.5 11.5q28 31 57 52.5t61 34.5t67 19t77 6q54 0 101 -12t82 -39t55 -69t20 -102q0 -137 -120 -202v-3t4.5 -4.5t12 -8t16.5 -9l18 -9t15.5 -8.5t9.5 -6
q26 -21 43.5 -45t28 -51t15.5 -56.5t5 -62.5v-7q0 -5 -0.5 -9t-2 -7.5t-5.5 -5.5q1 -16 -0.5 -29t-6 -25.5t-11 -24.5t-14.5 -25q-21 -35 -53.5 -59.5t-71 -39.5t-79.5 -22t-80 -7q-28 0 -57 5.5t-58.5 16t-57.5 25.5t-52.5 33.5t-44.5 40.5t-34 47zM455 60h4l-4 4v-4z
M291 68q-3 0 -3 -4t3 -4t3 4t-3 4zM455 76q-2 0 -4.5 -0.5t-3.5 -3.5h4q2 0 4.5 0.5t3.5 3.5h-4zM503 76h4v4h-4v-4zM523 92q-3 0 -3 -4t3 -4t3 4t-3 4zM529 116q-3 0 -4 -1.5t-1.5 -4t-0.5 -5.5v-5v-4l12 16l-3.5 3.5t-1.5 0.5h-1zM543 116l4 4h-4v-4zM115 136q-3 0 -3 -4
t3 -4t3 4t-3 4zM75 152q0 -3 3 -3.5t5 -0.5t4.5 0.5t3.5 3.5q-2 3 -5.5 5t-6.5 3q-1 -1 -2.5 -4t-1.5 -4zM551 170q0 -5 2 -10t6 -8q5 2 6.5 5t1.5 7q0 3 -1 4l-2 2l-2 2t-1 4h6v6q-8 0 -12 -2t-4 -10zM575 168q0 -2 3 -5t5 -3q3 1 4.5 4t2.5 7t1 7.5v6.5q-2 0 -5.5 -1.5
t-6 -3.5t-4 -5.5t-0.5 -6.5zM627 244v4h-4zM557 677q-6 0 -8 -2.5t-2 -8.5v-3v-3q10 5 10 17zM575 696l4 4h-4v-4zM563 708q-1 0 -1.5 -1t-0.5 -3t0.5 -3t1.5 -1q2 1 2 4t-2 4zM575 712q-3 0 -3 -4t3 -4t3 4t-3 4z" />
    <glyph glyph-name="four" unicode="4" horiz-adv-x="721" 
d="M444 17q-1 26 -2 50.5l-2 49t-1.5 49t0.5 51.5l-4 4h-3h-5.5t-7.5 1h-5q-41 0 -83 -1.5t-83.5 -4t-83 -4.5t-83.5 -1h-6h-6.5t-6.5 1h-4.5t-6 0.5l-9 1t-8 1.5t-7.5 9q-1 12 -1 20.5t-1 17t-1 14.5v9q0 12 7 27.5t16 30.5t19 28.5t16 23.5q19 32 39 64.5t35 66.5l4 4
l70 123q1 3 3 8.5t6 7.5l144 257l4 4q9 2 14.5 2.5t11.5 1t10 0.5q1 0 6 -1h14h15h13h10q6 0 14 -0.5t14 -0.5h10q3 -2 5 -5.5t3 -6.5q1 -13 1 -26.5t0.5 -27.5t1.5 -27.5t3 -26.5q-5 -120 -2 -240l6 -240q0 -2 0.5 -5.5l1 -7t1.5 -5.5t137 -5l12 -4q2 -8 2 -13t0.5 -10
t0.5 -9v-3v-5v-6v-5t0.5 -5.5t0 -7t-2 -7t-3.5 -5.5q-18 -3 -36 -4t-36 -1t-36 -1.5t-36 -3.5q0 -1 -1 -4t-1.5 -7t-1 -7.5t-0.5 -4.5v-4q0 -15 1.5 -30.5t1.5 -30.5l-1 -15q0 -6 -0.5 -20t-1.5 -30t-2 -30t-1 -20q-1 -2 -4 -4t-6 -2.5l-6 -1t-4 -0.5h-6t-11.5 -0.5
t-13.5 -0.5q-7 1 -10 1h-7q-5 0 -9 0.5t-7.5 0.5t-7.5 8zM496 28q-3 0 -3 -4t3 -4t3 4t-3 4zM511 176v8h-8zM499 192q-3 0 -3 -4t3 -4t3 4t-3 4zM487 192h8l-4 4zM474 229q0 -3 0.5 -7t4.5 -5v12h-5zM44 260q0 -2 1.5 -6t2 -5t1 -1h1.5q3 0 8.5 1t10 3.5t8 6.5t3.5 8t-2 5.5
t-2 4.5v2l8 12q0 1 0.5 2.5t0.5 2.5q-6 0 -9 -2t-5 -5t-3.5 -6.5t-2.5 -5.5t-1.5 -2t-1.5 1h-2q-1 0 -2.5 1.5t-1.5 2.5q-5 -3 -8.5 -8.5t-3.5 -11.5zM148 250q-3 0 -3 -4t3 -4t3 4t-3 4zM452 249q0 -1 1.5 -2t2.5 -2q1 0 3 -1t4 -1.5t3.5 -1t2.5 -0.5t4 4t6 9t5.5 9.5
t2.5 6.5q-11 1 -12.5 -3.5t-1.5 -12.5q-3 0 -6.5 1.5t-7 1.5t-5.5 -1t-2 -7zM134 264q0 -5 2 -9.5t8 -4.5v2q0 5 -2.5 8.5t-7.5 3.5zM233 270q0 -11 5 -14t14 -4q4 -1 6.5 -0.5t4 1.5t1.5 3q0 5 -3.5 7.5t-9 4t-10.5 2.5h-8zM628 258q6 -8 10 -10t12 -2t11 5t3 12
q0 4 -2 8.5t-5 7.5t-7 5t-8 2q-10 0 -10 -10v-5.5t4 -4.5zM436 259v-2q0 -1 1.5 -2.5t2 -1.5h1.5h2t0.5 0.5t-2 3.5t-1.5 4q4 4 4 5v2t-0.5 0.5l-3.5 -3.5l-3.5 -3.5t-0.5 -1.5v-1zM112 263h4v4h-4v-4zM448 265q-3 0 -3 -4t3 -4t3 4t-3 4zM276 268h4v4h-4v-4zM288 272
q-3 0 -3 -4t3 -4t3 4t-3 4zM528 264q1 2 -2 2t-2 -2t2 -2t2 2zM492 272h4v4zM540 272q0 2 -2 2q-3 0 -2 -2q0 -2 2 -2t2 2zM92 283h4v4h-4v-4zM304 279q1 2 -2 3q-3 0 -2 -2t2 -2q1 -1 2 1zM133 301h4t6 0.5t6 0.5h4q2 0 10 1t18 1t22 1t22 2t18 1h10h17h29q16 -1 29 -1h17
q13 0 19.5 2.5t10 5.5t6 5t8.5 2q5 0 10.5 -2t11.5 -4.5t12.5 -5t14.5 -2.5q1 58 -1.5 116.5t-3.5 116.5q-1 61 0 122q1 60 0 122q0 2 -0.5 7t-1 11t-1.5 11t-1 7q-1 0 -2.5 -1t-1.5 -2q-10 -14 -17.5 -29l-15.5 -31q-17 -32 -34 -64.5t-35 -64t-36.5 -63.5t-38.5 -62
q0 -2 -1.5 -6t-2.5 -5q-19 -39 -41 -74t-46 -73q-1 -2 -4.5 -7t-7.5 -11t-7 -11t-5 -7v-9zM467 425v-14t2 -14.5t6.5 -11t12.5 -5.5q1 0 3 -0.5t4.5 0t4.5 1.5t2 3q2 14 7.5 32t13.5 32q-1 -1 -4 -2.5t-4 -1.5h-2q-2 0 -5.5 1.5t-6 4t-4.5 5t-2 5.5q0 4 1.5 7t6.5 5l1 28
q-5 0 -8.5 3t-5 7.5t-2 9t-0.5 8.5q-2 0 -4 -3.5t-3 -8.5t-1 -10v-7v-2q1 -1 4 -5.5t4 -5.5l-12 1q1 -1 4 -5t4 -5q1 0 0 1t-1 0t0.5 -4.5t1.5 -8t1.5 -8.5t0.5 -5q-1 -2 -3.5 -5t-5.5 -6.5l-6 -7t-5 -4.5v-4zM474 401h4q1 0 2.5 -1.5t1.5 -2.5h-4q-1 0 -2.5 1.5t-1.5 2.5z
M147 438q-1 -4 0.5 -7t4 -6t5 -4.5t5.5 -2.5q2 2 3.5 8t1.5 8v2v2q-1 1 -3.5 2t-4.5 2h-2h-2l-5 -2.5zM507 436v-4h-4v4h4zM511 456q-3 0 -3 -4t3 -4t3 4t-3 4zM488 504q3 0 3 -4t-3 -4q-3 1 -3 5t3 3zM505 548v2v2q0 4 -1 10.5t-1.5 13t-1 11t-0.5 5.5q0 9 -1 10.5t-7 1.5
q-9 1 -12.5 -5t-3.5 -14q0 -3 1.5 -4.5l3.5 -3.5t3.5 -4.5t-0.5 -3.5zM510 608q1 2 -2 2t-2 -2t2 -2t2 2zM306 647q-3 1 -3 -3t3 -5q3 0 3 4t-3 4zM514 640q1 2 -2 2t-2 -2t2 -2t2 2zM480 753q0 -2 1.5 -5t3.5 -5.5t4.5 -4.5t4.5 -2h2q1 2 2.5 6.5t1.5 5.5q-1 3 -6.5 3.5
t-7.5 1.5h-3h-3zM490 768h-2q-1 0 -2.5 -1t-1.5 -2l8 3h-2zM496 768q-3 0 -3 -4t3 -4t3 4t-3 4z" />
    <glyph glyph-name="five" unicode="5" horiz-adv-x="662" 
d="M169 31q-1 1 -5.5 4t-6.5 4q-8 5 -21 14.5t-27.5 21t-29.5 25.5t-26 27.5t-18.5 26.5t-7.5 23v4l33 20q2 -1 8 1.5t13 6.5t14 7.5t11 3.5q1 0 7.5 -7t16.5 -18t21.5 -23.5t23.5 -24.5l21 -21t14 -12q13 -7 27.5 -12.5t29.5 -8t31 -4t30 -1.5q52 -1 89 18t61 51.5
t35.5 75.5t12.5 90v10v15t1 15v10q-8 40 -22.5 73t-38.5 56t-56 36t-74 14q-12 0 -25.5 -0.5t-27 -3.5t-26.5 -7t-24 -11q-14 -9 -25.5 -20.5l-22.5 -22.5q-6 -6 -11.5 -17t-11.5 -22.5t-14 -20t-17 -7.5q-6 0 -11 0.5t-12 3.5v4q1 1 4 2.5t4 1.5t4 -1.5t4 -2.5
q-2 13 1.5 19t8.5 9.5t9.5 8.5t5.5 16v3v3q-4 0 -9 1t-9.5 3t-7 5.5t-2.5 9.5t3.5 9.5t8.5 6.5t9.5 6t6.5 7q0 2 -2.5 5t-4.5 3t-5 -0.5t-7 -2.5t-7.5 -3t-5.5 -1v4h-8v-36q-1 0 -2.5 -1.5t-1.5 -2.5t1.5 -4t2.5 -4q-10 -3 -15.5 -12.5t-5.5 -19.5q0 -7 5 -12.5t7 -11.5
l-16 -8h-2h-2q-1 0 -3.5 1t-5.5 2t-5 1.5t-2.5 0.5t-2 1.5t-1.5 2.5l1 84l31 395q0 1 0.5 4l1 6t2.5 6t4 4q4 0 13.5 1t20.5 1t20.5 0.5t13.5 0.5l180 2t180 0h6.5h12t12 -2.5t5.5 -6.5l-1 -72l-4 -4q-27 0 -48.5 -0.5t-48.5 -1t-54.5 -1t-53 -1t-43.5 0.5h-15.5h-24.5
q-13 0 -28 1h-28q-14 0 -24.5 0.5t-15.5 0.5q-3 -6 -4.5 -14.5t-1.5 -16.5t0.5 -16t0.5 -13q-3 -51 -7 -101t-5 -101v-22q10 6 19.5 13.5t19.5 14t20.5 13t21.5 10.5q8 3 18 4.5t20 4t19.5 4.5t14.5 6q2 0 6 -1h10h10h6q74 -1 128.5 -26.5t90 -69.5t52.5 -104.5t16 -130.5
q-1 -26 -6 -49t-12 -49q-3 -1 -4 0q-6 0 -8 4t-3 8.5t-2 8.5t-5 4h-2q-1 -1 -4.5 -2t-3.5 -1.5v-1v-1.5q0 -7 2 -11t6 -7t8 -5.5t8 -6.5v-2q0 -18 -8.5 -36.5t-23 -36.5t-32 -34t-36.5 -29.5t-37.5 -23.5t-33.5 -16q-32 -11 -63 -14.5t-65 -2.5q-19 0 -35.5 1t-32.5 4.5
t-33 9t-35 11.5zM162 75l4 4h-4v-4zM142 103q3 -3 7.5 -4t8.5 -1v5h-16zM510 97q-3 0 -3 -4t3 -4t3 4t-3 4zM496 119q-4 0 -6 -2t-3 -4.5t-1.5 -5.5t-0.5 -6q8 -1 9.5 5t1.5 13zM500 100q6 0 11 0.5t7 0.5q4 1 8 4.5t6.5 8.5t4.5 10t2 9q0 6 -0.5 10t-7.5 6q-1 -6 -4.5 -8.5
t-8 -3t-9.5 0t-9.5 0.5t-7 -2t-2.5 -7h11zM79 166q0 -6 6.5 -15.5t15.5 -18t17.5 -14.5t13.5 -7q3 0 4.5 2t2.5 4.5t3 5t6 2.5q0 6 -3.5 8.5t-7.5 4t-8 5t-6 9.5v4v6.5v5.5v4q-1 2 -4.5 2.5t-8 1t-8.5 0.5h-6h-5t-5.5 -1t-4.5 -3t-2 -6zM518 113q3 0 3 -4t-3 -4t-3 4t3 4z
M94 169q6 0 9 -5l-4 -4q-5 3 -5 9zM619 359q-2 1 -3 -2q0 -3 2 -2t2 2q1 1 -1 2zM599 384q0 2 -2 2t-2 -2t2 -2t2 2zM575 392h4l-4 4v-4zM544 421q1 -2 3.5 -6t6.5 -7.5t8.5 -6t8.5 -1.5q2 0 4 2.5l4 5t3 5.5t2 5q0 6 -4.5 10t-10.5 7l-12 6t-9 8q-2 0 -3 -2t-1.5 -3.5
t0 -3.5t0.5 -3t-0.5 -3t0 -3.5t1.5 -3.5t3 -2zM100 474q0 6 3 8t6.5 2t8 0.5t7.5 3.5v-4q-1 -7 -6 -11.5t-8 -6.5t-4 -2h-3q0 1 -2 4t-2 4v2zM152 475q-3 0 -3 -4t3 -4t3 4t-3 4zM513 497q1 2 -2 2t-2 -2t2 -2t2 2zM501 513q1 2 -2 2t-2 -2t2 -2t2 2zM334 584q0 -1 1.5 -2.5
t2.5 -1.5l5 -2.5t3.5 -1.5t3.5 4t4 4t5 1t5 1q0 6 -2.5 9t-5.5 3.5t-8 0t-9 -0.5q1 3 0.5 4.5t-0.5 2.5t1.5 2.5t4 3t-5 3.5t-17 4.5t-18 4.5t-9.5 2t-4 -2t-4 -2q-2 -1 -6.5 -2.5t-5.5 -1.5q-7 -1 -10 -1q-4 0 -5 -1.5t0 -5.5t0 -12l-7 1q0 -6 5.5 -11.5t11.5 -5.5
q3 0 5.5 1t5 3t5 3t6.5 1h3.5h3t3.5 -2t4 -2l6 1.5l4 1t4 -1.5t3 -2h3l4 4l4 4l4 -4zM283 609q-1 -2 -2 -2t-2 2t2 2t2 -2zM104 672q0 -1 1.5 -2.5t2 -1.5h1.5h3q1 0 2.5 1.5t1.5 2.5t-1.5 2.5t-2 1.5h-1.5h-3q-1 0 -2.5 -1.5t-1.5 -2.5zM137 723q-6 1 -10.5 -2.5t-7 -9
t-3.5 -11.5t-1 -10q16 0 29 9q-1 2 -3 5t-3.5 6t-1.5 6.5t1 6.5zM152 711q0 1 -1 0.5t-2 -1.5t-1.5 -2t0.5 -1q2 -1 3.5 0.5t0.5 3.5zM494 899q-1 -4 0 -10.5t4 -11.5t7 -8.5t10 -3.5t9 3t7 9l4.5 4.5t7 7.5t9.5 10v2q-3 3 -8.5 4t-10.5 1q-6 0 -10.5 -0.5t-6.5 -0.5l-4 4
q-10 -3 -19 -3.5t-19 -0.5q0 -3 2.5 -4.5t6 -2t6.5 0t5 0.5zM371 876h4v4h-4v-4zM391 887q-2 0 -2 -2t2 -2t2 2t-2 2zM271 888q6 0 8 5q0 1 -1.5 2.5t-2 1.5h-1.5h-2t-1 -9zM411 891q1 2 -2 2t-2 -2t2 -2t2 2zM436 898q-4 1 -7.5 -1.5t-3.5 -6.5q5 0 9.5 0.5t8.5 3.5
q-1 1 -3.5 2.5t-3.5 1.5zM392 903q-3 0 -3 -4q-1 -4 2 -4t4 4q0 4 -3 4z" />
    <glyph glyph-name="six" unicode="6" horiz-adv-x="685" 
d="M59 324q0 2 -0.5 4.5t-3.5 3.5l8 8q1 -1 2.5 -5.5t1.5 -6.5v-2q0 -8 -2 -15.5t-4 -15.5l-4 -16t-2 -15q0 -5 1 -6t2 -2.5t2 -5t1 -12.5q2 0 4.5 -1t5 -1t3.5 1.5t1 6.5q1 0 4 -1.5t3.5 -2t0.5 -1v-1.5v-2q0 -1 -1.5 -4t-2.5 -4l-4 4q-1 0 -2.5 -1.5t-1.5 -2.5
q0 -7 4.5 -9.5t9 -3.5t8.5 -3t2 -8q-2 -3 -3.5 -4.5t-3 -2.5t-1.5 -1.5v-1.5q0 -10 4.5 -21t11.5 -21t15.5 -18.5t16.5 -13.5h3h3q7 0 8.5 4t2 9t1 10.5t6.5 8.5q5 -4 6.5 -7t1.5 -6t-0.5 -6.5t0.5 -8.5q0 -1 1.5 -2.5t2.5 -1.5h4t6 0.5l6 1t4 0.5v6l-20 24q1 2 -1 5.5
t-5 3.5q0 3 -4 8.5t-9 12.5l-10 14t-7 12t-7 9.5t-11 7.5t-10 5.5t-4 3.5q0 4 1.5 5t4 1t5.5 -1t5 -1q0 18 -5 35.5t-11 34.5q-2 5 -5.5 6.5t-7.5 2.5t-7 2t-4 5t-0.5 8t-0.5 7.5t-3 6t-8 2.5q-5 0 -8 -2.5t-6 -6l-6 -7t-8 -4.5q-6 20 -8.5 41t-3.5 42t-0.5 42.5t0.5 41.5
q0 10 1.5 22t3.5 23.5t3.5 22.5t-0.5 21l20 84q6 9 11 22t10.5 27.5t10.5 28.5t12 26q22 39 53 72.5t68.5 57.5t80.5 37.5t90 12.5q1 0 7.5 -0.5t16 -1.5t21 -2.5t22.5 -3t21 -2.5t16 -2q7 -1 21 -5.5t28.5 -10.5t26 -12.5t12.5 -11.5q0 -2 -2 -8.5t-6 -15t-9 -17.5t-10 -17
t-8.5 -13t-4.5 -5h-4q-17 8 -32.5 15.5t-31 13t-32 8.5t-34.5 3q-48 0 -88 -14t-71 -38.5t-54.5 -58t-38.5 -72t-22.5 -81t-7.5 -85.5q0 -1 -0.5 -5.5t0 -9.5t2 -9t4.5 -4q1 0 2 1q21 24 48 44t57 34.5t62.5 22t64.5 7.5q74 0 128 -24.5t89.5 -67.5t53 -101.5t17.5 -127.5
q0 -40 -10.5 -76.5t-30 -67t-47 -55t-60 -41.5t-69.5 -26t-77 -9q-47 0 -86.5 6.5t-73 23.5t-61 45.5t-49.5 72.5l-4 4q-6 7 -9 11.5t-5.5 9t-4.5 10.5t-5 17q-3 9 -7 23.5t-7.5 28.5t-6.5 24.5t-3 11.5v24l8 4q4 2 6 2t3.5 0.5t2 1.5t0.5 4zM403 52q-9 0 -13 -6t-4 -14h22
q-1 4 -5 8t-4 5v3q1 1 4 2.5t4 1.5h-4zM427 46v-2q0 -1 1.5 -2.5t2.5 -1.5v4q0 1 -1.5 2.5t-2.5 1.5v-2zM263 52v4h-4zM423 60q0 -1 1.5 -2.5t2.5 -1.5q4 0 8 4t4 8q0 5 -3 7t-8 2q0 -1 -0.5 -4.5t-0.5 -4.5t-2 -4t-2 -4zM231 64q0 -1 1.5 -2.5t2 -1.5h1.5h3t3.5 3t1.5 6
q-4 0 -7 -1.5t-6 -3.5zM447 60q1 2 -2 2t-2 -2t2 -2t2 2zM467 68q3 1 3.5 3.5t0.5 4.5t-0.5 4.5t-3.5 3.5v-16zM483 76q-5 -2 -5 -8h5v8zM223 72h9q0 6 -5 8zM503 72v8l-4 -4zM215 76l4 8h-4v-8zM455 88q-4 -1 -4.5 -5t-0.5 -7h5v12zM479 84q-3 0 -3 -4t3 -4t3 4t-3 4z
M495 88q-1 0 -2.5 -1.5t-1.5 -2v-1.5v-2t0.5 -1t2 1.5t1.5 2v1.5v2v1zM139 308q0 -45 15.5 -85.5t44 -71.5t67.5 -49t85 -18t84 14t64.5 41t41 64t14.5 83q0 37 -8 69.5t-25.5 60t-43 49t-59.5 35.5q-4 -1 -8.5 0t-7.5 4h-84q-3 -1 -5 -1.5t-4 -1.5t-3 -1q-2 -1 -9.5 -4
t-16.5 -7t-17.5 -7.5t-12.5 -5.5l-5 -2.5t-12.5 -8.5t-28 -25t-33.5 -39t-24 -44t-9 -49zM483 88q1 2 -2 2t-2 -2t2 -2t2 2zM203 112q-3 0 -3 -4t3 -4t3 4t-3 4zM143 148q3 0 3 -4t-3 -4t-3 4t3 4zM587 180q-3 0 -3 -4t3 -4t3 4t-3 4zM579 218v-2l8 -8t5.5 -6.5t3 -8.5
t0.5 -13h5q0 2 1 6t1 6q4 4 4.5 5l2 4t-18.5 27l-8 -4q-1 -1 -2.5 -2t-1.5 -1.5v-1.5v-1zM562 219q0 -2 1 -7.5t2.5 -11t4 -9.5t5.5 -4t6 2t2 7l-3 6t-5.5 8t-6.5 6.5t-6 2.5zM107 212q3 0 3 -4t-3 -4t-3 4t3 4zM607 268v12h-12zM615 296q-3 0 -3 -4t3 -4t3 4t-3 4zM631 292
q5 3 5 9q-6 0 -9 -5zM591 348q2 -4 5 -9t7 -10.5t8 -10t8 -6.5v5v5t0.5 3t0 4.5t-1.5 4.5t-3 2q6 0 7 2t1 6v2.5t-1 3t-2.5 3t-3 2.5t-2.5 2.5t-4.5 11t-7 21t-6.5 22t-5 16.5q-3 -1 -5.5 -2.5t-4.5 -3t-4 -2.5t-6 -1v-7h4q-1 -1 -4 -5.5t-3.5 -5.5t-0.5 -2v-2t1 -0.5t7 2
t8 1.5q6 0 7.5 -4t1 -8t-0.5 -8t4 -4q1 0 4 1.5t4 2.5v-2q0 -1 -2 -6t-4 -10.5t-4 -9.5zM91 330q0 -3 1.5 -4.5t4.5 -2t5.5 -1t4.5 -0.5v22q0 -5 -2.5 -6.5t-5.5 -2t-5.5 -1t-2.5 -4.5zM105 364q-4 0 -6 -2.5t-2.5 -6.5t-0.5 -9v-6h-5q2 1 7 3t9.5 5t8 6.5t3.5 7.5
q0 2 -0.5 1.5t-3.5 -2t-4 -1.5q-4 4 -5 4h-1zM603 344q3 0 3 -4t-3 -4t-3 4t3 4zM587 364q0 1 -1 0.5t-2 -1.5t-1.5 -2t0.5 -1q2 -1 3.5 0.5t0.5 3.5zM579 376q-5 -2 -5 -8h9zM127 376q-3 0 -3 -4t3 -4t3 4t-3 4zM564 380q0 -2 -0.5 -3t-0.5 -1.5t1 -1.5t3 -2v16h-8v-8h5z
M115 380q-3 0 -3 -4t3 -4t3 4t-3 4zM63 384q-3 0 -3 -4t3 -4t3 4t-3 4zM127 384q-3 0 -3 -4t3 -4t3 4t-3 4zM115 388q-3 0 -3 -4t3 -4t3 4t-3 4zM103 396q-2 1 -2 -2t2 -2t2 2t-2 2zM64 422q-5 0 -8 -2.5t-5.5 -7t-3 -9t-0.5 -8.5q4 0 7 3t5.5 7.5t3.5 9t1 7.5zM39 404
q-2 1 -2 -2t2 -2t2 2t-2 2zM99 404q-3 0 -3 -4t3 -4t3 4t-3 4zM123 408q-3 0 -3 -4t3 -4t3 4t-3 4zM583 412q3 0 3 -4t-3 -4t-3 4t3 4zM123 414h4q3 0 5.5 1t4.5 2.5t2 4.5q0 4 -3.5 5t-6.5 1h-3h-3v-14zM135 724q-5 0 -7.5 -3t-3.5 -7t-1.5 -8t-0.5 -7q1 0 6 2t10 4.5
t9 5.5t4 5t-0.5 5t-3.5 3q-1 0 -4 -2t-4 -2z" />
    <glyph glyph-name="seven" unicode="7" horiz-adv-x="634" 
d="M125 15q1 20 9.5 41.5t20 43t23 42t19.5 37.5q21 51 44 100.5t45 99.5l37 87q0 1 1.5 4t2.5 3q17 36 32 72t30.5 72l31 72t32.5 71q0 1 1.5 2.5t2.5 1.5l36 78q-4 4 -6 4t-4.5 0.5t-5.5 0.5h-4q-53 2 -106 2t-106.5 -1.5t-106.5 -2t-106 1.5h-8l-3 9l3 76q4 -1 13 0t19 1
h19h13l16 -1l484 -1l13 -7l-3 -64q-1 -4 -2.5 -8t-3.5 -7.5t-4.5 -7.5t-3.5 -8l-134 -294q-9 -28 -20.5 -54.5t-23.5 -53t-25.5 -52.5t-24.5 -52q-17 -38 -34 -79t-34.5 -81.5t-36.5 -80t-38 -76.5q-20 3 -39 0.5t-39 -1.5h-4q-4 1 -7 1h-7h-4q-3 1 -3.5 3.5t-0.5 5.5z
M209 99q-2 0 -2 -2t2 -2t2 2t-2 2zM205 107q1 2 -1 2q-3 0 -2.5 -2t1.5 -2t2 2zM252 161q5 2 5 8q-6 1 -9 -4zM249 189q-3 0 -3 -4t3 -4t3 4t-3 4zM250 197h4v4zM341 393q0 -6 -2 -8t-5 -3t-5.5 -4t-2.5 -9h2q9 0 17.5 2t18.5 2q0 2 -2.5 4t-4.5 4l-4.5 4.5t-2.5 6.5z
M360 404v4h-4zM348 408q1 2 -2 2q-3 1 -2 -1t2 -3q1 0 2 2zM356 420q-3 0 -3 -4t3 -4t3 4t-3 4zM274 880q-3 1 -3 -3t3 -5q3 0 3 4t-3 4z" />
    <glyph glyph-name="eight" unicode="8" horiz-adv-x="704" 
d="M21 247q0 35 10 65.5t27.5 57.5t41 50.5t49.5 43.5q8 6 18 9.5t21 7t20.5 8t16.5 11.5q1 1 -1 4.5t-2 4.5q-39 0 -71 19.5t-55 49.5t-35 67t-12 73q0 40 11 72t32 57t49.5 44t63.5 33q10 4 20 6l20 4l20 4t20 6h11.5h17.5t17.5 0.5t11.5 0.5q39 0 76 -5.5t69.5 -17
t60 -30t47 -44.5t30.5 -60.5t11 -77.5q0 -28 -6.5 -51.5t-19 -44t-29.5 -38.5t-37 -36q-1 0 -4 -1.5t-4 -2.5q-2 -2 -8.5 -5.5t-13.5 -8t-13.5 -8.5t-8.5 -6v-2.5t6 -5t15.5 -10t21 -12t22.5 -13t20.5 -12t14.5 -9.5q20 -16 37 -36.5t29.5 -44t19 -49.5t6.5 -52
q0 -48 -13 -85.5t-36.5 -67t-55.5 -50t-69.5 -34t-78.5 -19.5t-83 -6q-38 0 -78 5.5t-76 17.5t-68 31.5t-55.5 47t-37 63.5t-13.5 82zM465 72q-3 0 -3 -4t3 -4t3 4t-3 4zM481 72h4l-4 4v-4zM121 251q0 -31 12 -56.5t32 -45t46 -33t54 -20.5q13 -3 27 -7.5t27 -4.5
q21 0 46.5 1.5t51.5 6t50 12.5t42 20q5 4 8.5 7.5t6 7t5.5 7t8 6.5q2 2 7 4.5t5 3.5q19 19 27.5 44.5t8.5 51.5q0 29 -12 53t-32.5 43.5t-47 35.5t-54 28.5t-54 22t-48.5 17.5h-3h-3h-5.5t-2.5 -1t-3 -2.5t-7 -4.5l-60 -32q-23 -13 -46.5 -29t-42.5 -36.5t-31 -45t-12 -54.5
zM53 196q5 2 6.5 5t1.5 7q0 3 -1 5.5t-5 2.5q-2 0 -2 -20zM73 208q-3 0 -3 -4t3 -4t3 4t-3 4zM77 312q-3 0 -3 -4t3 -4t3 4t-3 4zM89 336q0 2 -2 2t-2 -2t2 -2t2 2zM125 344q0 1 -1 0.5t-2 -1.5t-1.5 -2t0.5 -1q2 -1 3.5 0.5t0.5 3.5zM109 348h4l-4 4v-4zM129 364h5
q0 3 -0.5 7t-4.5 5v-12zM125 384q5 2 5 8h-5v-8zM364 509q0 -9 5 -13.5t13 -4.5q0 8 -4.5 13t-13.5 5zM401 500q-3 0 -3 -4t3 -4t3 4t-3 4zM209 508q3 0 3 -4t-3 -4t-3 4t3 4zM181 536q-3 0 -3 -4t3 -4t3 4t-3 4zM193 532v4h-4zM149 558v-2l4 -4q1 -5 1 -6q5 0 9 3t6 7
q0 1 -2 2.5t-4.5 2.5t-4.5 2t-3 1h-2q-1 0 -2.5 -1.5t-1.5 -2v-1.5v-1zM149 717q0 -30 12.5 -53.5t33 -41.5t45.5 -31t49 -23q6 -2 13 -6t15 -7t15.5 -5t14.5 -2q13 0 31.5 6.5t39 17.5t41 25.5t37.5 30.5t27 32.5t10 31.5v60q-3 10 -4 12q-1 1 -2.5 4.5t-3.5 7.5t-3.5 7.5
t-2.5 4.5q-13 23 -34.5 37.5t-47 22t-52 10t-50.5 2.5q-32 0 -65 -9t-59.5 -27t-43 -44.5t-16.5 -62.5zM157 592q0 -6 3.5 -12t9.5 -6v8t-1 9t-2.5 8.5t-5.5 4.5q-3 -3 -3.5 -5.5t-0.5 -6.5zM145 596q0 2 -2 2t-2 -2t2 -2t2 2zM173 603q6 0 8 5h-8v-5zM129 652q0 2 -2 2
t-2 -2t2 -2t2 2zM597 684h4v4zM125 708q-3 0 -3 -4t3 -4t3 4t-3 4zM345 896h4l-4 4v-4z" />
    <glyph glyph-name="nine" unicode="9" horiz-adv-x="698" 
d="M83 59q0 2 2 7.5t5 14t7 17.5t8.5 16t9 12t8.5 5q5 -1 9 -2.5t8.5 -4t8.5 -6t9 -5.5q26 -14 55 -22t59 -8q1 0 9.5 1t18.5 2.5t20.5 3t16.5 2.5q9 1 16 6.5t12.5 10.5t12 8t16.5 0q41 27 70 63t48.5 78.5t29.5 89t12 93.5h-3q-26 -19 -53 -37t-55.5 -31t-59.5 -19.5
t-66 -4.5q-66 3 -118.5 27t-89 64.5t-54 96t-14.5 123.5q1 7 1 18.5t1 22t2.5 21.5t4.5 21q4 15 10.5 31t14.5 31.5t18.5 29.5t22.5 25l9.5 9.5t11.5 11t10.5 9.5t5.5 4l95 43q2 1 10 2t18 2.5l20 3t16 1.5h6.5h12.5h13q8 -1 12 -1q70 -4 121 -26t85.5 -59.5t55.5 -90
t32 -116.5q6 -38 10 -76.5t2 -76.5q-3 -61 -14 -123t-33 -118.5t-53.5 -105.5t-76 -84.5t-101 -54t-127.5 -14.5h-10q-6 1 -12 1h-10q-5 1 -6 1t-11 2t-20.5 4.5t-21.5 5t-17 3.5q-5 1 -16 5.5t-22.5 10t-20 12t-7.5 14.5zM257 24q-3 0 -3 -4t3 -4t3 4t-3 4zM250 32
q-3 0 -3 -4q-1 -4 2 -4t4 4q0 4 -3 4zM254 36q4 -1 7 -3.5t3 -6.5l2 1q1 0 4 1.5t4 2.5q-4 1 -4.5 5t0.5 7zM182 36q3 1 5 4.5t3 6.5l-8 1v-12zM342 31q-3 1 -3 -3q-1 -4 2 -5q3 0 4 4q0 4 -3 4zM187 59q-3 1 -3 -3t3 -5q3 0 3 4t-3 4zM461 98q-3 0 -3 -4t3 -4q3 -1 3 3
t-3 5zM275 375q-3 0 -3 -4t3 -4t3 4t-3 4zM276 395q-2 -1 -3.5 -3t-2 -5t-1.5 -6q0 -3 3 -3.5t5.5 4.5t2.5 9q0 1 -1.5 2.5t-2.5 1.5zM221 406l4 4h-4v-4zM142 668q-2 -40 7 -80t30.5 -72.5t53.5 -54t77 -23.5q22 -2 45 -1t44 8q24 9 51 25.5t49 39.5t37 49.5t17 52.5
q2 47 -11 90.5t-38.5 77t-64 54t-87.5 22.5q-44 2 -81.5 -10t-65 -37t-44.5 -61t-19 -80zM76 630q-3 0 -3 -4q-1 -4 2 -4t4 4q0 4 -3 4z" />
    <glyph glyph-name="A" unicode="A" 
d="M108 4h-13.5h-20.5h-20.5h-13.5q-10 0 -14 1.5t-4 10.5q0 1 1 4t1 4q10 26 19 53.5t17 56t15 56.5t13 54q9 16 15.5 33.5t11 35t8.5 35.5t9 36q1 3 4 12.5t7 21.5t9 26t9 26t7 21.5t4 12.5q4 13 7.5 26t7 26.5t7.5 26.5t10 25l72 248q0 2 1 7t3 12t4 15t4 15t4 11t4 4
q152 0 155.5 -9t8.5 -23.5t11.5 -31t11.5 -31t9 -25t4 -12.5q12 -46 24 -91t32 -89l72 -236q-1 -3 1 -6.5t3 -5.5l44 -132q-1 -4 1.5 -13.5t6.5 -20t8.5 -20t7.5 -14.5q2 -7 7 -24t11 -36t11 -36t7 -24t3.5 -17.5t1.5 -18.5h-5h-5.5h-6.5h-4q-10 0 -25 1t-29 1.5t-34 1.5
l-8 8q-16 67 -36 133.5t-44 130.5q-2 0 -8 1t-12 1.5l-12 1t-8 0.5h-15t-25.5 -0.5t-31.5 -1t-31.5 -1t-25.5 -1t-15 -0.5h-15.5h-23.5h-27h-28h-22.5h-15.5q-3 -2 -5 -5.5t-3 -6.5q-1 -2 -2.5 -7t-3.5 -11t-4 -11t-2 -7q1 -1 2.5 -4t1.5 -4l-1.5 -3l-2.5 -5
q-10 -16 -17 -35t-12 -39t-8.5 -40t-6.5 -38q-3 -6 -6 -16.5t-6.5 -21t-8.5 -18.5t-13 -8q-5 0 -8.5 0.5t-9.5 3.5zM376 828q-8 -6 -13 -16.5t-7 -19.5q-1 -3 -3 -11.5t-5 -20t-6 -24.5t-6 -24.5t-5 -20t-3 -11.5q-20 -72 -38.5 -142.5t-41.5 -141.5q0 -1 -1 -3t-1.5 -4.5
l-1 -5t-0.5 -3.5v-2.5v-2.5q67 0 132.5 3t133.5 3q0 14 -5.5 31.5t-12.5 36t-13.5 36t-10.5 31.5q-13 52 -28 103.5t-28 104.5l-3.5 14t-6 21t-6.5 22t-4 15t-2.5 8.5t-3.5 9.5t-4 8.5t-6 5.5z" />
    <glyph glyph-name="B" unicode="B" horiz-adv-x="668" 
d="M27 810v20v25v26.5v24.5v18v8l4 4l288 4h9q25 0 48 -2.5t45.5 -7t44.5 -10t45 -12.5q4 -3 13 -12l19.5 -19.5l19.5 -19.5t12 -13q13 -15 21 -32t12.5 -34.5t5.5 -36.5t1 -37q0 -25 -3.5 -49.5t-12.5 -47t-23.5 -41.5t-36.5 -34q-2 -2 -10 -6.5t-17 -9.5t-17 -9.5
t-12 -6.5q-1 0 -3.5 -0.5l-5 -1t-5 -1.5t-3 -1.5t0.5 -2l2 -3l2 -3t1 -2.5q1 0 -0.5 -0.5t-0.5 -0.5q4 2 4 3t0.5 1h5.5q11 0 19.5 -5t18.5 -11q27 -15 49.5 -36.5t39.5 -47.5t26 -56t9 -62v-6t-2 -18t-5.5 -38t-9 -44.5t-13.5 -37.5t-22 -32t-34 -28t-50 -26q-4 -2 -13 -5
t-19 -7t-19 -7.5t-13 -4.5l-28 -8l-28 -8h-2h-2q-2 0 -9.5 1t-16.5 1.5t-16.5 1t-9.5 0.5h-16.5t-29.5 -0.5t-36 -1t-36 -1t-29.5 -1t-16.5 -0.5h-13h-22.5h-24.5h-18h-14h-16h-14t-8 2t-2.5 13t-1 28.5t-0.5 40t-0.5 45t-1 43.5t-0.5 36q-2 152 -3 301.5t-1 300.5zM339 20
q1 2 -2 2t-2 -2t2 -2t2 2zM139 100l16 -4q4 0 10.5 -1t13.5 -1.5t12.5 -1t7.5 -0.5t8 1.5t8 2.5h132l10.5 1.5t7.5 1.5t6 1q36 8 66.5 16t53 24t35.5 42t13 69q0 72 -34 117.5t-102 63.5q-2 0 -8 2l-12 4t-12 3.5t-8 2.5q-4 0 -12.5 0.5t-19 1t-22.5 0.5t-22.5 0.5t-19 1
t-12.5 0.5h-4h-6h-6h-4t-4 2t-4 2q-2 0 -6.5 -2.5t-5.5 -3.5h-72l-8 -6v-304zM503 136q-3 0 -3 -4t3 -4t3 4t-3 4zM79 324h8v8h-8v-8zM95 336q0 -1 1.5 -5.5t2 -5.5t1 -1h1.5t3.5 1t5 3t4 4t1.5 4q0 6 -3 9.5t-9 6.5q-1 -1 -2 -3t-2.5 -4.5t-2.5 -5t-1 -3.5zM543 352
q0 2 -2 2q-3 0 -2 -2q0 -2 2 -2t2 2zM99 368q0 -2 0.5 -4.5t3.5 -3.5q0 2 1 6t3 8t5 7t7 3q0 1 -1.5 4t-2 3.5t-1 0.5h-1.5q-3 0 -6 -2.5t-4.5 -6.5t-2.5 -8t-1 -7zM447 468q-6 1 -7.5 -2.5t-1.5 -7.5q0 -1 0.5 -3t0.5 -3q5 2 6.5 5t1.5 7v2.5v1.5zM351 468q-5 -2 -5 -8h5v8
zM223 476q-2 1 -2 -2t2 -2t2 2t-2 2zM387 476h5q0 6 -5 8v-8zM255 480q4 1 4.5 5t0.5 7h-5v-12zM455 536q-21 -17 -21 -45q1 0 7 2.5t12.5 5.5t12 5.5t5.5 3.5q0 2 -1.5 6.5t-4 9t-5.5 8t-5 4.5zM423 496q1 2 -2 2t-2 -2t2 -2t2 2zM403 544q-6 -4 -10 -11t-4 -15
q4 0 7.5 2.5t6 5t5 5.5t3.5 5zM97 528h-2q-1 0 -2.5 -1.5t-1.5 -2.5h4q1 0 2.5 1.5t1.5 2.5h-2zM139 634q0 -24 -2.5 -47t-2.5 -48q19 0 38.5 2.5t38.5 2.5h4q2 0 6.5 -1.5t5.5 -2.5h7h11h11h7q32 0 63 1.5t59 8t51 17.5t40 29.5t26 46t9 65.5v7v11v11v7q-8 22 -19.5 41
t-32.5 31q-1 0 -3 0.5t-5 1t-5.5 1.5t-3 1t-1.5 3.5t-2 4.5t-4 2.5t-4 1.5q-6 1 -13 1.5t-15 1t-15 1.5t-13 4h-88l-8 4h-68q-8 0 -11.5 -3t-6 -7t-5.5 -7.5t-9 -3.5q-10 0 -16 5t-12 16q-2 -1 -6.5 -4t-5.5 -4l-2.5 -2.5t-1.5 -169.5q0 -1 1 -4.5t1.5 -7.5t1 -7.5t0.5 -4.5
v-6zM67 654v-6t4 -4q4 2 6 6t4 9t4 9.5t6 7.5l-4 4l8 8l-8 4q-1 -6 -4.5 -9l-7 -6t-6 -8t-2.5 -15zM95 660h4v4h-4v-4zM111 692q0 -3 2.5 -6.5t5.5 -3.5v15q-2 0 -5 -1.5t-3 -3.5zM107 708q0 2 -2 2t-2 -2t2 -2t2 2z" />
    <glyph glyph-name="C" unicode="C" horiz-adv-x="713" 
d="M21 472q0 6 1 19t2 29t2.5 34t3 34t2.5 29t1 19q12 43 28 83t37 75t47.5 63.5t59.5 48.5t73.5 31.5t89.5 11.5q27 0 54 -4t52.5 -12.5t49.5 -21.5t45 -31q6 -5 12 -13l12 -16t12 -15.5t12 -11.5q17 -33 32 -64.5t24 -67.5q-3 -10 -13 -17t-22.5 -11.5t-25 -7t-19.5 -4.5
q0 -1 -1.5 -2.5t-2 -1.5h-1.5h-3q-1 0 -2.5 1.5t-1.5 2.5q-1 2 -3.5 8t-6 13t-6.5 13.5t-4 9.5q-5 12 -9 25.5t-10 25.5t-15.5 20t-25.5 9q-4 6 -4.5 15t-3.5 13q-5 7 -18 16.5t-28 17t-29.5 13t-22.5 5.5t-22.5 -1t-32 -3.5t-36.5 -6.5t-34.5 -10t-27 -13.5t-13.5 -17.5v-4
v-8v-8v-4q-1 -9 -7.5 -15t-15 -11t-17 -10.5t-12.5 -11.5q-14 -20 -21 -37.5t-11 -35t-6 -36.5t-6 -43q0 -2 -1 -8.5t-2.5 -13.5t-3 -13.5t-1.5 -8.5l-4 -12v-2v-2q3 -20 4 -40t1 -40t0.5 -40t2.5 -40t8.5 -45t15 -50t19 -48.5t21.5 -40.5q1 -1 3 -4t4.5 -6l5 -6t3.5 -4
q3 -3 11.5 -11t18.5 -17t18 -17t12 -11q9 2 24 -1t31.5 -7.5t33 -8t27.5 -3.5q6 0 19.5 2t27 5.5t25.5 8.5t16 12q7 12 10.5 15t7.5 3.5t8.5 1.5t13.5 8q14 11 24.5 26.5t19.5 29.5q3 5 6.5 15t7 22t7.5 24.5t8.5 23t9 17t9.5 6.5q2 0 14 -1.5t26 -4t26 -5.5t14 -5
q-1 -1 -2 -3t-2.5 -4.5t-2.5 -5t-1 -3.5l1.5 -6t1.5 -4t1 -6q0 -19 -7 -40t-19 -42.5t-27 -42.5t-31.5 -39.5t-33 -34t-30.5 -25.5q-4 -2 -14.5 -5t-22 -6t-20 -6.5t-7.5 -6.5q-10 2 -17 0.5t-13.5 -4t-13.5 -5.5t-16 -3h-6h-13.5h-15.5h-13q-7 0 -17.5 -0.5t-21.5 0
t-22 1.5t-19 3q-5 1 -13.5 5t-17.5 8.5l-17 8.5l-12 6q-40 18 -70.5 47t-53 65t-37 77t-23.5 84t-12.5 86t-3.5 83v6zM425 12q-3 -1 -3.5 -3.5t-0.5 -4.5v-2.5t0.5 -1t2 3.5t1.5 4v2v2zM445 12q0 1 -1 0.5t-2 -1.5t-1.5 -2t0.5 -1q2 -1 3.5 0.5t0.5 3.5zM433 24q-3 0 -3 -4
t3 -4t3 4t-3 4zM239 44h-2q-1 0 -2.5 -1.5t-1.5 -2.5l8 4h-2z" />
    <glyph glyph-name="D" unicode="D" horiz-adv-x="706" 
d="M31 4q-2 0 -2.5 3t-1 7.5t-0.5 8.5v5q0 6 2 9.5t2 8.5v2q0 1 -1.5 2.5t-2.5 1.5v48l8 8q-8 4 -8 7v6.5v7.5v7q0 7 -0.5 20.5t-0.5 28t2 26.5t7 17l4 -4l32 8v4l-16 4h-4q-4 0 -5.5 -1l-3 -2t-4 -2t-7.5 -1v16v25v25v16q0 9 -0.5 28.5t-1 43.5t-0.5 50.5t-0.5 50.5t-1 43
t-0.5 28q0 3 1 11t1.5 17t1 17t0.5 11v8q0 1 2 4t2 4t-1.5 4t-2.5 4v6v9v9v6v8v9v9v4.5t0.5 4t1.5 7.5t1.5 7.5t0.5 4.5q0 2 -1.5 6.5t-2.5 5.5v196h300q14 0 29 -3t30 -7.5t29.5 -10.5t27.5 -11q60 -26 104 -68t72.5 -95t42 -113t13.5 -122v-6v-9v-9v-6q-6 -2 -14 -6
t-16 -9.5t-15 -11t-11 -9.5q0 -1 -2 -1.5t-2 16.5q-6 0 -8.5 -4t-3.5 -9.5t-0.5 -12t0.5 -11.5q0 -6 2.5 -14t5.5 -16.5t5.5 -15t2.5 -8.5q0 -1 -1 -3t-3 -5t-3 -5.5t-1 -4v-2.5q0 -6 1.5 -9t4 -4t6.5 -1h8v14q-3 -5 -9 -5q0 12 1 21.5t2.5 19t2 20t-0.5 24.5q0 4 2 6.5
t5.5 3.5t7 1.5t5.5 0.5q1 0 4 -2t4 -2q4 1 5 1q0 8 1 16t6 15l8 -4q0 -5 0.5 -8.5t0.5 -6.5v-5q0 -33 -6.5 -61.5t-14.5 -58.5q-10 -40 -24.5 -77t-35 -69t-49.5 -59.5t-67 -50.5q-14 -8 -30 -14t-32 -6q-4 0 -8 4t-8 9.5t-7.5 11t-6.5 7.5q-6 -20 -11 -31.5t-12.5 -18
t-20 -9t-32.5 -5.5l-52 -8h-2h-2q-1 0 -4.5 0.5t-7.5 1t-7.5 1.5t-4.5 1h-204zM387 32q2 -1 2 -4t-2 -4q-1 0 -1.5 1t-0.5 3t0.5 3t1.5 1zM479 80q-3 0 -3 -4t3 -4t3 4t-3 4zM391 88q-3 0 -3 -4t3 -4t3 4t-3 4zM335 96q12 0 26 -1t26 -7q4 16 14 26t23 18t26.5 15t24.5 17
q20 18 36 40t27.5 48t19.5 54t12.5 56t6.5 55.5t2 52.5q0 26 -2 55t-7 59t-14 59.5t-22.5 56t-32 48t-42.5 36.5q-1 0 -3 1l-5 2.5t-5.5 3t-3.5 2.5l-4 4t-6 6.5t-7 6t-8 2.5h-2l-8 -4q-2 0 -5 -1t-6 -1.5l-6 -1t-6.5 -0.5t-9 5t-11.5 11t-13.5 12t-18.5 8h-13h-21h-24h-24
h-21h-13q-2 0 -7.5 0.5t-12.5 1.5t-12.5 1.5t-7.5 0.5t-8 -0.5l-12 -1t-12 -1.5t-8 -1q-4 -1 -4 -3v-4q0 -37 2 -72.5t2 -71.5v-25q0 -8 -0.5 -23t-1 -34.5t-0.5 -41t-0.5 -40.5t-1 -34.5t-0.5 -22.5q-1 -1 -2.5 -4t-1.5 -4v-2v-2q0 -2 1.5 -6.5t2.5 -5.5v-12v-19v-19v-12
q0 -38 -1 -76t-7 -74v-8q0 -7 1.5 -13t4 -12.5t4.5 -12.5t2 -14v-13.5v-20.5v-20.5v-13.5l8 -8q10 -2 16 -2.5t13 -1t11 -0.5h8h18.5h20.5h17h12h20h19h13q6 4 11.5 4h12.5zM579 232q0 -1 1.5 -4t2.5 -4q4 1 4.5 5.5t0.5 7.5q-1 0 -5 -1t-4 -4zM635 448q3 0 3 -4t-3 -4t-3 4
t3 4zM311 860h4v4zM299 876q0 -1 1.5 -4t2.5 -4q3 4 4 8t1 9q-3 0 -6 -1.5t-3 -5.5v-2zM311 872q-2 0 -2 -2t2 -2t2 2t-2 2zM295 888q-3 0 -3 -4t3 -4t3 4t-3 4zM291 900q-3 0 -3 -4t3 -4t3 4t-3 4z" />
    <glyph glyph-name="E" unicode="E" horiz-adv-x="609" 
d="M48 19q-4 1 -10 -5t-7 -6h-3q-1 1 -2.5 4t-1.5 4q1 41 -1.5 81t-2.5 81v22.5t0.5 19t1 20t2.5 24.5v34.5v51.5v62v61v52.5v34.5q0 2 0.5 12t1 22t1.5 22t1 12v6.5t4 5.5l-4 4q0 6 0.5 14t0 17t-1.5 17.5t-3 15.5q0 27 -0.5 53l-1 52t-1.5 51.5t-1 51.5v6v7t16 11h528
q2 -4 2.5 -7.5l1 -7t0.5 -5.5q0 -4 -0.5 -13.5t-1 -20.5t-1.5 -20.5t-1 -13.5q-6 -1 -13 -3l-14 -4t-14 -3.5t-13 -1.5q-4 0 -6 1t-4 2.5t-4.5 3t-5.5 1.5h-2q-1 0 -5 -1t-9 -1.5t-9 -1t-5 -0.5h-11.5h-18.5h-18h-12q-5 -3 -9 -3.5t-8 -0.5t-8.5 0.5t-10.5 -0.5q-4 -1 -6 -4
t-4.5 -6.5t-6.5 -6.5t-12 -3h-7q-1 0 -3 2.5t-5 5.5t-5 5.5t-3 2.5t-5 1t-9 1.5t-9 1t-5 0.5q-4 4 -4.5 4t-3 1t-5 1.5t-4.5 1t-3 0.5h-88q-4 -1 -7 -1.5t-5.5 -1.5t-3.5 -1l-8 -4h-2h-2l-12 4h-2h-2q-1 -1 -2.5 -4t-1.5 -4v-124q0 -5 1.5 -9t3 -7.5t2.5 -7.5t1 -8v-4l-4 -8
q0 -1 -1 -6.5t-2.5 -11.5t-3 -12.5t-1.5 -9.5v-2q0 -22 1.5 -42.5t1.5 -42.5q1 0 4 -0.5t6.5 -0.5h6.5h4t5.5 1t10 1.5t10.5 1t6 0.5q5 0 18.5 -1t28 -2.5t27.5 -2.5t18 -2l-12 -8q0 -1 1.5 -2.5t2.5 -1.5q4 0 9 2.5l11 5.5t12 5.5t14 2.5h18q4 0 12.5 -0.5t19 -1t22.5 -0.5
t22.5 -0.5t19 -1t12.5 -0.5q2 -9 2.5 -15.5l1 -13t0.5 -13v-14.5v-4v-6v-6v-4q-1 -2 -5.5 -6.5t-5.5 -5t-2 -0.5h-3q-1 1 -2 4t-1.5 3.5t-1 0.5h-1.5h-2q-10 -4 -18 -5.5t-16.5 -2t-17.5 -0.5h-21h-12h-15h-14h-6q-6 0 -14.5 0.5l-17 1t-14.5 1.5t-10 5l12 4q2 0 3.5 4
t2.5 8.5t1.5 9.5t0.5 8q0 4 -1.5 6.5t-3.5 5t-4 4.5t-3 6q-4 -1 -9 -3.5t-10 -5.5t-8.5 -7t-3.5 -7q1 0 3.5 -0.5t3.5 -0.5q2 0 8 1.5t8 2.5q-2 -7 -1.5 -9.5t2 -3t2.5 -1t1 -2.5t-2 -5t-5 -6.5t-6 -6.5t-5 -3t-3 2t-1 4.5t-1 4.5t-5 2q-2 0 -5 -1t-6 -3.5t-5 -5t-2 -5.5
q-19 0 -35.5 -3.5t-34.5 -5.5q-1 -1 -2.5 -5.5t-1.5 -6.5q-2 -7 -5 -10t-8 -3.5t-10 -0.5t-9 -0.5t-7.5 -2.5t-4.5 -7t3.5 -11.5t8.5 -8.5q-4 -1 -4 -4.5v-5.5v-4v-2.5t4 -3.5t4 -4t1.5 -6t2.5 -10.5t2.5 -10t1.5 -5.5t1.5 -2.5t2.5 -1.5q2 1 3 3l2 4t2 3.5t3 1.5h2
q1 -1 2.5 -2t1.5 -2v-68l-8 -16q-2 1 -4 4t-3.5 6.5t-3 6t-1.5 3.5q-4 -3 -10 -9.5t-6 -12.5v-2l20 -20h5v5.5t0.5 4t2 2.5t5.5 1q0 -9 -2.5 -14.5t-2.5 -12.5v-2q0 -1 2 -4t2 -4t-2 -5t-4.5 -8.5t-4.5 -8.5t-1 -6q2 -5 5 -6.5t5.5 -2.5t4 -3.5t1.5 -9.5t-2 -14t-2 -15
q0 -14 5.5 -21t15 -9.5t20.5 -2.5h23h404l4 -4q0 -1 -1 -4t-1.5 -6l-1 -6t-0.5 -4v-4q0 -9 2 -18t2 -18v-11q0 -5 -4 -9q-4 1 -4.5 5t0.5 7q-3 -2 -5 -5.5t-3 -6.5q-3 -1 -10.5 -2t-15.5 -2.5t-15.5 -2.5t-10.5 -1q-4 0 -12 0.5t-18 1t-18.5 1t-11.5 1.5q-4 -1 -6 1
t-2.5 5.5t0 8t0 8.5t-2.5 6.5t-7 2.5h-2q-1 -1 -2.5 -4t-1.5 -4q1 0 4 -1.5t4 -2.5v-2q0 -8 -4 -12.5t-11 -7t-16 -3.5t-17.5 -0.5t-16.5 1t-13 0.5h-14h-25h-34q-19 0 -38 0.5t-35 2t-27 4.5t-13 9l-4 -8q-13 -2 -22 -3.5t-18.5 -3t-15.5 -1.5h-5.5h-7.5h-6.5t-7.5 0.5
l-12 2t-17 3.5t-14 4t-6 9zM288 16q-3 0 -3 -4t3 -4t3 4t-3 4zM312 16q1 2 -2 2t-2 -2t2 -2t2 2zM296 20h4q1 0 2.5 1.5t1.5 2v1.5v2t-8 -7zM448 76q-3 0 -3 -4t3 -4t3 4t-3 4zM320 80h12v4h-12v-4zM116 132q-3 0 -3 -4t3 -4t3 4t-3 4zM120 352q3 0 3 -4t-3 -4t-3 4t3 4z
M112 388q0 2 3 5t5 3q1 0 2.5 -1.5t1.5 -2.5t0.5 -4.5t0.5 -7.5t0.5 -8t0.5 -5q-8 0 -11.5 7t-2.5 14zM92 404h-4v4zM52 428q-1 0 -2.5 -1.5t-1.5 -2.5t-1 -6.5t-1 -7.5q6 0 9 5t5 9q-1 1 -4 2.5t-4 1.5zM56 440q-3 0 -3 -4t3 -4t3 4t-3 4zM62 473q-2 0 -2 -1l-4 -16
q3 -1 4 -1q4 0 6 2t2 7q0 1 -1.5 4t-2.5 4zM212 460q2 -1 2 -2t-2 -2t-2 2t2 2zM84 472q0 -2 -1.5 -6.5t-2.5 -5.5h3.5t6 1t8.5 3.5t7 6t3 7.5v2l-4 4l-4 4q4 3 10 5.5t12 4.5t12 3t10 1v-2h14q0 6 -4.5 11t-10.5 8.5t-12.5 5.5t-10.5 3l-8 -16q-3 -7 -8.5 -11t-10.5 -7
t-9 -5.5t-4 -6.5v-2q0 -1 2 -4t2 -4zM160 468q-1 -5 2 -7t6 -2q4 0 6 3.5t2 7.5v2q0 1 -1.5 2.5t-2 1.5h-1.5h-3q-2 -1 -5 -4t-3 -4zM92 480q3 0 3 -4t-3 -4t-3 4t3 4zM16 488q0 -2 -2 -2q-1 0 -2 2t2 2q2 0 2 -2zM132 500q-3 0 -3 -4t3 -4t3 4t-3 4zM252 528q-3 0 -3 -4
t3 -4t3 4t-3 4zM412 532q1 2 -2 2t-2 -2t2 -2t2 2zM52 607q6 0 8 5h-8v-5z" />
    <glyph glyph-name="F" unicode="F" horiz-adv-x="575" 
d="M41 4q-1 0 -2.5 1.5t-1.5 2.5q-4 13 -4 26v26v6v10v10v6q3 1 3.5 3.5t0.5 4.5q0 8 -1 17.5t-3 19t-3 19.5t-1 20q0 20 2 40t2 40t-2 39t-2 39q0 11 1.5 22t4 21t4 19.5t1.5 17.5q-2 -3 -3 -2t-2.5 6t-1.5 6v92h6q0 9 -1.5 15.5t-3.5 13.5t-3.5 15t-1.5 18v2l4 56v4
q0 18 -4 35t-4 34t2 34t2 33q0 25 -2 49t-2 49v11v18v17v12q19 3 38 3h38t38 0.5t38 4.5h288q7 1 12 2t9.5 1.5t8.5 0.5h10h8q5 0 12.5 -1t14.5 -1.5t17 -1.5l4 -4v-80l-4 -4q-13 -1 -26 -4.5t-26 -3.5q-11 0 -21 1t-23 3q-8 -3 -13.5 -5t-11.5 -3.5t-12.5 -2.5t-16.5 -1h-5
h-8h-8h-5q-5 6 -13.5 9t-18.5 3.5t-19 0t-17 -0.5q-18 0 -36 -4t-36 -4q-4 0 -7 2t-7 2h-2l-8 -4h-2h-2l-16 4q-1 0 -6.5 0.5t-12.5 1t-14 1.5t-11 1h-2q-11 0 -16 -7t-6 -17v-22v-33v-33v-22v-29v-35.5v-30.5v-15q0 -6 0.5 -15.5t1 -18.5t1.5 -15.5t5 -10.5l88 -4h9h7.5
t6.5 0.5t7 1.5t10 2l188 -4v-88l-132 -8q-7 -3 -11 -3.5t-11 -0.5h-6q-11 1 -27.5 3t-31.5 4t-37 5v18q-3 0 -6 0.5t-5.5 0.5t-4 -2t-1.5 -7q-4 0 -7.5 -3t-3.5 -7q-20 2 -30 -3.5t-10 -26.5v-2q8 -39 8 -78.5v-78.5q0 -63 -3 -125.5t-1 -125.5l-4 -4q-9 -2 -14.5 -3.5
t-11.5 -3t-10 -1.5h-8q-11 0 -21 1t-23 3zM185 452q-1 -2 -2 -2t-2 2t2 2t2 -2zM201 460q-2 1 -2 -2t2 -2t2 2t-2 2zM205 476q-2 1 -2 -2t2 -2t2 2t-2 2zM181 506v-6t4 -4q1 0 2.5 1.5t1.5 2.5q0 2 -3 6t-5 6v-3v-3zM56 589q0 -6 1 -9.5t2.5 -6.5t2.5 -7t1 -12q5 0 9.5 4
t4.5 10q0 8 -6.5 14.5t-14.5 6.5zM45 656q-1 0 -1.5 -1t-0.5 -3t0.5 -3t1.5 -1q2 1 2 4t-2 4zM37 800q-3 0 -3 -4t3 -4t3 4t-3 4z" />
    <glyph glyph-name="G" unicode="G" horiz-adv-x="721" 
d="M329 2q-3 0 -6 -0.5t-6 -3.5l8 -4h-5.5h-6.5h-7h-5.5t-2.5 1t-5 3t-5.5 3t-10.5 3.5t-26 5.5t-34 12q-35 19 -63 47t-50 61t-37.5 70t-25.5 74q-3 18 -6 37.5t-4.5 39.5t-2.5 40t1 39l-4 8v6v12t-0.5 14t-0.5 11q0 54 8.5 109.5t25.5 107t44.5 97t66 79.5t89 53.5
t114.5 19.5q15 0 30 -3t30.5 -6t30.5 -4.5t30 0.5q11 -6 23.5 -13t25.5 -14.5t25 -15.5t22 -17l13 -13l19 -19l19 -19l13 -13q8 -15 16 -31t14.5 -33t11 -34t6.5 -34q-4 -1 -12 -4t-18 -6t-18.5 -6t-11.5 -4l-8 -4q-1 0 -3 -1t-4 -1.5t-5 -1.5q-2 0 -8 1.5t-8 2.5
q-9 28 -21.5 50.5t-30.5 45.5q-3 4 -4.5 8.5t-3 9.5t-3.5 9.5t-5 8.5q-12 15 -29 27.5t-36 21.5t-39 14t-40 5q-54 0 -95 -16t-71 -44.5t-50 -66t-31.5 -81t-16 -90t-4.5 -90.5q0 -28 3 -55t8 -54t9.5 -53.5t7.5 -53.5q16 -34 29 -57.5t30 -41.5t39 -33t54 -32q7 -4 15.5 -6
t17.5 -3.5t17.5 -2t15.5 -0.5q16 0 32.5 2t33.5 5.5t33 8t31 8.5q1 8 8.5 14.5t17.5 13t19.5 13t14.5 15.5l4 8l6 12l6 12l4 8v4q-4 4 -4 5v3q0 1 2 4.5t4 7.5t4 7.5t2 4.5q0 2 1.5 9.5t2.5 16.5t2.5 16.5t1.5 9.5q1 6 4.5 9t8 6t7.5 5.5t3 7.5h-21v44q0 2 -5 3.5t-11 2.5
t-11.5 1.5t-6.5 0.5h-4q-2 0 -8 -1l-12 -2l-12 -2t-8 -1l-12 1h-104q-1 0 -2.5 3t-2.5 6.5l-2 7t-1 4.5v4l6 6l4 4t2 3v1.5v1.5q-1 1 -5.5 2.5t-6.5 1.5v44q0 2 6 3.5t13 2.5t14.5 1.5t10.5 0.5h11t10 -0.5t10.5 -1.5t12.5 -2h200q16 0 16 -16v-108q-1 -1 -2.5 -5.5
t-1.5 -6.5q0 -1 0.5 -3t1.5 -5t1.5 -5.5t0.5 -6.5v-9.5v-10.5v-9v-9v-11.5v-9.5v-6t-0.5 -7t-1.5 -14t-1.5 -14t-0.5 -8t0.5 -11t1.5 -19t1.5 -19t0.5 -11v-6v-10v-13v-10v-9v-12v-11v-6t-0.5 -7l-1 -12t-1.5 -12t-1 -8t-1.5 -5t-2.5 -3h-78v74q-8 0 -16.5 -5.5t-17 -13
t-16.5 -15.5t-16 -12q-40 -24 -84 -32t-90 -8h-7h-10h-10h-7q-2 1 -3 3.5t-2 4.5t-2.5 3t-4.5 1zM321 6l12 4v22h-5t-8.5 -0.5t-7.5 -2t-3 -5.5v-2l16 -8zM173 78q5 3 5 9q-6 0 -9 -5zM497 90q-2 0 -2 -2t2 -2t2 2t-2 2zM605 194h4v4h-4v-4zM641 258q0 -12 -3.5 -17t-8 -9
t-9.5 -9t-7 -17h4q4 0 7 1.5t5 6.5h44q0 2 -1.5 6.5t-2.5 5.5l-4.5 6t-2.5 3.5t-1 2.5q-1 6 1.5 10.5t6 8.5t6.5 7.5t3 9.5h-9q0 5 3 10.5t9 5.5q-6 -1 -14 0t-16 3t-15 4.5t-11 4.5q0 -2 2.5 -6t5.5 -9.5t5.5 -13t2.5 -15.5zM645 226q-2 -5 -8 -5v5h8zM669 298q-3 0 -3 -4
t3 -4t3 4t-3 4zM617 310q-3 0 -3 -4t3 -4t3 4t-3 4zM421 384q0 -3 3 -6t8 -4.5t10 -2.5t7 -1h7t5 4q1 1 1 6h-17v11q-6 0 -12.5 -1.5t-11.5 -3.5v-2zM405 386q0 1 -1 0.5t-2 -1.5t-1.5 -2t0.5 -1q2 -1 3.5 0.5t0.5 3.5zM36 402q0 -3 0.5 -7t4.5 -5v12h-5zM103 458
q-6 0 -12 -3t-10.5 -8t-7 -11t-2.5 -12q2 0 9 2t14.5 5t13 6.5t5.5 6.5t-3 8.5t-7 5.5zM101 446q3 0 3 -4t-3 -4t-3 4t3 4zM121 630h4v4h-4v-4zM393 922h4v4z" />
    <glyph glyph-name="H" unicode="H" horiz-adv-x="702" 
d="M28 480q0 2 -1 8.5t-1.5 13.5t-1 13.5t-0.5 8.5t0.5 8l1 12t1.5 12t1 8v356h112v-388l20 -4h11h21.5h25.5h19q50 0 98.5 2t98.5 2q27 0 53.5 -2t52.5 -2h4h5.5h4.5h2l8 8q-2 32 -3 62.5t-1 60v60.5v63v15v24v28v28v23v16q1 5 6.5 6.5t13 2t14.5 0t12 -0.5h16t15.5 -1
t16 -1.5t18.5 -1.5v-13v-21v-24v-24v-21v-13t0.5 -17.5t1 -31t1 -37.5t1 -37.5t0.5 -31v-17.5q0 -3 -0.5 -11t-1 -17t-1.5 -17t-1 -11v-468q0 -4 -0.5 -15t-1 -24.5t-1.5 -26t-1 -18.5q0 -1 -0.5 -4l-1 -6t-1.5 -6t-1 -4q-9 -1 -16 -1.5t-14 -1.5t-14 -1h-14h-10q-4 0 -9 1
t-10.5 1.5t-12.5 1.5l-4 36v8v15v21q0 11 -0.5 21.5t-0.5 20.5v16q0 64 2.5 128t2.5 128q0 4 0.5 8.5t0 10t-1.5 10.5t-3 9h-12q-47 0 -93 -2t-93 -2q-56 0 -110.5 2t-109.5 2h-2q-1 0 -2.5 -1.5t-1.5 -2.5v-32v-32q0 -4 0.5 -15t1 -25.5t1 -31.5t1 -31.5t0.5 -25.5v-15
q0 -54 -2.5 -110t-5.5 -110q-8 -2 -14.5 -3t-12 -1h-11.5h-14h-5h-6.5h-5.5h-3q-4 0 -9 0.5t-10.5 1t-9 1.5l-3.5 1v476v0z" />
    <glyph glyph-name="I" unicode="I" horiz-adv-x="176" 
d="M25 92q0 85 2 169t2 169q0 118 -2 233.5t-2 232.5v36q5 0 18 1t27.5 1.5t28 1t18.5 0.5h7h5q3 0 4 -4q2 -10 2.5 -18t1 -15t0.5 -14v-17q0 -25 -2 -49.5t-2 -48.5q0 -7 -0.5 -15.5t0 -17t2.5 -16.5t6 -13q6 -7 9.5 -7.5t6 -1t3.5 -3t1 -11.5t-4 -14.5t-9.5 -11.5
t-10 -13.5t-4.5 -19.5q0 -7 1 -12.5t3 -13.5v-74q0 -132 -2.5 -263t-2.5 -263h-103q0 4 -1 15.5t-1.5 24.5t-1 24.5t-0.5 15.5v12z" />
    <glyph glyph-name="J" unicode="J" horiz-adv-x="475" 
d="M25 116v4l4 4q3 2 11.5 8t18.5 12t18 12t12 8q1 1 4 2.5t4 1.5h2q2 0 4.5 -2t4 -5l3 -6t2.5 -3q11 -12 24.5 -24t28.5 -21t32 -14t35 -5q6 0 15 0.5t18 2.5t17.5 5.5t13.5 7.5l10 10t12 11.5t10 10t12 56.5v8.5v18.5t0.5 25t0.5 27v26v21q0 78 -1.5 157t-3.5 158
t-3 157.5t-1 157.5h116v-368q-2 -8 -3 -15t-1 -13.5v-13.5v-14q0 -47 2 -94t2 -94v-11v-15v-16v-10q0 -6 -1.5 -8.5t-4 -4t-5.5 -2.5t-5 -5h14q0 -4 -0.5 -14t-0.5 -22t-0.5 -22t-0.5 -14q0 -8 -2 -21.5t-5.5 -28t-8.5 -26.5t-12 -16q-2 5 -3.5 4t-6.5 -1q0 -1 0.5 -5
t1 -8.5t0.5 -8v-5.5t-6 -8.5t-14 -14t-18 -15.5t-19.5 -15.5t-16.5 -12.5t-10 -6q-10 -4 -23 -4h-23h-6h-9h-9h-6q-6 -1 -7.5 2.5t-1.5 7.5t2.5 6t5 4.5t5.5 5t4 6.5q-8 -3 -13.5 -8.5t-10 -10.5t-10 -9t-13.5 -4q-31 0 -57 10t-48.5 26.5t-42 37t-37.5 42.5zM241 56
q0 -2 4 -4t9 -3t10 -1h7h2q1 0 2.5 1.5t1.5 2v1.5v3t-3.5 4t-8 3t-8.5 1h-5t-5 -3t-6 -5zM305 70q-1 -8 0.5 -11t7.5 -3q3 0 5.5 1t2.5 5v2q-1 2 -5.5 6.5t-6.5 5.5h-2h-2q-1 0 -4.5 -1t-7.5 -2t-7.5 -2t-4.5 -1h24zM373 60q1 2 -2 2t-2 -2t2 -2t2 2zM329 76q-3 0 -3 -4
t3 -4t3 4t-3 4zM349 84q0 -2 2 -3t3.5 -1.5t3.5 0t3 0.5h4h4q-2 1 -8 2.5t-8 1.5h-2h-2zM385 87q4 0 8.5 1t7.5 4q-1 1 -5.5 2.5t-6.5 1.5h-2h-2v-9zM353 126q0 -8 4 -9.5t12 -1.5q2 0 5 0.5t19 24.5q-3 -3 -6 -3.5t-6 -0.5h-4q-1 0 -2.5 2t-3.5 4l-4 4t-3 2h-2t-3.5 -3.5
t-4 -7.5t-1.5 -11zM377 292q0 -1 1.5 -2.5t2 -1.5h1.5h2t1 0.5t-1.5 2t-2 1.5h-1.5h-2h-1zM437 500q-3 0 -3 -4t3 -4t3 4t-3 4z" />
    <glyph glyph-name="K" unicode="K" horiz-adv-x="687" 
d="M23 12v7v7v11q0 7 4 11v212l8 8l-8 4q0 23 -0.5 43.5t-1 40t-1.5 39t-1 41.5v15t0.5 13.5t1.5 14t2 17.5v380q-2 4 -3 9t-1.5 10.5t-0.5 10.5v8q0 2 0.5 5t0.5 5v5.5t4 6.5h108v-336q0 -3 -1 -11t-1.5 -17t-1 -17t-0.5 -11v-2v-2q0 -4 0.5 -13.5t1 -20.5t1.5 -20.5
t1 -13.5h8l28 24v4q6 8 9.5 13t7.5 10.5t7 8.5q3 4 9.5 14t13.5 20t13.5 18t9.5 8h2l4 -4q1 0 3 0.5t3 0.5q0 1 -0.5 4l-1 6t-0.5 5.5v3.5q4 4 10 11.5t18.5 23t24 31.5t21.5 32t18 34q1 2 3.5 4t5.5 4l6 4t5 4l28 36q3 3 12.5 15.5t22 29t26.5 34.5t26 33.5t20 25.5t9 10
q7 2 10.5 2.5t7.5 1t6 0.5h3h5h5h3q5 2 8 4t5 3t3 1q10 -3 12 -4q1 0 4 -2t4 -2q2 -1 8.5 -2t13.5 -2.5t13.5 -2.5t8.5 -1q1 0 2.5 -1.5t1.5 -2.5q0 -4 -5 -11.5t-12 -16.5t-16 -18.5t-17 -18t-14 -15t-8 -8.5l-60 -72q-6 -7 -15 -14.5t-13 -13.5v-4v-4q-2 -4 -9.5 -14
t-17 -22.5t-20.5 -25.5t-20.5 -23.5t-16.5 -17t-8 -5.5q-3 -7 -6.5 -12.5t-6.5 -11t-5 -11.5t-2 -14q0 -9 5 -21.5t14 -27t19 -30t20 -30t18 -26.5t12 -20q14 -28 27 -54.5t29 -53.5q7 -12 13 -25t12.5 -26.5t13.5 -26t17 -22.5q3 -6 9.5 -17.5t14 -26t16.5 -30.5t16.5 -31
t14 -26t9.5 -17t7.5 -11.5t8 -11.5t6 -12t2.5 -13v-2.5t-8.5 -3.5t-26.5 -2h-35h-8h-13h-13h-8q-4 3 -8 8.5t-7.5 11.5t-6.5 12.5t-6 11.5q-54 92 -105 184t-103 184l-20 40q-2 4 -3 8t-2.5 7.5t-4.5 6t-8 2.5h-2q-14 -11 -24 -24.5t-18.5 -28t-17.5 -29t-20 -26.5l-19 -19
t-21 -23t-17 -26t-7 -28q0 -1 0.5 -4.5t1 -7.5t1.5 -7.5t1 -4.5v-4q0 -7 -2 -14t-2 -14q0 -16 2.5 -34.5t5.5 -33.5v-152q0 -3 -4.5 -3.5t-11.5 -0.5q-6 0 -12 -1t-8 -3h-64q-2 0 -4.5 1.5t-5 3.5t-4 4t-2.5 3zM567 48q0 -2 3 -5t5 -3q1 1 2.5 4t1.5 4q-4 4 -4.5 6.5
t-0.5 3.5q-1 0 -2 -1l-1.5 -1.5t-2 -3.5t-1.5 -4zM579 64q1 -2 5.5 -6.5t5.5 -5t2 -0.5h3l4 4l3.5 3.5t0.5 1v1.5q0 2 -2 7t-5.5 10.5t-6.5 9.5t-5 4q0 -8 -2.5 -14t-2.5 -13v-2zM539 96q1 -1 4 -2.5t4 -1.5q4 -1 4 4h-12zM511 100q1 1 4 2.5t4 1.5t4 -1.5t4 -2.5q1 1 2.5 4
t1.5 4v2v2l-2.5 2.5t-17.5 -10.5v-4zM579 140q-3 0 -3 -4t3 -4t3 4t-3 4zM67 144q-3 0 -3 -4t3 -4t3 4t-3 4zM70 162q0 -9 4.5 -13t13.5 -4q0 8 -5.5 12.5t-12.5 4.5zM543 156q-3 0 -3 -4t3 -4t3 4t-3 4zM511 168l3.5 3.5t0.5 1.5v3.5t-4 5t-8 2.5q-2 0 -4.5 -0.5t-3.5 -3.5
zM39 182v-2q1 -1 5.5 -2.5t6.5 -1.5v13q-3 0 -7.5 -1.5t-4.5 -5.5zM519 208q-2 -2 -5.5 -5t-3.5 -7h21zM531 228q-3 0 -3 -4t3 -4t3 4t-3 4zM47 272q1 2 -2 2t-2 -2t2 -2t2 2zM425 296h-2q-3 -2 -6 -5t-3 -7h5q2 1 6.5 2.5t5 1.5t0.5 0.5v1.5q0 2 -1.5 4t-4.5 2zM123 292
q-3 0 -3 -4t3 -4t3 4t-3 4zM435 320q-2 0 -3 -2t-1.5 -4t-0.5 -4v-3q1 0 3.5 0.5t4.5 1t3.5 2t1.5 3.5v2q-1 1 -4 2.5t-4 1.5zM95 312h4v4h-4v-4zM107 328q-3 0 -3 -4t3 -4t3 4t-3 4zM99 328h4l-4 8v-8zM107 348q-2 1 -2 -2t2 -2t2 2t-2 2zM359 454q0 -2 1 -5t2.5 -6l3 -6
t1.5 -5l12 12q-1 2 -4 4t-6.5 3.5t-6 3t-3.5 1.5v-2zM239 464h4v4h-4v-4zM111 540h4v4h-4v-4zM103 544q0 2 -2 2t-2 -2t2 -2t2 2zM101 597q0 -1 2 -6t5 -10t6 -9t5.5 -4t3 4t0.5 8q0 10 -6.5 13.5t-15.5 3.5zM259 576q-3 0 -3 -4t3 -4t3 4t-3 4zM69 605q0 -6 1 -11.5t3 -10
t6.5 -7.5t11.5 -3q0 6 -1 11.5t-3.5 10.5t-7 7.5t-10.5 2.5zM103 608q-3 0 -3 -4t3 -4t3 4t-3 4zM368 641q-5 0 -9.5 -4.5t-4.5 -9.5q8 0 11 3t3 11zM327 644q-3 0 -3 -4t3 -4t3 4t-3 4zM335 647q6 0 8 5h-8v-5zM355 656q-3 0 -3 -4t3 -4t3 4t-3 4zM93 776h-2
q-1 0 -2.5 -1.5t-1.5 -2.5l8 4h-2zM447 784q1 0 4 -0.5l6 -1t6 -1.5t4 -1q4 -2 6 -4t3.5 -3t2.5 -1t5.5 1.5t6.5 2.5q1 2 1 3.5t-6.5 4t-14 4.5t-15 3.5t-9.5 1.5v-9zM430 805q0 -4 2.5 -7.5t6.5 -5.5l4 4q-2 4 -5.5 6.5t-7.5 2.5z" />
    <glyph glyph-name="L" unicode="L" horiz-adv-x="585" 
d="M35 242q5 0 7.5 -2t4.5 -5t5 -5t9 -2q5 0 8.5 2t7.5 2q12 0 14.5 -10.5t2.5 -19.5h13q10 0 18 -4.5t10 -17.5v-64q0 -2 1.5 -7t2.5 -7l100 2q6 0 7 -2.5t1 -5.5t0.5 -5.5t5.5 -2.5q3 0 5 2t7 2q0 -1 -2 -3.5t-8 -8.5q4 0 4 -5v-3q-11 -6 -14 -7.5t-3 -2.5h1v-2l8 -8h2
q15 0 21 13.5t6 27.5q0 3 -0.5 6t-0.5 5q4 0 18 2t18 2h46h72h46q1 0 6.5 0.5t11.5 1.5t11.5 1.5t6.5 0.5h4q11 0 24.5 -4t23.5 -4v-33q-3 1 -8.5 3.5t-11.5 5.5v-4q0 -6 3.5 -9t8 -5t8 -5t3.5 -8q-7 0 -11 -5q8 -8 8 -16q0 -7 -16 -9.5t-28 -2.5h-280q0 4 -3 7q-2 1 -3 1
h-2q-3 -2 -13 -7t-15 -5h-28h-28q-12 0 -21 -6t-21 -6h-3.5t-5.5 0.5t-12 2.5t-22 6q-6 1 -10.5 2t-8.5 3t-7 8t-5 18v202zM151 40h8q0 4 -5 4q-3 0 -3 -4zM224 57q-15 0 -15 -14q5 0 10 4t5 10zM71 68q2 -3 4.5 -11.5t5.5 -8.5h2q1 1 2.5 4t1.5 4q-1 13 -12 13
q-1 0 -1 -0.5t-1 -0.5h-2zM127 66q2 -3 5 -6q6 -6 8 -6t2.5 4t0.5 16q-3 0 -9.5 -1.5t-6.5 -6.5zM107 64q-7 0 -8 -4h4q1 0 4 1.5t4 2.5h-4zM187 60h4v4h-4v-4zM99 95q0 -7 0.5 -12t3.5 -11h4q1 1 2.5 4t1.5 4q0 6 -3 10.5t-9 4.5zM299 76l4 4h-4v-4zM239 84q-3 0 -3 -4
t3 -4t3 4t-3 4zM271 80l-2 -2q-2 0 -2 3q1 1 2 1l2 -1v-1zM139 96q-3 0 -3 -4t3 -4t3 4t-3 4zM71 96q0 2 -4 2t-4 -2q2 -2 4 -2t4 2zM103 104q0 2 -2 2t-2 -2t2 -2t2 2zM55 112q-3 0 -3 -4t3 -4t3 4t-3 4zM95 112q-3 0 -3 -4t3 -4t3 4t-3 4zM75 112v4h-4zM67 140
q8 -12 14 -20t8 -8h2q4 5 4 8v4l-4 8q-8 9 -8 12q0 1 1.5 4t2.5 4q-11 -5 -20 -12zM79 156q0 2 -2 2t-2 -2t2 -2t2 2zM119 164q-2 0 -2 -4t2 -4q2 2 2 4t-2 4zM71 196q-3 0 -3 -4t3 -4t3 4t-3 4zM98 236q0 9 13 16q-1 2 -5.5 6.5t-6.5 5.5q-5 -2 -5.5 -1.5t-0.5 -4.5
q0 -14 -3.5 -18t-20.5 -4l-26 12h-4q-1 1 -2.5 2t-1.5 2v212q8 8 8 10t-3 4t-5 2q0 3 -0.5 10.5t-1.5 15.5t-1.5 15.5t-0.5 10.5v22v22q0 12 -6.5 17.5t-6.5 16.5q0 12 5.5 18t7.5 20q0 3 0.5 13.5t1.5 23t1.5 25t0.5 18.5v14q0 38 -2 74.5t-2 73.5v40v6q4 4 6 4h14
q22 0 43 -1t45 -3v-96q-1 -1 -2.5 -4t-1.5 -4v-4q0 -4 4 -4v-436q0 -2 -3 -6t-5 -6l8 -4v-160q0 -9 -8 -9h-3l-29 29q-1 2 -1 4zM123 320q-3 0 -3 -4t3 -4t3 4t-3 4zM75 396h9q0 8 -7 8q-2 0 -2 -8zM75 424q0 2 -2 2t-2 -2t2 -2t2 2zM71 820q-2 0 -2 -2t2 -2t2 2t-2 2z
M51 824q-2 0 -2 -2t2 -2t2 2t-2 2z" />
    <glyph glyph-name="M" unicode="M" horiz-adv-x="840" 
d="M388 6q-3 4 -4 6q-7 12 -10.5 26.5t-6.5 29t-7 27.5t-12 25l-40 132q-8 13 -13 29.5t-9 34.5t-8 35.5t-10 32.5q2 5 -2 17t-9 25.5t-10.5 25t-6.5 16.5q-1 2 -3 12t-4.5 22t-5 22t-3.5 12q0 1 -1 3.5t-2.5 5t-3 4.5t-1.5 3l-28 104v16h14q0 3 -4 7t-9 8.5t-10 10t-7 10.5
q-6 20 -10.5 36t-8.5 30.5t-9 29t-12 32.5l-4 -36v-596q0 -1 -0.5 -3.5t-1 -6t-1.5 -6.5t-1 -4t-1.5 -2.5t-2.5 -1.5l8 -8l4 -80v-6v-6q0 -4 -0.5 -14t-1 -22t-1.5 -22t-1 -14q-6 -3 -14.5 -4t-17.5 -1h-16.5h-11.5h-8q-4 0 -8.5 0.5t-11.5 0.5l-4 16v21.5v33.5v39v39v33.5
v21.5q0 11 -1.5 25.5t-3 30.5t-2.5 31.5t-1 28.5q0 1 1.5 4t2.5 4q1 13 1.5 24.5t1.5 21.5t1 20.5v22.5q0 19 -4 37t-4 36q0 1 -0.5 3.5t0 4.5t1.5 4t3 2l4 36v216l8 4l-8 4q-2 10 -2.5 16t-1 13t-0.5 11v10v18q0 11 -0.5 21t-0.5 16q0 4 0.5 11t0.5 14v11.5v6.5l4 8
q12 2 20.5 2.5l17 1t14.5 0.5h7h14.5h16.5h14h10h16h16h10q3 -2 5 -5.5t3 -6.5q1 -4 3.5 -11t5.5 -16.5t6 -19.5t5.5 -19t4.5 -16t3 -10q0 -1 1 -4t1.5 -6l1 -6t0.5 -4q2 -7 6.5 -20.5t10 -31t11.5 -36.5t11.5 -36.5t10 -31.5t6.5 -20q5 -16 8 -34t8 -34l10 -20t8 -16.5
t7 -14t4 -6.5t3.5 -2t5.5 -3t4.5 -4t1.5 -6q0 -1 -1 -3t-3 -5t-3 -5.5t-1 -5v-3.5v-3.5t3.5 -18.5t13 -48.5t19.5 -63.5q5 -14 11 -29t12 -31t10 -32t4 -31q-1 0 -4.5 -0.5t-4.5 -0.5t-2.5 -1.5t-1.5 -2.5l8 -20h5q0 7 2 9t4.5 3.5t6 4.5t6.5 11q1 3 5 14.5t8.5 24.5t8.5 26
t6 19q3 9 6 16.5t6 14.5t5 15t3 18l8 4q-2 12 0 28t6.5 33.5t10.5 36t12 36.5t11.5 35t7.5 31q2 1 5.5 8t7.5 17.5t7.5 22.5t7 23t6 20t2.5 13v4v6v6v4q3 11 10 21.5t10 22.5q1 6 5.5 22.5t10 38t12 44.5t12.5 42.5t11.5 33t8.5 15.5q4 0 14 0.5t22 1t22 1.5t14 1q1 0 5.5 1
t10 1.5t10.5 1t6 0.5l6 -1.5t4 -1.5t10 -1q4 0 9 -1t10 -1.5t13 -1.5l4 -4v-240l-4 -4l-3.5 -3.5t-0.5 -1.5v-3l4 -4l4 -4v-124q-3 -7 -4 -8q-4 -4 -4 -5v-3l4 -4l4 -4v-22v-34v-34v-22v-30v-36v-31v-15t-0.5 -10t-1.5 -18t-1.5 -18t-0.5 -10q0 -1 0.5 -5t1 -9t1.5 -9t1 -5
v-5.5v-6.5v-7.5t-0.5 -6.5t-1.5 -4t-1.5 -4t-0.5 -3t1.5 -5.5t2.5 -5.5v-136l-8 -4l4 -8h-84l-4 4q-2 16 -2.5 27t-1 22.5t-0.5 18.5v33.5v50.5v60v60v50.5v33.5q-6 5 -7 9t-1 11q0 14 2 28t4 29t4 29.5t2 29.5q0 4 -0.5 17t-1 29t-1.5 29t-1 17v2v2q0 1 1 5t1.5 9t1 9
t0.5 5v8.5v13.5v13.5v8.5l12 12q-6 2 -9 12t-4 24t-1.5 30t0 31.5t0 29t-1.5 21.5l-16 -16q1 -1 2.5 -4t1.5 -4v-2q0 -6 -2 -9.5t-5 -7t-5.5 -6.5t-3.5 -7q-2 -8 -2.5 -18t-2.5 -19t-7 -16.5t-16 -10.5q9 3 10.5 -1t1.5 -8q0 -6 -2 -12.5t-5 -12.5t-5.5 -11.5t-3.5 -10.5v-4
v-6v-6v-4q-1 -7 -5 -15.5t-8 -16.5t-6.5 -16.5t-0.5 -15.5l-24 -88q-1 -1 -2.5 -4t-1.5 -4q-1 -2 -2 -8.5t-2.5 -13.5t-2.5 -13.5t-1 -8.5q-4 -2 -8 -12.5t-8 -23.5l-8 -26t-8 -18q-3 -2 -4.5 -3.5t-2.5 -3t-1 -2v-3.5v-6v-6v-4q-7 -39 -18.5 -76.5t-21.5 -75.5
q-4 -13 -9 -25.5t-11 -25t-11 -25t-9 -24.5q-1 -4 -2.5 -16.5t-4 -26t-7.5 -23.5t-14 -10q-4 0 -6.5 1t-5.5 5h-52zM416 16q1 2 -2 2t-2 -2t2 -2t2 2zM472 56q1 2 -2 2t-2 -2t2 -2t2 2zM428 82q0 -5 2 -8t8 -3q0 2 -1 8.5t-1 8.5q0 1 -1.5 2.5t-2.5 1.5q-4 -1 -4 -4v-6z
M400 144q-5 -3 -5 -9q6 0 9 5zM396 160l-4 -4l-3.5 -3.5t-0.5 -1.5v-2t2.5 -1t4.5 2t2 6q0 1 -0.5 2.5zM376 168h4v4zM95 205q0 -1 1 -5t2.5 -7.5t3.5 -6t4 -2.5h2q1 0 2.5 1.5t1.5 2v1.5v3q-3 4 -7.5 8.5t-9.5 4.5zM72 192q-3 0 -3 -4t3 -4t3 4t-3 4zM784 244
q-3 0 -7.5 -1.5t-4.5 -2.5v-44q0 -1 1.5 -2t2.5 -2h2h2l5 2.5t3 21.5l8 4q-6 -2 -7 2t-1 8.5v9.5q0 4 -4 4zM796 236q-3 0 -3 -4t3 -4t3 4t-3 4zM488 268q-3 0 -3 -4t3 -4t3 4t-3 4zM766 318q0 -4 3 -6.5t6.5 -3.5t7 -1h6.5q0 5 -2.5 7t-5.5 3t-7 1h-8zM760 346v-2
q0 -1 1.5 -2.5t2 -1.5h1.5h2t-7 8v-2zM560 360q-3 0 -3 -4t3 -4t3 4t-3 4zM72 400q1 -1 4 -2.5t4 -1.5t4 4t4 4h4h8h7h5q-1 2 -4 4t-6.5 4t-6.5 3t-5 1h-2q-1 -1 -3.5 -3t-5 -4.5t-4.5 -5t-3 -3.5zM52 399q6 0 8 5h-8v-5zM316 408q0 -1 1.5 -2.5t2.5 -1.5q0 1 1 4t1.5 6l1 6
t0.5 4v2v2q-4 -2 -6 -8t-2 -10v-2zM308 416q-3 0 -3 -4t3 -4t3 4t-3 4zM300 416h4l-4 4v-4zM112 424q-3 0 -3 -4t3 -4t3 4t-3 4zM104 436q-2 1 -2 -2t2 -2t2 2t-2 2zM284 440q-3 0 -3 -4t3 -4t3 4t-3 4zM100 564q-3 0 -3 -4t3 -4t3 4t-3 4zM72 580h6q0 7 4 13.5t10 10.5h-24
zM252 594v-2q0 -1 1.5 -2.5t2.5 -1.5v4q0 1 -1.5 2.5t-2.5 1.5v-2zM232 602v-2q0 -1 1.5 -2.5t2.5 -1.5h2h2q1 0 4 1.5t4 2.5q0 1 -0.5 4.5t-1.5 7t-3 6t-5 2.5h-2q-1 0 -2.5 -2t-1.5 -2.5t2 -3.5t2 -4q-4 -4 -4 -5v-1zM628 600q-3 0 -3 -4t3 -4t3 4t-3 4zM228 620l4 4h-4
v-4zM264 644q1 2 -2 2t-2 -2t2 -2t2 2zM788 668q0 2 -2 2t-2 -2t2 -2t2 2zM656 676q-3 0 -3 -4t3 -4t3 4t-3 4zM120 704q0 2 -2 2t-2 -2t2 -2t2 2zM764 732q-1 0 -1.5 -1t-0.5 -3t0.5 -3t1.5 -1q2 1 2 4t-2 4zM110 748h-2q-1 0 -2.5 -1.5t-1.5 -2v-1.5v-2t8 7h-2zM232 748
q-3 0 -3 -4t3 -4t3 4t-3 4zM668 808q0 -10 2 -14t10 -4q1 0 4 1t4 1q-2 6 -7 11.5t-9 8.5q-1 0 -2.5 -1.5t-1.5 -2.5zM60 872q-3 0 -3 -4t3 -4t3 4t-3 4z" />
    <glyph glyph-name="N" unicode="N" horiz-adv-x="698" 
d="M28 -1q1 43 -1.5 82.5t-2.5 81.5v8q0 3 0.5 10.5t1 15.5t1.5 15.5t1 10.5v19v29v34v34v29v19q0 110 -2 219t-2 218v23v27v23v10l8 8h144q3 0 9.5 -10t15 -26t18 -34.5t19 -36t17.5 -31t13 -18.5l2 -1t4 -1.5l4 -1l2 -0.5q2 -2 7 -6.5t5 -5.5v-5v-9v-9v-5
q4 -13 13.5 -30.5t21 -35.5l23 -36t18.5 -30l32 -54l32 -54t28 -56t28 -56q3 -6 9.5 -16t12.5 -20t11.5 -18t6.5 -10q3 -5 4.5 -8.5t3.5 -7t3.5 -7.5t4.5 -9q2 -4 5.5 -9t6.5 -10.5t8 -12.5h8v456q-1 11 -1.5 20.5t-1.5 18.5t-1 18v19q0 38 2.5 74t2.5 74h94v-17v-26.5
v-30.5t0.5 -30.5t0.5 -26v-17.5q0 -2 0.5 -11.5t1.5 -20.5t1.5 -20.5t0.5 -11.5v-23v-34.5t-0.5 -41t-0.5 -40.5t-0.5 -34.5t-0.5 -22.5v-24q0 -6 -0.5 -18t-0.5 -27.5t-0.5 -32.5t-0.5 -32.5v-27.5v-18q0 -2 0.5 -11t1 -19t1.5 -19t1 -11v-20q0 -61 -2.5 -121.5
t-1.5 -122.5l-4 -4h-80q-2 0 -6.5 7t-11 17.5t-13.5 23t-13 24t-10.5 19t-5.5 9.5q-3 6 -10.5 18t-16.5 27.5t-19 32.5t-19 32.5t-16 27.5t-11 18q-1 1 -4 3t-5.5 4.5t-3.5 6t1 6.5l-48 92q-1 0 -2.5 1.5t-1.5 2.5q-63 101 -120.5 206t-115.5 210l-4 4l-4 -4v-5.5
t-0.5 -10.5t-0.5 -12v-10v-19t0.5 -23t1.5 -23.5t3 -20.5q0 -6 -0.5 -19.5t-1 -30.5t-1 -35.5t-1 -35.5t-0.5 -31v-20v-39v-58v-71v-76v-77v-70v-58v-39q-4 -4 -10.5 -4.5t-15.5 -1t-18.5 -1.5t-15.5 -1h-3h-6h-6h-4h-8h-5l-4 4v0z" />
    <glyph glyph-name="O" unicode="O" 
d="M109 140q8 -1 12 -0.5t6.5 2t1.5 6.5q0 -1 1.5 -2.5t2 -1.5h1.5h2t6 4.5t10 10.5t9 12t4 9q0 4 -1 6t-7 2q-1 0 -4 -1.5t-4 -2.5q0 1 -1 4.5t-1.5 7.5t-1 7.5t-0.5 4.5v2q0 3 1.5 5t3 3.5t3 3.5t1.5 6q0 11 -7.5 15t-17 4.5t-16.5 0.5q-8 0 -8 4v36q0 1 -3 2.5t-5 1.5
q-10 2 -12.5 4.5t-3 4.5t-1 3t-7.5 1q-6 0 -8 -2.5t-3 -5.5t-3 -6.5t-6 -6.5q-4 2 -7 11.5t-5.5 22t-4 27.5t-2.5 27.5t-1.5 21.5t-0.5 10h17v8q-11 -1 -16 6t-7 17t-1.5 21t0.5 17q0 37 4 73t4 72q0 11 -2 18t-2 17q0 6 2.5 8t6 3.5t6.5 4.5t5 11q1 5 0 11t-0.5 11.5
t2.5 10.5t10 7q22 51 53 92.5t70.5 71t88 45t106.5 15.5q68 0 118.5 -16t89.5 -48t67.5 -78t50.5 -106q2 -6 6 -10.5l8 -9t7 -9.5t3 -11q0 -5 -2 -8.5t-2 -9.5q0 -26 4 -52t4 -52v-7v-10v-10v-7q-1 0 -4 -0.5t-6 -1.5t-6 -2.5t-4 -3.5q8 0 12.5 -2t7 -6t3.5 -9t1 -11
q0 -5 -1.5 -8t-3.5 -5.5l-4 -5t-3 -5.5q0 -1 2 -4t2 -4t-1.5 -2.5t-2.5 -1.5q8 -4 8 -8v-6q0 -16 -3 -32.5t-5 -33.5q-11 -77 -36.5 -141t-69.5 -110t-107 -71.5t-149 -25.5q-36 0 -69 8t-62.5 23t-56 37t-50.5 48q-1 1 -3.5 4.5t-5 7.5t-4.5 7t-3 5zM529 68h4l-4 4v-4z
M505 90q0 -4 1 -7.5t6 -3.5q0 1 0.5 4.5t0.5 4.5t2 4t2 4q-3 4 -3.5 4h-1.5h-3t-3 -3.5t-1 -6.5zM303 120q7 0 12.5 -4t10 -9t10 -9.5t13.5 -5.5q1 0 5.5 -0.5t10.5 -1t11.5 -1.5t8.5 -1h2q10 0 27 3.5t35.5 9t35 11.5t24.5 12q25 17 44.5 40.5t33 50.5t22.5 57t14.5 61
t7.5 61.5t2 57.5q0 48 -4 97.5t-15.5 95.5t-32 86t-52 69t-76 44.5t-104.5 11.5q-4 3 -8 4t-9 1q0 -6 5 -9h-3h-3h-6t-4 4q1 -5 -1.5 -6.5t-6.5 -2t-8 0t-8.5 -0.5t-16 -8t-23.5 -16.5t-24 -20.5t-22 -21.5t-17 -20.5t-9 -16q-4 -14 -9 -29t-11 -29.5t-13 -28.5t-11 -19.5
t-4 -6.5v-2t0.5 -2.5t1.5 -2.5t1.5 -3t0.5 -5q0 -16 -2 -32t-4 -32.5l-4 -33t-2 -32.5q0 -46 3.5 -89t13.5 -83.5t28 -79t47 -74.5q4 -6 11 -14.5t15 -16.5t17 -13t17 -4q5 2 8 4t5 3t3 1h6zM529 92q1 -4 5 -4.5t7 -0.5v5h-12zM577 92q-3 0 -3 -4t3 -4t3 4t-3 4zM149 108h4
v12h-4v-12zM637 140q-1 0 -2.5 -1.5t-1.5 -2.5h12q-1 1 -4 2.5t-4 1.5zM589 152q-2 1 -2 -2t2 -2t2 2t-2 2zM52 273q3 0 9 -3t12.5 -6.5t12 -7t7.5 -4.5v-4v-4q0 -4 -1 -6l-2 -4t-2.5 -4t-1.5 -5q1 0 2 -0.5t1.5 -0.5t3.5 1.5t4 2.5q-1 -2 -1 -6t1.5 -7t3.5 -5t6 -2h2l12 8
q8 1 8 0.5t-0.5 -3.5t-1 -6.5t-1.5 -6.5t-1 -4q-4 -3 -6 -4t-4 -2.5t-2 -2v-2t1 -4t1.5 -4t0.5 -2.5q1 0 1 0.5t0.5 0.5t2 -1.5t1.5 -2.5q-3 -4 -8 -8.5t-6.5 -6t-2.5 -1.5h-3.5t-8 7t-11.5 18t-11 25t-9 27t-6.5 23.5t-2.5 16.5zM129 168h4q1 0 2.5 -1.5t1.5 -2.5h-8v4z
M133 188q3 0 3 -4t-3 -4t-3 4t3 4zM609 200q0 -1 1.5 -2t2 -1.5t1.5 -0.5h4.5t8.5 5t5 12q-3 0 -7 -0.5t-7.5 -1.5t-6 -4t-2.5 -7zM89 220q-3 0 -3 -4t3 -4t3 4t-3 4zM637 232q0 -1 1.5 -2.5t2 -1.5h1.5h3q1 0 2.5 1.5t1.5 2.5t-1.5 2.5t-2.5 1.5t-4 -1.5t-4 -2.5zM681 275
q4 0 8.5 4.5t4.5 8.5h-13v-13zM89 288q3 0 3 -4t-3 -4t-3 4t3 4zM89 300q3 0 3 -4t-3 -4t-3 4t3 4zM685 356q0 2 -2 2t-2 -2t2 -2t2 2zM37 392h12v4zM705 420h4l-4 4v-4zM76 440q0 -9 6.5 -11t14.5 -2v13l-20 8q0 -1 -0.5 -4t-0.5 -4zM701 452q-3 0 -3 -4t3 -4t3 4t-3 4z
M711 474q-4 0 -8 -0.5t-7.5 -2.5t-5.5 -5t-2 -7q3 0 7 1t7.5 3t6 5t2.5 6zM693 521q-6 0 -8 -5h8v5zM641 708q2 -4 6 -6t9.5 -2.5t10.5 -0.5h9q0 3 -1 7.5t-3.5 8.5t-5.5 6.5t-7 2.5h-2q-1 0 -4 -1.5t-4 -2.5q5 -1 6.5 -1.5t1.5 -1.5t-1 -2t-1 -4q-3 0 -4.5 0.5t-2.5 0.5
t-2.5 -1zM605 738q0 -4 2.5 -5t5.5 -1q6 0 13.5 3t10.5 9q-1 0 -4 1.5t-4 2.5q-2 3 -3.5 4.5t-3 2.5t-3.5 1.5t-5.5 -1t-5 -4.5t-2.5 -6.5t-1 -6.5zM175 784q0 -22 2 -21.5t4 1.5l4 8v2v2q0 2 -1.5 6l-3 8t-4 7t-5.5 3q-2 0 -6 -1t-7.5 -3t-6 -4.5t-2.5 -5.5v-2l16 -12
q2 3 3.5 5.5t3 4.5t3.5 2zM596 775q0 -4 3 -5.5t6 -1.5t5.5 1t4.5 2.5t4.5 2.5t5.5 1v-3h6q0 1 -1 6t-1 6t-1.5 2.5t-2.5 1.5t-4 -1.5t-4 -2.5q0 1 -1.5 4t-2.5 4q-2 2 -2 -3t-2.5 -9.5t-12.5 -4.5zM593 780l8 4h-8v-4zM161 792q3 0 3 -4t-3 -4t-3 4t3 4zM569 808
q1 -6 3.5 -11.5t9.5 -5.5q0 2 -1 5t-2.5 5.5t-3.5 4.5t-4 2h-2zM173 816q-3 0 -3 -4t3 -4t3 4t-3 4zM169 820q-3 0 -3 -4t3 -4t3 4t-3 4zM197 820q-3 0 -3 -4t3 -4t3 4t-3 4zM545 832q0 -1 1 -4t2 -5.5t3 -4.5t4 -2t2 0.5t-1 3.5t-2 5.5t-3 4.5t-4 2h-2zM201 828q-3 0 -3 -4
t3 -4t3 4t-3 4zM213 822q8 0 11 3.5t4.5 7t3.5 6t9 1.5l-4 4h-32v-8h8v-14zM537 836h4v4zM257 848q-2 0 -2 -2t2 -2t2 2t-2 2zM529 860q2 -5 8 -5v10q-6 0 -8 -5zM437 868h4v8h-4v-8zM273 892q-3 -3 -8 -9t-5 -12h8q4 0 8 0.5t7 3.5t3 7q0 5 -2.5 8.5t-10.5 1.5zM473 884
q0 1 -1 1.5t-3 0.5t-3 -0.5t-1 -1.5q1 -2 4 -2t4 2z" />
    <glyph glyph-name="P" unicode="P" horiz-adv-x="649" 
d="M25 90q0 13 2.5 29t5.5 29h2q5 0 12 -3.5t14.5 -8.5t13 -10.5t6.5 -9.5q32 4 32.5 4.5t0.5 1.5q0 3 -2.5 6.5t-6.5 6.5t-8 5.5t-8 3.5q2 2 5 6t3 6q0 3 -4 4t-7 1.5t-3 2t-1.5 8t-4 12.5t-5.5 11t-7 5q-1 0 -5.5 -1.5t-6.5 -2.5l-4 -4l-12 -8l-4 4q-2 14 -2.5 24l-1 20
t-0.5 16q0 2 0.5 8.5t1 13.5t1.5 13.5t1 8.5q7 6 9.5 10.5t2.5 11.5v3v3l-12 -12v123q17 0 27 4t15 12t6.5 20t1.5 27q-4 0 -9 -1.5t-10 -5t-8 -8t-3 -9.5v-2q1 -1 4 -2.5t4 -1.5q-1 -3 -2.5 -7t-4 -8t-6 -6.5t-7.5 -2.5q-2 0 -4.5 0.5t-3.5 3.5q-2 17 -3 31t-1 27v27v30
q0 12 1 25.5t2.5 26.5t3 25.5t1.5 23.5q0 1 -2 4t-2 4q0 2 -1 7.5t-1.5 11t-1 10.5t-0.5 7t0.5 9t1.5 15t1.5 15t0.5 9v10t-0.5 18t-1 22t-1 22t-1 18t-0.5 10v30v30q2 2 6 5t6 3h336q8 -2 16 -2.5l16 -1t16 -1.5t16 -3q27 -7 51.5 -18.5t46 -28t38.5 -38t28 -47.5
q0 -1 1 -3t1.5 -4.5l1 -5t0.5 -3.5q2 -10 4.5 -19.5l5 -19t4.5 -20t2 -22.5q0 -13 0.5 -26t-0.5 -26.5t-3.5 -26t-8.5 -24.5h-4q-1 0 -2.5 1.5t-1.5 2.5l-4 -4l4 -8l4 -8v-2v-2q-8 -18 -16 -30t-17 -22.5t-20.5 -19.5t-26.5 -20q-10 -7 -18.5 -12.5t-17 -10.5t-18.5 -8
t-22 -5v4l12 12q0 1 -0.5 1.5t-1 0.5t-4 0.5l-7 1t-7 0.5h-4.5t-2.5 -1.5t-1.5 -2.5l4 -4q-1 -2 -8 -7t-15 -10.5t-15.5 -10t-9.5 -4.5h-100q-3 -2 -13 -4t-21.5 -3t-22 -2.5t-15.5 -2.5h-2q-4 0 -7 2t-7 2h-4q-1 0 -4 -2t-4 -2q-5 0 -11 1.5l-12 3t-12 2.5t-12 1
q-4 1 -6.5 0.5t-4.5 -1.5t-2 -3v-104q1 -1 2.5 -5.5t1.5 -6.5v-2q0 -20 -2 -44t-6 -46h-4h-4q-4 0 -9 0.5t-10 2t-9.5 4t-7.5 5.5v-3v-3q0 -3 0.5 -7.5t2 -8.5t3.5 -7t6 -3t6 2l4 4l4 4t6 2q7 0 9.5 -2.5t3 -7t1 -9.5t2.5 -9v-140q0 -2 -0.5 -6t-1.5 -7t-3.5 -5t-6.5 -2h-88
q-2 0 -3 2.5t-1 6v7v4.5l-4 68v2zM61 116q1 -5 4 -8t8 -4v4q0 8 -8 8h-2.5h-1.5zM33 172q0 1 1.5 2.5t2 1.5h1.5h1.5h1.5q1 -1 2.5 -4t1.5 -4t-1.5 -2.5t-2.5 -1.5zM49 168q3 0 3 -4t-3 -4t-3 4t3 4zM57 178q0 2 0.5 2t3.5 -1.5t3.5 -2t0.5 -1.5v-2t-0.5 -1t-3.5 1.5t-3.5 2
t-0.5 1.5v1zM61 316q-3 0 -3 -4t3 -4t3 4t-3 4zM75 344q-3 0 -6 -3.5t-5 -8t-3.5 -9.5t-1.5 -7h-6q1 1 4 2.5t4 1.5h2q2 0 3.5 -0.5t3 -1.5t3.5 -1.5t6 -0.5t9 0.5t9.5 2t9 3.5t6.5 6q0 2 -3 5t-5 3q-4 -1 -6 -2t-4 -1.5t-4.5 -0.5t-6.5 5t-5.5 6t-2.5 1h-1zM93 380
q-3 0 -3 -4t3 -4t3 4t-3 4zM73 380h10q0 4 -3.5 6t-6.5 2v-8zM97 388q-3 0 -3 -4t3 -4t3 4t-3 4zM69 400l4 4h-8zM41 424q-3 0 -3 -4t3 -4t3 4t-3 4zM277 452q8 -10 13.5 -15.5t11 -9t13 -4.5t18.5 -1q0 7 -1.5 13t-1.5 13q11 0 11.5 3t1 6.5t1.5 7.5t1 7v4q0 6 -5.5 10
t-10.5 6q0 1 1.5 2.5t2.5 1.5t4 1t6 1.5l6 1t4 0.5h6h10h10h6q14 2 31 8t32.5 15t28.5 20.5t20 24.5q4 7 7.5 17.5l7 21l6.5 19.5t7 14v52q1 0 2.5 1t3.5 2.5t4 2.5t2 2q1 1 -1 4t-2 4h10q0 -4 -0.5 -8t0 -8t3.5 -6t10 -2h2.5t3.5 2l4 4l4 4t5 4.5t8.5 6.5t9.5 9t6 11.5
t2 15.5q-8 0 -10.5 -3.5t-3.5 -8t-3 -8.5t-10 -4q0 1 -1.5 3.5t-0.5 3.5q0 1 3.5 2t4 1.5t0.5 1v1.5v2q-4 8 -4 9v1.5v1.5q3 4 6 6.5t8 2.5q0 4 -2.5 7.5t-6 6.5t-8 4t-8.5 1t-10 -2t-12 -5.5t-10.5 -8t-4.5 -8.5q0 -2 1.5 -8t2.5 -8q11 10 24 12l4 -8l4 -8q-1 -4 -32 -4
l-4 -4q0 -1 -1.5 -4t-2 -3.5t-1.5 -0.5h-1.5h-1.5l-32 64q-4 9 -17 17t-28 14.5t-30 11t-25 5.5q-2 0 -11.5 1t-21.5 2.5t-24 2.5t-19 2h-2h-2l-64 -4h-4h-4q-1 0 -6.5 1t-11.5 1.5t-11.5 1t-6.5 0.5q-6 0 -15 -0.5l-18 -1t-15.5 -1.5t-7.5 -1q-8 -4 -8.5 -10t-1 -15
t-0.5 -21t-0.5 -24t-1 -23t-0.5 -19v-17v-15q0 -2 1 -10t1.5 -18t1 -18t0.5 -10q0 -1 -0.5 -6t-1.5 -10.5t-1.5 -10t-0.5 -5.5v-3v-6v-7v-6v-18.5t0.5 -17t1.5 -17.5t2 -21q6 -3 9.5 -3.5t9.5 -0.5h9l84 4h2h2q4 0 13.5 -0.5t20.5 -1t20.5 -1.5t13.5 -1q0 -1 0.5 -4t1.5 -6
t2.5 -6t3.5 -4q-2 -4 -5 -6t-7 -3.5t-8.5 -2t-7.5 -0.5q1 -2 3 -4.5l4 -5t3.5 -4.5t1.5 -4v-2q0 -1 -1.5 -4t-2.5 -4q-2 7 -7 12t-12 8t-15 4.5t-14 1.5v-10h16zM345 440q-1 -1 -2.5 -5.5t-1.5 -6.5v-2v-2l16 4q1 0 1 2t-1.5 3t-3.5 2t-4.5 2t-3.5 3zM365 454v-2q1 -1 2 -4
t2 -4q2 -2 1 -2q0 14 15 18h-4h-5t-5.5 -0.5t-4 -1.5t-1.5 -4zM141 452v4h-4zM333 472q5 -2 5 -8h-10q0 6 5 8zM441 502q0 -4 3 -10.5t7.5 -12.5t9.5 -10.5t10 -4.5h2l4 4l4 4q-3 1 -6.5 3t-5.5 5q-7 12 -11 14.5t-7 2t-5 0t-5 7.5v-2zM93 502q0 -8 2.5 -15t2.5 -16q5 0 8 4
t3 9q0 7 -2 14.5t-6 13.5l-4 -4l-4 -4v-2zM497 480q-3 0 -3 -4t3 -4t3 4t-3 4zM513 476q1 2 -2 2t-2 -2t2 -2t2 2zM361 480h44v20h-6v-4q0 -3 -1 -5.5t-2.5 -4.5t-4.5 -2h-2l-24 4h-2h-2q-1 0 -2.5 -1.5t-1.5 -2.5zM469 504q0 -6 5.5 -9t10.5 -3q4 0 6 1.5t6 1.5v-3
q4 0 12 4t16 9t14 11t6 10v6t-4 4l-20 -20q-2 1 -4 0q-6 -4 -8.5 -6t-5 -3t-6 -1.5t-11.5 -0.5q0 7 3.5 13.5t3.5 11.5q0 2 -2.5 2t-7 -3t-7.5 -7.5t-5 -9t-2 -8.5zM517 508q3 0 3 -4t-3 -4t-3 4t3 4zM509 524q-3 0 -3 -4t3 -4t3 4t-3 4zM73 548q1 -2 2.5 -6.5t1.5 -5.5h2
q3 0 7.5 0.5t8.5 2t7 4t3 7.5q0 4 -1 7t-3 6.5t-3 7t-1 8.5v5.5t1 5.5t3 4t3 3.5t1 2.5t-1.5 4t-2.5 4l-4 4l-6 6l-6 6l-4 4h-4q-1 0 -2.5 -1.5t-1.5 -2.5q0 1 -1.5 2.5t-2.5 1.5t-4 -1.5t-3.5 -2t-0.5 -1.5v-3q1 -1 4 -2.5t4 -1.5v-32l-4 -4l-3.5 -3.5t-0.5 -1.5v-3
q1 -2 4 -5t4 -3t4 2t4 2q0 -1 1 -1q0 -1 1.5 -5.5t1.5 -5.5t-3.5 -2t-4.5 -2v-2v-2zM573 540h2v10q0 5 1.5 8.5t4 5.5t8.5 4q-6 5 -7 9t-1 11t2 13t2 13q0 6 -2 8t-5 3t-5 2t-2 5h3q0 6 1.5 8.5t3.5 4t5 2.5t5 5q-1 3 -3.5 3.5t-4.5 0.5q-1 0 -8.5 -5.5t-15.5 -12.5
t-15.5 -13.5t-8.5 -8.5h19q0 -4 -1.5 -7t-3.5 -6t-4 -5.5t-2 -5.5q0 -2 3 -5t5 -3q-1 6 2.5 7.5t7.5 1.5q1 0 3 -0.5t3 -0.5q0 -3 -2 -5t-4.5 -3t-4 -2.5t-1.5 -3.5t1 -5.5t3.5 -6.5t4.5 -5.5t3 -4.5h-2h-2q-1 0 -4 1.5t-4 2.5v-4q0 -4 2 -6.5t5 -3.5t6.5 -1h6.5v-5zM94 608
q0 -4 -2.5 -6.5t-6.5 -2.5v9h9zM569 604q3 0 3 -4t-3 -4t-3 4t3 4zM533 632h8v4h-8v-4zM569 660q-2 0 -2 -2t2 -2t2 2t-2 2zM77 668q-3 0 -3 -4t3 -4t3 4t-3 4zM73 716q0 -1 0.5 -4.5t1 -7.5t1.5 -7.5t1 -4.5q0 -4 20 -4q0 4 2.5 6.5t5.5 4.5t6.5 3t5.5 2v2v2l-4.5 9l-5 10
t-4.5 10t-2 9v2q4 4 4 4.5t-1.5 3.5t-2 3.5t-1.5 0.5h-3t-4 -2t-3.5 -5.5t-2.5 -7t-2 -5.5q0 -1 -2 -4.5t-4 -7.5t-4 -7.5t-2 -4.5zM585 700q-3 0 -3 -4t3 -4t3 4t-3 4zM565 712q1 0 4 -1.5t3.5 -2t0.5 -1v-1.5q0 -3 -2.5 -5t-5.5 -2v13zM533 716q3 0 3 -4t-3 -4t-3 4t3 4z
M41 724h8q-2 1 -3 2t-1 2q1 2 1 4h11v4l-16 4v-16zM525 778v-2l4 -4l3.5 -3.5t1.5 -0.5h2t2 3t5 10t10 11q-6 -2 -9 1t-5 7t-4.5 8t-7.5 4h-2q-1 0 -2.5 -1.5t-1.5 -2.5q4 -4 8 -9t4 -11q0 -3 -1 -4t-3 -1.5t-3 -1.5t-1 -3zM513 796q0 -1 -0.5 -3t0 -3.5t1.5 -3.5t3 -2
q1 1 2.5 5.5t1.5 6.5v2v2q-1 1 -4 2.5t-4 1.5v-4v-4zM64 815q0 -7 2.5 -9t8.5 -2h3h3q0 4 -1.5 6t-4.5 3t-6 1.5t-5 0.5zM565 812q-3 0 -3 -4t3 -4t3 4t-3 4zM473 828q0 -10 8 -16q2 5 5 9t7 7l-4 4l-3.5 3.5t-1 0.5h-1.5q-4 0 -7 -1.5t-3 -6.5zM445 832q-3 0 -3 -4t3 -4
t3 4t-3 4zM445 840q-2 0 -2 -2t2 -2t2 2t-2 2zM238 860q0 -12 3.5 -16t13.5 -4h6t4 4q0 5 -3 8t-7 4.5t-8.5 2.5t-8.5 1zM441 848q-3 0 -3 -4t3 -4t3 4t-3 4zM109 856l4 -4l3.5 -3.5t1.5 -0.5h3q1 0 2.5 1.5t1.5 2.5q0 2 -3 5t-5 3q-1 0 -4 -1.5t-4 -2.5zM445 856h4v4h-4v-4
zM97 860h8v4h-8v-4zM385 864q-3 0 -3 -4t3 -4t3 4t-3 4zM365 868q0 -1 1.5 -2.5t2 -1.5h1.5h3q1 0 2.5 1.5t1.5 2v1.5v2t-12 -3zM405 868h4v4h-4v-4z" />
    <glyph glyph-name="Q" unicode="Q" horiz-adv-x="808" 
d="M27 434q0 39 1.5 72.5t5.5 64.5t10.5 60t16 58t23 60.5t31.5 66.5q52 66 119 97t151 31q62 0 109.5 -14t85 -41.5t66.5 -68t53 -92.5l12 -24q0 -1 2 -3t4 -4.5l4 -5t2 -3.5v-5v-9v-9v-5q0 -3 1.5 -11.5t3 -20t3.5 -24.5t4 -24.5t3 -20t1 -11.5v-9.5t0.5 -19.5t0.5 -22
v-17v-14q0 -9 -0.5 -20t-0.5 -20.5v-13.5q0 -2 -1.5 -8t-2.5 -8l-4 -4v-2v-2l4 -16v-2q0 -22 -4 -44t-11 -43.5t-15.5 -42t-17.5 -40.5q-1 -2 -4 -3.5t-5.5 -3t-4.5 -3t-2 -4.5v-2q4 -4 4 -5v-4.5t-4 -12t-10.5 -15.5t-14.5 -11.5t-15 -4.5h-4t-4.5 1t-3.5 2.5t0 5.5v-3v-3
q0 -7 3 -8.5t8 -2.5t10 -2.5t7 -8.5q-1 -1 -4 -2.5t-4 -1.5q-4 1 -4 -8q6 0 10.5 2t9.5 2t8.5 -1t7.5 -3t8 -3t9 -1q20 0 39.5 4t39.5 4h6.5h5.5l4 -4v-72q0 -2 -3 -6t-5 -6q-4 -1 -15 -2t-23 -2.5t-23 -2.5t-15 -1h-4h-7.5h-9.5h-7q-16 0 -29 2.5t-23.5 8.5t-20 15
t-19.5 22h-4q-4 0 -7 -1.5t-6 -4.5l-5.5 -5.5t-5.5 -4.5q-13 -8 -27.5 -14.5t-30 -11.5t-31.5 -7.5t-31 -2.5h-8h-8q0 1 -1.5 2.5t-2 1.5h-1.5h-1.5h-1.5q-1 -1 -2.5 -4t-1.5 -4h-4h-6h-6h-4q-61 0 -111.5 16.5t-90 46.5t-68.5 71t-48 89t-28.5 101.5t-9.5 109.5zM331 24
q-5 -2 -10.5 -5.5t-9.5 -6.5h4q6 0 10.5 3t5.5 9zM323 36q0 -1 1.5 -2.5t2.5 -1.5l12 -8h2h2l8 4h2h2l8 -4h2q4 0 7 2t3 6q0 6 -3 9t-6 5t-3.5 2h-1.5h-2q-1 0 -4 -2t-4 -2q-5 1 -8.5 6.5t-6.5 11t-6 10t-9 4.5q-4 0 -7 -0.5t-7 -3.5q4 -5 7 -6.5t6.5 -2t7 -2.5t7.5 -9
q0 -1 -0.5 -3.5t-1.5 -4.5t-1.5 -4.5t-0.5 -3.5h-8zM639 36q-2 0 -2 -2q0 -3 2 -2q2 0 2 2t-2 2zM399 64q-6 0 -10 -2t-6 -6t-3.5 -8.5t-1.5 -8.5q12 0 18.5 6.5t6.5 20.5v2q-1 1 -4 2.5t-4 1.5v-4q0 -1 1.5 -2.5t2.5 -1.5zM619 52q-3 0 -3 -4t3 -4t3 4t-3 4zM511 72
q0 -3 2 -6.5t5.5 -6.5t7.5 -5t7 -2h2q1 0 3.5 2t4.5 4t4.5 3.5t3.5 2.5q3 -3 6 -3.5t6 -0.5q4 0 6 2.5t2.5 6t0 7.5t-0.5 6v11q0 7 -4 11q0 -1 -1.5 -4t-2 -3.5t-1 -0.5h-1.5h-2q-4 4 -4.5 4t-3.5 -1.5t-4 -2.5q-5 -4 -9 -6t-8 -3.5t-8.5 -3.5t-10.5 -7v-4zM239 56h2.5h2.5
q0 4 -2.5 6t-2.5 6v2.5t0 1t1.5 -2t2.5 -1.5h2q5 0 12.5 1t9.5 7q-2 4 -6 6.5t-9 4t-10 1.5h-9h-6t-4 -4q4 4 1 7t-7.5 4t-5.5 1q-3 0 -7.5 -3.5t-4.5 -6.5t3.5 -4.5t7 -4t6 -5.5t-0.5 -8zM439 74v-2q1 -2 4 -6.5t4 -5.5h-4q1 0 3.5 1l5 2t4.5 2.5t3 2.5v3q0 3 -0.5 5.5
t-1.5 4.5t-2 3h-4q-4 0 -8 -2.5t-4 -7.5zM639 60q0 2 -2 2t-2 -2t2 -2t2 2zM371 72q-1 0 -2.5 -1t-3.5 -2.5t-4 -2.5t-2 -2h4h4t3 -0.5t3.5 0t3.5 1.5t2 3q-1 1 -4 2.5t-4 1.5zM523 70q0 4 3.5 6t8.5 3t9.5 1.5t7.5 0.5q0 -5 -3 -7.5t-6.5 -4t-8 -2.5t-7.5 -3h4q-1 0 -4 1.5
t-3.5 2t-0.5 1v1.5zM599 80q0 -5 2 -8.5t4 -5.5t2.5 -2h1.5h2q1 0 2.5 1.5t1.5 2.5l-16 16v-4zM631 64q0 2 -2 2t-2 -2t2 -2t2 2zM527 76q3 0 3 -4t-3 -4t-3 4t3 4zM177 208q5 0 10 -5.5t9 -13t8 -14.5t7 -11q2 -2 5 -5.5t7 -7.5t7.5 -7t4.5 -4q14 -12 25.5 -19t21.5 -11.5
t19.5 -7t20.5 -4.5t23.5 -4t29.5 -6q1 0 4 -2t4 -2q4 1 6 2t4 1.5t4 0t4 -1.5t4 -1.5t2.5 -0.5t3.5 2t4 2h6h8h8h6q6 7 15.5 13t21 11t22 10t17.5 10q0 1 0.5 4t0.5 4q0 5 -3.5 12.5t-8.5 15t-11 14.5t-10 10q-4 1 -12 4t-18 6t-18.5 6t-11.5 4l-5 2.5t-3 90.5
q26 0 50.5 -3.5t46 -13.5t39 -26.5t28.5 -41.5h4l16 24q3 2 4.5 3.5t2.5 3t1 2.5t0.5 7t1 14t1.5 17t2.5 16t4 12t6.5 5q2 0 6.5 -1.5t5.5 -2.5v3.5t-2 3t-4 2.5t-4 2.5t-2 5.5q0 29 4 58t4 59q0 45 -2.5 89.5t-12 86.5t-27 81.5t-46.5 76.5q-7 8 -16.5 14l-19 12t-18 12
t-14.5 14q-2 0 -7 1.5t-11 2.5t-11 2.5t-7 1.5q-4 2 -6 2.5l-4 1t-5 0.5t-13 1t-21 1.5t-20 1t-11 0.5q-19 -1 -37.5 -5.5t-35.5 -13t-33 -19t-30 -22.5q-5 -5 -10.5 -13.5t-11.5 -18.5t-12 -21t-12 -19.5t-11.5 -14t-10.5 -5.5q-9 0 -11.5 3.5t-4.5 12.5q-1 -1 -5.5 -2.5
t-6.5 -1.5q-3 0 -4.5 2.5t-2 6t-2 7t-3.5 4.5q-8 -2 -8 -7v-12t-2.5 -13.5t-13.5 -11.5l-8 8l-8 -8h7q1 -4 -1 -6t-2 -3v-3l4 -4l4 -4q-1 -4 -6.5 -4.5l-11 -1t-10 -2t-4.5 -6.5q0 -3 2 -4.5t4 -3.5t3 -4t-1 -6q3 5 4.5 7t2.5 1.5l3 -1.5t5 -1q0 -4 -0.5 -6.5t-2 -4t-3.5 -4
t-5 -7.5q9 0 14 -1.5t7.5 -5t3 -7.5t1.5 -7t3.5 -5.5t8.5 -2.5q0 4 -1 13.5t-3 19.5t-4 18.5t-6 9.5q0 1 1.5 2.5t2.5 1.5t3.5 0.5t5.5 0.5t5.5 0.5t3.5 0.5q0 3 0.5 9.5t2 12.5t5 11t10.5 5h4q1 0 4.5 -0.5t7.5 -1t7.5 -1.5t4.5 -1v-5v-5v-6v-4.5t-1 -4t-2.5 -7.5t-3 -7.5
t-1.5 -4.5q-1 -5 -3.5 -15.5t-5 -22t-5 -21.5t-2.5 -13q-2 -13 -3 -28t-1.5 -30t0 -29.5t0.5 -26.5q0 -27 1 -49.5t3 -44t6 -44t10 -48.5q4 -5 7 -12t5 -14.5t3 -14.5t1 -13v-2q-1 -1 -2.5 -4.5t-3.5 -7.5t-3.5 -7.5t-2.5 -4.5q1 0 3.5 1.5t4.5 3t4.5 2.5t3 1h1.5h1zM595 88
h-4q2 2 6 2.5t7.5 0.5t6.5 1t4 4q-2 1 -8 2.5t-8 1.5h-2h-2v-12zM619 88h8v4h-8v-4zM599 120h4l-4 4v-4zM151 158q0 -4 3.5 -6.5t8.5 -3t9 -0.5h7h8h8q1 0 2.5 1.5t1.5 2.5q0 8 -1.5 10t-6.5 2q-6 0 -10 -3.5t-9 -3.5q0 3 0.5 4.5t1 2.5t1 2.5t0.5 3.5q0 3 -7 6.5t-16 7.5
t-17.5 6t-11.5 2h-2.5t-1 -0.5t3 -2.5t5 -4.5t4.5 -5t3 -3.5q1 -2 0 -4q4 3 7 3.5t7 0.5h3h3q-1 -2 -2.5 -8t-1.5 -8v-2zM591 160q-3 0 -3 -4t3 -4t3 4t-3 4zM163 192q-2 1 -2 -2t2 -2t2 2t-2 2zM523 192q0 -1 1.5 -2.5t2.5 -1.5q7 3 8.5 10t1.5 13q-8 0 -11 -4.5t-3 -12.5
v-2zM175 220q2 -1 2 -2t-2 -2t-2 2t2 2zM87 232q2 0 6.5 -0.5t9.5 -1t9.5 -1.5t6.5 -1q1 0 4 -2t3.5 -2h1.5h5t9 7t5 15q0 9 -5.5 11t-14.5 3q2 0 5 3t3 5q0 4 -3 10.5t-7 14t-7 15t-3 12.5q0 1 2 4t2 4v7.5t-4 6t-12 6.5q2 1 6.5 5.5t5 5.5t0.5 2v2.5t-4 6t-8 4.5
q0 -11 -5.5 -14.5t-14.5 -3.5q-8 0 -8 8q0 6 3 9t9 7q-1 4 -3.5 4t-5.5 1t-6 5.5t-5 17.5q-1 -1 -2.5 -5.5t-1.5 -6.5v-2q0 -6 2 -10t2 -11v-5.5v-4t-2 -2t-4 -3.5l-4 -4t-2 -2.5t2 -3.5t2 -4t-1.5 -4t-2.5 -4q8 1 10 -1t2 -7t-2.5 -8.5t-2.5 -9.5q7 0 10.5 2t4 5.5t0.5 8
v9.5q4 0 9 -2t10 -5.5t8 -8.5t3 -11q0 -1 -2 -4t-2 -4t1 -2.5t3 -3.5t3 -4t1 -2.5t-1 -3t-1 -3.5q-2 -1 -2.5 -1t-3.5 1.5t-4 2.5l-20 -20v-2v-2q0 -2 1 -6t1.5 -8t1 -7t0.5 -3.5t1.5 -2t2.5 -1.5zM571 232q-3 0 -3 -4t3 -4t3 4t-3 4zM155 232l4 4h-8zM487 232q0 1 -1 1.5
t-3 0.5t-3 -0.5t-1 -1.5q1 -2 4 -2t4 2zM507 236q-3 0 -3 -4t3 -4t3 4t-3 4zM99 240v-4l-4 4h4zM499 236q1 2 -2 2t-2 -2t2 -2t2 2zM101 266q6 0 9 -2.5t5 -5.5t5.5 -5.5t10.5 -2.5v-12q-13 0 -21.5 7t-8.5 21zM467 252q0 1 -1 0.5t-2 -1.5t-1.5 -2t0.5 -1q2 -1 3.5 0.5
t0.5 3.5zM483 261q-6 0 -8 -5h8v5zM627 264q-3 0 -3 -4t3 -4t3 4t-3 4zM663 316l4 4h-4v-4zM675 336q-3 0 -3 -4t3 -4t3 4t-3 4zM683 340q-3 0 -3 -4t3 -4t3 4t-3 4zM691 352q0 -2 0.5 -4.5t3.5 -3.5l4 16h-4t-3 -2.5t-1 -5.5zM663 352q0 1 -1 0.5t-2 -1.5t-1.5 -2t0.5 -1
q2 -1 3.5 0.5t0.5 3.5zM680 385q0 -5 -1 -9t-4 -8q1 0 3 -0.5t3 -0.5q5 0 8.5 2.5t1.5 10.5l-8 4t-3 1zM691 392q1 0 2.5 1.5t1.5 2.5t-1.5 4t-2.5 4v-12zM703 412q0 2 -2 2t-2 -2t2 -2t2 2zM675 436q-3 -2 -5 -5.5t-3 -6.5h4q3 0 5.5 1t2.5 5v2q0 1 -1.5 2.5t-2.5 1.5z
M79 444v8h-4zM667 452q-2 1 -2 -2t2 -2t2 2t-2 2zM663 520q1 -1 4 -2.5t4 -1.5t4 1.5t4 2.5l-8 8zM655 536q0 -3 1 -5.5t5 -2.5t6 2.5t3 6.5t2 7.5t1 6.5q-10 0 -14 -3.5t-4 -11.5zM63 540h12v4zM59 545q7 0 13 3.5t7 11.5h-12v12l-8 -4v-23zM111 676q3 0 3 -4t-3 -4t-3 4
t3 4zM107 676q0 -2 -2 -2t-2 2t2 2t2 -2zM651 732q1 -3 3.5 -3.5t4.5 -0.5h2.5t1 1.5t-3 2t-4.5 0.5h-2.5h-1.5zM643 732l4 4h-4v-4zM127 744q-3 0 -3 -4t3 -4t3 4t-3 4zM143 740h4v8h-4v-8zM631 768l4 -4l8 -16h4q1 0 2.5 1.5t1.5 2.5q-4 2 -5.5 6.5t-3.5 8t-4.5 6.5
t-7.5 3q-8 0 -13.5 -3t-5.5 -13h4l4 4q2 1 6.5 2.5t5.5 1.5zM135 770q0 -3 2 -4.5t4.5 -2.5t5.5 -1h4v13q4 0 6.5 -1t2.5 -6h16q0 4 -2.5 6t-2.5 6t2 8t6 7t8 5.5t8 3.5q-1 3 -3 3.5t-5 0.5q-8 0 -12 -1.5t-6 -5t-3 -8t-3 -9.5q-5 1 -8 4t-4 8q-3 -1 -3.5 -3t-0.5 -4.5v-5
v-3.5q-1 -2 -3 -2.5t-4 -1.5t-3.5 -2t-1.5 -4zM571 812q-6 1 -10.5 -2.5t-4.5 -10.5q4 0 9.5 1.5t5.5 7.5v2.5v1.5zM603 820q-1 0 -2.5 -1.5t-1.5 -2v-1.5v-2t0.5 -1t2 1.5t1.5 2v1.5v2v1zM190 855q0 -5 1.5 -12t3.5 -11h3t2 1t1.5 3t1.5 3t4 1q4 0 6 -1.5t2 -6.5
q-2 13 8 13q3 0 4 -1.5t1.5 -3.5t1 -3t3.5 -1h2q1 0 4 1.5t4 2.5q-5 10 -10 13.5t-14 3.5h-4t-4 -1t-3.5 -2.5t-0.5 -5.5q-4 1 -4.5 5t0.5 7q-3 -2 -6 -3.5t-7 -1.5zM483 852q1 2 -2 2t-2 -2t2 -2t2 2zM359 864q-2 0 -2 -2t2 -2t2 2t-2 2zM195 868q-3 0 -3 -4t3 -4t3 4t-3 4
zM283 892q1 -2 3 -5t4.5 -6.5t5.5 -6t5 -2.5h2q1 0 3 3l4 6t4 5t3 2q2 0 5 -1.5t6 -3.5l6 -4t4 -2.5t2 -0.5h2t0 2.5t-3 5.5t-3.5 5.5t-2.5 5.5t-1 7q3 0 5.5 -1t5 -1t5 1.5t3.5 6.5l-4 8q0 1 -1.5 2.5t-2.5 1.5q-3 -2 -4.5 -4.5t-2.5 -4.5t-3 -4t-6 -3q-7 -2 -13 -2t-11 -1
t-9.5 -3t-10.5 -6zM367 884q6 0 13.5 -1.5t15.5 -3t16 -2.5t15 -1v15q1 0 4 0.5t4 0.5q4 -2 6 -2.5l4 -1t2.5 -0.5t2 1.5t1.5 2.5q0 3 -3.5 7.5t-6.5 4.5h-2q-1 0 -3 -1.5t-5 -3t-5.5 -2.5t-3.5 -1t-4 3t-3 5q-1 -3 -2.5 -8.5t-5.5 -7.5q-9 2 -15.5 3t-14.5 1q-4 0 -7 -1
t-3 -5v-2z" />
    <glyph glyph-name="R" unicode="R" horiz-adv-x="672" 
d="M524 8q-24 60 -24 61v3q4 4 4 5v1.5v1.5q-12 8 -16.5 13.5t-6.5 11.5t-3.5 13.5t-5.5 17.5q-12 29 -25.5 57.5t-26.5 58.5q-5 11 -8.5 24t-8.5 25.5t-11 23.5t-16 19q-2 2 -5 2.5t-5.5 1t-4 2.5t-1.5 6q1 5 2 8t1.5 5t0.5 3t-1.5 4t-2.5 4q-1 0 -4.5 3.5t-3.5 4.5v5v11
t-1 11t-3 5h-204q-2 0 -2.5 -3.5t-1 -8t-0.5 -8.5v-5q0 -21 4 -40.5t4 -38.5v-14q0 -7 -1 -14.5t-2.5 -15t-4.5 -12.5v-252l-4 -4h-11h-4h-5.5h-5.5h-6t-16.5 1t-24 1.5t-27.5 1.5l-4 20l2 304l1 48v540q0 1 2 2.5t3 1.5q2 0 5.5 1t7 1.5l7 1t4.5 0.5h200q2 0 5.5 1t8 1.5
t8.5 1t6 0.5q43 0 85 -4t80.5 -15t71 -28.5t56.5 -45t37.5 -65t13.5 -88.5q0 -39 -7.5 -71.5t-23.5 -59.5t-40.5 -49.5t-56.5 -41.5q-5 -3 -14.5 -6t-18.5 -6.5t-16 -7.5t-7 -8t2.5 -9t6 -10t6.5 -9.5l5 -7.5q8 -13 15 -27.5t13 -28.5q2 -6 5.5 -15l7 -18t5.5 -15.5t2 -7.5
v-13q2 0 3 0.5t1.5 0.5t1.5 -1t2 -3q12 -23 21 -47.5t19 -48.5q13 -31 27 -62.5t29 -61.5q3 -6 7 -12.5t7 -13t5.5 -13.5t2.5 -14h-13.5t-20 0.5t-19.5 0.5h-13q-6 0 -14.5 0.5l-17 1t-14.5 1.5t-10 5zM528 92q0 -3 1 -5.5t5 -2.5h2q2 1 6.5 4t5.5 4q-2 4 -3 13t-2.5 18
t-4.5 16t-9 7q0 -8 -1 -15t-4 -15q3 -1 6.5 -3t5.5 -5q-4 -4 -6 -7.5t-2 -8.5zM556 88q-3 0 -3 -4t3 -4t3 4t-3 4zM568 96q0 2 -2 2t-2 -2t2 -2t2 2zM464 308q1 2 -2 2t-2 -2t2 -2t2 2zM68 428q0 -2 1.5 -6.5t2.5 -5.5q1 0 4 1t5.5 2t4.5 3t2 4v2q0 1 -1.5 2.5t-2.5 3.5
t-2.5 4t-2.5 2h-3l-4 -4l-4 -4v-2v-2zM80 428l-4 -4v4h4zM164 456q0 -6 4 -8t9 -2q0 1 -0.5 3.5l-1 5t-2 4t-3.5 1.5h-2q-1 -1 -2.5 -2t-1.5 -2zM156 452q0 2 -2 2t-2 -2t2 -2t2 2zM240 464q-2 1 -2 -2t2 -2t2 2t-2 2zM412 460h8v4h-8v-4zM200 464l4 4h-4v-4zM236 468
q1 2 -2 2t-2 -2t2 -2t2 2zM64 504q-3 0 -3 -4t3 -4t3 4t-3 4zM60 516q-3 0 -3 -4t3 -4t3 4t-3 4zM144 520q3 -4 4 -4t5.5 -2t6.5 -2h2h2l20 4h2h2l44 -4h4q22 0 44 4t44 4q7 0 12 -2t13 -2q33 0 54.5 3t38 12t31.5 24t35 37q1 1 2.5 3.5t3.5 4.5t3.5 4.5t2.5 3.5
q2 13 3.5 22.5t2.5 18.5t1.5 17.5t0.5 19.5q0 30 -8 53t-22 40t-33.5 27.5t-42 17t-47.5 9.5t-51 3h-18h-28h-32h-33h-27h-18l-24 8q-4 -14 -4 -28v-28v-32t4 -32v-204zM56 532q0 -2 2.5 -3l5 -2t5.5 -1h3v12h-3q-3 0 -5.5 -1l-5 -2t-2.5 -3zM456 536q-3 0 -3 -4t3 -4t3 4
t-3 4zM552 600q-3 0 -3 -4t3 -4t3 4t-3 4zM68 600h9q0 6 -5 8zM556 616q-6 1 -7.5 -2.5t-1.5 -7.5q0 -1 0.5 -3t0.5 -3q3 2 5.5 6t2.5 8v2zM568 612l4 4h-4v-4zM599 636q0 -2 1.5 -5t3.5 -3q3 0 6.5 2.5t3.5 5.5h-15zM588 640h8l-8 4v-4zM568 656q0 -5 3.5 -9t8.5 -4v31
q-2 0 -4 -2.5l-4 -5t-3 -5.5t-1 -5zM87 682h6t8.5 -0.5t8.5 -2t6 -3.5h-4q4 4 11 4.5t12 0.5q0 8 -5 10.5t-12 3.5t-13.5 2t-8.5 7q0 -2 -1.5 -5t-3 -6.5t-3 -6.5t-1.5 -4zM565 700v-5.5t5 -2.5q2 0 6 1t7.5 3t6.5 4t3 4t-2.5 4.5t-5.5 5t-5.5 5t-3.5 5.5q-5 0 -9 -2
t-6.5 -5.5t-4 -8t-1.5 -8.5h10zM76 700q0 -1 1.5 -2.5t2 -1.5h1.5h2t1 0.5t-1.5 2t-2 1.5h-1.5h-2h-1zM604 696v4h-4zM560 738q0 -5 4 -5.5t7 -0.5h5q2 5 2 8t1 5.5t1.5 3t3.5 1.5t6 1.5t6 0.5h4q0 1 -1.5 4t-2.5 4h-2h-2q-4 -1 -9.5 -2t-10.5 -3.5t-8.5 -6.5t-3.5 -10z
M79 765q0 -2 2 -5.5t4.5 -7t5 -6t3.5 -2.5q2 0 2 0.5t1 3.5t1.5 6l1 6t0.5 4v4v4l-20 -4q-1 -2 -1 -3zM540 780h-4q12 4 18 11t6 19v6t-4 4q-2 0 -3 -4.5t-3 -10t-6 -10.5t-12 -7zM92 804q-3 0 -3 -4t3 -4t3 4t-3 4zM124 828q-4 -2 -9 -5t-5 -9h5t6 1t5 2.5t2 4.5v2
q0 1 -1.5 2.5t-2.5 1.5zM476 852q4 -3 7 -3.5t7 -0.5h6t4 4q-5 2 -8.5 3t-7.5 1q-3 0 -5 -0.5t-3 -3.5zM348 860h4v4h-4v-4zM112 900h-11t-5 -8v-2.5t4 0t12 2.5t17 1q0 3 -2 5t-4.5 2.5t-5.5 0t-5 -0.5z" />
    <glyph glyph-name="S" unicode="S" horiz-adv-x="683" 
d="M23 252q11 3 22.5 8.5t22.5 10.5t22 9t23 4q10 0 15.5 -7.5t9.5 -17.5t7 -20t6 -15q8 -12 19.5 -25t24 -25t26 -23t26.5 -19q8 -5 14 -6.5t13 -1.5t14 -0.5t15 -3.5q1 0 5.5 -2.5t10 -5.5t10.5 -5.5t6 -2.5q10 -1 12 -1q6 0 11 2.5t10 6t10 6t11 2.5q8 0 15 -2t15 -2
q10 0 14.5 2.5t7.5 6.5t6.5 9t11.5 10q1 0 3.5 1.5t5.5 2.5t6 2.5t5 1.5q1 0 4.5 0.5t7.5 1t7.5 1.5t4.5 1q4 3 6 5t3.5 4t2.5 3q10 12 16.5 24t11 23.5t6.5 24.5t2 28q0 35 -14 60.5t-39 45.5t-57.5 35.5t-69.5 29t-76 27t-75.5 30t-69.5 36.5t-57.5 46.5t-39 61
t-14.5 80.5q0 38 12.5 74t35 66t53.5 52t67 32q6 2 16.5 4.5l21 5t18 4.5t8.5 2h116q2 0 6.5 -1.5t8.5 -4t8 -4.5t5 -2q19 -8 36.5 -14.5t35.5 -17.5q10 -6 23.5 -18t28 -27.5t28 -33.5t24.5 -36t17.5 -35t6.5 -30q0 -7 -0.5 -8.5t-7.5 -3.5q-8 -2 -16.5 -5t-18 -5.5t-19 -4
t-18.5 -1.5t-14.5 7t-9.5 18t-7.5 23t-8.5 20q-5 9 -13 18t-17 17.5t-19 15.5t-19 13l-16 8q-1 0 -2.5 1.5t-1.5 2.5q-4 1 -14 2.5t-22 3.5t-22 4t-14 2h-3h-5.5h-6.5h-5q-34 0 -63.5 -8.5t-52 -26t-35.5 -44t-13 -61.5q0 -15 3 -27.5t9.5 -23.5t15.5 -21t20 -20l8 -4
q8 -3 15.5 -8t14.5 -10t14.5 -9.5t15.5 -8.5l12 -4l44 -12q5 -2 9.5 -4.5t8.5 -5.5t8.5 -5.5t9.5 -4.5q35 -12 71 -25.5t69 -31t62.5 -39.5t51 -49.5t34 -62.5t12.5 -78q0 -42 -12 -78t-33.5 -66t-50.5 -53.5t-63.5 -39.5t-72 -24.5t-76.5 -8.5q-88 0 -157 37.5t-119 110.5
q-2 3 -6 9.5t-8.5 13.5t-8.5 13t-5 8q-3 5 -7 12.5t-7.5 15.5t-6.5 13.5t-3 6.5v12zM203 72q-3 0 -3 -4t3 -4t3 4t-3 4zM63 192h12q-1 1 -4 2.5t-4 1.5h-2h-2v-4zM651 276q0 2 -2 2t-2 -2t2 -2t2 2zM547 343q4 1 4.5 1t3.5 1.5t4 2.5h-12v-5zM523 396q0 -1 1.5 -2.5t2 -1.5
h1.5h2t1 0.5t-1.5 2t-2 1.5h-1.5h-2h-1zM515 404q-3 0 -3 -4t3 -4t3 4t-3 4zM356 510q0 -6 -1 -11t-4 -11h24q0 22 -19 22zM331 500h4v4h-4v-4zM339 516q-2 0 -2 -2q0 -3 2 -2q2 0 2 2t-2 2zM235 576q-3 0 -3 -4t3 -4t3 4t-3 4zM63 744q-3 0 -3 -4t3 -4t3 4t-3 4zM131 804
q0 2 -2 2t-2 -2t2 -2t2 2zM477 836h-2q-1 0 -2.5 -1.5t-1.5 -2.5h12q0 1 -1.5 2.5t-2 1.5h-1.5h-1z" />
    <glyph glyph-name="T" unicode="T" horiz-adv-x="694" 
d="M309 4q1 73 -0.5 146t-4 145.5t-5 145.5t-2.5 146q0 5 0.5 8t3.5 9q-3 24 -3.5 44t-0.5 40v41v47q0 6 -0.5 16.5t-1 20t-1.5 16.5t-6 9l-263 -2q-2 10 -2.5 18t-1 15.5t-0.5 15.5v17v4v6.5v4.5q0 3 4 11q30 -1 62 -0.5t64.5 1.5t64 3t61.5 4l44 -4l4 -8q3 2 5 5.5t3 6.5
h332q4 -4 4.5 -10.5t1 -15.5t1.5 -18.5t1 -15.5v-9q0 -6 -0.5 -9.5t-3.5 -9.5q-10 -2 -17 -3t-13 -1h-13h-17q-8 0 -24 -0.5t-36.5 -1t-43.5 -0.5t-43.5 -0.5t-36.5 -1t-24 -0.5v-14v-22v-22v-14q0 -95 2.5 -189.5t5.5 -189.5t5.5 -190t2.5 -189v-2q0 -1 -1.5 -2.5
t-2.5 -1.5q-5 0 -18 -1t-27.5 -1.5t-28 -1t-18.5 -0.5h-5h-4t-3 4zM379 405q-4 0 -7 -1.5t-3 -5.5q0 -2 2 -1.5t5 2.5t3 6zM321 403q4 0 6.5 2.5t2.5 6.5h-9v-9zM325 532q-3 0 -3 -4t3 -4t3 4t-3 4zM369 532q-3 0 -3 -4t3 -4t3 4t-3 4zM321 568q1 1 3.5 3t5 4.5t4.5 5t2.5 3
t0.5 1.5v3q0 1 -1.5 2.5t-2.5 1.5zM377 784q-3 0 -3 -4t3 -4t3 4t-3 4zM301 856q1 2 -2 2t-2 -2t2 -2t2 2zM321 860q-3 0 -3 -4t3 -4t3 4t-3 4z" />
    <glyph glyph-name="U" unicode="U" horiz-adv-x="689" 
d="M153 52q-4 5 -10 9.5l-12 9t-11.5 8.5t-10.5 9q-13 12 -25.5 28.5t-23 34.5t-17 37.5t-6.5 37.5q0 3 0.5 4.5l1 3l1 3t0.5 4.5q-7 0 -9.5 8t-3 18.5t0.5 20t1 12.5v6v10v10v6q1 1 2.5 5.5t1.5 6.5q0 1 -1.5 4t-2.5 4q0 7 -1 24t-1.5 36t-1 36t-0.5 24q-1 97 -3 193.5
t-2 192.5q0 8 0.5 19.5t0.5 23.5v21v10l4 4h104v-220q0 -13 4 -25t4 -25q0 -15 -3.5 -31t-4.5 -31l-4 -4l-3.5 -3.5t-0.5 -1.5v-3q1 -1 4 -2.5t4 -1.5v-48l4 -144q0 -16 -0.5 -35t-0.5 -39t1.5 -41t5 -40.5t11 -37t19.5 -31.5q10 -6 12 -8q6 -4 11 -9t9.5 -10t9 -10.5
t10.5 -10.5q2 -1 8.5 -3.5t13.5 -5t13.5 -4.5t8.5 -3h6q6 0 10 2.5t8 5.5t9 5.5t12 2.5q10 0 17.5 -6t13.5 -14q-1 0 -4 -1.5t-4 -2.5q-1 0 0.5 -1t1.5 -2q31 0 57.5 2.5t49.5 10.5t43 23.5t40 42.5q7 9 13.5 19.5t11.5 21.5t8 23t3 24v184q0 1 -0.5 5t-1 8.5t-1.5 8.5t-1 6
q-1 3 -3 4.5t-4.5 3l-5 3t-3.5 5.5v2q0 2 2 4.5t5 4.5t5.5 3.5t3.5 1.5v432h100l4 -4q-1 -143 1.5 -285t2.5 -285v-102q-2 -40 -16 -75.5t-36.5 -65t-52.5 -52.5t-64.5 -38.5t-72 -24t-76.5 -8.5q-52 0 -99.5 14.5t-94.5 37.5zM173 87q4 0 6.5 2.5t2.5 6.5h-9v-9zM601 136
q-3 0 -3 -4t3 -4t3 4t-3 4zM109 308q-3 0 -3 -4t3 -4t3 4t-3 4zM629 656q0 2 -2 2t-2 -2t2 -2t2 2zM613 672q0 -1 1.5 -4t2 -3.5t1.5 -0.5h2t-3 12q-1 0 -2.5 -1.5t-1.5 -2.5z" />
    <glyph glyph-name="V" unicode="V" horiz-adv-x="702" 
d="M311 12l-16 16q-13 48 -27.5 96t-28.5 96q-4 14 -10 29t-11 30t-9 30.5t-6 30.5q4 5 9 8.5t9 6.5t6.5 8t2.5 13q-11 0 -13.5 -3t-2 -7t0.5 -7t-6 -3q-10 0 -11.5 5t-1.5 11t-1 12t-8 8q-18 48 -31 94.5t-29 93.5q0 1 -1.5 4t-2.5 4l-28 96q-8 8 -12.5 19t-7 23t-4 24
t-4.5 22q-1 4 -4 13t-6 19t-6 19t-4 13v2v2q0 1 2 4t2 4q-2 3 -4 4.5t-3 2.5t-5 8t-11 26t-7 35h102q1 0 6.5 -17t14.5 -45.5t20 -65t23 -75t23 -75.5t19.5 -67t14 -49.5t5.5 -22.5q-3 0 -7.5 -0.5l-9 -1t-8.5 -3t-5 -6.5h32q5 -11 8.5 -18.5t6.5 -16t5 -13.5q0 -1 1 -3
t1.5 -4.5l1 -5t0.5 -3.5t0.5 -6t1 -10.5t1.5 -10t1 -5.5q1 -3 5.5 -16t10.5 -28t10.5 -28t5.5 -16q1 -2 3.5 -13t5 -23t4.5 -22.5t3 -13.5q0 -3 2.5 -10.5t5 -16.5t5 -17t3.5 -12q0 -1 1.5 -4t2.5 -4q1 0 3.5 4t5.5 10t6.5 12.5t6 12t6.5 13.5q0 1 -1.5 4t-2.5 4
q1 5 4.5 18.5t7.5 28t7.5 27.5t4.5 18q2 7 6 23t9.5 35.5t11.5 40.5t11.5 38.5t10 29.5t7.5 13l32 124l4 8l84 284l8 4t6 2.5t8 2.5t7 2t6 1.5t12.5 -1t20 -3.5t20 -3.5t17.5 -1.5q0 -13 -4.5 -28t-8.5 -27l-4.5 -13.5l-7.5 -22.5l-7.5 -22.5l-4.5 -13.5q0 -1 -1 -6.5
t-2.5 -11.5t-4 -12t-4.5 -10l-92 -304q0 -1 -1.5 -3.5t-2.5 -5.5t-2.5 -5t-3.5 -3t-4 -1.5l-4 -1t-2 -1v-1.5q0 -2 1 -3.5t3 -3t3 -3t1 -4.5v-4.5t-2 -6t-4 -11.5t-4 -11.5t-2 -6.5q-15 -52 -31.5 -104.5t-32.5 -103.5q-1 -3 -4 -13.5t-6.5 -22.5t-6 -22.5t-3.5 -13.5
q0 -1 -2.5 -9.5t-7 -22.5t-9.5 -27.5t-9.5 -24t-7.5 -12.5q-2 0 -8 -1t-12 -1.5l-12 -1t-8 -0.5q-3 0 -9.5 0.5t-14.5 1t-14.5 1.5t-9.5 1zM351 12q0 1 -1 1.5t-3 0.5t-3 -0.5t-1 -1.5q1 -2 4 -2t4 2zM395 24q-3 0 -3 -4t3 -4t3 4t-3 4zM330 41q0 -6 4 -8t10 -2q0 6 -4 8
t-10 2zM319 68v8l-4 -4zM331 112q-5 0 -7 -3t-2 -9h18q0 4 -2 8t-7 4zM323 148h4v8h-4v-8zM311 184q-2 1 -2 -2t2 -2t2 2t-2 2zM395 200q1 2 -2 2t-2 -2t2 -2t2 2zM431 284q-4 -4 -4.5 -11.5t-0.5 -12.5h5q2 4 2.5 6.5l1 5t0.5 4.5q0 1 -1.5 4t-2.5 4zM443 320q-3 0 -3 -4
t3 -4t3 4t-3 4zM435 334v-2q0 -1 1.5 -2.5t2.5 -1.5v4q0 1 -1.5 2.5t-2.5 1.5v-2zM451 336q-3 0 -3 -4t3 -4t3 4t-3 4zM455 468v-10.5t2 -12t5 -9.5t9 -4q1 0 2.5 1.5t1.5 2.5q-1 4 -2 6t-1.5 4t-0.5 2.5t2 3.5t2 3.5v2v2.5v2.5t-1 2t-7 2t-8 1.5h-2.5h-1.5zM523 516
q-3 -1 -3.5 -3.5t-0.5 -4.5v-2.5t8 6.5zM483 536q-2 0 -2 -2t2 -2t2 2t-2 2zM507 544q-2 0 -2 -2t2 -2t2 2t-2 2zM539 612q-7 -4 -10 -8t-3 -10q0 -1 0.5 -3t0.5 -3q2 4 4.5 8.5t7.5 4.5v11zM555 612q0 2 -2 2t-2 -2t2 -2t2 2zM135 664l4 -4l4 -4l4 24q-5 -1 -8.5 -5
t-3.5 -9v-2zM507 668q-3 0 -3 -4t3 -4t3 4t-3 4zM607 792q0 2 -2 2t-2 -2t2 -2t2 2zM575 860q6 -4 8 -10t8 -10q4 2 5 5t1.5 6.5t2.5 6t7 2.5q2 0 4 -1.5t5 -3t6 -2.5t6 -1q0 5 -4.5 8t-10.5 4t-12 0.5t-9 -0.5h-7.5h-5.5zM635 864q-3 0 -3 -4t3 -4t3 4t-3 4zM59 906
q0 -6 4 -10.5t9 -4.5q0 6 -5 10.5t-8 6.5v-2z" />
    <glyph glyph-name="W" unicode="W" horiz-adv-x="1014" 
d="M201 160q1 3 0 7t-2.5 7.5l-3 7t-2.5 6.5q-2 6 -5 17l-6 22t-6 21t-3 12q-7 30 -14.5 62t-13.5 62v2v2q0 1 1.5 4t2.5 4q-1 0 -4 1.5t-4 2.5q-3 5 -4.5 11.5t-3 14t-2.5 14.5t-2 12q-20 86 -40 168.5t-40 167.5q-3 12 -7.5 28t-9.5 32.5t-8 32.5t-3 30q0 6 7.5 9t17.5 4
t20 0.5t15 -0.5h14q6 0 11 -1.5t9 -6t6 -12.5l24 -104v-32q7 -5 10.5 -14t6 -20t5 -21.5t6.5 -16.5l3 -18t5 -27t6 -31t5.5 -31t5 -27t3.5 -18q2 -9 5 -17t6.5 -15.5t7 -15.5t5.5 -16t3 -17t1.5 -19t1 -19t2.5 -17q0 -3 2 -11.5t5 -20.5t6 -26t6 -27t5 -24.5t4 -18.5
q2 -10 5 -19t3 -19v-4v-2.5t-2 -3.5t-2 -4t2 -2.5t4 -3.5l4 -4t2 -2.5t-2 -3.5t-2 -4v-2q0 -5 2 -6.5t4.5 -2.5t3.5 -3.5t-2 -9.5l8 8q0 3 1 10.5t2.5 15.5t2.5 15.5t2 10.5q0 2 2.5 8t5.5 14t5.5 14t2.5 8q10 34 16 70t16 70q-1 7 0 13.5t3 12t4.5 11t4.5 11.5v4v4
q1 8 4 25.5t7.5 40t10.5 49t12.5 52.5t13 50t11.5 42.5t10 29.5t7 11q-4 1 -4 5v7q0 10 2.5 20t5.5 20l20 76l2.5 5t92.5 3l21 -84q0 -1 0.5 -4t0.5 -5t-0.5 -4.5t-1.5 -4.5t-3.5 -3t-7.5 1v7q-3 0 -6.5 -1t-6.5 -3t-5 -4.5t-2 -6.5q0 -6 3.5 -7t8.5 -1q8 0 12.5 1t11.5 7
l8 -16l60 -252q0 -2 2 -7t4 -10.5t3.5 -11t2.5 -7.5q0 -1 1.5 -2.5t2.5 -1.5q1 -14 4.5 -28t6.5 -28t5 -28t0 -28q6 -5 7 -9.5t1 -10.5q0 -5 -1 -6.5t-2 -2.5t-2 -3t-1 -6q5 0 8 0.5t4.5 -1t2.5 -4.5l3 -9q1 -5 4 -16.5t6 -25t6 -25.5t4 -17v-4v-4q0 -6 -1.5 -10t-1.5 -10h7
v-20l8 -4h2h2q0 2 0.5 6t1 8.5t1.5 8t1 5.5q1 4 3.5 9.5l5 11t4.5 9.5t3 4h16q-6 4 -9 8t-3 10v2.5t3.5 10t7.5 28t6.5 40t4.5 40.5t6 39q2 5 3 8.5t2.5 6.5l2.5 5q1 3 4 12.5t6 22.5t6.5 28t6.5 28t4.5 23t0.5 14l3.5 14t5 22t5.5 25.5t6 26t5 22t3 14.5q3 13 4 28t3 29.5
t5.5 28.5t11.5 26l24 100h96q4 -3 4 -4v-2v-2q-14 -52 -27 -104t-25 -104q-1 -4 -2.5 -12.5t-3.5 -18t-4 -18t-2 -11.5q-10 -56 -25 -112.5t-27 -111.5l-4 -24q-2 -7 -5.5 -24t-8 -36t-8.5 -36t-6 -24v-4l-4 -12l-3.5 -14t-5 -22t-5.5 -25.5t-6 -26t-5 -22t-3 -14.5
q-2 -1 -3 -3t-1.5 -4.5t0 -5t0.5 -3.5l-28 -116q0 -1 -1.5 -2.5t-2.5 -1.5q-14 -4 -27 -4h-27h-6h-9h-9h-6q-5 2 -7.5 8t-4 13.5t-2.5 15t-2 11.5q-1 2 -3 10t-5 18t-6.5 22t-6 22t-5 18t-2.5 10q0 1 -1 4.5t-1.5 7.5t-1 7.5t-0.5 4.5l-48 176q-1 8 -1.5 13t-1.5 10.5
t-1 8.5v3v3q2 0 8 -1t8 -1q1 0 2.5 -1.5t1.5 -2.5l8 24v2v2q-5 -1 -7 -3t-3 -4t-3 -4t-7 -2q-10 0 -16 9.5t-10 22.5t-6 26t-4 19l-16 68v2q0 3 1.5 4.5t3.5 2.5t3.5 2.5t1.5 4.5q-10 0 -12 4.5t-4.5 11t-5 13.5t-4.5 11q-2 6 -4 17.5t-4 25t-4 28.5t-5.5 27t-8 21.5
t-10.5 12.5q-1 -2 -2.5 -8.5t-3.5 -13.5t-3.5 -13.5t-2.5 -8.5q-1 -4 -2 -10t-3 -11.5t-4.5 -10.5t-6.5 -8q-2 3 -2.5 3.5t-1.5 0.5q-1 -1 -3 -1q0 -3 1.5 -5t2.5 -4t2 -4.5t1 -6.5q0 -12 -2 -24.5t-6 -22.5q0 -1 -2 -2.5t-4 -3.5l-4 -4t-2 -3.5v-2.5q0 -3 0.5 -4.5
t1.5 -3.5t1.5 -4t0.5 -6q0 -5 -1 -14.5t-3 -21.5t-4.5 -25.5t-6 -25t-6.5 -21.5t-7 -14l-24 -116q-4 -6 -7 -15t-4.5 -19t-2.5 -19t-2 -15q-12 -54 -25 -108t-27 -108q-1 -3 -2 -7t-2.5 -7.5t-2.5 -6.5t-89 -3l-4 12q-2 6 -4.5 17t-6 26t-7.5 31t-7.5 30.5t-6.5 26t-4 17.5z
M333 52q-2 0 -2 -2t2 -2t2 2t-2 2zM345 140q1 2 -2 2t-2 -2t2 -2t2 2zM221 173q-3 0 -7 -0.5t-5 -4.5h12v5zM717 192q-3 0 -3 -4t3 -4t3 4t-3 4zM225 196q-3 0 -3 -4t3 -4t3 4t-3 4zM249 208q2 -5 8 -5v5h-8zM381 296q1 2 -2 2t-2 -2t2 -2t2 2zM377 308q-3 0 -3 -4t3 -4t3 4
t-3 4zM363 316q0 -4 3.5 -6t6.5 -2v8h-10zM673 324q-1 -1 -2.5 -4t-1.5 -4v-2v-2q1 1 2.5 4t1.5 4v2v2zM801 340q0 -3 2.5 -6.5t5.5 -3.5v24q-2 0 -3.5 -2t-2.5 -4.5t-1.5 -4.5t-0.5 -3zM165 368q-2 1 -2 -2t2 -2t2 2t-2 2zM621 376q-2 1 -2 -2t2 -2t2 2t-2 2zM837 454
q0 -7 4 -11t10 -4q3 0 7 1.5t3 7.5q-6 1 -11.5 3.5t-8.5 8.5q-1 0 -2.5 -1.5t-1.5 -2v-1.5v-1zM157 520q1 1 -1 1.5t-5 0.5t-5 -0.5t-1 -1.5q2 -2 6 -2t6 2zM581 534h3q3 0 5.5 1t4.5 2t3 3q-3 3 -5.5 3.5t-6.5 0.5h-2.5t-1.5 -10zM125 540h4l-4 4v-4zM625 548h8
q0 1 -1.5 2.5t-2 1.5h-1.5h-2t-1 -4zM605 556v8h-4zM139 568q-4 0 -5.5 -3t-1.5 -7q4 0 6 3t3 7h-2zM849 572q0 1 -1 1.5t-3 0.5t-3 -0.5t-1 -1.5q1 -2 4 -2t4 2zM909 584q-2 0 -2 -2t2 -2t2 2t-2 2zM113 584h8l-8 4v-4zM161 600q-3 0 -3 -4t3 -4t3 4t-3 4zM141 632
q-3 0 -3 -4t3 -4t3 4t-3 4zM937 704q-4 -3 -6.5 -8t-2.5 -10q6 0 7.5 5t1.5 9v2.5v1.5zM913 691q6 0 8 5h-8v-5zM437 780q3 -6 8.5 -8.5t11.5 -3.5v5t-5 5t-9 2h-3h-3zM557 808q3 0 3 -4t-3 -4t-3 4t3 4zM481 834q0 -4 3.5 -6.5t8.5 -4t9.5 -2.5t6.5 -1q1 0 2.5 1.5t1.5 2.5
q-9 16 -28 16q-1 0 -2 -1.5t-1.5 -2t-0.5 -1.5v-1zM921 848q1 -7 5.5 -13.5t12.5 -6.5h2q-1 9 -3 14.5t-11 5.5h-3h-3zM449 844q-3 0 -3 -4t3 -4t3 4t-3 4zM941 856q1 0 4 1.5t3.5 2t0.5 1v1.5v2q0 1 -1.5 4t-2.5 4z" />
    <glyph glyph-name="X" unicode="X" horiz-adv-x="660" 
d="M56 108q2 3 6 10t9 15.5t11 18.5t11 18.5t9 15.5t6 10q24 42 48 82t48 82q8 14 15.5 29t15.5 29t17 27.5t20 26.5q-7 16 -15.5 31t-20.5 29v8q-9 12 -15.5 21.5t-12 19t-11 20t-13.5 23.5q-4 5 -6 8t-4 5t-2 3l-4 8l-4 8q-152 256 -152 257v3q0 1 1.5 2.5t2.5 1.5
q10 2 18 3t15.5 1h15.5h17q8 0 18 1t19 -1t15 -7t6 -17q0 -4 -1.5 -7t-6.5 -5q9 3 18.5 -5t18 -20t14 -24.5t5.5 -18.5q0 -4 -0.5 -6.5t-3.5 -5.5q6 -1 15 -11.5t20 -26.5t22.5 -36t22 -38.5t18 -33.5t10.5 -22q3 -6 6 -13.5t7 -15t8.5 -13.5t10.5 -10q12 10 20.5 23.5
t15 28.5t12 30.5t12.5 29.5q11 22 26 45t26 43q1 2 5.5 10.5t10.5 19.5t12 23.5t12 24t10 19.5t6 11q3 6 8 14.5t12 13.5q4 0 15.5 1t24.5 1.5t24.5 1t15.5 0.5h6h6q1 0 4.5 -0.5t7.5 -1t7.5 -1.5t4.5 -1v-4q0 -8 -4 -16.5t-10 -17t-12 -16.5t-10 -14q-10 -17 -18.5 -36
t-17.5 -36q-1 -2 -6.5 -11t-11.5 -19t-11.5 -19t-6.5 -11q-20 -36 -38 -72t-38 -72q-5 -9 -13.5 -22t-17.5 -26.5t-15 -26t-6 -21.5q0 -7 3.5 -15t9 -15.5t11 -15.5t8.5 -14q22 -45 47.5 -89t52.5 -87q18 -29 33.5 -58t34.5 -58l7.5 -10t9 -13t9 -13t6.5 -12q0 -1 0.5 -3
t1 -5t1.5 -5.5t1.5 -4t4.5 -9t8.5 -15.5t8.5 -15.5t6 -10.5v-12q-4 0 -15 -1t-23 -1.5t-23 -1t-15 -0.5h-6h-6q-3 0 -7.5 1t-9 1.5t-11.5 1.5l-88 164q-1 0 -2.5 1.5t-1.5 2.5q-10 17 -21 34.5t-20.5 35.5t-17.5 36.5t-13 37.5q-1 4 -5.5 4.5t-6.5 -0.5q-1 2 -2.5 5.5
t-3 7.5t-2.5 8t0 7q-24 24 -24.5 24h-1.5q-6 0 -9.5 -6.5t-7.5 -14.5t-9.5 -15t-15.5 -8q2 0 5 -3t3 -5q1 -4 -2.5 -12t-8.5 -16.5t-10 -16t-7 -11.5q-2 -3 -4.5 -7.5l-5 -9t-4.5 -8t-2 -4t-4 -1.5t-4 -2v-4v-4q-5 -13 -11.5 -26t-14.5 -25.5t-16 -24.5t-14 -24
q-2 -4 -7.5 -13.5t-12 -21t-14 -24t-14.5 -24t-12.5 -20.5t-7.5 -13q0 -1 -1.5 -2.5t-2.5 -1.5t-4.5 -1t-7.5 -1.5t-7.5 -1t-4.5 -0.5q-5 0 -17.5 -0.5t-26.5 -0.5t-26.5 -0.5t-17.5 -0.5v10q6 14 10.5 23t9.5 18t8 15q2 4 5.5 9t7.5 11t7 12t4 12zM560 20h5q0 3 -0.5 7
t-4.5 5v-12zM144 156v4q0 1 -1.5 2.5t-2 1.5h-1.5h-2t7 -8zM463 240q0 -1 3 -5.5t7.5 -11.5t10 -15t10.5 -15t9 -12t5 -5v4l-4.5 6t-2.5 3.5t-1 2.5q0 2 -0.5 6.5t-0.5 9.5t0.5 9.5t0.5 6.5q-4 3 -7 7t-5 9h-25zM460 184q-3 0 -3 -4t3 -4t3 4t-3 4zM224 244h4v4zM220 312
q-3 0 -3 -4t3 -4t3 4t-3 4zM280 328q-3 0 -3 -4t3 -4t3 4t-3 4zM372 336q-3 0 -3 -4t3 -4t3 4t-3 4zM284 352v8l-4 -4zM355 374q0 -4 4 -5t7 -1q14 0 18 1.5t4 4.5t-0.5 7.5t4.5 10.5h-4q-5 0 -8.5 -2.5t-7.5 -6t-8 -6.5t-9 -3zM284 392q-3 0 -3 -4t3 -4t3 4t-3 4zM344 400
l12 -8l5 -2.5t4 -1.5t4 3t3 5q0 1 -2 4t-2 4v6v6q0 1 4 4t4 4q0 2 -1.5 6.5t-2.5 5.5q0 -3 -5.5 -7.5l-11 -9t-9.5 -9.5t-2 -10zM288 408q-3 0 -3 -4t3 -4t3 4t-3 4zM284 412q0 -1 2.5 -2.5t5 -2.5l5 -2t3.5 -1q2 0 5 3t3 5q-1 4 -5.5 4h-6.5h-6.5t-5.5 -4zM364 440
q-3 0 -3 -4t3 -4t3 4t-3 4zM344 452q0 -2 0.5 -4.5t3.5 -3.5l4 8l-8 4v-4zM344 500q-5 0 -13 -1t-15.5 -4t-12.5 -8.5t-5 -12.5h12t18.5 2.5t16.5 7t7 12.5q0 3 -3 3.5t-5 0.5zM268 564q0 1 -1 1.5t-3 0.5t-3 -0.5t-1 -1.5q1 -2 4 -2t4 2zM418 626q0 -7 -2.5 -14.5l-5 -15
t-4.5 -15t-2 -15.5v-2q4 0 8 7t7.5 16.5t6 18t2.5 10.5q0 4 -3 7t-7 3zM344 580q3 -2 5 -5.5t3 -6.5q1 3 3 6.5t5 5.5q-1 1 -4 2.5t-4 1.5h-2h-2q-1 0 -2.5 -1.5t-1.5 -2.5zM396 568q1 2 -2 2t-2 -2t2 -2t2 2zM308 600q-3 0 -3 -4t3 -4t3 4t-3 4zM204 668l2.5 -10t3.5 -6
q0 12 7 17t18 5q0 3 -2 5t-4.5 3t-5.5 1.5t-5 0.5h-2q-2 -1 -6.5 -5.5t-5.5 -6.5v-2v-2zM468 730q0 -5 5 -6t8 -1q0 5 -3.5 8.5t-5.5 8.5q-1 -1 -2.5 -4t-1.5 -4v-2zM156 756q1 -3 3.5 -3.5t4.5 -0.5h2.5t1 1.5t-3 2t-4.5 0.5h-2.5h-1.5zM492 804q0 -2 1.5 -6.5t2.5 -5.5
q5 2 5.5 6.5t1.5 9.5t4 8.5t13 3.5q2 0 5 -3t3 -5q0 1 1.5 4t2.5 4q4 4 4 5t-3 5t-5 6q-4 -2 -10 -5.5t-12 -7.5t-10 -9t-4 -10zM100 840h8v4z" />
    <glyph glyph-name="Y" unicode="Y" horiz-adv-x="704" 
d="M-11 10v3v3q3 -3 3.5 -5.5t0.5 -6.5v-2.5t-2 -1t-2 3.5v6zM241 520q-4 7 -12 22t-18 34t-21.5 40t-22 40t-18.5 34t-12 22q-1 1 -4 5.5t-6.5 10t-6.5 10.5t-3 6q-3 5 -4.5 11.5t-3.5 13t-3.5 13t-4.5 10.5l-6 6l-4 4t-9.5 12t-18 33t-22.5 45l-12 24l8 8h106l66 -120
q0 -1 1.5 -5.5t2.5 -6.5q0 -2 -12 -2v-6q11 1 19 -4.5t13.5 -14.5t9.5 -20t8.5 -21t9.5 -19t12 -13q0 -2 2.5 -8.5t5 -13.5t5 -13.5t3.5 -8.5q16 -33 33.5 -66t34.5 -66q0 -1 1.5 -2.5t2 -1.5h1.5h1.5t5 6.5t10.5 15t11 16.5t7 10v4v4q0 2 1.5 6.5t2.5 5.5l84 172
q2 4 6.5 10t9 13t7.5 14t1 11q13 33 29 65.5t35 62.5q3 3 7.5 4t8.5 1q5 0 9.5 -0.5t6.5 -0.5q1 0 6.5 1t11.5 1.5t11.5 1t6.5 0.5h10q8 0 15.5 -1.5t13.5 -4.5t6 -9q0 -5 -2.5 -12t-7 -15t-9.5 -16t-9.5 -15t-8 -11t-4.5 -4t-4 2t-4 2t-2.5 -1.5t-1.5 -2.5t2 -4t2 -4v-8
q0 -5 -1 -7.5t-3 -5.5t-4.5 -5.5t-3.5 -5.5q-12 -28 -25.5 -56t-26.5 -56q-1 -1 -3 -5t-4.5 -8.5t-5 -8.5t-3.5 -6q-3 -5 -5 -9t-3.5 -8.5t-3 -8.5t-4.5 -10q-20 -36 -37 -72t-39 -72q3 -12 -4 -25t-17 -26t-18.5 -26t-8.5 -23v-4q0 -2 0.5 -6t1 -8.5t1.5 -8t1 -5.5v-347
l-16 -5h-92v384q-4 10 -7.5 16.5l-7 13t-5.5 10.5q-13 22 -24.5 47t-27.5 45zM409 440q-3 0 -3 -4t3 -4t3 4t-3 4zM317 468l8 4h-8v-4zM344 489q0 -6 1.5 -9.5t7.5 -3.5q8 0 15 3.5t13 8.5h-4q-5 0 -9 -2t-9 -2h-2l-8 4q-1 0 -3 0.5zM300 502q0 -6 4 -11t5 -11q3 2 5.5 6
t2.5 8q0 3 -2 4.5t-5 2.5t-5 1h-5zM341 496q-3 0 -3 -4t3 -4t3 4t-3 4zM421 508h8l-4 4zM285 532q-2 0 -3.5 -3t-1.5 -5h17q-2 2 -6 5t-6 3zM281 540h4v4h-4v-4zM241 576q-2 0 -2 -2t2 -2t2 2t-2 2zM289 580q-3 0 -3 -4t3 -4t3 4t-3 4zM217 640q-2 0 -2 -2t2 -2t2 2t-2 2z
M469 640q-2 0 -2 -2t2 -2t2 2t-2 2zM533 660q2 -5 8 -5v5h-8zM465 672q-2 0 -2 -2t2 -2t2 2t-2 2zM193 732q-6 0 -9 -3t-7 -9h4q6 0 10 2t10 6q-1 3 -3.5 3.5t-4.5 0.5zM145 796q1 0 5.5 1.5t10.5 4.5t8 6q2 -1 3.5 -3.5t0.5 -4.5l4 4l3.5 3.5t0.5 1.5v3q-1 1 -4 2.5t-4 1.5
q-2 0 -5.5 1t-8 1.5t-8.5 1t-6 0.5v-24zM125 828h8v4z" />
    <glyph glyph-name="Z" unicode="Z" horiz-adv-x="630" 
d="M16 80q0 5 2.5 10t5.5 9.5t6.5 8.5t5.5 8q3 5 11 18t17 27.5t17 28t11 18.5q4 2 7 6t5 9t4 9l4 8q61 103 120 204.5t116 207.5q1 0 2.5 1.5t1.5 2.5t2.5 6t5 10.5t5 10t3.5 5.5l6 6t4 3.5t2 2.5q4 6 8 16t9 21t10.5 22.5t12.5 21t15 16t17 7.5v12h-5q0 6 2.5 9.5t2.5 8.5
q0 3 -1.5 4t-4 1.5t-5.5 0.5h-4q-24 0 -47.5 -2t-47.5 -2h-7h-10h-10h-7q0 1 -1.5 2.5t-2 1.5h-1.5h-3q-1 0 -2.5 -1.5t-1.5 -2.5q-16 -1 -28 -2t-22 -1.5t-20.5 -0.5h-23.5h-22q-1 1 -4 2.5t-4 1.5t-4 -1.5t-4 -2.5h-63q0 3 -0.5 7t-4.5 5q-6 -10 -16 -13t-20 -3h-4
l-7.5 2.5t-8.5 77.5q4 12 12.5 12.5t21 1t25.5 1.5t21 1q39 1 78 3.5t78 4.5h16h28h28h16q1 0 4 0.5l6 1t6 1.5t4 1h120q1 0 4 1t6 1.5l6 1t4 0.5h4h4l48 -8q1 0 2.5 -7t3 -16t2 -17.5t0.5 -11.5v-10.5t-1.5 -10.5t-4 -9t-6.5 -6l-32 -60q-1 0 -2.5 -1.5t-1.5 -2.5
q-19 -28 -36 -57.5t-33 -59t-31.5 -59.5t-31.5 -60l-32 -56l-4 -8q-7 -9 -12.5 -19t-10.5 -20t-10 -20.5t-11 -20.5q-28 -46 -57 -94.5t-59 -93.5q-1 0 -2.5 -1.5t-1.5 -2.5q-12 -20 -23.5 -38.5t-24.5 -37.5q-2 -3 -5.5 -8.5t-7 -10.5t-7.5 -13v-1q11 0 13.5 1.5t3 3t2.5 3
t11 1.5h6t6 -1t4 -3t4 -3t7 -3t16.5 -2h21.5h5h7h6t17.5 0.5t43.5 1t58 0.5t58 1t58 5q6 8 16 16t22 8q7 0 11 -1.5t7 -4.5l6.5 -6.5t9.5 -7.5q4 -2 10.5 -2.5l13 -1t12.5 -2t8 -6.5v-9.5v-14.5v-14.5v-9.5q0 -1 0.5 -4t1.5 -6t1.5 -6t0.5 -4t-0.5 -3.5t-1 -6t-1.5 -6.5
t-1 -4t-1.5 -2.5t-2.5 -1.5h-30h-45.5h-54.5h-60h-60h-54.5h-45.5h-30q-8 0 -23.5 -0.5t-35 -1t-41.5 -0.5t-41.5 -0.5t-35 -1t-23.5 -0.5l-8 8zM132 36q-3 0 -3 -4t3 -4t3 4t-3 4zM552 36v4h-4zM60 52h4v4h-4v-4zM388 56q0 -1 1.5 -2.5t2 -1.5h1.5h1.5h1.5l8 16h-16
q1 0 2.5 -1.5t1.5 -2v-1.5v-3q0 -1 -1.5 -2.5t-2.5 -1.5zM424 52l4 4h-4v-4zM68 64q0 2 -2 2t-2 -2t2 -2t2 2zM128 84v4h-4zM112 188q0 2 -2 2t-2 -2t2 -2t2 2zM204 300q-1 -1 -2.5 -3.5t-3.5 -4.5t-4 -4.5t-2 -3.5t-0.5 -2.5t0 -1.5h2h2.5q2 0 6.5 1.5t5.5 2.5zM244 352
q-4 -1 -4.5 -5t-0.5 -7h5v12zM276 412q0 -1 1.5 -2.5t2.5 -1.5h2h2q1 0 4 1.5t4 2.5q-1 3 -3.5 3.5t-4.5 0.5t-4.5 -0.5t-3.5 -3.5zM300 464q-3 0 -3 -4t3 -4t3 4t-3 4zM360 488q-3 0 -3 -4t3 -4t3 4t-3 4zM376 556v4h-4zM360 660q-3 0 -3 -4t3 -4t3 4t-3 4zM416 688
q-3 0 -3 -4t3 -4t3 4t-3 4zM428 692q-3 0 -3 -4t3 -4t3 4t-3 4zM184 844q1 2 -2 2t-2 -2t2 -2t2 2zM544 848q-3 0 -3 -4t3 -4t3 4t-3 4zM292 848q1 2 -2 2t-2 -2t2 -2t2 2zM524 852q-2 0 -2 -2t2 -2t2 2t-2 2zM284 856q-3 0 -3 -4t3 -4t3 4t-3 4zM460 859q6 0 8 5h-8v-5z
M284 872q-3 0 -3 -4t3 -4t3 4t-3 4zM484 900q-3 0 -3 -4t3 -4t3 4t-3 4z" />
    <glyph glyph-name="a" unicode="a" horiz-adv-x="753" 
d="M26 0q0 7 2.5 14t5.5 14t5 13.5t0 13.5l20 92l8 16l192 624q0 2 1 8t2.5 12t2.5 12t2 8q2 8 5 18t6.5 22t7 23t6.5 20l5 15t6 10q9 2 14.5 2.5t11.5 1t10 0.5h7h15.5h17.5h14h10h17h16h11q6 -1 10.5 -6.5t8 -14.5t6.5 -19t5 -20t3.5 -18.5t2.5 -13.5q5 -20 11 -38
t12.5 -35.5t11.5 -36t9 -38.5l152 -496q4 -8 6 -15t3.5 -13.5t2.5 -14t4 -17.5q4 -13 10 -27.5t12 -29.5t10 -30t4 -29v-6.5v-5.5q-8 -2 -17.5 -3t-19.5 -1.5t-19.5 -0.5h-16.5h-8t-10 0.5t-9 0.5t-8 8l-82 280h-290q-2 1 -8 2.5t-8 1.5q-1 0 -4 -0.5l-6 -1t-6 -2.5t-4 -4
q-7 -27 -15 -53.5t-15.5 -53.5t-14.5 -54t-11 -55q-3 -2 -6 -8t-4.5 -10.5t-1.5 -5.5q-4 -13 -5.5 -22t-2 -14.5t-2 -9t-6 -5t-13 -2.5t-23.5 -3l-6 -1.5t-4 -1.5t-6 -1q-14 0 -26.5 2.5t-26.5 2.5zM87 91q0 -5 3.5 -8.5t8.5 -3.5h2.5t-1.5 1.5t-5 7.5t-2 12q-4 0 -5 -3.5
t-1 -5.5zM74 120q0 -10 10 -10q0 10 -10 10zM123 195q0 -2 1.5 -6.5t2 -5t1 -0.5h1.5q6 0 9 6t3 10h-3.5h-3.5t-5.5 -1.5t-5.5 -2.5zM119 207q-2 1 -2 -2t2 -2t2 2t-2 2zM615 219q-3 0 -3 -4t3 -4t3 4t-3 4zM611 295h8v4h-8v-4zM231 315q-3 0 -3 -4t3 -4t3 4t-3 4zM343 351
q-3 0 -3 -4t3 -4t3 4t-3 4zM203 359q0 -2 0.5 -4.5t3.5 -3.5q6 3 9 6.5t3 9.5v2.5t-4 1t-8 -3t-4 -8.5zM507 359q-2 1 -2 -2t2 -2t2 2t-2 2zM503 375q-3 0 -3 -4t3 -4t3 4t-3 4zM247 393q29 0 55 -3t53 -3q8 0 16.5 2t16.5 2q29 0 57 -2t57 -2h5q4 0 4 4v28q-1 0 -4.5 10
t-8.5 25t-10.5 32t-10 32t-7.5 25.5t-3 11.5q-1 5 -4 17t-6 25.5t-6 25t-4 16.5q-2 6 -4.5 17t-5.5 22t-6.5 21t-7.5 16q-1 4 -2.5 12t-4 18.5t-5 21.5t-5 21.5t-4.5 18.5l-3 12q0 2 -2 7t-4 11t-3.5 11t-2.5 7q-1 3 -3 3.5t-5 0.5q-2 0 -4.5 -0.5t-3.5 -3.5t-3 -10.5
t-4.5 -15.5t-5 -15.5l-3.5 -10.5q-2 -4 -4 -6t-3 -4t-2.5 -6t-3 -13t-2.5 -19t-2 -19t-3 -17q-1 -5 -4 -15t-6.5 -22.5t-7.5 -26.5t-7.5 -26.5t-6.5 -22.5t-4 -15q-5 -3 -7 -12t-3.5 -20t-3.5 -22t-6 -18q-2 -2 -4 -3.5t-3 -3t-1 -2v-3.5v-8v-8v-4q-1 -8 -5 -20.5t-8.5 -26
t-7.5 -26.5t-3 -21zM551 399q-3 0 -3 -4t3 -4t3 4t-3 4zM551 407q-3 0 -3 -4t3 -4t3 4t-3 4zM531 439q1 -2 5 -6t9 -8.5t9.5 -8t6.5 -3.5q0 13 -2 25.5t-8 24.5q-7 2 -9.5 -0.5t-3 -7t-1.5 -9.5t-6 -7zM495 527q0 -1 1 -2.5t2.5 -3.5l3 -4t2 -3l2 -4t1.5 -4t0.5 -6t0.5 -11
t0.5 -11.5t0.5 -7.5q2 0 6.5 1t9 3.5t7.5 5.5t3 7q0 1 -0.5 4l-1 6t-1.5 6t-1 4q0 2 -0.5 8t-0.5 8h-7v-10q-2 0 -5 1t-5 3.5l-4 5t-2 4.5q0 8 4 17t9 19t8.5 19.5t2.5 16.5q0 2 -2 6t-4.5 8l-5 8t-4.5 6l-12 -8q1 -1 2.5 -4t3.5 -6l4 -6t2 -3.5v-2v-2.5q0 -7 -3.5 -7h-8.5
v7q-3 -1 -3.5 -3t-0.5 -5t1.5 -7.5t3 -8.5t2.5 -8.5t1 -7.5q0 -2 -2 -5.5t-4.5 -7.5t-4.5 -8t-1 -7zM543 471q0 2 -2 2q-3 0 -2 -2q0 -2 2 -2t2 2zM499 483q-3 0 -3 -4t3 -4t3 4t-3 4zM547 487q-3 0 -3 -4t3 -4t3 4t-3 4zM223 529q0 -2 1.5 -8t4 -11.5t5.5 -10t5 -4.5
q4 0 5 1t2 3t1.5 4.5t3.5 3.5q-1 3 -4 4t-5.5 2t-4.5 3t-2 7q0 1 1 4l2 6t2.5 5.5t2.5 4.5h-4q-6 0 -9 -3t-5 -6t-2 -3.5v-1.5zM261 503h-2q-1 0 -2.5 -1.5t-1.5 -2.5h4q1 0 2.5 1.5t1.5 2.5h-2zM467 671q2 -5 8 -5v5h-8zM447 763q-3 0 -3 -4t3 -4t3 4t-3 4zM447 775
q-3 0 -3 -4t3 -4t3 4t-3 4zM339 783q-3 0 -3 -4t3 -4t3 4t-3 4zM447 779h5q0 6 -5 8v-8zM335 799h4v4h-4v-4zM331 819q-2 0 -2 -2t2 -2t2 2t-2 2zM463 835q0 1 -1 1.5t-3 0.5t-3 -0.5t-1 -1.5q1 -2 4 -2t4 2z" />
    <glyph glyph-name="b" unicode="b" horiz-adv-x="672" 
d="M36 184q1 1 2.5 4t1.5 4q0 2 -1.5 6.5t-2.5 5.5v124q0 1 -1 4t-1.5 6l-1 6t-0.5 4v2v2q0 2 0.5 8l1 12t1.5 12t1 8v12v18v22v22v18v12q0 72 -2 143t-2 143v14v22v25v25v22v14q-2 6 0 10.5t6 7t9 3t9 -0.5q6 0 19 0.5t29 1t34 0.5t34 0.5t29 1t19 0.5q3 0 9.5 -0.5
t14.5 -0.5t15.5 1t12.5 4h112q11 -4 22.5 -5.5t23.5 -3t23.5 -4t22.5 -7.5q31 -14 58 -33.5t47.5 -45t33 -56t13.5 -65.5q1 -28 -3.5 -56.5t-15.5 -55t-29 -48.5t-44 -36q-6 -3 -14 -6.5t-16 -7.5t-15 -8t-11 -10q30 -7 54 -21.5t43.5 -34t34.5 -43t28 -49.5q0 -1 1 -7
t2 -14.5t2 -18.5t2 -18.5t1 -15.5v-9q0 -46 -10 -80.5t-30.5 -61t-50.5 -47t-69 -40.5q-11 -6 -23 -8.5t-24.5 -4.5t-25 -4.5t-23.5 -6.5h-356v184zM244 36q0 1 -2 1.5t-4 0.5t-4.5 -0.5t-1.5 -1.5q1 -2 6 -2t6 2zM140 120q0 -14 4 -20t16 -8h6h10h10h6q49 0 95.5 2.5
t96.5 1.5q38 6 68 19t50.5 34t31 50.5t10.5 69.5q0 41 -14 69.5t-38 47.5t-55.5 30t-65.5 16.5t-68 6.5t-63 1h-15h-23h-23h-15q-1 0 -4 -0.5l-6 -1t-6 -1.5t-4 -1t-2.5 -1.5t-1.5 -2.5t0.5 -3t1 -5t1.5 -5.5t1 -7.5v-7q0 -4 -0.5 -12.5t-1 -19t-0.5 -22.5t-0.5 -22.5
t-1 -19t-0.5 -12.5q-1 -1 -2.5 -5.5t-1.5 -6.5v-2v-2q0 -2 1.5 -6.5t2.5 -5.5v-148zM100 196q-2 1 -2 -2t2 -2t2 2t-2 2zM112 200q-3 0 -3 -4t3 -4t3 4t-3 4zM460 460q-3 0 -3 -4t3 -4t3 4t-3 4zM224 496q-3 0 -3 -4t3 -4t3 4t-3 4zM260 524q-3 0 -3 -4t3 -4t3 4t-3 4z
M524 524q-3 0 -3 -4t3 -4t3 4t-3 4zM140 540q0 -5 3 -7.5t7 -3.5t8 -1h8h2q2 0 9.5 1t16.5 1.5t16.5 1t9.5 0.5q29 1 62.5 1t67 3.5t64 11.5t54.5 25t38 44.5t14 69.5q0 25 -7.5 50.5t-22 46.5t-36.5 34.5t-50 13.5h-264v-292zM520 532q5 3 5 9q-6 0 -9 -5zM504 548
q0 -1 1.5 -2.5t2 -1.5h1.5h2t-3 8zM492 552q-3 0 -3 -4t3 -4t3 4t-3 4zM520 552q-2 0 -2 -2t2 -2t2 2t-2 2zM508 560q0 2 -2 2t-2 -2t2 -2t2 2zM528 564q-3 0 -3 -4t3 -4t3 4t-3 4zM508 580q-3 0 -3 -4t3 -4t3 4t-3 4zM506 584h-6t-4 -4h2h2q2 0 6.5 1.5t5.5 2.5h-3h-3z
M132 624q-3 0 -3 -4t3 -4t3 4t-3 4zM72 640l4 4h-4v-4zM80 656q-3 0 -3 -4t3 -4t3 4t-3 4zM532 736q2 -5 8 -5v5h-8z" />
    <glyph glyph-name="c" unicode="c" horiz-adv-x="719" 
d="M131 104q-20 28 -34 54.5t-25 53.5t-18.5 55.5t-14.5 60.5q-1 2 -3.5 12t-5 22t-5 22t-2.5 12v5q0 21 1 43.5t2.5 45t3 44.5t1.5 42q1 2 2.5 8t1.5 8q8 46 21 90.5t32 84t45 73t60 57.5t77 37.5t97 13.5q49 0 92 -10t79.5 -31.5t64.5 -55t48 -79.5q1 -3 4 -10t6 -15.5
t6 -16t4 -10.5q0 -1 1.5 -6.5t3 -11.5t2.5 -11t1 -7q0 -1 -6 -4t-14.5 -6.5t-19 -7.5t-20.5 -7t-17.5 -5t-10.5 -2t-5.5 4.5t-4.5 10t-3.5 11.5l-2.5 10q-17 41 -34.5 72t-40 51.5t-54 30.5t-77.5 10q-5 0 -15 0.5t-20.5 0.5t-21 -1t-17.5 -4q-21 -8 -38.5 -22t-32.5 -31
t-27 -36.5t-22 -38.5q-5 -10 -7.5 -20.5t-8.5 -19.5q-14 -51 -21 -104t-7 -106v-6q2 -23 3.5 -49.5t4.5 -54t7.5 -54t12.5 -50.5q4 -13 11 -24t15 -21t17 -19.5t17 -19.5q3 -5 4 -8t2.5 -5.5t3.5 -3.5t4 -1.5l4 -1t4 -1.5t5.5 -5t7 -9t6.5 -10t7 -7q10 -7 27 -13t35.5 -10.5
t37 -6.5t30.5 -2q21 0 42.5 7t40.5 18.5t35.5 26.5t27.5 32q6 8 7.5 17.5t4.5 18.5q5 13 11.5 24.5l13 23t13 23.5t10.5 25h7h7h9.5t14.5 -1t17 -2t16.5 -3t12 -5t4.5 -7v-2q-1 -1 -3 -4.5t-4.5 -7.5t-5 -7.5t-3.5 -4.5q8 -8 6 -14t-5.5 -15.5t-7.5 -21t-8 -22t-7.5 -19
t-5.5 -12.5q-26 -42 -55 -71.5t-63.5 -48.5t-75 -27.5t-90.5 -8.5q-68 0 -127 26.5t-105 77.5zM451 860q-3 0 -3 -4t3 -4t3 4t-3 4z" />
    <glyph glyph-name="d" unicode="d" horiz-adv-x="706" 
d="M25 201v15.5t4 15.5q-1 80 -0.5 161t2 161t2.5 161t0 161l4 40l16 4h4h10h10h9q34 0 66.5 -2t66.5 -2q21 0 41.5 2t40.5 2h8q25 -3 51.5 -8t52 -12t50 -17t46.5 -23q32 -19 57.5 -45.5t45 -57.5t33.5 -66t23 -71.5t13 -73t4 -72.5q0 -20 0.5 -42t-1.5 -43t-8 -41t-19 -36
q-1 -1 -2.5 -4t-1.5 -4t1 -2.5t2.5 -3.5l3 -4t1.5 -4t-3 -10.5t-6.5 -19t-8 -19t-6.5 -9.5l-12 12q-2 -1 -4 -4t-3.5 -6.5t-3 -6t-1.5 -3.5q1 -3 3.5 -3.5t5.5 -0.5t5 -1t2 -5q0 -11 -5 -20.5t-11.5 -18t-13.5 -17.5t-10 -18q-26 -28 -57.5 -53t-66.5 -44.5t-73.5 -31
t-78.5 -11.5h-284q0 6 -0.5 20t-1 31.5t-0.5 36.5t-0.5 36.5t-1 31t-0.5 20.5v25zM133 112q1 -12 4.5 -17t15.5 -7h7h12h11h8q26 0 53 1t53 3q10 1 14.5 3.5t7 5.5t4.5 5t8 2h2l12 -8h2q12 0 26.5 4t30.5 11.5t31.5 17t29.5 19.5t25.5 20.5t18.5 19.5q22 29 36.5 63
t22.5 70.5t10.5 74t2.5 72.5q0 51 -7.5 99.5t-24.5 96.5q-3 4 -5 8t-3.5 8l-3 8t-4.5 8q-20 25 -39.5 45t-41.5 35.5t-49 26t-62 17.5h-9h-14t-13.5 1t-7.5 3l-4 8q-9 -2 -14.5 -4t-10.5 -3t-7 -1q-5 0 -9.5 2t-8 4t-6 4t-4.5 2l-4 -4q-3 -2 -9 -5t-7 -3h-72l-4 -4v-21.5
v-33.5v-39v-39v-33.5v-21.5q0 -5 -0.5 -20t-1 -35t-1 -43t-1 -43t-0.5 -35v-20q0 -2 0.5 -11t1 -19t1.5 -19t1 -11v-2q0 -41 -2 -81t-2 -81v-12v-18v-22v-22v-18v-12zM532 129q0 -5 3 -9l6 -8q3 1 3.5 3.5t0.5 4.5q0 6 -3.5 7.5t-9.5 1.5zM509 143q3 0 5.5 2t2.5 5v2
q0 1 -1.5 2.5t-2 1.5h-1.5h-2t-1 -13zM529 170q0 -3 1 -5t2 -3.5t1.5 -4t-0.5 -5.5q6 -1 7 2.5t1 7.5q0 5 -1 8.5t-7 5.5q-1 0 -2.5 -1.5t-1.5 -2.5v-2zM613 264q-3 0 -3 -4t3 -4t3 4t-3 4zM605 274v-2l20 -4l4 4q-3 6 -6.5 9t-9.5 3q-4 0 -6 -3t-2 -7zM601 288q-3 0 -3 -4
t3 -4t3 4t-3 4zM625 291q6 0 8 5h-8v-5zM665 312q2 -1 2 -2t-2 -2t-2 2t2 2zM633 360q-3 0 -3 -4t3 -4t3 4t-3 4zM637 368h4v4h-4v-4zM633 452q2 -3 3 -8.5t2.5 -11t4 -10t6.5 -6.5q1 5 3.5 8t5.5 6.5t5.5 8t2.5 13.5h-18q0 3 -0.5 5.5t-4.5 2.5h-2l-4 -4zM657 424
q-3 0 -3 -4t3 -4t3 4t-3 4zM621 462q-4 0 -6 -3.5t-2 -6.5h8v10zM597 506v-2q0 -1 2 -4t2 -4q1 -7 1 -11t0.5 -6t3.5 -2.5t11 -0.5h6.5h5.5q2 2 3 6t1.5 8t0 8t-0.5 6v4v6v6v4q-2 3 -6 5.5t-8 2.5h-2q-1 0 -2.5 -1.5t-1.5 -2.5q-2 -8 -2.5 -9.5t-1 -1.5t-3 -1t-6 -4.5
t-3.5 -4v-1.5zM92 530q0 -3 2 -8t5.5 -10t7 -9t6.5 -4q6 0 7.5 5t4.5 12v2q0 5 -4.5 7.5t-10.5 3.5t-12 1h-6zM593 540q-3 0 -3 -4t3 -4t3 4t-3 4zM583 609q0 -3 2 -4.5l4 -3t4 -2.5t4 -3v4q0 6 -4 7.5t-10 1.5zM617 638q0 -5 2 -10.5t2 -11t-2 -9.5t-10 -7h4q6 0 10.5 5.5
t6.5 13.5t3 16t1 13h-17v13q2 0 3 -0.5t1.5 -0.5t1.5 1t2 3q-1 2 -5.5 6.5t-5.5 5t-2 0.5h-2t-1.5 -0.5t-2 -3.5t-3.5 -6l-4 -6t-2 -3.5v-1.5v-3l3.5 -3.5t5 -5.5t4.5 -5t3 -2q1 -1 2 0.5t2 1.5zM100 665q0 -7 5.5 -10t11.5 -3q4 3 4 3.5v1.5v2.5t-2.5 2.5t-6 1.5l-7 1
t-5.5 0.5zM605 680l4 4h-4v-4zM57 696h4l-4 4v-4zM561 716q-2 -3 -4.5 -4.5t-5 -2.5t-4.5 -3t-2 -6h5h5h9.5t8.5 4zM581 704h4q1 0 2.5 1.5t1.5 2.5zM525 768h4q6 0 10 2t10 6l-20 8zM309 832q1 2 -2 2t-2 -2t2 -2t2 2zM249 876q-3 0 -3 -4t3 -4t3 4t-3 4z" />
    <glyph glyph-name="e" unicode="e" horiz-adv-x="617" 
d="M18 88q0 6 1 11.5t2.5 11.5l3 12t1.5 13v620q0 1 -1.5 5.5t-2.5 6.5l-1.5 2l-3 4t-2.5 3.5t-1 2.5t1 3.5l2 5t2.5 4.5t2.5 3q1 11 1.5 25.5t1.5 30.5t1 31.5v28.5l4 4l7 0.5t18 1t25 0.5t28 0.5t27 1t23 0.5h33.5h49.5t60.5 0.5t65.5 0.5h65q33 0 61 0.5t49 0.5h34
q0 -4 -0.5 -15t-0.5 -22.5t-0.5 -22t-0.5 -14.5q0 -2 -1.5 -8t-2.5 -8q-4 -1 -13.5 -2t-20.5 -2.5t-20.5 -2.5t-13.5 -1h-18h-32h-38h-38h-32h-18q-27 0 -49.5 -1t-44.5 -2t-44 -1.5t-46 0.5q-2 -3 -4 -8.5t-3 -11t-1 -10v-6.5v-256l4 -4h2h6h6h5q44 0 86.5 2t86.5 2h17h27
h26h18q3 0 7.5 -0.5t8.5 -2t7 -3.5t5 -6v-6v-7.5v-8.5v-6v-26t-4 -26q-4 0 -15.5 -1t-24.5 -1.5t-24.5 -1t-15.5 -0.5h-26.5h-40.5h-47h-48h-40h-26q-4 -4 -4 -9.5v-10.5v-16l4 -104v-10v-18v-22v-22v-18v-10q0 -7 -0.5 -17t-1 -20.5t0.5 -21.5t4.5 -19t10.5 -13t18 -5
q4 0 7 2l6 4l6 4t7 2q7 0 12.5 -2t13.5 -6l252 -2h16h19.5t28.5 -0.5t27.5 -1t16.5 -0.5q1 0 4 -0.5l6 -1t6 -1.5t4 -1t2.5 -1.5t1.5 -2.5v-64q0 -1 -1 -4.5t-2 -8t-2 -8t-3 -3.5h-560l-8 68q-1 6 -4.5 10t-3.5 10zM82 428q-3 0 -3 -4t3 -4t3 4t-3 4zM84 472
q0 -11 1.5 -24.5t8.5 -23.5q5 1 5 6v11q0 5 2 9.5t11 4.5q0 6 -3 9.5t-7 5.5t-9 2h-9zM118 464l4 -8l4 -8v3v3q0 5 -1 8.5t-7 5.5v-2v-2zM138 484q-3 0 -3 -4t3 -4t3 4t-3 4zM163 498q-6 0 -7.5 -5t-1.5 -9v-2.5v-1.5q2 5 5.5 8.5t3.5 9.5z" />
    <glyph glyph-name="f" unicode="f" horiz-adv-x="585" 
d="M37 4q1 104 -1.5 207t-2.5 208v17q0 7 0.5 14t1 14.5t2.5 19.5q1 0 4 1.5t4 2.5t-0.5 2t-1.5 2h-4q0 4 -0.5 13.5t-0.5 20.5t-0.5 20.5t-0.5 13.5q0 2 -1.5 8t-2.5 8q1 73 -1.5 144.5t-2.5 143.5v13v15v13v7q4 8 12 8.5t19 1t22 1.5t19 1h9h15h15h9t8 0.5t14 1.5t14 1.5
t8 0.5q1 0 5 -0.5t9 -1t9 -1.5t5 -1h6q17 0 34 2t34 2h10l60 -4h2q26 0 51.5 2t52.5 2h14h21h21h14q3 0 7.5 -1t9 -3t8 -5t3.5 -7v-68q-4 -1 -8 -4.5t-8.5 -7t-8.5 -6t-7 -2.5q-4 0 -7 1.5t-5 6.5q-4 0 -13 1t-19 1.5t-19 1t-13 0.5h-4h-4q-2 0 -9 -1t-15 -1.5t-15 -1
t-9 -0.5t-10 0.5t-18 1.5t-18 1.5t-10 0.5h-12t-18.5 -0.5t-21.5 -1t-21.5 -0.5t-18.5 -0.5t-12 -0.5h-110q0 -4 -0.5 -15t-1 -23.5t-0.5 -23.5v-15q0 -1 0.5 -5t1.5 -9t1.5 -9t0.5 -5q0 -2 -0.5 -7.5t-1.5 -12.5t-1.5 -12.5t-0.5 -7.5v-4v-9v-11v-8q0 -31 1.5 -62t6.5 -62
h8h14h13h9h42.5t41.5 4q1 2 5.5 6.5t6.5 5.5t4.5 2.5t3.5 1.5l6 -6l4 -4l2.5 -2.5t3.5 -2t4 -1.5h6h9h9h6q18 0 34.5 2t33.5 2q3 0 12.5 -1t19.5 -3t18 -4.5t8 -5.5v-2l-4 -76l-4 -4h-18h-28h-32h-33h-27h-18q-12 0 -28.5 -0.5t-34 -1t-35 -0.5t-31.5 -0.5t-31 -1.5l-4 -4
v-428q0 -3 -5.5 -5t-13 -2.5t-14.5 -0.5h-11h-13.5t-13 1t-13.5 1.5t-16 1.5zM45 92q-3 0 -3 -4t3 -4t3 4t-3 4zM49 168q1 0 2.5 3t3.5 6.5t3.5 6.5t2 3.5t0.5 1.5v3t-2.5 3t-5.5 1h-2.5t-1.5 -28zM93 196h4v4zM117 236q-3 0 -3 -4t3 -4t3 4t-3 4zM69 332q-10 -1 -10 -10
q9 0 10 10zM85 328q0 -1 1.5 -2.5t2.5 -1.5h2q7 0 13 3t6 11q-7 0 -13.5 -2t-11.5 -8zM81 332q0 2 -2 2t-2 -2t2 -2t2 2zM85 344q-3 0 -3 -4t3 -4t3 4t-3 4zM121 344q-3 0 -3 -4t3 -4t3 4t-3 4zM81 348q-3 0 -3 -4t3 -4t3 4t-3 4zM209 504q-3 0 -3 -4t3 -4t3 4t-3 4zM57 544
q12 2 18 9.5t6 20.5q0 6 -4.5 6h-7.5q-8 0 -14 -5.5t-6 -14.5q0 -5 2 -6t6 -1v-9zM57 568q3 0 3 -4t-3 -4t-3 4t3 4zM89 628q-4 -4 -4 -8.5v-9.5v-5v-5q2 0 3 2.5t1.5 5.5t0 5.5t-0.5 3.5v5.5v5.5zM62 617q-10 0 -10 -10q10 0 10 10zM69 660q6 -4 8 -10t8 -10q1 3 3.5 6
t5.5 6t5 6t2 6q-2 3 -3.5 4.5t-3 2.5t-1 2.5t1 1.5t1.5 0.5t1.5 0.5t3.5 -1.5t4 -2.5q1 1 2.5 5.5t1.5 6.5v2v2q-2 1 -8 2.5t-8 1.5h-5h-3zM109 724q-3 0 -3 -4t3 -4t3 4t-3 4zM85 868q-3 0 -3 -4t3 -4t3 4t-3 4zM373 876q-1 0 -1.5 -1t-0.5 -3t0.5 -3t1.5 -1q2 1 2 4t-2 4z
" />
    <glyph glyph-name="g" unicode="g" horiz-adv-x="728" 
d="M24 468v13.5t0.5 20.5t0.5 20.5v13.5q4 14 4 26v26v6v8.5v7.5v6q-3 1 -3.5 3.5t-0.5 4.5q0 4 1.5 7t6.5 5l40 112q13 36 38 68t56.5 57t68 42.5t73.5 24.5q12 2 27 4t30.5 3t30.5 1h27h5q30 -9 61.5 -18.5t58.5 -25.5q29 -17 55.5 -42t47 -55t34.5 -63.5t19 -67.5
q-21 -10 -46.5 -15t-47.5 -5q-4 0 -8 8t-7.5 18t-6.5 19t-4 11q-14 34 -33 60t-43.5 44t-54.5 27t-67 9q-54 0 -94 -16t-68.5 -44t-47 -65.5t-29.5 -80.5t-15 -89.5t-4 -91.5q0 -37 3.5 -79t12.5 -83t25.5 -78.5t41.5 -66t60 -45.5t83 -17h5h8h8h5q3 3 8.5 4t10.5 1
q6 0 11 -0.5t6 -0.5q2 7 6 7.5t10 0.5q4 0 6.5 -1t5 -3t5.5 -3t7 -1q6 0 15.5 3t19 8.5t17.5 11t12 9.5q2 5 2.5 7.5l1 5t0.5 3.5t1.5 2.5t2.5 1.5t4 0.5t6.5 1t6 1.5t3.5 1q2 2 7 9t9.5 15t8 15.5t3.5 10.5v2q0 1 -1.5 2.5t-2.5 1.5q10 13 15 28t7 30.5t2 31.5v32v8v9v9
t-4 8q-20 -1 -37 -1.5t-33 -1.5t-32.5 -1h-33.5q-16 0 -30 2.5t-30 2.5v79q0 1 1.5 2.5t2.5 1.5t3.5 1t5 1.5t4.5 1t3 0.5h88q2 0 6 1t8.5 2t8 2.5t5.5 2.5q5 3 7 6.5t4 6.5t4.5 5t8.5 2q4 0 7 -2t5 -5.5l4 -7t4 -5.5q1 0 5.5 -1.5t6.5 -2.5q13 -3 25.5 -4.5t24.5 -1.5
q13 0 26 0.5t28 1.5l8 -4v-9v-20t0.5 -27t0.5 -30v-29v-23v-34v-43t-0.5 -46.5t-0.5 -43.5v-33.5v-17.5q0 -9 -0.5 -22.5t-1 -26.5t-1.5 -22t-9 -13h-72l-4 4v11v17v17v11t-1.5 9t-2.5 7t-2.5 0.5t-4 -2t-4.5 -2.5t-3 -1q0 -1 1 -1.5t1 -1.5q-1 -2 -4 -6.5t-4 -5.5
q-25 -17 -49.5 -29.5t-50 -21.5t-52.5 -13t-58 -4q-68 0 -120.5 18t-92 51t-66.5 77t-44 96.5t-24.5 110t-7.5 115.5zM225 60q1 2 -2 2t-2 -2t2 -2t2 2zM249 84q-4 -3 -7 -5.5t-5.5 -5.5t-3.5 -5q-1 -1 -1.5 -4.5t-0.5 -4.5q6 0 9.5 2.5t6 5.5t4.5 6.5t6 6.5zM635 200
q4 -1 6.5 -2t4 -2.5l3 -3l4.5 -4.5q1 -1 2 -1v19q2 0 4 -0.5t3.5 0t2 2.5t0.5 6q0 2 -1 6.5t-2.5 9.5t-3 9t-1.5 5q-1 -1 -4 -2.5t-4 -1.5l-6 1.5t-4 1.5t-4 1q-4 0 -8 -2.5t-7 -6.5t-5 -8.5t-2 -8.5v-6t4 -4q4 2 5 4l2 4t3 4t8 4v-24zM537 196v-4l-4 4h4zM669 204
q-3 0 -3 -4t3 -4t3 4t-3 4zM681 204q-3 0 -3 -4t3 -4t3 4t-3 4zM553 208q3 0 3 -4t-3 -4t-3 4t3 4zM109 256q0 -2 5.5 -9t12 -15t13 -14.5t9.5 -6.5v9h-6q0 2 0.5 8t-0.5 12t-3.5 11t-8.5 5h-2q-1 0 -4 -2t-4 -2t-4 2t-4 2h-2h-2zM653 228q3 0 3 -4t-3 -4t-3 4t3 4zM73 328
q-2 1 -2 -2t2 -2t2 2t-2 2zM425 388q-3 0 -3 -4t3 -4t3 4t-3 4zM455 421q-6 0 -9 -2.5t-4.5 -6.5t-2 -9t-0.5 -9q4 0 7.5 3t5 7t2.5 9t1 8zM417 404q-2 1 -2 -2t2 -2t2 2t-2 2zM105 494v-2q0 -1 1.5 -2.5t2.5 -1.5v4q0 1 -1.5 2.5t-2.5 1.5v-2zM92 513q0 -4 2.5 -7.5
t6.5 -5.5q1 1 2.5 4t1.5 4q0 2 -2 3t-4.5 1.5t-4.5 0.5h-2zM69 552q2 -2 2.5 -6t1.5 -8t2 -7t4 -3q2 0 6.5 2t9 5.5t7.5 7.5t3 7t-1.5 4t-4 1.5t-5.5 0.5h-5h-4q-2 0 -8 -1.5t-8 -2.5zM109 540q-2 0 -2 -2t2 -2t2 2t-2 2zM49 564v4h-4zM641 676q0 2 -2 2t-2 -2t2 -2t2 2z
M617 728q0 -6 3 -6.5t7 -2t8 -6t6 -17.5q2 0 3.5 3.5t2.5 8t1.5 8t0.5 4.5q0 2 -2 5.5t-5 7.5t-6 7t-3 4q0 -6 -2.5 -7t-5.5 -1.5t-5.5 -1.5t-2.5 -6zM109 740q-1 -2 0.5 -5t3.5 -3q2 -1 5 0.5t6 3.5t5.5 4t3.5 4h-3h-3q-6 0 -9 -0.5t-9 -3.5zM568 780q0 -3 1.5 -5t4 -3
t5.5 -2l4.5 -1.5t2.5 -0.5h4.5t7 4t5.5 9.5t2.5 12t0.5 10.5q-5 0 -11.5 -1t-12.5 -4t-10 -8t-4 -11zM249 828q-3 0 -3 -4t3 -4t3 4t-3 4zM465 886q0 -8 2 -13t5.5 -7t8.5 -2h12h8h8q1 0 2.5 1.5t1.5 2v1.5v3q-1 1 -3 4t-4.5 6l-5 6t-3.5 4q-1 -1 -4 -2.5t-4 -1.5h-2
q-4 0 -5.5 2t-6.5 2q-3 0 -6.5 -1t-3.5 -5z" />
    <glyph glyph-name="h" unicode="h" horiz-adv-x="685" 
d="M25 16q0 4 -0.5 14t-1 22t-0.5 25.5t-0.5 26t-1 22t-0.5 14.5v18v12q0 6 0.5 11t1 11.5t2.5 15.5l-2 316v36l-2 360h96l8 -4q1 -11 1.5 -20t0.5 -20.5t0.5 -23t1 -22t0.5 -18.5v-31v-47v-56v-56v-47v-31q4 -5 9 -9t11 -7h10h15h15h10h41t41 4q4 2 5 5.5t2.5 7t3.5 6
t7 2.5q8 0 12.5 -6.5t5.5 -14.5q30 0 58.5 -0.5l57 -1t57 -1.5t57.5 -1h10q2 1 4 3.5t3 4.5t1.5 4.5t-0.5 3.5l-4 4q1 19 0 38t-4 38v296q10 2 17 3.5t14.5 2.5t12.5 2h6h8q12 0 23.5 -1.5t22.5 -6.5v-33.5v-50.5v-60v-60v-50.5v-33.5v-46t0.5 -68.5t1 -83t0.5 -90.5
t0.5 -90.5t0.5 -83t0.5 -68.5t0.5 -46q-4 -52 -8 -52.5t-10 -1t-12 -1.5t-10 -1h-12h-12q-4 0 -11 1t-13.5 1.5t-15.5 1.5l-4 12v424h-428q-1 0 -2.5 -4.5t-1.5 -7.5q0 -2 0.5 -8.5t1 -13.5t1.5 -13.5t1 -8.5v-384h-88q-7 0 -12 4t-4 12zM69 28q0 -4 1 -8t7 -4q2 0 6.5 3
t5.5 5l-4 8t-5.5 6.5t-6.5 5.5q-2 -5 -3 -8.5t-1 -7.5zM61 190v-5t0.5 -6t2 -5t5.5 -2t6 1t4 1.5l4 1t2.5 0.5t3.5 -1.5t4 -2.5q3 3 3.5 5.5t0.5 6.5t-2 8t-4 8.5l-4 9t-2 10.5q0 1 2 4t2 4l-6 6t-4 3.5t-2 2.5q-1 2 -2.5 8t-1.5 8q-3 0 -6 -2.5t-5.5 -5.5t-3.5 -6.5
t-1 -5.5q0 -1 1 -3.5l2 -5t2.5 -4.5t2.5 -3l8 4v-4q0 -4 -2 -8t-4 -7t-4 -7t-2 -8zM81 200q3 0 3 -4t-3 -4t-3 4t3 4zM605 224q-3 0 -3 -4t3 -4t3 4t-3 4zM609 244q-4 -2 -6 -8t-2 -10v-2q7 1 13.5 5.5t6.5 12.5q0 3 -1.5 5.5t-4.5 3.5t-5.5 2t-5.5 1q0 -3 1 -5.5t4 -4.5z
M69 236q2 -1 2 -4t-2 -4q-1 0 -1.5 1t-0.5 3t0.5 3t1.5 1zM613 240q3 0 3 -4t-3 -4t-3 4t3 4zM629 248l4 4h-4v-4zM89 264q-3 0 -3 -4t3 -4t3 4t-3 4zM61 376q0 -14 3 -28t6.5 -28t7.5 -28t7 -28q8 4 10 7.5t2 10.5q0 4 -2 7l-4 6l-4 6t-2 7l10 10t7 9t3 9q0 6 -1 12.5
t-4 12.5t-7 9.5t-10 3.5v17v7t-2 2q-4 1 -7.5 3.5t-8.5 8.5q-5 -8 -7 -17.5t-2 -18.5h5zM601 312q0 -6 5.5 -9t10.5 -3q9 0 10.5 4.5t1 10.5t-0.5 11t5 6h-4q-3 0 -7.5 -1.5t-9 -4.5t-8 -6.5t-3.5 -7.5zM505 452h5q0 6 -5 8v-8zM233 468q2 -5 8 -5v10q-6 0 -8 -5zM233 484
q-3 0 -3 -4t3 -4t3 4t-3 4z" />
    <glyph glyph-name="i" unicode="i" horiz-adv-x="170" 
d="M19 280q0 2 1 8t1.5 12l1 12t0.5 8v12v25.5v28.5v24v18v27v27v18q0 2 -1 6.5t-1.5 9.5t-1 9.5t-0.5 6.5v6v10v29.5t0.5 44.5t1 53.5t0.5 58.5t0.5 59t0.5 53.5t0.5 44t0.5 29.5q11 2 19.5 2.5t16 1t15.5 0.5h18q7 0 17.5 0.5t17.5 -4.5q0 -10 0.5 -28.5t0.5 -42
t0.5 -51.5t0.5 -56t0.5 -56t1 -51.5t0.5 -42v-28.5v-24q0 -28 -2 -55t-2 -55v-6q0 -9 0.5 -27.5t1 -41.5t0.5 -49t0.5 -49t1 -41.5t0.5 -27.5q1 -1 2.5 -5.5t1.5 -6.5v-4q0 -20 -2 -42l-4 -44l-4 -44t-2 -42h-104v280zM83 264h4v8h-4v-8z" />
    <glyph glyph-name="j" unicode="j" horiz-adv-x="471" 
d="M25 116q0 2 4 7t10 11t14 12.5t15.5 12t14 9t10.5 4.5q1 0 5.5 -4t11.5 -11t16 -15.5t18 -16t17.5 -13.5t15.5 -8q1 0 6.5 -1t12.5 -2.5l14 -3t11 -1.5h4h4q5 2 8 3.5t5 3t3 1.5h2h2l6 -4.5t3.5 -2.5t2.5 -1q5 2 8 3.5t5 3t3 1.5q28 10 41.5 29t18.5 43t4.5 50.5
t-0.5 52.5q0 34 -4 69t-4 68q0 2 1.5 6.5t2.5 5.5v504l4 4h7h9q22 0 44 -3t44 -1l4 -4v-11q0 -74 -2 -146.5t-2 -146.5q0 -99 2 -196.5t2 -196.5q0 -52 -13 -94.5t-39.5 -73t-66.5 -47.5t-93 -17q-29 0 -53.5 5t-46.5 14.5t-42.5 24t-41.5 33.5q-4 4 -9 8.5t-9 9.5t-7 10.5
t-3 11.5z" />
    <glyph glyph-name="k" unicode="k" horiz-adv-x="677" 
d="M23 848q0 3 -1 11.5t-1.5 18.5t-1 18t-0.5 12v9q0 10 5 12.5t13 2.5h14q9 0 22.5 -1t26.5 -1.5t31 -1.5l4 -4v-360q0 -1 -1 -4.5t-1.5 -7.5t-1 -7.5t-0.5 -4.5v-17.5t0.5 -26t1 -26t0.5 -17.5q7 0 15.5 10t16.5 22.5t15.5 25t14.5 17.5l84 108q1 0 2.5 1.5t1.5 2.5
q2 4 9 13t14.5 19t14.5 19t10 13q41 56 83 110.5t85 109.5l2.5 2.5t117.5 1.5q1 0 6 -1.5t5.5 -2t0.5 -1v-1.5q0 -3 -3 -7.5t-7 -9.5t-8 -8.5t-6 -4.5l-248 -304q-1 -2 -4 -6.5t-3.5 -5t-0.5 -1.5v-4t4 -12t11 -19t15 -21t15.5 -22.5t13.5 -23t9 -21.5q48 -93 98 -183.5
t102 -180.5q1 -2 5.5 -9.5t10.5 -16.5t10.5 -16.5t5.5 -9.5q0 -1 1.5 -3.5t2.5 -5.5l2 -6t2 -5v-2q0 -3 -1 -4t-3 -1.5t-4 -0.5h-4l-44 -4h-2h-2q-3 0 -10.5 0.5t-15.5 1t-15.5 1.5t-10.5 1q-4 3 -7 8t-5 8q-55 98 -109.5 193.5t-106.5 194.5q-2 9 -7 19t-11 20.5t-12 19.5
t-10 17h-4t-7 -5t-9.5 -11.5t-8.5 -13t-7 -10.5q-4 -5 -12 -15.5t-18.5 -23.5t-21.5 -27t-21.5 -27t-18.5 -23.5t-12 -15.5l-8 -16v-296q-8 -2 -14 -2.5l-12 -1t-10 -0.5h-13.5t-20 -0.5t-20.5 -0.5h-13q0 212 -3 424.5t-2 424.5zM523 152h-4q4 3 8 4t9 1q0 1 -1 3l-2.5 2.5
t-13.5 -6.5zM503 176q-3 -3 -4 -7.5t-1 -8.5h17q0 5 -3 10.5t-9 5.5zM123 392q-3 0 -3 -4t3 -4t3 4t-3 4z" />
    <glyph glyph-name="l" unicode="l" horiz-adv-x="581" 
d="M39 2q-6 6 -6 26.5t-0.5 56t-1 83t-0.5 101t-0.5 110.5t-0.5 111t-0.5 103t-0.5 87v120v120q1 4 4.5 5.5t7.5 2t8 0.5h7h9q4 0 14 -0.5t22 -1t22 -1.5t14 -1q4 -6 4 -10.5v-11.5q0 -196 -4 -393t-4 -393v-20l4 -4h7h14.5h16.5h14q41 0 81 2t81 2h2l204 -4l4 -4v-86h-522z
M213 60q-3 0 -3 -4t3 -4t3 4t-3 4zM545 64q-3 0 -3 -4t3 -4t3 4t-3 4zM97 92q0 2 -2 2t-2 -2t2 -2t2 2zM85 124q-3 0 -3 -4t3 -4t3 4t-3 4zM76 208q0 -6 5 -9t10 -3q2 0 1.5 2t-2 4t-4 3t-5 2.5t-4.5 4.5q-1 -3 -1 -4z" />
    <glyph glyph-name="m" unicode="m" horiz-adv-x="829" 
d="M21 212q1 0 2.5 1.5t1.5 2.5q0 2 -1.5 6.5t-2.5 5.5v692h160q2 0 4 -3t3 -6t85 -283q4 -8 6 -14t3.5 -12t2.5 -13t4 -17q12 -44 26 -89t27.5 -89t26.5 -88.5t24 -89.5q4 -4 4 -4.5t1.5 -3.5l3 -6t2.5 -6t1 -4h4q3 0 7 3.5t7.5 8t6 9.5l3.5 7q0 1 -2 4t-2 4v4v2.5v2t2 4.5
t4 9t4 9t2 5q0 2 2 9t4 15t4 15t2 9q0 1 1.5 4t2.5 4q2 2 4.5 9l5 14t5.5 12t5 5q-1 2 -2.5 8t-1.5 8q0 1 1.5 4t2.5 4q6 22 12 48t13.5 52.5t16 53t18.5 50.5l96 324q2 6 10 9t17 4t17.5 0t11.5 -1h9h11.5h10.5h5q8 0 20 -0.5t23.5 -1.5t28.5 -2l4 -4v-12v-27.5v-32.5v-26
q0 -202 -2.5 -405t-1.5 -405l-4 -4h-84l-4 4v6v14v16v13v18v24v21v12q0 3 0.5 13.5t1.5 22.5t1.5 22.5t0.5 13.5q0 2 -0.5 11.5t-1 20.5t-1.5 20.5t-1 11.5v24q0 79 2.5 156.5t1.5 155.5l8 4l-8 12q0 26 -0.5 52t-2 52t-2 52t0.5 52l-8 -16l-104 -344q0 -1 -1 -3t-2.5 -4.5
t-2.5 -5t-2 -3.5q-3 -5 -4.5 -11.5t-2.5 -14t-2 -14.5t-3 -12q-13 -41 -25.5 -82t-26.5 -82q-1 0 -5.5 -12.5t-10 -31t-12 -39.5t-11.5 -39.5t-9 -31.5t-4 -14q-2 -7 -5.5 -18t-6.5 -21.5t-8 -24.5h-76q-4 4 -6.5 11.5t-5.5 17.5t-6.5 21t-5.5 18l-4 16q0 1 -2 6.5t-4 11.5
t-4 11.5t-2 6.5v3v5v5v3t-4 4t-4 4q-1 2 -1.5 6t-0.5 6h4q0 5 -2.5 9.5t-5.5 9t-5.5 10t-4.5 11.5q-10 44 -23 87.5t-26.5 87t-27.5 86.5t-27 87l-24 88q-3 10 -4.5 18.5t-7.5 17.5l-28 104q-7 12 -10.5 25.5t-9.5 26.5l-4 -4v-6.5v-9.5v-9.5v-6.5q0 -1 -1 -6.5t-1.5 -11.5
t-1 -11.5t-0.5 -6.5v-19v-29v-34v-34v-29v-19q-1 -1 -2.5 -4t-1.5 -4q0 -17 1.5 -36t3 -38.5t2.5 -39t1 -37.5q0 -108 -2.5 -214.5t-1.5 -214.5q-6 -3 -14.5 -4t-17.5 -1h-16.5h-11.5h-8q-4 0 -8.5 0.5t-8 0.5t-7.5 8v204zM745 66q0 -2 1.5 -5.5t4 -6t5 -4.5t5.5 -2q4 3 4 4
v2v2q0 3 -0.5 9.5t-1 14.5t-1.5 14.5t-1 9.5h-4q-3 0 -7.5 -1t-4.5 -5q0 -3 2 -4.5t2 -5.5t-4 -20v-2zM757 104q-3 0 -3 -4t3 -4t3 4t-3 4zM781 160q-3 0 -3 -4t3 -4t3 4t-3 4zM761 178v-2l4 -8l4 -8h3.5t3.5 4t3 9t1.5 9.5t0.5 5.5t-1.5 2t-2 1.5t-1.5 0.5h-3
q-2 -1 -6.5 -5.5t-5 -5.5t-0.5 -1.5v-1.5zM33 184q-3 0 -3 -4t3 -4t3 4t-3 4zM465 184q0 -1 1.5 -2.5t2 -1.5h1.5h2t3.5 3.5t6 14t3.5 18.5q0 6 -1.5 9.5t-6.5 3.5t-6.5 -3.5t-1.5 -9.5q1 -4 2 -6t1.5 -4t0.5 -2.5t-0.5 -3.5l-1 -6t-2.5 -6t-4 -4zM69 184h4q1 0 2.5 1.5
t1.5 2v1.5v2t-8 -7zM93 192q-3 0 -3 -4t3 -4t3 4t-3 4zM465 196q-3 0 -3 -4t3 -4t3 4t-3 4zM69 196h4v4zM85 200q-2 1 -2 -2t2 -2t2 2t-2 2zM756 241q0 -2 1 -8t3 -12.5t3.5 -11.5t3.5 -5q3 0 4.5 1.5t2 4t0 5t-0.5 4.5q0 8 -4 15t-13 7zM377 212l8 8h-8v-8zM769 220
q3 0 3 -4t-3 -4t-3 4t3 4zM501 228v4h-8zM737 244q1 -1 4 -2.5t4 -1.5t2.5 1.5t1.5 2.5h-12zM727 264q-7 0 -10.5 -5t-3.5 -11v-2.5t2.5 -1.5t4 1t1.5 2.5t-1 3.5t-1 4q3 0 4.5 0.5t2.5 0.5t2.5 -1.5t4.5 -6.5v4q0 3 -1 7.5t-5 4.5zM721 284q-3 0 -3 -4t3 -4t3 4t-3 4z
M329 300q1 -1 4 -2.5t4 -1.5q3 0 4 4t1 5q-3 0 -7.5 -0.5t-5.5 -4.5zM105 344q-3 0 -3 -4t3 -4t3 4t-3 4zM349 344q-3 0 -3 -4t3 -4t3 4t-3 4zM477 348q-3 0 -3 -4t3 -4t3 4t-3 4zM309 372q-1 0 -2.5 -1.5t-1.5 -2.5h12q-1 1 -4 2.5t-4 1.5zM117 836q-2 0 -2 -2t2 -2t2 2
t-2 2z" />
    <glyph glyph-name="n" unicode="n" horiz-adv-x="698" 
d="M42 256v16v26v30v30v25v17q1 1 2.5 5.5t1.5 6.5v2v2h-4l-1 3.5t-1.5 9t-1 10.5t-0.5 9v3v6v6v5q0 11 2 21.5t2 20.5v2q0 1 -1.5 4t-2.5 4v60q0 1 4.5 4t7.5 4h1.5h2.5h2.5h1.5l-8 -24q7 2 14.5 -1t13.5 -7q-4 -2 -6.5 -6t22 15t-47.5 -45q27 105 84 56q0 -6 1 -19.5
t1.5 -28.5t1 -29t0.5 -19v-8v-8q0 -2 -0.5 -8.5t-1 -13.5t-1.5 -13.5t-1 -8.5q-1 -1 -4 -2.5t-4 -1.5h-2q-6 -30 -9.5 -27t-6.5 7t-6 7t-8 3h-2h-2q-1 0 -4 -2t-4 -2t-4 1.5t-4 2.5q-1 -1 -2.5 -5.5t-1.5 -6.5v-2q0 -11 3 -18.5t7 -13.5t7.5 3t3.5 2q-10 0 -14 2.5t-5 -9.5
t-2 -10t-6 2l-1 15l-1 15q2 -35 3 -23.5t1 7.5q0 -3 -1 -4.5t-3 -3t-3 -3t-1 -3.5l3 -5.5t7.5 -11.5t8.5 -11.5t5 -5.5q5 2 6.5 5t1.5 7t-2 6.5t-4.5 5t-4.5 5.5t-2 7h33q3 0 5.5 3t5 6.5t4 8t1.5 6.5q0 3 -0.5 5t-3.5 3q0 1 1.5 2.5t2 1.5h1.5h1q2 0 4 -2t3.5 -4.5t2 -5.5
t0.5 -4v-60l-4 -4q-2 1 -4.5 4t-4.5 6.5t-3 7.5t0 6l-20 4v-4v-6v-6v-4t-2 -4t-2 -4t0.5 -3t1 -5t1.5 -5.5l1 -2.5v-2q0 -2 -1.5 -4t-3.5 -4.5l-4 -5t-3 -4.5q0 -1 0.5 -2l0.5 -1q10 0 14 4t7.5 9.5t7.5 9.5t14 4q1 0 2.5 -1.5t1.5 -2.5q5 -30 6.5 -62t1.5 -63
q0 -41 -2.5 -82t-2.5 -82q-9 0 -17 2.5t-17 2.5q-3 0 -6.5 -0.5t-2.5 -7.5h-44l-4 12q0 1 -1 13t-1.5 28t-1 32.5t-0.5 26.5v10v22v28v31v29v24zM414 330v2l4 4l3.5 3.5t1.5 0.5h1h2l12 -12l2 -1t4 -2.5l4 -3l2 -1.5v-4t0 46t0 48q1 -9 5.5 -21.5t11.5 -22.5t31.5 -46.5
t34.5 -33.5l8 -24v-50q0 -3 0.5 -7t4.5 -5q0 1 1.5 2.5t2 1.5h1.5h1h2q2 -1 6.5 -4t5.5 -4q3 2 5.5 6t2.5 8t-6 5t-13.5 2t-13 2.5t-3.5 4.5l12 24l2 0.5t3 0.5q4 0 6.5 -2t4.5 -4.5t4 -4.5t6 -2t7 4t5 9t4 10.5t1 19t-2 19t-1 10.5q-4 4 0.5 11.5t7 10t2.5 3v1.5t-3 3.5
t-7.5 6.5t-3.5 8t0 8q-1 5 -2 12t-1.5 14.5t-0.5 15v12.5v12.5t1 8t4 6.5l7 7v2q0 8 -3 15.5t-5 14.5q-2 10 -3 19t-1.5 18t0 18.5t0.5 20.5v10v14v14v10q3 1 7 4.5t7 3.5q4 0 5.5 -3.5t7.5 -1.5t4.5 -8.5t4.5 -10.5h4h4q-3 50 -6 50.5l-6 1t-4 0.5t-4 -2.5t-6.5 -5t-6 -5.5
t-3 -3h-1.5h-1q-3 0 -4.5 2t-1.5 4.5v5v4.5t-1 12t-1.5 22t-1 22t-0.5 12v8v14v16v12v8v11.5v9.5v5l4 16q3 -1 7 -0.5t5 4.5q-6 5 -10 12.5t-6 15.5t-3 16.5t-1 15.5q0 5 0.5 13.5t1 16t1.5 13l1 5.5l12 4h80l4 -12q-1 -130 1.5 -258t2.5 -258v-20v-30v-30v-20
q-2 0 -6.5 -1.5t-5 -2t-0.5 -1.5v-1q0 -2 1.5 -3t3.5 -2l4 -2t3 -3q2 -11 3 -20.5t1 -18.5v-18v-20q0 -22 -2.5 -43.5t-2.5 -43.5h-7l12 -12v-96h-80l-16 16l-6 10t-13.5 23.5t-15.5 27.5t-13 23q-6 10 -10.5 19t-9 17.5t-9.5 17t-11 18.5l-12 16q-2 2 -5 7l-3 5q0 1 -1 4
t-1.5 6l-1 6t-0.5 4q-5 10 -15 22.5t-20 26t-17.5 27t-7.5 26.5zM94 24q1 0 2.5 1.5t1.5 2v1.5v1v1v1l-8 -4zM74 44q0 -1 1.5 -2.5t2.5 -1.5l20 4q-8 16 -8.5 16h-1.5q-2 0 -4 -1.5t-4.5 -4t-4 -5.5t-1.5 -5zM594 116q47 -10 52 -12v1.5v2.5q0 2 -5 4.5t-25.5 3.5t-21.5 0z
M578 108l4 4h-8zM565 124q0 -6 5 -8v8h-5zM632 120h2l-1 3zM586 148q1 -3 3.5 -3.5t4.5 -0.5t0 4t-4 4q-1 0 -2.5 -1.5t-1.5 -2.5zM670 152q-2 1 -2 -2t2 -2t2 2t-2 2zM570 224h4v4h-4v-4zM482 264q6 3 7 5.5t1 5t1 5t7 4.5l2 0.5l4 1t4 1.5l2 1q1 1 4 3.5t6.5 6t6 6.5
t3.5 4l8 -12q-2 -1 -5.5 -6.5t-7.5 -12.5t-7 -12t-4 -5h-28zM542 284q1 0 2.5 -1.5t1.5 -2.5t0.5 -4t0.5 -6t0.5 -6t0.5 -4h-11q0 5 1.5 7t2.5 4t1.5 4.5t-0.5 8.5zM590 284q3 0 3 -4t-3 -4t-3 4t3 4zM466 314q0 5 2 9t2 9q0 7 -5 9t-11 3q2 0 4 2t4 4.5t5 5t7 4.5
q3 1 4 4.5t0.5 7t-1.5 7t-1 4.5q-7 0 -12 0.5t-9.5 0.5t-9.5 -0.5t-11 -3.5q1 -4 -0.5 -8t-5.5 -4h-2q-3 4 -3 9t-5 7q-4 -4 -5 -9t-1 -10t-1 -10.5t-5 -10.5q-12 13 -23 28t-17 32q-2 7 -8.5 17.5t-14 22t-15.5 24t-15 24.5t-11.5 22t-4.5 16q0 2 0.5 7t0.5 7q3 7 9.5 8.5
t11.5 1.5l-0.5 -3l-0.5 -3l-2 -2l-4 -4l-4 -4l-2 -2q0 -1 1 -3.5l2 -5t2.5 -5t22.5 32.5h4h6q-12 -35 -6.5 -31.5t10.5 8t10 8.5t12 4l2 -2l2 -2q2 0 6.5 1.5t5.5 2.5q-2 1 -6.5 5.5t-5 5.5t-0.5 2v1v2q0 1 1.5 2.5t2.5 1.5q4 -3 12 -13.5t18.5 -27t22.5 -37t24.5 -41.5
t23.5 -42t19.5 -38.5t14 -30.5t5.5 -19q3 0 4.5 1t3.5 -4q-1 -4 -4 -4h-6q-6 -12 -9 -9t-9 5q4 2 -0.5 -7.5t-3.5 -6.5h-2h-2l-12 34v-4q0 -8 2.5 -14.5t2.5 -14.5q-11 0 -17 23zM506 300q-2 1 -2 -2t2 -2t2 2t-2 2v0zM634 300q3 0 0 0v0zM608 324q-3 0 -3 -4t3 -4t3 4t-3 4
zM458 336q-3 0 -3 -4t3 -4t3 4t-3 4v0zM410 344q3 0 3 -4t-3 -4t-3 4t3 4zM448 364h2q1 0 2.5 -1.5t1.5 -2.5v-2q0 -12 -13 -12q0 1 0.5 4t1 6.5t2 5.5t3.5 2zM386 420q2 0 3 -4t4 -10t8 -11t13 -7v1.5v2.5q0 5 -4 7.5t-8 4.5q-40 55 -40 52.5t5 -10.5t6.5 -15t0.5 -15
q1 1 5.5 2.5t6.5 1.5zM98 376v2q1 1 4 2.5t4 1.5q5 0 7 -2t3 10.5t2 9.5t4 -4q-1 -2 -5.5 -18.5t-6.5 -15.5l-2 1.5t-4 3.5t-3.5 4t-2 2.5t-0.5 1.5v1zM91 386q0 -6 -5 -8v8h5zM614 467q17 57 18 59t1.5 4l0.5 2l-2 2l-2 2q-1 1 -2.5 4t-1.5 4v2v2q0 1 1.5 4t2.5 6t2.5 6
t1.5 4h1h1h2l4 -4l2 -0.5l2 -0.5v15q-1 0 -4 -0.5t-6 -0.5t-6 -0.5t-4 -0.5t-3.5 -5t-5.5 -11.5t-5 -12.5t-2 -7q0 -4 2 -9l4 -10t4 -9.5t2 -9.5q0 -7 -5.5 -14.5t-10.5 -11.5q2 -2 8 -9zM398 436q-3 0 -3 -4t3 -4t3 4t-3 4v0zM354 456q-3 0 -3 -4t3 -4t3 4t-3 4zM590 528
l8 4q0 1 -1.5 2.5t-2 1.5h-1.5h-1h-1h-1v-8zM290 544v-4l-4 4h4zM246 622q0 9 4 14t12 12q-1 5 -4 8t-8 4v-2v-2q4 -8 4 -9v-1q0 -1 -2 -2.5t-5 -4l-6 -5l-3 -2.5q-5 4 -10 10t-9 13t-6.5 14t-2.5 13t1.5 7.5t4.5 2t6.5 0.5t7.5 4q1 1 2.5 3.5t2.5 6t2 6.5t1 4h-1.5h-2.5
q-4 0 -6 -2t-3 -4t-3 -4t-7 -2h-6.5t-7 1t-6.5 2.5t-5 4.5l4 4q0 1 -1.5 2.5t-2.5 1.5q-4 3 -9 8.5t-8.5 12.5t-6 14t-2.5 13h13v5.5t-5 2.5h-2q-8 -4 -9 -4h-1q-6 0 -8.5 3t-3 8t-1 10.5t-2 10.5t-6.5 8.5t-16 3.5q0 -4 -0.5 -7t-0.5 -6t0.5 -5.5t3.5 -5.5v-120q0 -2 -4 -3
t-9 -1h-9h-6q0 -5 5 -6.5t11 -4.5t11 -9.5t5 -21.5v-4v-5v-5v-4q-2 -1 -3.5 -3.5t-2 -5t-0.5 -5.5v-3q-1 0 -2 1q-39 9 -43 7.5t-7.5 -2.5t-7.5 -1q-14 0 -22 4.5t-8 19.5v296l4 4h5h11q7 0 13.5 0.5t9.5 0.5q26 0 52.5 -0.5t52.5 -4.5q4 -8 12.5 -21.5t19 -31.5t22.5 -38.5
t24.5 -42t24.5 -42.5t22.5 -39t18.5 -31.5t12 -21.5q2 -4 7.5 -14t11 -21.5t10.5 -22t10 -25.5q-3 11 -0.5 6t-2.5 3q0 -1 -1 -4t-3.5 -12.5t-4.5 -13t-2.5 -4t-1.5 -0.5h-1q-5 0 -7.5 1.5t-3.5 10t-1 11.5v5q-1 0 -4 1t-6.5 2t-7 1h-4.5t-2.5 -2t-3.5 -4l-4 -4l-2 -2h-3h-5
h-5h-3q-1 0 -4 -4t-3.5 -4h-2h-2.5q-2 0 -6.5 0.5t-5.5 3.5v2v4v4v2q-3 6 -8 12.5t-9.5 13t-7.5 13.5t-3 15zM270 584q0 -2 3 -5t5 -3l8 8q-3 2 -5 5.5t-3 6.5q-1 0 -2.5 -1.5t-1.5 -2.5l-2.5 -5zM298 576l4 4l-4 4l-4 -4zM322 580h1h1h2q1 0 2.5 1.5t1.5 2.5zM314 584
q1 2 -2 2t-2 -2t2 -2t2 2zM82 664q-7 -5 -10.5 -11.5t-5.5 -14.5t-2.5 -16t-0.5 -15q8 0 11.5 2.5t5 6.5t1.5 8q0 5 1 8.5t3.5 6t8.5 2.5q0 7 -3 13.5t-9 9.5zM102 624q8 -3 6.5 -1.5t-2 1.5h-1.5h-1h-1h-1zM622 628v-12q-5 0 -7.5 4t-2.5 8h10zM94 632q-3 0 -3 -4t3 -4t3 4
t-3 4zM70 664q-2 0 -2 -2t2 -2t2 2t-2 2zM618 668q-3 0 -3 -4t3 -4t3 4t-3 4zM614 672q-3 0 -3 -4t3 -4t3 4t-3 4zM269 693q0 -2 1 -5.5t4 -3.5q1 0 4 1.5t4 2.5q-3 2 -6 3.5t-7 1.5zM190 734v-2q0 -1 1.5 -2.5t2.5 -1.5v1v1v2q0 1 -1.5 2.5t-2.5 1.5v-1v-1zM234 740
q0 -1 1.5 -2.5t2.5 -1.5t4 -0.5t6 -0.5t6 -0.5t4 -0.5v6h-24zM226 748q-3 0 -3 -4t3 -4t3 4t-3 4zM222 752q-3 0 -3 -4t3 -4t3 4t-3 4zM638 760q-3 0 -3 -4t3 -4t3 4t-3 4zM202 760q1 0 2.5 1.5t1.5 2.5t-1.5 4t-2.5 4v-12zM606 760h4v4h-4v-4zM637 792q0 -4 2.5 -6t6.5 -2
t7 1.5t5 6.5h-21zM158 820q24 -24 25 -24h1h2l4 4l3.5 3.5t0.5 1.5v1v1v1l-8 4l-8 4t-3 2.5t-2 2.5t-2.5 2t-4.5 1q-2 0 -4.5 -0.5t-3.5 -3.5zM650 800q-3 0 -3 -4t3 -4t3 4t-3 4zM646 840q0 2 -2 2t-2 -2t2 -2t2 2z" />
    <glyph glyph-name="o" unicode="o" horiz-adv-x="757" 
d="M26 392v15t-0.5 24t-0.5 24v15q0 58 8 115.5t26 110.5t46 98.5t68 78.5t92.5 52t118.5 19q68 0 120.5 -19.5t91 -54t65.5 -81t43 -100t23 -112t7 -116.5q0 -56 -8 -112t-25.5 -107.5t-45 -95.5t-66.5 -76.5t-90.5 -51t-116.5 -18.5q-86 0 -150 30t-107 83t-67 124.5
t-32 154.5zM162 252q10 -37 33 -66t54 -49t67 -30.5t72 -10.5q23 0 46.5 7.5t43.5 16.5q8 4 15 9t17 7q38 31 62 72.5t36.5 88t17 96t4.5 95.5q0 42 -5 82t-16.5 77.5t-30 73t-44.5 67.5q-8 2 -13 9t-11 11q-12 10 -27 17.5t-31 12.5t-33 7.5t-32 2.5q-56 0 -96.5 -18
t-68.5 -48.5t-45.5 -71t-27 -85.5t-12.5 -92.5t-3 -91.5v-14v-17.5v-14.5v-7q0 -5 2 -16t5 -24.5t6 -28t6 -28t5 -24t4 -15.5z" />
    <glyph glyph-name="p" unicode="p" horiz-adv-x="641" 
d="M24 160v23q0 15 0.5 31t0.5 32v30.5v23.5v12q0 4 0.5 15t1 23t1.5 23t1 15v528q4 4 14 4.5t25 1t35 0.5t40 0.5t38 1t32 0.5h44h55.5t56.5 -1.5t55.5 -6t53 -14t48.5 -24.5t43 -38q11 -12 20.5 -26t16.5 -29t11 -31.5t4 -33.5v-116q-4 -13 -7.5 -22t-7 -18.5t-5.5 -15.5
q-3 -9 -8.5 -14.5t-11.5 -13.5q-26 -35 -60 -56t-72.5 -32.5t-80 -15.5t-81.5 -4h-9h-14h-14h-9q-1 1 -4 2.5t-4 1.5t-4 -1.5t-4 -2.5h-92l-4 -4q0 -4 1 -15t1.5 -23t1 -23t0.5 -15v-2v-2q0 -3 -0.5 -12.5t-1 -22.5t-1 -27t-1 -27t-0.5 -22.5v-12.5v-21.5v-33.5v-39v-39
v-33.5v-21.5l-4 -12l-64 -4h-4h-4q-3 0 -7 1t-7.5 1.5t-9.5 1.5l-4 48v15.5v30.5q0 18 -0.5 35t-0.5 27zM69 164q3 4 3.5 7t0.5 7v3v3l-12 -8zM71 196q0 -2 2 -4t4.5 -4t4.5 -3t3 -1q4 1 4.5 5t0.5 7h-19zM69 238q0 -4 1.5 -9.5t4 -10t6.5 -7.5t10 -3h2q1 0 2.5 1.5t1.5 2
v1.5v3t-3 5t-8 6.5t-10 6.5t-7 6v-2zM65 256q-3 0 -3 -4t3 -4t3 4t-3 4zM107 278q-10 0 -18.5 -6.5t-8.5 -17.5q13 0 20 5t7 19zM81 272q-3 0 -3 -4t3 -4t3 4t-3 4zM97 292q1 -3 3.5 -3.5t4.5 -0.5h2.5t1 1.5t-3 2t-4.5 0.5h-2.5h-1.5zM97 312q-3 0 -3 -4t3 -4t3 4t-3 4z
M85 323q4 0 6.5 2.5t2.5 6.5h-9v-9zM81 360q-1 0 -1.5 -1t-0.5 -3t0.5 -3t1.5 -1q2 1 2 4t-2 4zM53 360l24 4q-1 1 -2.5 4t-1.5 4t2 4t2 3.5v1.5v1.5v1.5l-4 4l-4 4h-2h-6.5t-9 -1t-8 -3.5t-2.5 -7.5q1 1 4 2.5t4 1.5h2h2v-24zM93 368h4v8zM99 416q0 -4 3.5 -6t6.5 -2v8h-10
zM89 424q-3 -2 -6 -5t-3 -8q1 0 3.5 0.5t4.5 1t3.5 2t1.5 3.5v2q0 1 -1.5 2.5t-2.5 1.5zM125 412v4h-4zM65 420q-3 0 -3 -4t3 -4t3 4t-3 4zM73 420q-3 0 -3 -4t3 -4t3 4t-3 4zM53 424q-3 0 -3 -4t3 -4t3 4t-3 4zM233 424h4v4h-4v-4zM57 440q-2 -6 1 -9.5t7 -3.5q5 0 7.5 3.5
t4.5 9.5q-1 3 -3 3.5t-5 0.5q-2 0 -6.5 -0.5t-5.5 -3.5zM313 432q-2 1 -2 -2t2 -2t2 2t-2 2zM341 432q1 -3 3.5 -3.5t4.5 -0.5q3 0 5.5 1t2.5 5v2q-1 1 -4 2.5t-4 1.5q-2 0 -5 -3t-3 -5zM333 448q-8 2 -10.5 -1.5t-2.5 -8.5q0 -1 0.5 -3t0.5 -3q4 3 9.5 4.5t10.5 3.5
q0 2 -3 5t-5 3zM121 444q-2 1 -2 -2t2 -2t2 2t-2 2zM237 462q0 -5 2.5 -8t6.5 -5.5t8 -4.5t7 -4q0 1 0.5 4t0.5 4q0 2 -2 6t-5 8t-5.5 7t-4.5 3l-4 -4l-3.5 -3.5t-0.5 -1.5v-1zM301 448q-3 0 -3 -4t3 -4t3 4t-3 4zM377 468q-8 0 -13 -7t-5 -15q1 0 4 0.5t6.5 0.5t7 0.5
t4.5 0.5t2.5 1.5t1.5 2.5l4 -4q1 0 2.5 1.5t1.5 2.5q0 2 -1.5 5t-4 5.5t-5.5 4t-5 1.5zM281 460q-1 0 -1.5 -1t-0.5 -3t0.5 -3t1.5 -1q2 1 2 4t-2 4zM381 456q-1 -2 -2 -2t-2 2t2 2t2 -2zM317 464q-3 0 -3 -4t3 -4t3 4t-3 4zM185 468q-3 0 -3 -4t3 -4t3 4t-3 4zM389 468l8 4
h-8v-4zM327 489q0 -5 2 -9.5t8 -7.5q3 1 3.5 3.5t0.5 4.5q0 6 -4 7.5t-10 1.5zM469 480q-3 0 -3 -4t3 -4t3 4t-3 4zM425 484q-3 0 -3 -4t3 -4t3 4t-3 4zM445 488q16 -8 17 -8h1.5h1.5q1 1 2.5 6t1.5 6t-1.5 2.5t-2.5 1.5h4q4 0 5.5 -2t4.5 -2q2 0 2 0.5t-0.5 3.5l-1 6
t-1.5 6t-1 4t-1.5 2.5t-2.5 1.5q-2 -2 -6 -5t-9 -7t-9 -8.5t-4 -7.5zM105 488q1 -4 5 -4.5t7 -0.5v10q-3 0 -7 -0.5t-5 -4.5zM137 500h6.5h13.5t16 -0.5t13 -0.5q6 0 18 0.5t24 0.5h21.5h11.5t9.5 0.5t16.5 1t16.5 1.5t9.5 1q47 2 85.5 8.5t65.5 24t42 49.5t15 84
q0 36 -8.5 62t-23.5 44t-36 29t-45.5 17t-51.5 8t-55 2.5t-55.5 0t-52.5 -0.5q-4 0 -11 0.5t-13 1t-11 1.5t-9 9q-1 -4 -3.5 -6.5t-5.5 -5t-5 -5.5t-2 -7v-172q-1 -1 -2.5 -4t-1.5 -4t0.5 -5t1 -9t1.5 -9t1 -5v-10v-10q0 -1 -1 -6.5t-1.5 -11.5t-1 -11.5t-0.5 -6.5t0.5 -4.5
t1.5 -7.5t1.5 -7.5t0.5 -4.5v-6v-8v-8v-6zM516 518q0 -5 4 -9.5t9 -4.5q1 0 2 1.5t1.5 2t0.5 1.5v2.5t-2 3t-5 2.5t-5 1h-5zM117 516q-3 0 -3 -4t3 -4t3 4t-3 4zM485 516q-3 0 -3 -4t3 -4t3 4t-3 4zM525 540q-1 -1 -2.5 -5.5t-1.5 -6.5v-2v-2q4 1 4 4v6v3v3zM65 538v-2
q0 -1 1.5 -2.5t2.5 -1.5q8 2 10.5 7t2 10.5t-2.5 11.5t-2 11h13q0 7 -3 12.5t-3 12.5q-7 0 -11 -4t-6 -10t-2 -12.5v-12.5v-2q1 -1 5.5 -4t6.5 -4q-1 -2 -3 -3l-4 -2t-3.5 -2t-1.5 -3zM537 544q-3 0 -3 -4t3 -4t3 4t-3 4zM113 548q-3 0 -3 -4t3 -4t3 4t-3 4zM49 557
q-4 0 -6.5 -2.5t-2.5 -6.5h9v9zM585 588q-4 -2 -8 -3t-7.5 -3l-7 -4t-5.5 -6q-3 -6 -4.5 -8t-3.5 -3.5t-3.5 -3t-4.5 -5.5h4q5 0 10.5 3.5t11 8.5t10 10.5t6.5 7.5t2 3v2v1zM113 564q-1 0 -1.5 -1t-0.5 -3t0.5 -3t1.5 -1q2 1 2 4t-2 4zM77 588q3 0 3 -4t-3 -4t-3 4t3 4z
M121 592q-3 0 -3 -4t3 -4t3 4t-3 4zM69 600h4l-4 4v-4zM561 612q-3 0 -3 -4t3 -4t3 4t-3 4zM589 612q-2 0 -2 -2t2 -2t2 2t-2 2zM557 640l-4 -16v-2v-2q5 2 6.5 8.5t1.5 11.5h-4zM93 652q4 -3 11 -6t13 -3v23q-7 0 -13.5 -4t-10.5 -10zM549 712q5 2 5 8h-5v-8zM117 748
q0 -2 0.5 -4t1.5 -4.5t2.5 -4t4.5 -1.5q0 2 -0.5 4t-1 4.5t-2 4t-3.5 1.5h-2zM549 788q-1 0 -2.5 -1.5t-1.5 -2v-1.5v-2t4 7zM93 824q-3 0 -3 -4t3 -4t3 4t-3 4zM141 844q-1 0 -4 -1.5t-3.5 -2t-0.5 -1.5v-2t8 7zM437 848q-3 0 -3 -4t3 -4t3 4t-3 4zM433 852q-3 0 -3 -4
t3 -4t3 4t-3 4zM413 860q-3 0 -3 -4t3 -4t3 4t-3 4z" />
    <glyph glyph-name="q" unicode="q" horiz-adv-x="791" 
d="M23 478q0 70 10.5 136.5t36.5 125t70 106.5t111 78q2 1 9.5 4.5t16.5 8l16 8t8 3.5h2q1 0 4 -1.5t4 -2.5q22 0 48 1t52 -0.5t52 -6t48 -14.5q46 -20 80 -49t58.5 -63.5t40 -74.5t25 -83.5t13 -89.5t3.5 -92q0 -47 -4 -92.5t-14.5 -89.5t-28.5 -85.5t-45 -80.5v-2
q0 -9 5 -15t12.5 -9.5t15.5 -4.5t15 -1q10 0 20 1t19.5 3t19 3t19.5 1h6t4 -4v-6v-9v-9v-6v-8v-9.5v-8.5v-4.5v-4.5t-1.5 -8.5t-4 -8t-6.5 -2.5q-5 0 -18 -1.5t-27.5 -2.5t-28 -2.5t-18.5 -1.5h-8q-25 0 -41 8t-26.5 18t-17 18t-11.5 8q-4 0 -9 -3t-10.5 -7l-11 -8t-9.5 -6
q-38 -17 -75.5 -24.5t-80.5 -7.5q-67 0 -119.5 19t-91 53t-65 80t-42.5 99t-23 111t-7 116zM391 36q-3 0 -3 -4t3 -4t3 4t-3 4zM739 44q0 2 -2 2t-2 -2t2 -2t2 2zM427 60h4v8zM455 64q-3 0 -3 -4t3 -4t3 4t-3 4zM291 68q-2 0 -2 -2t2 -2t2 2t-2 2zM439 68h16v8h-16v-8z
M575 72q-3 0 -3 -4t3 -4t3 4t-3 4zM743 76q-2 0 -2 -2t2 -2t2 2t-2 2zM735 84q-3 0 -3 -4t3 -4t3 4t-3 4zM751 88q-3 0 -3 -4t3 -4t3 4t-3 4zM131 460q0 -39 3.5 -81.5t13.5 -84t27 -79t43.5 -66t63.5 -45t87 -16.5q16 0 38 2t43.5 8t40 16t28.5 26q-1 0 -2.5 1.5t-1.5 2.5
q-2 6 -3.5 8.5l-3 5t-6.5 8.5t-15 14t-21 14t-23.5 10.5t-27.5 7.5l-4 4v88q0 2 2 3t4.5 1.5t5 0t19 -0.5t48 -14t57.5 -34q5 -4 8.5 -8.5l7 -9t7.5 -9.5t9 -9h2q7 0 13 11t11 28.5t9 39t7 42t4.5 37.5t1.5 26v8v16.5v19.5v16q0 46 -3.5 90t-12.5 90q-5 7 -8.5 17t-7 20.5
t-6.5 20.5t-6 18q-13 32 -35 56t-49.5 40t-59 24t-64.5 8q-54 0 -93 -17t-66 -47t-44 -69t-26 -83t-12 -89t-3 -87zM174 150q0 -6 1.5 -10.5t8.5 -4.5q0 5 -2.5 10t-7.5 5zM159 140q1 2 -2 2t-2 -2t2 -2t2 2zM547 144q-2 1 -2 -2t2 -2t2 2t-2 2zM147 164q-2 -1 -3 -3
t-2 -4.5t-1 -5.5v-3h16q0 11 -10 16zM171 160q-3 0 -3 -4t3 -4t3 4t-3 4zM135 184q0 -1 -4 -4t-4 -4q-1 -2 -1.5 -8t-0.5 -8h6q1 3 4 7l6 8t5.5 8t2.5 7q-4 0 -5 1t-1 2t-1 3t-2 3t-1.5 1h-1.5h-2q-1 -1 -2.5 -2t-1.5 -2q1 -4 2 -6t1.5 -4zM163 168q-3 0 -3 -4t3 -4t3 4
t-3 4zM507 176q-3 0 -3 -4t3 -4t3 4t-3 4zM555 188h4v4h-4v-4zM611 192q-3 0 -3 -4t3 -4t3 4t-3 4zM567 192h4v4h-4v-4zM571 208q-3 0 -3 -4t3 -4t3 4t-3 4zM627 208h4l-4 4v-4zM87 232q0 -3 0.5 -5t3.5 -3q2 0 3 2t1.5 4.5t0 4.5t-0.5 3v5v5q-8 -6 -8 -16zM623 224h4l-4 4
v-4zM103 250v-2q0 -1 1.5 -2.5t2.5 -1.5q2 1 4.5 4l5 6t4.5 6.5t2 5.5q0 4 -3 7t-7 6t-7 8t-3 15t2 20t2 20v5v5q-1 -1 -4 -2.5t-4 -1.5t-2.5 1t-3.5 3t-4 3t-4 1h-2.5h-3.5l-2.5 -2.5t-3 -3.5t-2 -4t3.5 -6q-9 -1 -11 -5.5t-2 -10.5q0 -4 1 -8t8 -4q1 0 4 2t4 2t4.5 -0.5
t4.5 -0.5q0 -7 -0.5 -17t1 -18t6 -13t16.5 -3q-1 -1 -4 -5.5t-3.5 -5.5t-0.5 -2v-1zM123 248q-3 0 -3 -4t3 -4t3 4t-3 4zM455 248q-3 0 -3 -4t3 -4t3 4t-3 4zM635 256q-3 0 -3 -4t3 -4t3 4t-3 4zM643 256q-3 0 -3 -4t3 -4t3 4t-3 4zM115 300h4v8h-4v-8zM55 324q-2 1 -2 -2
t2 -2t2 2t-2 2zM87 328q3 0 3 -4t-3 -4t-3 4t3 4zM55 336h4v4h-4v-4zM111 364q-2 1 -2 -2t2 -2t2 2t-2 2zM87 372l4 4h-4v-4zM99 396q2 -5 8 -5v5h-8zM683 408q0 2 -2 2t-2 -2t2 -2t2 2zM691 412q-3 0 -3 -4t3 -4t3 4t-3 4zM87 412q0 1 -1 1.5t-3 0.5t-3 -0.5t-1 -1.5
q1 -2 4 -2t4 2zM63 424q0 -3 2 -6.5t6 -3.5v10h-8zM59 448q0 -1 1 -3.5t2 -5.5t2.5 -5t2.5 -2q4 0 7 1.5t5.5 3t6 3.5t8.5 2q0 5 -5.5 7.5t-9.5 2.5q-1 0 -4 -2t-4 -2h-6h-6zM47 456l4 4l3.5 3.5t0.5 1.5v3q0 1 -1.5 2.5t-2 1.5h-1.5h-2t-1 -16zM75 473q-13 0 -13 -13h9
q-2 1 -3 2t-1 2q1 2 1 4h7v5zM79 484q0 1 -1 0.5t-2 -1.5t-1.5 -2t0.5 -1q2 -1 3.5 0.5t0.5 3.5zM47 492q-2 1 -2 -2t2 -2t2 2t-2 2zM81 497q-5 0 -8 -2.5t-6 -6.5h2q4 0 8 2t4 7zM75 508l8 4h-8v-4zM83 524q0 1 -1 1.5t-3 0.5t-3 -0.5t-1 -1.5q1 -2 4 -2t4 2zM71 552h4v8
h-4v-8zM63 578q0 -3 2.5 -5t5.5 -2v19q-4 0 -6 -4.5t-2 -7.5zM87 586q0 -2 1.5 -3t3.5 -2l4 -2t3 -3q4 1 4 5.5v6.5v2v4.5t-1 4t-3 1.5q-1 0 -4 -1.5t-4 -2.5l4 -4q-1 0 -4 -1.5t-3.5 -2t-0.5 -1.5v-1zM63 610v-2q0 -1 1.5 -2.5t2.5 -1.5v12q-1 0 -2.5 -1.5t-1.5 -2v-1.5v-1
z" />
    <glyph glyph-name="r" unicode="r" horiz-adv-x="643" 
d="M521 4q-4 2 -8 10.5t-4 9.5l-160 380q0 1 -4 9.5t-8 10.5h-80q-2 0 -12 2t-12 2h-8q-2 0 -10 -2t-10 -2t-11 0.5t-19 1.5t-19 1.5t-11 0.5h-12q0 -14 -0.5 -48t-1.5 -73t-1.5 -74t-0.5 -49v-40v-64v-40q0 -5 -0.5 -14.5t-2.5 -14.5q-2 -3 -97 -3l-4 8v27v11
q0 220 2.5 437t5.5 437q0 4 7 4h9q1 0 6.5 0.5t11.5 1.5t11.5 1.5t6.5 0.5h28h21h31q50 -1 103.5 -1.5t105 -6t98 -19t81.5 -41.5t55.5 -73.5t20.5 -114.5q0 -31 -8 -61t-23 -57t-36.5 -49t-48.5 -37l-7 -3.5t-10 -5.5t-9.5 -5t-5.5 -2l-32 -12q-4 0 -4 -3v-5q0 -3 4 -12
t9.5 -20t11 -21t7.5 -15l108 -252l8 -12l40 -100q0 -2 -2.5 -5.5t-10.5 -3.5q1 0 -27.5 0.5t-71.5 4.5zM73 264q0 2 -2 2t-2 -2t2 -2t2 2zM381 436l4 4h-4v-4zM85 508q-3 0 -3 -4t3 -4t3 4t-3 4zM137 832q0 -12 0.5 -24.5t0.5 -24.5q0 -66 -3 -132t-3 -132q9 0 17 2.5
t16 2.5h4q2 0 8 -1.5t8 -2.5h45h11q29 0 49.5 1t46.5 7h2q8 0 15 -2t17 -2q20 0 45.5 8.5t48 23.5t37.5 35.5t15 44.5v84q0 28 -13.5 48t-34.5 33.5t-45.5 21.5t-46.5 13q-10 0 -37 0.5t-57 1.5t-57 1.5t-37 0.5h-8q-8 0 -17 -1t-23 -3z" />
    <glyph glyph-name="s" unicode="s" horiz-adv-x="687" 
d="M25 234v2q0 1 1.5 2.5t2.5 1.5l84 28h6h6t4 -4q15 -30 34 -60t43.5 -54t55.5 -39t69 -15q27 0 54.5 2t52.5 8.5t46 18t36.5 29t24 42t8.5 58.5v7v10v10v7q-3 14 -10 27t-16.5 24.5t-21.5 21t-24 15.5l-16 8t-21.5 10.5t-23.5 11.5t-21.5 10.5t-16.5 7.5t-9 4
q-38 16 -78 29t-77.5 28t-70.5 33.5t-57.5 45t-38.5 63t-14 87.5q0 36 11 67t30.5 57t46 47t57 35t63.5 21t66 7q38 0 71.5 -6t64 -19t58 -34t52.5 -49q11 -13 19 -23.5t14.5 -22t11.5 -24.5t11 -30l4 -16v-2q0 -3 -3 -5.5t-7 -4.5t-8 -3t-6 -1l-12 -3l-16 -4t-15 -3.5
t-9 -1.5h-9t-5 1t-6 7q-2 5 -3.5 8.5t-2.5 6.5t-2 5q-13 34 -33.5 57.5t-46.5 38.5t-57 21.5t-63 6.5q-33 0 -62.5 -8t-52.5 -25t-36 -43t-13 -62q0 -30 14.5 -53t39 -41t57.5 -32t69.5 -27t75.5 -26.5t76 -29.5t69.5 -36.5t57.5 -47.5t39 -62.5t14 -81.5q0 -35 -6.5 -67.5
t-20.5 -61.5t-36 -53.5t-53 -42.5q-10 -6 -20 -10l-20 -8l-20 -8t-20 -10q-5 -1 -16.5 -3t-25 -4t-25.5 -3.5t-17 -1.5h-6h-11t-12.5 -0.5t-10.5 -0.5q-2 0 -8 0.5t-12 0.5h-12h-8q-19 8 -35.5 12t-32.5 8.5t-32.5 10.5t-35.5 17q-1 0 -5.5 4t-10.5 9.5t-11.5 10.5t-8.5 8
l-5.5 5.5t-9.5 10.5t-10 11.5t-7 8.5q-2 2 -8 10.5t-14 20t-17 25t-16.5 26t-12 22.5t-4.5 14z" />
    <glyph glyph-name="t" unicode="t" horiz-adv-x="692" 
d="M269 824q-16 0 -29 -0.5t-29 -3.5h-180l-4 4q-2 9 -2.5 14.5t-1 11.5t-0.5 10v3v6v6v6v16q0 8 4 15q56 4 112 5t112 3q4 0 13 0.5t18.5 1t17.5 1.5t11 1q1 0 4.5 1t7.5 1.5t7.5 1t4.5 0.5q2 0 11 -0.5t19 -1t19 -1.5t11 -1h15q55 0 109 2t109 2h10h13h11t9 -4v-88
q-68 -4 -134 -5t-134 -3v-2v-2q9 -193 16.5 -386t7.5 -386v-25q0 -11 -4 -23q-16 -4 -31.5 -4h-32.5h-7h-11h-11h-7q-7 90 -8.5 181.5t-3.5 182.5q0 6 -0.5 16t-1 21.5t-0.5 23.5t-0.5 22.5t-1 18.5t-0.5 10q-4 73 -5 145.5t-3 146.5q0 6 -0.5 14.5l-1 17t-1.5 14.5t-9 10
h-3h-4.5h-6.5h-4z" />
    <glyph glyph-name="u" unicode="u" horiz-adv-x="702" 
d="M26 826v23t0.5 30t0.5 27v14q4 4 11.5 4.5t17.5 1t21 1.5t18 1h20h20q3 -124 6 -251.5t6 -252.5q1 -26 0.5 -54t0.5 -56.5t4.5 -56.5t13 -53t26.5 -46.5t43 -37.5q8 -5 17.5 -8.5t19.5 -7t19.5 -6t19.5 -6.5h8h12h12h8q34 0 70.5 7.5t68 24.5t53.5 44.5t28 67.5
q-1 38 1.5 74t2.5 74v17.5t-1 19t-2.5 18.5t-4.5 17q1 108 -1.5 215t-2.5 214v13v14.5v13.5v6l4 4h100q3 -25 3.5 -47.5t0.5 -44.5t-0.5 -45.5t0.5 -50.5q2 -103 5 -205t3 -205v-21v-32v-32v-21q-14 -58 -43 -101.5t-69.5 -72.5t-92 -43.5t-109.5 -14.5q-30 0 -56.5 3
t-52 9.5t-50.5 16.5t-51 23q-28 14 -48.5 37t-34 51.5t-21 59.5t-8.5 60q-6 142 -11.5 283t-5.5 283zM376 46q-4 0 -7.5 -1.5t-7 -4t-5.5 -6t-2 -6.5q9 0 15.5 4t6.5 14zM199 96q-3 0 -3 -4t3 -4t3 4t-3 4zM195 108q-3 0 -3 -4t3 -4t3 4t-3 4zM567 132q0 -1 1.5 -2t3.5 -2.5
t4 -2.5t3 -1q3 0 7.5 1t4.5 3v25q-2 0 -7 -2t-9 -5t-7 -6.5t-1 -7.5zM615 196q1 1 2.5 4t1.5 4v2v2q0 1 -1.5 2.5t-2.5 1.5v-16zM631 200h8v4zM639 212q1 0 2.5 1.5t1.5 2v1.5v3q0 1 -1.5 2.5t-2 1.5h-1.5h-2t3 -12zM651 220q-3 0 -3 -4t3 -4t3 4t-3 4zM595 240
q0 -1 2.5 -3.5l5.5 -5.5t6.5 -5t5.5 -2t6.5 1.5t5.5 2.5q-1 3 -2.5 3.5t-4 0.5t-4.5 -1t-3 -1q0 1 -1 3t-1 3q1 1 5.5 4t6.5 4v-6q4 1 4 2l1.5 6t1.5 4t1.5 2.5t5.5 0.5t6 -1q1 2 2.5 7t3.5 11t3.5 11t2.5 7v2q0 6 -3 11t-7 9t-9 8t-9 6q2 0 3 2.5t1.5 5.5t0 5.5t-0.5 3.5
q0 7 -2 13.5t-11 6.5v-13t0.5 -16t2.5 -15.5t6 -12.5q0 -1 4 -2t4 -2q1 -1 2.5 -5.5t1.5 -6.5q0 -1 -1.5 -5.5t-2.5 -6.5l-2.5 -5t-1.5 -3.5t-2 -0.5t-2 1q-2 -2 -6.5 -5.5t-9.5 -7.5t-9.5 -7.5t-6.5 -7.5zM627 260q3 0 3 -4t-3 -4t-3 4t3 4zM643 276q2 -1 2 -2t-2 -2t-2 2
t2 2zM639 312q3 0 3 -4t-3 -4t-3 4t3 4zM611 356q-3 0 -3 -4t3 -4t3 4t-3 4zM603 359q3 0 7 0.5t5 4.5l-4 4l-3.5 3.5t-1.5 0.5h-2t-1 -13zM595 376q-3 0 -3 -4t3 -4t3 4t-3 4zM635 552q-3 0 -3 -4t3 -4t3 4t-3 4zM615 580q-3 0 -3 -4t3 -4t3 4t-3 4zM635 600q-3 0 -3 -4
t3 -4t3 4t-3 4zM615 656q-3 0 -3 -4t3 -4t3 4t-3 4zM603 676q-3 0 -3 -4t3 -4t3 4t-3 4zM611 688q-3 0 -3 -4t3 -4t3 4t-3 4zM623 720q-3 0 -3 -4t3 -4t3 4t-3 4zM639 860q-3 0 -3 -4t3 -4t3 4t-3 4z" />
    <glyph glyph-name="v" unicode="v" horiz-adv-x="700" 
d="M234 216q2 10 -2 20t-9 20t-8.5 20t-0.5 20l-60 192q-1 1 -2.5 4t-1.5 4q-20 55 -35.5 111.5t-32.5 112.5q-14 47 -30 94t-30 94v1.5v2.5v2.5v1.5q3 0 11 1t17 1.5t17 1t11 0.5t9.5 -0.5t14.5 -1t14.5 -1.5t9.5 -1q5 -3 9 -10.5t7 -16t4 -17t0 -12.5q1 -4 4.5 -15
t7.5 -23t7.5 -23t4.5 -15q3 -11 7 -22t5 -22l52 -168l4 -8q0 -1 4 -14.5t10.5 -34.5t14.5 -47l16 -52t15 -50.5t12 -41.5q0 -1 1.5 -6.5t2.5 -11.5t2.5 -11.5t1.5 -6.5q2 -6 5 -18.5t7.5 -25.5t9.5 -22.5t10 -9.5t9 5t6.5 13.5t5 19t4.5 19.5t4.5 16.5t6.5 10.5q2 6 6 17
t8.5 26t10 31t10 30.5t8 26t5.5 17.5q10 32 20 65.5t16 66.5l100 336l1 3t3 6t4 3h92q5 0 6.5 -2t1.5 -6v-2.5v-1.5q-1 -5 -4.5 -17t-7.5 -25.5t-7 -25t-5 -16.5q0 -1 -1.5 -4t-2.5 -4l-56 -192q-1 -14 -4.5 -27t-8.5 -26t-10 -25.5t-9 -25.5q-6 -20 -12 -38.5t-11.5 -37
t-11.5 -37.5t-13 -39q0 -1 -1.5 -4t-2.5 -4q-108 -364 -115.5 -364.5t-17.5 -1t-21 -1.5t-18 -1h-9q-11 0 -17 3t-9 8t-4.5 12.5t-4.5 16.5q-2 7 -7 21t-10.5 31.5t-12 37.5t-12.5 37.5t-11 31.5t-7 21z" />
    <glyph glyph-name="w" unicode="w" horiz-adv-x="1022" 
d="M240 11q-2 7 -5 21t-7.5 31.5t-9.5 37.5t-9 37.5t-7.5 31.5t-5.5 21q-5 19 -12.5 36t-11.5 36q0 2 -1.5 9.5t-2.5 16.5t-2.5 16.5t-1.5 9.5q-8 39 -18 77.5t-20 76.5t-20 76.5t-18 77.5l-8 44q0 1 -1.5 4t-2.5 4q-12 57 -25 114.5t-27 113.5v16l3 1t7.5 1.5t9.5 1t8 0.5
h4h10.5h10.5h9h7h10h10h7q10 -25 17 -50.5t12 -52t9 -53t10 -52.5q5 -23 11.5 -46t13.5 -45.5t13 -46t10 -46.5q5 -28 9 -55t11 -57q0 -1 2 -6.5t4 -11.5t4 -11.5t2 -6.5l12 -52q1 -5 2.5 -14t3.5 -20t4 -23t5.5 -21.5t7.5 -15.5t9 -6h2.5h1.5q1 3 3.5 11t5 17t4.5 17t3 11
q10 41 21.5 85.5t18.5 86.5v4v4l40 180q-2 6 0 16.5t5.5 23t8 26.5t9 27t8 24.5t5.5 18.5q1 5 3.5 16t6 25t7 29t6.5 29t5.5 25t3.5 16l16 4h82l50 -204l16 -16q-3 -23 -0.5 -44.5t8 -43t12.5 -42.5t12 -42q1 -4 4 -18t7.5 -32.5t8.5 -39.5t8.5 -39.5t7.5 -32.5t4 -18
q0 -1 1.5 -5.5l3.5 -10.5t4 -11.5t3 -8.5q2 -6 3.5 -15t3 -19t3.5 -20t5.5 -18t8.5 -13.5t12 -5.5v1.5v1.5q13 53 24.5 106t22 106t21.5 106t24 106q0 3 3 13.5t7 22.5t6.5 22.5t3.5 13.5q2 7 5 22t7 34t8.5 40t8 40t6.5 34t5 22l1 3t3 6t4 3h97q0 -8 -1.5 -18t-3.5 -20.5
t-5 -20t-7 -17.5q-1 -5 -3 -16t-5 -25t-6 -29t-5.5 -29t-5 -25t-3.5 -16q0 -1 -1 -4.5t-3 -7.5t-3 -7.5t-1 -4.5l-7 -28t-8 -34t-8.5 -36t-7.5 -32.5t-5 -23.5t-2 -10v-12l-66 -272v-4l-57 -236h-91l-1.5 3l-2.5 5q-12 33 -20 67.5t-16 68.5q-17 72 -35.5 143t-37 142.5
t-36.5 143t-35 143.5q0 1 -1.5 4t-2 3.5t-1.5 0.5h-1h-1h-1q0 -1 -2 -5t-3.5 -10t-2.5 -11.5t0 -9.5q-12 -47 -23 -92t-21 -92v-4l-70 -296v-12l-42 -176q0 -2 -1.5 -6.5t-2.5 -5.5t-2 -2.5t-2 -1.5h-88q-2 0 -3.5 3t-0.5 5zM384 395h4v4h-4v-4zM176 439q-2 -2 -3.5 -6.5
t-2 -9.5t-0.5 -9v-6q2 0 5 0.5t6 1.5t5 3t2 6l-1 2t-2 5t-2.5 5.5t-2.5 3.5q0 1 -1.5 2.5t-2.5 1.5zM188 443q1 2 -2 2t-2 -2t2 -2t2 2zM420 555q-3 0 -3 -4t3 -4t3 4t-3 4zM139 619l0.5 -2l0.5 -2q0 -1 1.5 -4t2.5 -4q5 0 7.5 4t2.5 8h-15zM132 711q0 -2 3 -5t5 -3
q1 0 2.5 1.5t1.5 2.5t-1.5 6t-2 5.5t-1.5 0.5h-1h-2q-1 -1 -2.5 -4t-1.5 -4zM156 707q-3 0 -3 -4t3 -4t3 4t-3 4z" />
    <glyph glyph-name="x" unicode="x" horiz-adv-x="683" 
d="M338 380q-2 0 -8.5 -9.5t-16 -26t-20.5 -37.5t-23 -43.5t-23.5 -45.5t-21.5 -42.5t-17.5 -34.5t-11.5 -21q-5 -8 -11.5 -19t-14 -23.5t-15 -24.5t-13.5 -22t-10 -16.5l-4 -6.5l-4 -4h-117q0 4 1.5 9.5t4 11t4.5 9.5l3 6q3 6 9.5 18t13.5 25.5t13 25t8 15.5q6 10 13 19.5
t12.5 19t9 19.5t1.5 22q6 2 11.5 7t8.5 9q36 62 72.5 123.5t71.5 124.5l6 10.5t2 9.5q0 8 -4 16.5t-10 17t-12 16.5t-10 14q-29 47 -56 96t-56 96q-13 22 -27 44t-27 44t-24.5 45t-21.5 47v1v1v2q1 1 2 2.5t2 1.5q116 0 123 -12t18 -30.5t25 -42.5t28 -48.5t27 -47.5t23 -39
l16 -32l28 -48q1 -2 3 -7t4.5 -10t5.5 -8.5t7 -3.5q1 0 2.5 0.5l1.5 0.5l172 316q1 1 4 5.5t4 6.5q0 1 1.5 2.5t2.5 1.5q26 3 56 5.5t56 2.5q6 0 9 -5t3 -9v-4v-2q-100 -176 -103.5 -178.5t-7 -6t-5.5 -7.5t0 -8q-26 -51 -54.5 -100.5t-57.5 -99.5l-4 -4l-12 -24
q-4 -4 -4 -5v-1q0 -6 3 -12t8 -12t9.5 -11.5t7.5 -10.5q39 -71 79.5 -140.5t80.5 -139.5l76 -132q2 -4 7 -10.5t5 -11.5v-2q0 -1 -1.5 -2.5t-2.5 -1.5l-64 -4q-1 1 -4 2.5t-4 1.5t-3 -0.5t-5 -1.5t-5.5 -1.5l-2.5 -0.5q-3 0 -8.5 0.5t-10.5 1t-9 1.5l-4 1
q-212 376 -212.5 376h-1.5z" />
    <glyph glyph-name="y" unicode="y" horiz-adv-x="704" 
d="M19 904q0 6 6 10t16 5.5t22 2t23.5 0t20.5 -1t13 -0.5q9 0 14.5 -3t9 -8.5t6 -13t5.5 -15.5l203 -377l5 5q10 20 16 33t13 27.5t11 23.5l8 20q3 7 10.5 22t16.5 34t19 40t19 40t16 34t11 22q2 6 6.5 17.5t11 24.5l13.5 27t13 25.5t11.5 19.5t8.5 10q11 1 20.5 2t17.5 1.5
t16.5 0.5h18.5q3 0 9.5 0.5t13 0t11.5 -3t5 -7.5v-2l-208 -420q-2 -4 -6 -13t-10 -21t-12 -24.5t-11.5 -23t-9 -18t-3.5 -8.5v-388q-10 -2 -19 -3t-17 -1h-16h-18h-6h-9h-9h-6q0 2 -1 8.5t-1.5 13.5t-1 13.5t-0.5 8.5q0 5 -0.5 16t-1 24.5t-0.5 28t-0.5 28t-1 24t-0.5 15.5
v17v30v37v37v30v17q0 19 -6 38.5t-16 39.5t-21.5 39.5t-24 38.5t-24 37t-20.5 35q-28 53 -57.5 104.5t-58.5 103.5q-1 2 -6 11l-12.5 22.5t-15.5 28t-15 27.5t-11 21.5t-4 9.5zM379 96q4 1 4.5 5t0.5 7h-5v-12z" />
    <glyph glyph-name="z" unicode="z" horiz-adv-x="630" 
d="M93 208q1 0 2.5 1.5t1.5 2.5q13 20 25.5 42t26.5 42l172 316q18 26 33 53t29 55t29 55t33 53v8q-48 0 -96 -2l-96 -4l-96 -4t-96 -2q-12 0 -17.5 5t-7 13t-0.5 18t1 20v7v11v11v7q4 0 14 1t22 2.5t22 2.5t14 2q2 0 8 1.5t8 2.5h15.5h22.5h28h27h23.5h15.5q11 0 27 0.5
t33.5 1t34.5 0.5t30.5 0.5t22 1t16.5 4.5h156l4 -4q2 -14 2.5 -23l1 -18t0.5 -15q0 -8 -4 -19.5t-11 -24.5t-15.5 -27t-17 -27t-16 -25t-12.5 -21q-3 -5 -9 -16t-13.5 -25t-15.5 -29t-15.5 -29t-13.5 -25t-9 -16l-4 -4l-116 -212q-14 -18 -25.5 -38t-22.5 -41t-21.5 -41.5
t-22.5 -39.5q-2 -2 -6 -9t-10.5 -16.5t-13.5 -20.5t-13 -20.5t-10.5 -16.5t-6.5 -9q-1 -2 -3.5 -6t-5 -8.5t-4.5 -8t-2.5 -4.5t-0.5 -2v-2t88 1h16q74 0 147 3.5t146 3.5q6 0 16.5 -0.5t20.5 -0.5h17.5h8.5l4 -4v-88l-8 -4q-72 1 -145 0.5t-145 -2t-145 -3t-145 -1.5v78
q0 4 3 9.5t6.5 11t6.5 9.5t4 6q2 4 6 11.5t9 17t11 19.5t11 19.5t9 17t6 11.5zM109 24q0 2 -2 2t-2 -2t2 -2t2 2zM129 32q-3 0 -3 -4t3 -4t3 4t-3 4zM117 32l12 4l-4 4z" />
    <glyph glyph-name="quoteleft" unicode="&#x2018;" horiz-adv-x="182" 
d="M25 564q0 4 -0.5 12t-1 18t-1.5 18.5t-1 11.5q0 1 -1 5.5t-1.5 10t-1 10.5t-0.5 6q0 4 0.5 11t1 14.5t1.5 14t1 8.5t2.5 9.5t6 17t6.5 19t5 14.5l8 16q2 4 6 16.5t9 27t10 28.5t7 20l7.5 22.5t6.5 10.5t12 3h24h5h8h8h5q5 -2 6.5 -5t1.5 -7v-2.5v-1.5q-2 -5 -5.5 -15.5
t-7.5 -23.5t-9 -27t-9.5 -27t-7.5 -23.5t-5 -15.5q-4 -12 -7.5 -24.5t-3.5 -25.5q2 0 7.5 0.5t12 1t12 0.5h7.5q1 0 4 -1.5t4 -2.5q0 -5 0.5 -15.5t1 -23.5t0.5 -27t0.5 -27t1 -23.5t0.5 -15.5v-2v-2l-1 -3t-3 -6t-4 -3h-124l-4 4v0z" />
    <glyph glyph-name="quotedblleft" unicode="&#x201c;" horiz-adv-x="369" 
d="M25 564q0 4 -0.5 12t-1 18t-1.5 18.5t-1 11.5q0 1 -1 5.5t-1.5 10t-1 10.5t-0.5 6q0 4 0.5 11t1 14.5t1.5 14t1 8.5t2.5 9.5t6 17t6.5 19t5 14.5l8 16q2 4 6 16.5t9 27t10 28.5t7 20l7.5 22.5t6.5 10.5t12 3h24h5h8h8h5q5 -2 6.5 -5t1.5 -7v-2.5v-1.5q-2 -5 -5.5 -15.5
t-7.5 -23.5t-9 -27t-9.5 -27t-7.5 -23.5t-5 -15.5q-4 -12 -7.5 -24.5t-3.5 -25.5q2 0 7.5 0.5t12 1t12 0.5h7.5q1 0 4 -1.5t4 -2.5q0 -5 0.5 -15.5t1 -23.5t0.5 -27t0.5 -27t1 -23.5t0.5 -15.5v-2v-2l-1 -3t-3 -6t-4 -3h-124zM205 564q0 4 -0.5 12t-1 18t-1.5 18.5t-1 11.5
q0 1 -1 5.5t-1.5 10t-1 10.5t-0.5 6q0 4 0.5 11t1 14.5t1.5 14t1 8.5t2.5 9.5t6 17t6.5 19t5 14.5l8 16q2 4 6 16.5t9 27t10 28.5t7 20l7.5 22.5t6.5 10.5t12 3h24h5h8h8h5q5 -2 6.5 -5t1.5 -7v-2.5v-1.5q-2 -5 -5.5 -15.5t-7.5 -23.5t-9 -27t-9.5 -27t-7.5 -23.5t-5 -15.5
q-4 -12 -7.5 -24.5t-3.5 -25.5q2 0 7.5 0.5t12 1t12 0.5h7.5q1 0 4 -1.5t4 -2.5q0 -5 0.5 -15.5t1 -23.5t0.5 -27t0.5 -27t1 -23.5t0.5 -15.5v-2v-2l-1 -3t-3 -6t-4 -3h-124z" />
    <glyph glyph-name="quotedblright" unicode="&#x201d;" horiz-adv-x="367" 
d="M27 574q-2 0 -3 2.5t-1.5 5t0 4.5t0.5 3v5.5t56 151.5v16h-52v152q0 1 1.5 2.5t2.5 1.5t3.5 1t5 1.5t4.5 1t3 0.5t4 -0.5t6 -1.5t6 -1.5t4 -0.5h4h7h8h7h6h9h7h4.5t3.5 0.5t6 1.5t6 1.5t4 0.5t5 -0.5t8.5 -1t8.5 -1.5t6 -1q1 0 2.5 -1.5t1.5 -2.5v-156q-2 -4 -6.5 -13.5
t-10 -20.5t-9.5 -20.5t-6 -13.5l-12 -32q-5 -12 -10 -27.5t-12 -29t-17.5 -22.5t-26.5 -9h-2q-2 0 -6.5 0.5t-9.5 1t-9.5 1.5t-6.5 1v0zM197 574q-2 0 -3 2.5t-1.5 5t0 4.5t0.5 3v5.5t56 151.5v16h-52v152q0 1 1.5 2.5t2.5 1.5t3.5 1t5 1.5t4.5 1t3 0.5t4 -0.5t6 -1.5
t6 -1.5t4 -0.5h4h7h8h7h6h9h7h4.5t3.5 0.5t6 1.5t6 1.5t4 0.5t5 -0.5t8.5 -1t8.5 -1.5t6 -1q1 0 2.5 -1.5t1.5 -2.5v-156q-2 -4 -6.5 -13.5t-10 -20.5t-9.5 -20.5t-6 -13.5l-12 -32q-5 -12 -10 -27.5t-12 -29t-17.5 -22.5t-26.5 -9h-2q-2 0 -6.5 0.5t-9.5 1t-9.5 1.5t-6.5 1
v0z" />
    <glyph glyph-name="quoteright" unicode="&#x2019;" horiz-adv-x="185" 
d="M21 574q-2 0 -3 2.5t-1.5 5t0 4.5t0.5 3v5.5t56 151.5v16h-52v152q0 1 1.5 2.5t2.5 1.5t3.5 1t5 1.5t4.5 1t3 0.5t4 -0.5t6 -1.5t6 -1.5t4 -0.5h4h7h8h7h6h9h7h4.5t3.5 0.5t6 1.5t6 1.5t4 0.5t5 -0.5t8.5 -1t8.5 -1.5t6 -1q1 0 2.5 -1.5t1.5 -2.5v-156q-2 -4 -6.5 -13.5
t-10 -20.5t-9.5 -20.5t-6 -13.5l-12 -32q-5 -12 -10 -27.5t-12 -29t-17.5 -22.5t-26.5 -9h-2q-2 0 -6.5 0.5t-9.5 1t-9.5 1.5t-6.5 1v0z" />
    <glyph glyph-name="slash" unicode="/" horiz-adv-x="696" 
d="M355 368l-204 -364l-4 -1t-9 -1.5t-10.5 -1t-8.5 -0.5l-2.5 0.5t-5.5 1.5t-5 1.5t-3 0.5t-4 -1.5t-4 -2.5l-64 4q-1 0 -2.5 1.5t-1.5 2.5v2q0 5 5 11.5t7 10.5l76 132q40 80 80.5 149.5t79.5 130.5q10 18 19 32.5t17.5 29t16 30.5t15.5 36q0 1 1 4.5t1.5 7.5t1 7.5
t0.5 4.5q1 4 4.5 5.5t7 1.5h7t5.5 1q4 2 9 10t11 18t12 22t11 23.5t9.5 20.5t7.5 14q10 16 23 39t27 47.5t28 48.5t25 42.5t18 30.5t123 12l1.5 -1.5l2.5 -2.5v-2v-1v-1q-10 -24 -21.5 -47t-24.5 -45t-27 -44t-27 -44q-34 -55 -66.5 -110t-65.5 -110q-6 -9 -8 -16.5
t-4.5 -13.5t-5.5 -11t-10 -11q-6 -5 -9 -10.5t-4 -12t-5.5 -14t-3.5 -15.5q-5 -7 -10 -9.5t-11 -8.5t-8.5 -16t-12.5 -18v0z" />
    <glyph glyph-name="quotedbl" unicode="&#x22;" horiz-adv-x="369" 
d="M272 562q-2 0 -3.5 2t-2.5 4.5t-1 4.5t-1 3q0 2 -1 5.5t6 174.5v16h-72v152q0 1 1.5 2.5t2.5 1.5t3.5 1t5 1.5t4.5 1t3 0.5t4 -0.5t6 -1.5t6 -1.5t4 -0.5h4h7h8h7h6h9h7h4.5t3.5 0.5t6 1.5t6 1.5t4 0.5t5 -0.5t8.5 -1t8.5 -1.5t6 -1q1 0 2.5 -1.5t1.5 -2.5v-156
q-2 -4 -0.5 -10.5t-1.5 -18.5t-4.5 -22.5t-2.5 -14.5l-4 -34q-1 -13 -2.5 -29t-5 -31t-1.5 -26t-13 -15l-2 -1q-2 0 -6.5 -1t-9.5 -1.5t-9.5 -0.5t-6.5 -1v0zM102 562q-2 0 -3.5 2t-2.5 4.5t-1 4.5t-1 3q0 2 -1 5.5t6 174.5l2 13l-74 3v152q0 1 1.5 2.5t2.5 1.5t3.5 1t5 1.5
t4.5 1t3 0.5t4 -0.5t6 -1.5t6 -1.5t4 -0.5h4h7h8h7h6h9h7h4.5t3.5 0.5t6 1.5t6 1.5t4 0.5t5 -0.5t8.5 -1t8.5 -1.5t6 -1q1 0 2.5 -1.5t1.5 -2.5v-156q-2 -4 -0.5 -10.5t-1.5 -18.5t-4.5 -22.5t-2.5 -14.5l-4 -34q-1 -13 -2.5 -29t-5 -31t-1.5 -26t-13 -15l-2 -1
q-2 0 -6.5 -1t-9.5 -1.5t-9.5 -0.5t-6.5 -1v0z" />
    <glyph glyph-name="exclam" unicode="!" horiz-adv-x="206" 
d="M27 282q2 73 2 148q0 118 -2 233.5t-2 232.5v36q5 0 18 1t27.5 1.5t34.5 1t25 0.5h7h5q3 0 4 -4q2 -10 2.5 -18t1 -15t0.5 -14v-17q0 -25 -2 -49.5t-2 -48.5q0 -7 -0.5 -15.5t0 -17t2.5 -16.5t6 -13q6 -7 9.5 -7.5t6 -1t3.5 -3t1 -11.5t-4 -14.5t-9.5 -11.5t-10 -13.5
t-4.5 -19.5q0 -7 1 -12.5t3 -13.5v-74q0 -123 -2 -244h-121zM148 282q-1 -10 -61 -10.5t-60 10.5h121zM25 20q0 4 -0.5 12t-1 18.5t-0.5 21.5t-0.5 21.5t-1 18.5t-0.5 12v4v4q0 2 0.5 7t1 11t1.5 11t1 7q2 2 6 5t6 3h111q2 0 6 -3t6 -5q-1 -21 -0.5 -39.5t1.5 -35.5t2 -35
t1 -37v-5.5t-1.5 -4t-4 -3.5t-6.5 -4q-19 0 -26.5 -0.5t-22 -1t-28.5 -1.5t-31 -1q-9 0 -13.5 5.5t-5.5 14.5v0z" />
    <glyph glyph-name="backslash" unicode="\" horiz-adv-x="702" 
d="M351 368q-1 14 -3.5 24t-8.5 16t-11 8.5t-19 3.5q1 8 -3.5 15.5t-5.5 14t-4 12t-9 10.5q-7 6 -10 11t-5.5 11t-4.5 13.5t-8 16.5q-33 55 -65.5 110t-66.5 110q-13 22 -27 44t-27 44t-24.5 45t-21.5 47v1v1v2l2.5 2.5l1.5 1.5q116 0 123 -12t18 -30.5t25 -42.5t28 -48.5
t27 -47.5t23 -39q3 -5 7.5 -14t9.5 -20.5t11 -23.5t12 -22t11 -18t9 -10q2 -1 5.5 -1h7t7 -1.5t4.5 -5.5q0 -1 0.5 -4.5t1 -7.5t1.5 -7.5t1 -4.5q8 -20 15.5 -36t16 -30.5t17.5 -29t19 -32.5q39 -71 79.5 -140.5t80.5 -139.5l76 -132q2 -4 7 -10.5t5 -11.5v-2
q0 -1 -1.5 -2.5t-2.5 -1.5l-64 -4q-1 1 -4 2.5t-4 1.5t-3 -0.5t-5 -1.5t-5.5 -1.5l-2.5 -0.5q-3 0 -8.5 0.5t-10.5 1t-9 1.5l-4 1l-204 364v0z" />
    <glyph glyph-name="dollar" unicode="$" horiz-adv-x="532" 
d="M230 119q-6 1 -20 5.5t-30 10t-29.5 10.5t-18.5 8q-2 1 -11 7.5t-19.5 14.5t-21 16.5t-16.5 13.5q-4 3 -11 9t-14.5 13.5t-13 16t-5.5 16.5q0 7 6 13t14.5 10.5t17.5 8.5t14 6q19 -18 37 -35.5t37.5 -31.5t41 -23t47.5 -9v270q-36 12 -71 28t-63.5 39.5t-46 55
t-17.5 75.5q0 45 15 79t41.5 58t62.5 38t79 19q0 2 1.5 8t2.5 13t2.5 13t1.5 9q0 1 -0.5 5.5t0 8.5t2.5 7.5t7 3.5h63v-68q31 -12 54.5 -21.5t43 -21.5t38 -27.5t39.5 -39.5q3 -4 6 -10.5t2 -6.5l-42 -43h-9q-6 7 -20.5 22.5t-32 31t-36.5 27.5t-34 12h-4l-10 -247l10 -9
q38 -15 74.5 -32.5t65.5 -42t46.5 -58t17.5 -80.5q0 -48 -18 -82.5t-48.5 -58.5t-69.5 -37.5t-81 -17.5v-119h-77v119zM158 174q-4 0 -4 -4t4 -4q2 0 2 4t-2 4zM310 192q15 0 37 5.5t42.5 16t35 25.5t14.5 33v94q0 1 -5 7t-11.5 12.5t-14 13.5t-12.5 10t-13.5 9t-19 11.5
t-22 10t-21.5 4.5q-2 0 -5 -0.5t-5 -0.5v-251zM114 677q0 -25 9.5 -46t26 -37t38.5 -26.5t47 -13.5q0 10 1.5 34t2.5 51.5t2.5 51.5t1.5 34v23v19.5t-8 16.5q-3 0 -11 1t-11 1q-23 0 -41.5 -9t-31.5 -24t-19.5 -34.5t-6.5 -41.5zM140 571q2 4 -3.5 4t-4.5 -4t4 -4t4 4z
M89 669q-4 0 -4 -4.5t4 -4.5q3 0 3 4.5t-3 4.5z" />
    <glyph glyph-name="copyright" unicode="&#xa9;" horiz-adv-x="903" 
d="M65 299q-4 0 -4 6t4 6q6 0 6 -6t-6 -6zM547 763q-8 0 -8 7t8 7q3 0 6 -1.5t3 -5.5t-3 -5.5t-6 -1.5zM48 473q0 4 1.5 11t4 14t4.5 12.5l2 5.5l5 42q-7 1 -9 5t-1 8t2.5 8t1.5 6q0 33 9 58t22 56l8 20v-1q45 101 140 158t220 57q88 0 157.5 -28.5t119 -77t78 -112
t35.5 -132.5q4 -30 6 -50.5t2 -34t-0.5 -20.5t-0.5 -10q0 -84 -16.5 -167.5t-59.5 -149.5t-117.5 -107t-190.5 -41q-122 0 -203.5 38.5t-130.5 103t-69 149.5t-20 179zM136 447q0 -62 14.5 -129t50 -122.5t95.5 -91.5t152 -36q98 0 162 32t102 85t53 121t15 140
q0 76 -12 150t-48 132t-102.5 93.5t-175.5 35.5q-99 0 -159.5 -40.5t-93 -102t-43 -133t-10.5 -134.5zM219 111q-4 0 -2.5 -4t4.5 -4t2 4t-4 4zM767 242q-3 0 -2 -6.5t4 -6.5q7 0 9 2t0.5 4.5t-5 4.5t-6.5 2zM120 301q-4 0 -4 -5.5t4 -5.5q3 0 3 5.5t-3 5.5zM847 372
q-21 -9 -17 -10.5t18 12.5zM111 405q-3 -6 -10 -8.5t-13 0.5q7 -4 14.5 -1t9.5 11zM85 399q2 -2 3 -2q-1 0 -3 2zM120 503q-4 -7 -12.5 -8t-13.5 3q5 -11 15 -9t12 16zM80 562l1 -4q0 3 -1 4zM111 568q-4 -7 -12.5 -8t-14.5 3q6 -11 16 -8.5t12 15.5zM118 599q5 5 5.5 15
t-5.5 15q5 -5 4.5 -15t-4.5 -15zM114 632q1 -1 2 -1zM117 598q1 0 1 1q-2 0 -2 -0.5t-1 -0.5h2zM116 631q2 -1 2 -2v2h-2zM149 686q-2 0 -3 -4.5t-1 -9.5t1 -9.5t3 -4.5t3 4.5t1 9.5t-1 9.5t-3 4.5zM806 703q-3 0 -1 -6t5 -6q4 0 1.5 6t-5.5 6zM738 752q-3 0 -0.5 -7.5
t6.5 -7.5t1.5 7.5t-7.5 7.5zM750 760q1 6 0.5 4.5t-2.5 -5t-5 -7.5t-5 -4q-3 0 3.5 3.5t8.5 8.5zM189 807q-5 -7 -13 -8t-13 3q5 -6 14.5 -4.5t12.5 11.5zM158 809q0 -1 3 -4q-3 3 -3 4zM161 805q0 -1 2 -3zM633 840q0 4 -3.5 -2.5t1.5 -6.5q3 0 2.5 -0.5t-0.5 9.5zM297 868
q-4 0 1 -4t9 -4q3 0 -1.5 4t-8.5 4zM318 884q-5 0 -3.5 -4t6.5 -4q3 0 1.5 4t-4.5 4zM581 884q-5 0 -5 -5.5t5 -5.5q4 0 4 5.5t-4 5.5zM384 925q-2 0 -1 -7t3 -7q5 0 4 7t-6 7zM314 240q-13 18 -21 34t-15 33t-11.5 34.5t-9.5 37.5q0 1 -2 7t-3 13.5t-3 14t-2 7.5v3
q0 12 1 26.5t2 27.5t2 27t1 27l1 3.5t1 5.5q5 29 13 56.5t19.5 52t28 45t37 34.5t47 23t59.5 9q31 0 57 -6.5t49 -19.5t40 -34t30 -49q0 -1 2 -6t3.5 -10.5t3.5 -9.5t2 -6q0 -1 1 -4t2 -6.5l2 -7t1 -4.5t-4 -2.5t-9 -4t-11.5 -5t-13 -4t-11 -2.5t-6.5 -1q-1 0 -3 2t-3 5.5
t-1.5 7.5t-1.5 6q-11 26 -22 45t-24.5 31.5t-32.5 18.5t-49 6q-2 0 -8.5 0.5t-12.5 0.5t-12.5 -0.5t-11.5 -3.5q-13 -4 -23.5 -12.5t-20 -19t-17 -23t-12.5 -23.5q-3 -6 -5 -12.5t-5 -12.5q-9 -31 -13.5 -63.5t-4.5 -64.5v-4q1 -15 2 -31t3 -33t5 -33.5t8 -30.5
q2 -8 6.5 -15t9 -13.5t10.5 -12.5t10 -11q2 -3 2.5 -5t1.5 -3.5t2.5 -2l3 -1t2.5 -0.5t2 -1l3.5 -3.5t4.5 -5.5t3.5 -6.5t4.5 -3.5q6 -5 16.5 -8.5t21.5 -6t22.5 -4t19.5 -1.5q14 0 26.5 4t24.5 11t22.5 17t16.5 20q4 4 4.5 10t2.5 12q4 8 8 15t7.5 14t7.5 14.5t7 15.5h4h5
h5.5t8.5 -0.5t10.5 -1t10 -2t7.5 -3.5t3 -4v-1q-1 -1 -2 -3.5t-2.5 -4.5t-3 -4.5t-2.5 -3.5q5 -4 4 -7.5t-3.5 -9.5t-5 -13.5l-4.5 -13.5t-4.5 -11.5t-3.5 -7.5q-16 -26 -33.5 -44t-38.5 -29.5t-46.5 -17t-56.5 -5.5q-42 0 -78 16t-65 47z" />
    <glyph glyph-name="space" unicode=" " horiz-adv-x="438" 
 />
    <glyph glyph-name="ampersand" unicode="&#x26;" horiz-adv-x="768" 
d="M4 254q0 53 18.5 100t53.5 88q4 5 15 14t24 19.5t27.5 21.5t26.5 20.5t19.5 16t7.5 8.5v2.5t-7 14t-20 39t-22 54.5t-14 56.5t-5 58.5q0 39 16.5 72t43.5 57t62 37t72 13q26 0 51 -4t48 -12t43 -21t34 -31t22 -42t8 -54q0 -39 -17 -77.5t-44.5 -72.5t-61 -62.5
t-65.5 -47.5v-2v-2q0 -1 1.5 -4t2.5 -4q4 -7 10.5 -16.5t13.5 -20.5t14 -21t12.5 -18.5t9.5 -14t8 -9.5q12 -15 21 -25.5t20 -24t21.5 -27t20.5 -26t17 -21.5l6 -9t3 -5t4.5 -4l10.5 -6q6 4 11.5 13t8.5 15q2 4 5.5 13t7.5 19t7 18t4 10q0 2 2 9t5 17t6 22t6 23t5 21t4 16
q0 3 0.5 7.5t1 9.5t3 8t7.5 3q4 0 6 -0.5t13.5 -2.5t24.5 -4.5t24.5 -5t15.5 -3.5v-4v-4q0 -16 -5.5 -40.5t-14 -50.5t-17.5 -50t-15 -39q-3 -6 -10 -18t-14.5 -25t-13.5 -25t-6 -18t9 -13.5t24 -15.5t32.5 -15t34 -13t29.5 -9.5t19 -3.5q0 -4 0.5 -12t1 -18t1.5 -18.5
t1 -11.5l4 -32v-2q0 -3 -2 -5l-4 -4t-5 -3.5t-5 -1.5q-36 3 -70 10.5t-66 25.5q-2 2 -8.5 6t-14.5 10t-16.5 12.5t-16 12t-12.5 8.5t-6 3q-2 0 -16 -13.5t-43 -32.5t-61 -31t-67 -17.5t-74 -5.5q-33 0 -66.5 8t-64 23.5t-56.5 37.5t-45 49.5t-30 60t-11 69.5zM116 264
q0 -37 14.5 -67t39 -51.5t56.5 -32.5t68 -11q22 0 43.5 2.5t42.5 9.5q3 1 10.5 4.5t17 8.5t19.5 11t18.5 12t13.5 12t5 10t-0.5 7t-3.5 7l-50 60l-50 60q-9 11 -20.5 21.5t-19.5 22.5q-4 6 -10.5 17t-13.5 23t-14.5 25t-14.5 23.5t-13.5 17t-11.5 6.5h-2q-4 -2 -6 -3.5
t-3.5 -3t-2.5 -1.5l-4 -4q-24 -16 -44 -36t-34 -43.5t-22 -50t-8 -56.5zM240 744q0 -6 2 -18.5t5.5 -28t8.5 -31.5t10.5 -30t11 -24.5t10.5 -13.5l6 3l8 4t8 4.5t6 4.5q18 17 35.5 34t32 36.5t23.5 41.5t9 48q0 14 -6 29t-16.5 27t-24 20t-29.5 8q-25 0 -43.5 -9t-31.5 -25
t-19 -36.5t-6 -43.5z" />
    <glyph glyph-name="caron" unicode="&#x2c7;" horiz-adv-x="380" 
d="M200 1053q1 0 2 -0.5t2 -0.5l27 51q1 8 3 14t8 12l5 3l5 4l71 2q7 2 13.5 0.5t11.5 -2.5l4 -7q1 -3 -2 -8t-4 -9q-3 -8 -5 -11.5t-10 -8.5l-6 -6l-5 -6q-2 -7 -4 -9l-6 -7l-61 -92q-1 -12 -10 -17t-19 1h-62q-6 -3 -11.5 -2.5t-9.5 2.5h-1l-1 1q-6 5 -8 11q-13 2 -17 16
q-2 6 -3.5 12t-4.5 12l-18 29q-14 18 -29.5 35.5t-24.5 38.5q-3 7 -1 14l10 13q8 5 18 0h56q6 2 13 0l8 -7q2 -1 4 -5q0 -1 0.5 -1.5t0.5 -1.5l42 -77q4 4 12 6q2 0 3.5 0.5t3.5 0.5zM147 1019l-2 1q-2 -5 -5.5 -5t-7.5 1q-1 0 -1 -2h10t6 5zM48 1120q5 -1 8 -2t6 -3
q5 0 1 2q-4 1 -7 2t-7 3q-1 0 -1 -2zM121 1023q1 0 2 1q-4 6 -5 9h-1q-1 0 -1 -1zM138 992q1 0 1.5 -0.5t1.5 -0.5q5 0 1 2q-1 0 -1.5 0.5t-1.5 0.5t-1 -2zM105 1039q2 -2 2 -3q5 0 1 2l-1 2h-1q-1 0 -1 -1zM132 1023q0 -3 2 -1v3l-2 1v-3zM102 1044q0 -3 2 -1v3l-2 1v-3z
M154 1007q0 1 -0.5 1.5t-0.5 1.5h-1q-1 0 -1 -1q1 -1 1 -3q1 0 2 1zM150 983q1 -1 1 -3q1 0 2 1q0 1 -0.5 1.5t-0.5 1.5h-1q-1 0 -1 -1zM112 1039l2 -2q5 0 1 2l-1 1h-1q-1 0 -1 -1zM155 983q0 3 1 4l-2 1q1 -1 -1 -4zM92 1055q1 0 1 -0.5t1 -0.5v-1q0 -3 2 -1l-2 3h-1h-1z
M103 1051q1 -1 1 -2q1 0 2 1q0 1 -1 2h-1q-1 0 -1 -1zM126 1032l-2 1v-2q0 -3 2 -1v2zM150 996q0 1 1 2l-2 1l-1 -2zM138 1001q0 -3 2 -1v1l-2 1v-1z" />
    <glyph glyph-name="circumflex" unicode="&#x2c6;" horiz-adv-x="404" 
d="M181 1040q-1 0 -2 0.5t-2 0.5l-27 -51q-1 -8 -3 -14t-8 -12l-5 -3l-5 -4l-71 -2q-7 -2 -13.5 -0.5t-11.5 2.5l-4 7q-1 3 2 8t4 9q3 8 5 11.5t10 8.5l6 6l5 6q2 7 4 9l6 7l61 92q1 12 10 17t19 -1h62q6 3 11.5 2.5t9.5 -2.5h1l1 -1q6 -5 8 -11q13 -2 17 -16q2 -6 3.5 -12
t4.5 -12l18 -29q14 -18 29.5 -35.5t24.5 -38.5q3 -7 1 -14l-10 -13q-8 -5 -18 0h-56q-7 -2 -13 0l-8 7q-2 1 -4 5q0 1 -0.5 1.5t-0.5 1.5l-42 77q-5 -5 -12 -6q-2 0 -3.5 -0.5t-3.5 -0.5zM234 1074l2 -1q2 5 5.5 5t7.5 -1q1 0 1 2h-10t-6 -5zM333 973q-5 1 -8 2t-6 3
q-5 0 -1 -2q4 -1 7 -2t7 -3q1 0 1 2zM260 1070q-1 0 -2 -1q4 -6 5 -9h1l1 1zM243 1101q-1 0 -1.5 0.5t-1.5 0.5q-5 0 -1 -2q1 0 1.5 -0.5t1.5 -0.5t1 2zM276 1054q-2 2 -2 3q-5 0 -1 -2l1 -2h1zM249 1070q0 3 -2 1v-3l2 -1v3zM279 1049q0 3 -2 1v-3l2 -1v3zM227 1086
q0 -1 0.5 -1.5t0.5 -1.5h1l1 1q-1 1 -1 3q-1 0 -2 -1zM231 1110q-1 1 -1 3q-1 0 -2 -1q0 -1 0.5 -1.5t0.5 -1.5h1zM269 1054l-2 2q-5 0 -1 -2l1 -1h1zM226 1110q0 -3 -1 -4l2 -1q-1 1 1 4zM289 1038q-1 0 -1 0.5t-1 0.5v1q0 3 -2 1q1 -3 2 -3h1h1zM278 1042q-1 1 -1 2
q-1 0 -2 -1q0 -1 1 -2h1zM255 1061l2 -1v2q0 3 -2 1v-2zM231 1097q0 -1 -1 -2l2 -1l1 2zM243 1092q0 3 -2 1v-1l2 -1v1z" />
    <glyph glyph-name="tilde" unicode="&#x2dc;" horiz-adv-x="541" 
d="M338 1054q4 -2 10 -8q10 1 16 6q1 8 2.5 15.5t2.5 15.5q3 11 11 14q0 3 1 5h45q5 5 18 -1.5t17 -16.5q-2 -6 -6 -13.5t-9 -15.5q-7 -40 -27 -64q-29 -37 -74 -37q-32 0 -87 37q-22 14 -36 19q-7 0 -17 2q-2 0 -3 0.5t-3 0.5q-14 -2 -23 -14q-11 -15 -11 -47h-45
q-1 -1 -2 -1q-5 -1 -11 1h-13q-1 8 -1 15q-4 4 -4 6q-2 11 -0.5 18t-5.5 18q2 6 4 8q1 4 5 8q7 18 16.5 28t21.5 16q30 32 72 32q30 0 79 -29q14 -6 27 -12t30 -6zM359 989q13 3 8 13l-1 1q-1 0 -3 -7l1 -1q1 2 1 5q0 1 1 1q5 -7 -8 -11zM173 1083q5 1 9 1.5t8 0.5q1 0 1 1
q-5 0 -9 -0.5t-9 -1.5v-1zM412 1045q1 4 2 6.5t2 4.5l-1 1q-1 -2 -2 -4.5t-2 -6.5zM429 1069q-4 -3 -4 -9l1 -1q0 3 1 5.5t2 4.5zM418 1064q2 4 2 5l-1 1q0 -1 -2 -5zM394 1032q3 1 3 3l-1 1v-1q-1 0 -3 -2zM391 1012l-2 1v3l-1 1v-4l2 -2q1 0 1 1zM406 1037q1 0 1 1h-5
l-1 -1h5zM364 976q6 2 10 4q-5 -3 -10 -3v-1zM416 1036l-1 -4l1 -1v5zM411 1021l-2 -2l3 2h-1zM402 1014h-2v-1zM431 1072v-1l1 1h-1zM417 1044l1 -1v1h-1zM382 987v-1l1 1h-1zM411 1022v-1l1 1h-1zM431 1071l-1 -1q1 0 1 0.5t1 0.5h-1zM383 986q-2 0 -2 -1q0 1 1 1h1z" />
    <glyph glyph-name="ring" unicode="&#x2da;" horiz-adv-x="324" 
d="M86 1108q2 8 10 8q3 0 4 -1q12 23 34.5 39.5t42.5 16.5h6q21 0 38.5 -10.5t30 -28t20 -41t7.5 -49.5l-3 -13q-3 -21 -11.5 -39t-21.5 -30.5t-28.5 -19.5t-31.5 -7q-17 0 -35 8.5t-33 23.5t-25 34.5t-10 40.5q0 19 2.5 37.5t3.5 30.5zM150 1110q-13 -23 -13 -47
q0 -29 14.5 -52t34.5 -29q20 2 37 21t17 50q0 30 -17 50.5t-39 20.5z" />
    <glyph glyph-name="cedilla" unicode="&#xb8;" horiz-adv-x="541" 
d="M268 -41q-4 -4 -6 -7.5t-5 -7.5q36 -8 57 -31q24 -27 24 -65q0 -29 -13 -53q-3 -20 -12.5 -33.5t-23.5 -21.5t-31 -11t-35 -3h-11t-11 1q-7 -1 -15 -1q-46 0 -79 8q0 2 -0.5 3.5t-0.5 2.5v1v40q2 -2 4 -2l3 31q34 -2 53 -2q43 0 63 13.5t20 34.5q0 20 -17 31q-2 0 -5 0.5
t-5 0.5q-14 0 -28.5 -3t-25.5 -3l-3 20l19 79v12q0 8 7 15l2 7h11q7 2 14.5 3t15.5 1q11 0 20 -1.5t12 -3.5q2 -2 2 -9v-6v-40z" />
    <glyph glyph-name="acute" unicode="&#xb4;" horiz-adv-x="541" 
d="M171 1053v8l2 4q1 5 4 13t3 12l2 3l2 5l1 5l1 1h-1l4 6q0 4 0.5 4t2.5 5l17 28l3 6q3 1 14.5 1h25.5h26.5t25 -1t19.5 -2t9 -2l3 -1l-2 -4q-1 -1 -1 -4l-20 -34q-1 -1 -3 -1l-3 -6l-13 -20l-3 -5l-4 -2l-3 -6q-1 0 -1 -1l-5 -7l-34 -54q6 2 8 5l-19 -33q-2 -3 -12 -7
l-2 -3h-11q-8 0 -17.5 -3t-19.5 -3q-18 0 -30 6l-2 1l-1 1l6 12q-2 0 -2 1l11 22q-2 -1 -5 -1l13 21q0 8 1 12l7 13l1 2zM167 1045q-1 -1 -1 -2z" />
    <glyph glyph-name="grave" unicode="`" horiz-adv-x="541" 
d="M232 1148h4l8 -20l7 -12v-6l39 -99l6 -10q1 -4 4 -12t5 -16l3 -7l-4 -1q-3 -3 -11.5 -4t-17.5 -1q-27 0 -33 6h-12l-95 139q-7 4 -10 9l-20 34q6 3 16.5 4.5t21.5 1.5q13 0 25 -2t20 -4h35v5l3 -5h5v2zM212 1074q5 -3 14.5 -7.5t18.5 -10.5t15.5 -13t6.5 -13l2 -2
q0 2 -0.5 2.5t-0.5 2.5l-1 2q-6 7 -15.5 14t-18.5 13.5t-16 13t-7 11.5l-2 2q0 -7 3 -13zM256 1071q6 0 7 -3.5t1 -6.5v-1l2 -2v2v8l-1 2l-12 4l1 -1q0 1 -1 1l-4 2v-2zM274 1012l2 -2v7l-2 2v-7zM294 980l-6 11v-2zM246 1096q0 4 -3 12v-2zM252 1090l-7 5l6 -5h1zM261 1065
l2 -4q0 -1 1 -1q0 1 -0.5 1.5t-0.5 1.5zM236 1124q-1 0 -1 2q0 -3 1 -4v2zM251 1090q0 -3 1 -4v1q0 1 -0.5 1.5t-0.5 1.5z" />
    <glyph glyph-name="dieresis" unicode="&#xa8;" horiz-adv-x="541" 
d="M186 1038v-7t1 -9q-3 -3 -3 -8t6 -10v-1h2v1q0 -1 1 -1q-1 0 -1 2v-1v1q-1 1 -1 4q0 2 -0.5 3t-0.5 3v3q0 1 -1 2v1q6 3 16.5 -2.5t15.5 -26.5q0 -1 -0.5 -1.5t-0.5 -1.5q-2 -13 -7 -14l-44 -19q-23 -3 -44.5 0.5t-38.5 31.5q1 9 -1 13t0 12v12q-2 8 0 17q-8 24 17 46
q3 2 6 2.5t6 1.5q5 2 9 3t7 2q2 2 7 6q23 11 44 1q8 -4 19 -15l13 -20q5 -11 7 -20q0 -1 1 -1q0 -8 1 -23.5t-1 -29.5q-5 21 -15.5 26.5t-17.5 1.5v14q0 5 -2 1zM394 985l-2 -2q-5 -11 -16.5 -18t-29.5 -5q-21 8 -34 25h-1v1q-4 5 -7 10t-5 10q-13 10 -16 26q-8 10 -7 21
q1 8 6 11t7 9q2 5 6.5 9t6.5 9q3 8 13 10.5t16 6.5v1q10 7 21 6.5t21 -6.5l38 -34q11 -17 11 -36.5t-11 -36.5zM387 1059q2 -8 4 -15t-2 -15l-3 1q-10 -5 -7.5 -13.5t13.5 -6.5q4 2 7 5t4 7q2 9 2 17.5t2 17.5q0 10 -9 11.5t-11 -9.5zM188 1019q0 -3 1 -6t1 -7q-10 8 -2 14
v-1zM190 1052l2 -1v13q0 5 -2 1v-13zM219 988q-14 -3 -22 7q8 -11 22 -7zM206 1041q2 -6 1 -11l2 -1q-2 8 -1 11q0 5 -2 1zM191 1076q0 -1 -0.5 -1.5t-0.5 -1.5l2 -1q0 1 0.5 1.5t0.5 1.5l-1 1h-1zM198 1037l1 -2l1 2q0 1 -1 2z" />
    <glyph glyph-name="Adieresis" unicode="&#xc4;" 
d="M291 934h158l141 -460v-33l16 8v-16l137 -428h-115l-87 288h-337l-82 -296h-109zM49 59q-4 0 -4 -5q0 -4 4 -4q2 0 2 4q0 5 -2 5zM680 59q-2 0 -2 -5q0 -4 2 -4q4 0 4 4q0 5 -4 5zM97 100q-2 0 -2 -4t2 -4q4 0 4 4t-4 4zM89 117q-3 0 -3 -4t3 -4q4 0 4 4t-4 4zM631 120h9
v9zM134 137q-5 0 -9.5 -2t-10.5 -6q8 0 13 1.5t12 6.5h-5zM106 141q-3 0 -3 -5q0 -4 3 -4t3 4q0 5 -3 5zM631 166q-3 0 -3 -5q0 -4 3 -4t3 4q0 5 -3 5zM615 174q-3 0 -3 -4t3 -4q4 0 4 4t-4 4zM656 182q-3 0 -3 -4t3 -4t3 4t-3 4zM114 190q-3 0 -3 -4t3 -4q2 0 2 4t-2 4z
M139 190q-4 0 -4 -4t4 -4q2 0 2 4t-2 4zM97 194l17 8l-8 9zM131 199q-4 0 -4 -5q0 -4 4 -4q2 0 2 4q0 5 -2 5zM640 207q-4 0 -4 -4t4 -4q2 0 2 4t-2 4zM131 215q-4 0 -4 -4t4 -4q2 0 2 4t-2 4zM640 219q-1 1 -2 1q-3 0 -5.5 -3t-2.5 -5t4 -2q6 0 6 7v2zM114 236q0 1 -2 1
t-4.5 -3t-2.5 -5q0 -3 3 -3q6 0 6 8v2zM139 247q-4 0 -4 -4t4 -4q2 0 2 4t-2 4zM606 247q-2 0 -2 -4t2 -4q4 0 4 4t-4 4zM155 256q-3 0 -3 -5q0 -4 3 -4t3 4q0 5 -3 5zM163 303q-5 0 -9.5 -2.5t-6.5 -7.5h16v10zM131 309q-4 0 -4 -4t3 -4q4 0 4 4q0 2 -3 4zM590 301
q0 4 -5 4q-3 0 -3 -3q0 -5 4 -5q3 0 4 4zM302 326q-3 0 -3 -9q0 -8 3 -8q2 0 3 3t1 5q0 6 -3 9h-1zM328 317q0 4 -5 4q-4 0 -4 -3q0 -4 4 -4q3 0 5 3zM468 322q-4 0 -4 -4t4 -4q2 0 2 4t-2 4zM376 326h-8q7 6 15.5 8t17.5 2v15h-25v-25zM606 329q-2 0 -2 -4q0 -3 2 -3
q4 0 4 3q0 4 -4 4zM343 342q-3 0 -3 -4t3 -4q5 0 5 4q0 2 -4 4h-1zM426 338q-4 0 -4 -5q0 -4 4 -4q3 0 3 4q0 5 -3 5zM475 334h8v8h-8v-8zM508 334h8l-8 8v-8zM451 346q-4 0 -4 -4t4 -4q3 0 3 4t-3 4zM525 351q3 -8 7 -8.5t9 -0.5q-6 10 -16 9zM566 346q-4 0 -4 -4t4 -4
q3 0 3 4t-3 4zM434 354q-3 0 -3 -4t3 -4t3 4t-3 4zM212 363q-2 0 -2 -5q0 -4 2 -4q3 0 3 4q0 5 -3 5zM294 363q-2 0 -2 -5q0 -4 2 -4q4 0 4 4q0 5 -4 5zM368 360q0 3 -3 3q-4 0 -4 -3q0 -5 3 -5t4 4v1zM550 363q-4 0 -4 -5q0 -4 4 -4q2 0 2 4q0 5 -2 5zM598 359
q1 0 2.5 -0.5t2.5 -0.5q7 0 12 9zM187 376q-3 0 -3 -5q0 -4 2 -4q5 0 5 4q0 3 -4 5zM451 371q-4 0 -4 -4t4 -4q3 0 3 4t-3 4zM525 371q-3 0 -3 -4t3 -4q2 0 2 4t-2 4zM203 383q-3 0 -3 -4q0 -3 3 -3q5 0 5 3q0 2 -4 4h-1zM229 391h281l-92 321q0 1 -0.5 6.5t-0.5 8.5
q0 10 1 18t8 16l-17 -8l-33 107h-15zM155 412q-3 0 -3 -4t3 -4t3 4t-3 4zM574 436q-3 0 -3 -4q0 -3 3 -3t3 3q0 4 -3 4zM533 466q0 4 -5 4q-3 0 -3 -3q0 -5 4 -5q3 0 4 4zM229 482q0 4 -4 4t-4 -3q0 -5 4 -5q3 0 4 4zM533 482q7 2 8 6.5t1 9.5t-1 10t-8 7v-33zM550 486
q-4 0 -4 -4t4 -4q2 0 2 4t-2 4zM196 494q-3 0 -3 -4t3 -4q4 0 4 4t-4 4zM204 506h17v9zM491 528q-2 0 -2 -5q0 -4 2 -4q4 0 4 4q0 5 -4 5zM229 548q0 4 -4 4t-4 -3q0 -5 4 -5q3 0 4 4zM212 560q-2 0 -2 -5q0 -4 2 -4q3 0 3 4q0 5 -3 5zM229 573h17q-4 5 -7 6.5t-10 1.5v-8z
M533 593q-4 0 -4 -4t4 -4q2 0 2 4t-2 4zM229 601q-4 0 -4 -4t4 -4q3 0 3 4t-3 4zM491 609q-2 0 -2 -4t2 -4q4 0 4 4t-4 4zM229 618q-4 0 -4 -5q0 -4 4 -4q3 0 3 4q0 5 -3 5zM491 621v9h-8zM221 634q-4 0 -4 -4t4 -4q2 0 2 4t-2 4zM475 642q-3 0 -3 -4t3 -4t3 4t-3 4z
M475 658q-3 0 -3 -4t3 -4t3 4t-3 4zM475 688q-4 0 -4 -5q0 -3 3 -3q5 0 5 3q0 2 -4 5zM269 708q-2 0 -2 -4t2 -4q4 0 4 4t-4 4zM254 712h8l-8 8v-8zM443 741q-4 0 -4 -4t4 -4q2 0 2 4t-2 4zM446 761q-7 0 -12 -8l17 8h-5zM401 922q-2 0 -2 -5q0 -4 2 -4q4 0 4 4q0 5 -4 5z
M317 1050v-7t1 -9q-3 -3 -3 -8t6 -10v-1h2v1q0 -1 1 -1q-1 0 -1 2v-1v1q-1 1 -1 4q0 2 -0.5 3t-0.5 3v3q0 1 -1 2v1q6 3 16.5 -2.5t15.5 -26.5q0 -1 -0.5 -1.5t-0.5 -1.5q-2 -13 -7 -14l-44 -19q-23 -3 -44.5 0.5t-38.5 31.5q1 9 -1 13t0 12v12q-2 8 0 17q-8 24 17 46
q3 2 6 2.5t6 1.5q5 2 9 3t7 2q2 2 7 6q23 11 44 1q8 -4 19 -15l13 -20q5 -11 7 -20q0 -1 1 -1q0 -8 1 -23.5t-1 -29.5q-5 21 -15.5 26.5t-17.5 1.5v14q0 5 -2 1zM525 997l-2 -2q-5 -11 -16.5 -18t-29.5 -5q-21 8 -34 25h-1v1q-4 5 -7 10t-5 10q-13 10 -16 26q-8 10 -7 21
q1 8 6 11t7 9q2 5 6.5 9t6.5 9q3 8 13 10.5t16 6.5v1q10 7 21 6.5t21 -6.5l38 -34q11 -17 11 -36.5t-11 -36.5zM518 1071q2 -8 4 -15t-2 -15l-3 1q-10 -5 -7.5 -13.5t13.5 -6.5q4 2 7 5t4 7q2 9 2 17.5t2 17.5q0 10 -9 11.5t-11 -9.5zM319 1031q0 -3 1 -6t1 -7q-10 8 -2 14
v-1zM321 1064l2 -1v13q0 5 -2 1v-13zM350 1000q-14 -3 -22 7q8 -11 22 -7zM337 1053q2 -6 1 -11l2 -1q-2 8 -1 11q0 5 -2 1zM322 1088q0 -1 -0.5 -1.5t-0.5 -1.5l2 -1q0 1 0.5 1.5t0.5 1.5l-1 1h-1zM329 1049l1 -2l1 2q0 1 -1 2z" />
    <glyph glyph-name="Aring" unicode="&#xc5;" 
d="M288 923l158 -3q2 -8 8 -27.5t13.5 -41t14.5 -41.5t10 -27q58 -172 117.5 -351.5t110.5 -356.5q-4 -19 -3 -25t3.5 -8.5t5.5 -4.5t3 -14q-10 0 -18 6t-15.5 13.5t-14.5 13t-15 5.5q-11 0 -18 -12.5t-10 -20.5q-2 1 -5 4.5t-3 4.5q-2 3 -5.5 10.5l-7 15t-6.5 14.5t-4 9
q-5 12 -14.5 41t-20.5 62t-20.5 62t-13.5 41l-161 3v11q-6 0 -9.5 -3t-6.5 -6t-6.5 -5.5t-9.5 -1.5l-129 1l-78 -261q-8 -2 -9.5 -11.5t-2.5 -14.5q-3 0 -11.5 0.5t-18.5 1t-18.5 1t-11.5 0.5q-2 0 -8.5 4.5t-8.5 4.5t-8 -3t-8 -6v33zM73 27q0 -4 1 -4q3 -2 12.5 -6t11.5 -3
q1 0 6 3t11 7.5t11 9.5t5 9q-2 16 -13.5 22.5t-25.5 5.5q0 -7 -2.5 -12.5t-6.5 -10.5t-7 -10t-3 -11zM113 39q-5 -9 -15 -11v10zM678 28v-8h-8v8h8zM91 119q-2 -3 -5 -15.5t-3 -15.5q-1 -1 -0.5 -4t0.5 -5h-8l32 17v3q0 6 -2.5 14t-10.5 7zM142 159q1 4 -4.5 4.5t-4.5 -3.5
t4 -4.5t5 3.5zM649 201q-4 0 -4 -4t4 -4q3 0 3 4t-3 4zM158 243q-4 0 -4 -4t4 -4q2 0 2 4t-2 4zM386 332q1 3 -4 3t-4 -3q0 -4 3 -4t5 4zM242 383h11t17 -0.5t17 -0.5h11q12 0 40.5 1t61 1.5t61 1t39.5 0.5v16l-127 447q-10 -5 -13.5 -15t-4.5 -17q-5 -18 -12.5 -46
t-14.5 -55t-12 -47t-5 -21v-8l-69 -240v-17zM557 380q-4 0 -4 -4t4 -4q2 0 2 4t-2 4zM573 389q-4 0 -4 -4.5t4 -4.5q2 0 2 4.5t-2 4.5zM502 544q-3 0 -3 -4t3 -4t3 4t-3 4zM274 1136q2 8 10 8q3 0 4 -1q12 23 34.5 39.5t42.5 16.5h6q21 0 38.5 -10.5t30 -28t20 -41
t7.5 -49.5l-3 -13q-3 -21 -11.5 -39t-21.5 -30.5t-28.5 -19.5t-31.5 -7q-17 0 -35 8.5t-33 23.5t-25 34.5t-10 40.5q0 19 2.5 37.5t3.5 30.5zM338 1138q-13 -23 -13 -47q0 -29 14.5 -52t34.5 -29q20 2 37 21t17 50q0 30 -17 50.5t-39 20.5z" />
    <glyph glyph-name="Agrave" unicode="&#xc0;" 
d="M35 80q0 2 1 3l244 840l12 1t28.5 2t34.5 1.5t30 0.5q2 0 12 -0.5t15 -0.5q18 -2 25 -5.5t12 -21.5l273 -861q0 -1 0.5 -5.5t0.5 -6.5q0 -11 -7 -15.5t-16.5 -5t-19.5 0.5t-17 1q-2 1 -7.5 1.5t-12 1t-12 1t-8.5 0.5q-5 5 -9 11.5t-6 12.5q-5 15 -16 51t-23.5 76.5
t-24 77t-15.5 50.5q-2 0 -9.5 0.5t-9.5 0.5q-72 2 -148 2.5t-148 -7.5q-9 -13 -17.5 -38.5t-17.5 -56t-17.5 -62.5t-18 -58t-19.5 -42.5t-21 -15.5q0 6 1.5 14.5t9.5 10.5q-5 6 -9 7.5t-8 1.5t-9.5 -0.5t-12.5 0.5q0 -9 4 -16t3 -17q-3 0 -10.5 8.5t-16 19t-14.5 20t-6 12.5
v5zM664 30q-2 1 -2 -3t2 -5q4 0 4 4t-4 4zM124 60q-3 0 -3 -4t3 -4t3 4t-3 4zM119 165q-2 0 -2 -4t2 -4q4 0 4 4t-4 4zM142 202q-14 0 -23.5 -5t-10.5 -22q7 0 12.5 3t10.5 7.5t10 8.5t13 6q-1 0 -5.5 1t-6.5 1zM114 227l9 -1v8l-9 1v-8zM140 266q5 -11 16 -11v10zM459 342
q-4 2 -4.5 -3.5t4.5 -4.5q4 2 4 4.5t-4 3.5zM572 341q-3 0 -3 -4t3 -4q4 0 4 4t-4 4zM233 383q24 -2 67.5 -2.5t86 0t74 2.5t31.5 7l2 8l-128 449l-4 1q-6 1 -8.5 -5t-3.5 -11l-117 -440v-9zM170 414q-3 0 -3 -4t3 -4t3 4t-3 4zM370 1154h4l8 -20l7 -12v-6l39 -99l6 -10
q1 -4 4 -12t5 -16l3 -7l-4 -1q-3 -3 -11.5 -4t-17.5 -1q-27 0 -33 6h-12l-95 139q-7 4 -10 9l-20 34q6 3 16.5 4.5t21.5 1.5q13 0 25 -2t20 -4h35v5l3 -5h5v2zM350 1080q5 -3 14.5 -7.5t18.5 -10.5t15.5 -13t6.5 -13l2 -2q0 2 -0.5 2.5t-0.5 2.5l-1 2q-6 7 -15.5 14
t-18.5 13.5t-16 13t-7 11.5l-2 2q0 -7 3 -13zM394 1077q6 0 7 -3.5t1 -6.5v-1l2 -2v2v8l-1 2l-12 4l1 -1q0 1 -1 1l-4 2v-2zM412 1018l2 -2v7l-2 2v-7zM432 986l-6 11v-2zM384 1102q0 4 -3 12v-2zM390 1096l-7 5l6 -5h1zM399 1071l2 -4q0 -1 1 -1q0 1 -0.5 1.5t-0.5 1.5z
M374 1130q-1 0 -1 2q0 -3 1 -4v2zM389 1096q0 -3 1 -4v1q0 1 -0.5 1.5t-0.5 1.5z" />
    <glyph glyph-name="Atilde" unicode="&#xc3;" 
d="M23 31q0 2 0.5 7t0.5 6l243 862l8 8q26 1 50 2q20 1 42 2t36 2h10q9 -1 14 -9t8 -17l288 -872l-9 -7q-1 -2 -8.5 -3t-18 -2t-21.5 -1.5t-17 -0.5q-9 1 -22 7.5t-16 16.5l-92 255l-145 2v11q-14 0 -30 -6t-33 -7q-12 -1 -30 -1.5t-35 -1.5q-19 -1 -40 -3l-8 -8l-69 -247
q-7 -24 -33 -23q-1 0 -4 3.5t-4 4.5h-3h-5q-2 -1 -12 -5t-12 -3q-21 4 -27.5 9t-5.5 19zM57 72q-3 1 -3 -3t3 -6q3 0 3 4.5t-3 4.5zM635 92q-2 0 -2 -4t2 -4q4 0 4 4t-4 4zM82 127q-3 0 -3 -4t3 -4t3 4t-3 4zM139 170l8 8h-8v-8zM156 255q-2 0 -2 -4t2 -4q4 0 4 4t-4 4z
M567 266q-4 1 -4 -4t4 -4q3 1 3 4t-3 4zM583 263q-4 0 -4 -4t4 -4q2 -2 2 2.5t-2 5.5zM166 302q-3 0 -3 -4t3 -4t3 4t-3 4zM367 318q2 2 5 11.5t3 12.5q0 2 -3 5t-5 3v-32zM279 336h4q8 0 12 7zM350 842q-3 0 -5 -2q-1 -1 -4 -10t-5 -13l-111 -440h7q66 -2 129 2.5t128 2.5
v6l-136 452q0 2 -3 2zM184 397q-3 0 -3 -4t3 -4t3 4t-3 4zM523 476q-2 4 -7 -1t-1 -7q2 -2 5.5 1t2.5 7zM506 479q-3 0 -3 -3t3 -3t3 3t-3 3zM211 510q-4 0 -4 -4.5t4 -4.5q2 0 2 4.5t-2 4.5zM203 518q-4 0 -4 -4t4 -4q2 0 2 4t-2 4zM516 512q-4 0 -4 -4t4 -4q2 0 2 4t-2 4z
M228 566q-3 0 -3 -4t3 -4t3 4t-3 4zM493 577q-4 0 -4 -4t4 -4q2 0 2 4t-2 4zM453 634q-2 0 -2 -4.5t2 -4.5q4 0 4 4.5t-4 4.5zM432 746q-3 0 -3 -4t3 -4t3 4t-3 4zM429 1059q4 -2 10 -8q10 1 16 6q1 8 2.5 15.5t2.5 15.5q3 11 11 14q0 3 1 5h45q5 5 18 -1.5t17 -16.5
q-2 -6 -6 -13.5t-9 -15.5q-7 -40 -27 -64q-29 -37 -74 -37q-32 0 -87 37q-22 14 -36 19q-7 0 -17 2q-2 0 -3 0.5t-3 0.5q-14 -2 -23 -14q-11 -15 -11 -47h-45q-1 -1 -2 -1q-5 -1 -11 1h-13q-1 8 -1 15q-4 4 -4 6q-2 11 -0.5 18t-5.5 18q2 6 4 8q1 4 5 8q7 18 16.5 28
t21.5 16q30 32 72 32q30 0 79 -29q14 -6 27 -12t30 -6zM450 994q13 3 8 13l-1 1q-1 0 -3 -7l1 -1q1 2 1 5q0 1 1 1q5 -7 -8 -11zM264 1088q5 1 9 1.5t8 0.5q1 0 1 1q-5 0 -9 -0.5t-9 -1.5v-1zM503 1050q1 4 2 6.5t2 4.5l-1 1q-1 -2 -2 -4.5t-2 -6.5zM520 1074q-4 -3 -4 -9
l1 -1q0 3 1 5.5t2 4.5zM509 1069q2 4 2 5l-1 1q0 -1 -2 -5zM485 1037q3 1 3 3l-1 1v-1q-1 0 -3 -2zM482 1017l-2 1v3l-1 1v-4l2 -2q1 0 1 1zM497 1042q1 0 1 1h-5l-1 -1h5zM455 981q6 2 10 4q-5 -3 -10 -3v-1zM507 1041l-1 -4l1 -1v5zM502 1026l-2 -2l3 2h-1zM493 1019h-2
v-1zM522 1077v-1l1 1h-1zM508 1049l1 -1v1h-1zM473 992v-1l1 1h-1zM502 1027v-1l1 1h-1zM522 1076l-1 -1q1 0 1 0.5t1 0.5h-1zM474 991q-2 0 -2 -1q0 1 1 1h1z" />
    <glyph glyph-name="Aacute" unicode="&#xc1;" 
d="M551 275l-8 8q-5 0 -17 -0.5t-25 -0.5t-25 0.5t-16 0.5q-2 0 -12 1t-21 2.5t-20.5 3t-11.5 1.5q-10 0 -34.5 -1t-52.5 -2t-52.5 -2.5t-34.5 -2.5q-2 -3 -8.5 -15.5t-8.5 -17.5q-3 -8 -10 -30t-15 -47t-14.5 -47.5t-9.5 -31.5l-8 8v99q-8 -3 -11.5 -19t-6 -35.5t-5.5 -39
t-10 -30.5h18q0 -11 -3.5 -13.5t-8.5 -2t-11 1.5t-11 -3t-8.5 -17t-3.5 -40h-62v25q0 1 6.5 23t15.5 52.5t19 62t16 51.5q2 6 6 10.5t7 9t4.5 9.5t-0.5 12l172 577q1 18 5 35.5t12.5 31.5t22 22.5t34.5 8.5q13 0 32.5 -1t37.5 -2.5t31.5 -2.5t14.5 -2l9 -16l156 -510l8 -18
q0 -1 6 -19t14.5 -46t19.5 -63l22 -70t20.5 -67.5t16.5 -54.5q4 -14 6.5 -32t2.5 -34h-107zM-75 94q11 -16 18 -38.5t7 -39.5q0 -10 -9 -12.5t-16 -2.5v93zM122 16q4 0 4 -4t-4 -4q-2 0 -2 4t2 4zM106 44q1 0 4 0.5t4 0.5q8 0 12.5 -1.5t12.5 -7.5l-25 -16q3 6 -1 13t-7 11z
M674 23q-4 0 -4 -3.5t4 -3.5q3 0 3 3.5t-3 3.5zM61 53q-5 0 -9 -3.5t-4 -8.5v-5l17 17h-4zM147 77q4 -2 4 -8t-4 -8q-2 -1 -2.5 2t-0.5 6t0.5 6t2.5 2zM106 118q-5 -1 -7.5 -6t-3 -10.5t-0.5 -11v-6.5q14 0 19 10q-8 3 -9 10.5t1 13.5zM98 127q2 2 5 12t3 12q0 3 -3 9t-5 8
v-41zM155 164q-2 0 -2 -4t2 -4q4 0 4 4t-4 4zM139 213q-3 0 -3 -4t3 -4t3 4t-3 4zM172 213q-3 0 -3 -4t3 -4t3 4t-3 4zM139 258q-2 1 -3 -1.5t-1 -6t1 -6.5t3 -2q4 2 4 8t-4 8zM147 307q-8 -2 -8.5 -8t-0.5 -12v-5.5t1 -6.5q8 2 8.5 8.5t0.5 12.5q0 1 -0.5 5.5t-0.5 5.5z
M180 275q1 4 -4 4t-4 -4t4 -4t4 4zM349 332q-3 0 -9.5 -2.5t-13 -7t-11 -9.5t-4.5 -9v-5q8 0 14.5 5.5t12.5 11.5t11.5 9t12.5 -1q-5 8 -13 8zM386 304q-3 0 -3 -4t3 -4t3 4t-3 4zM131 316q1 -1 2 -1h2q12 0 12 14v3zM196 320q-2 0 -2 -4t2 -4q4 0 4 4t-4 4zM436 337
q-4 0 -4 -4t4 -4q2 0 2 4t-2 4zM575 332q1 2 -1.5 3t-6.5 1t-6.5 -1t-1.5 -3q2 -3 8 -3t8 3zM147 361q-3 0 -3 -4t3 -4q4 0 4 4t-4 4zM518 381l-123 445q-3 7 -7 14t-10 11l-135 -470h275zM229 444q-2 0 -2 -4.5t2 -4.5q4 0 4 4.5t-4 4.5zM229 567q-2 0 -2 -4t2 -4q4 0 4 4
t-4 4zM262 616q-3 0 -3 -4t3 -4q4 0 4 4t-4 4zM326 1054v8l2 4q1 5 4 13t3 12l2 3l2 5l1 5l1 1h-1l4 6q0 4 0.5 4t2.5 5l17 28l3 6q3 1 14.5 1h25.5h26.5t25 -1t19.5 -2t9 -2l3 -1l-2 -4q-1 -1 -1 -4l-20 -34q-1 -1 -3 -1l-3 -6l-13 -20l-3 -5l-4 -2l-3 -6q-1 0 -1 -1l-5 -7
l-34 -54q6 2 8 5l-19 -33q-2 -3 -12 -7l-2 -3h-11q-8 0 -17.5 -3t-19.5 -3q-18 0 -30 6l-2 1l-1 1l6 12q-2 0 -2 1l11 22q-2 -1 -5 -1l13 21q0 8 1 12l7 13l1 2zM322 1046q-1 -1 -1 -2z" />
    <glyph glyph-name="parenleft" unicode="(" horiz-adv-x="308" 
d="M282 -2q-18 16 -71 8q-34 47 -80 98q-20 28 -34 54.5t-25 53.5t-18.5 55.5t-14.5 60.5q-1 2 -3.5 12t-5 22t-5 22t-2.5 12v5q0 21 1 43.5t2.5 45t3 44.5t1.5 42q1 2 2.5 8t1.5 8q8 46 21 90.5t32 84t45 73t60 57.5t18 28l20 6l62 3q-38 -59 -72 -96q-12 -32 -21 -46.5
t-15 -34.5t-10 -37q-5 -10 -7.5 -20.5t-8.5 -19.5q-14 -51 -21 -104t-7 -106v-6q2 -23 3.5 -49.5t4.5 -54t7.5 -54t12.5 -50.5q4 -13 11 -24t4.5 -18t-2.5 -19.5t13 -16.5q-2 -11 -1 -14t2.5 -5.5t3.5 -3.5t4 -1.5l4 -1t4 -1.5t5.5 -5t7 -9t6.5 -10t10 -23q4 -11 51 -106z
M297 854q-3 0 -3 -4t3 -4t3 4t-3 4z" />
    <glyph glyph-name="parenright" unicode=")" horiz-adv-x="312" 
d="M31 934q18 -16 71 -8q34 -47 80 -98q20 -28 34 -54.5t25 -53.5t18.5 -55.5t14.5 -60.5q1 -2 3.5 -12t5 -22t5 -22t2.5 -12v-5q0 -21 -1 -43.5t-2.5 -45t-3 -44.5t-1.5 -42q-1 -2 -2.5 -8t-1.5 -8q-8 -46 -21 -90.5t-32 -84t-45 -73t-60 -57.5t-18 -28l-20 -6l-62 -3
q38 59 72 96q12 32 21 46.5t15 34.5t10 37q5 10 7.5 20.5t8.5 19.5q29 51 36 104t7 106v6q-2 23 -3.5 49.5t-12 54t-15 54t-12.5 50.5q-4 13 -11 24t-4.5 18t2.5 19.5t-13 16.5q2 11 1 14t-2.5 5.5t-3.5 3.5t-4 1l-4 1l-4 2q-2 1 -5.5 5t-7 9t-6.5 10t-10 23q-4 11 -51 106z
M265 812q-7 -12 -8 -3q5 11 8 11t3 -4t-3 -4zM160 97l4 3h-2l-1 -1v1l-14 -9q0 -1 1 -2l10 6q-2 -2 -2 -5l2 -1zM198 137q3 7 8 13t7 12l-1 1h-1q-2 -7 -6.5 -13t-8.5 -12zM208 179q-5 -2 -12 -9q-2 -2 -4 -8l2 -1q2 11 15 16v1zM139 68q3 5 8 9l-1 1h-1l-8 -9zM189 110
q0 9 1 12q0 5 -2 1q1 -2 0.5 -5.5t-1.5 -6.5zM155 84q0 -1 0.5 -1.5t0.5 -1.5l5 3v1v1l-4 -3q0 2 -1 3zM169 133q0 -3 -1 -5l2 -1q0 2 0.5 3t0.5 2l-1 1h-1zM189 143q0 2 -1 3q0 1 -1 1q0 1 -1 1q-3 0 -1 -2h2v-2z" />
    <glyph glyph-name="Acircumflex" unicode="&#xc2;" 
d="M298 922q20 1 38 2q16 1 32 1.5t27 1.5h11.5t15.5 -1q7 0 16.5 1t13.5 -9l288 -911q-5 0 -19 -1t-29.5 -1.5t-29.5 -1.5t-20 -2h-4h-4l-93 287l-282 8q-23 0 -34 -3t-17 -22l-79 -266l-108 -6zM65 18q-4 0 -4 -4t4 -4q2 0 2 4t-2 4zM105 13h8v8zM97 26q-2 0 -2.5 -4
t1.5 -4q4 -1 4.5 3t-3.5 5zM82 34q-4 0 -4 -4t4 -4q3 0 3 4t-3 4zM82 54q0 -2 2.5 -5t4.5 -3v25q-2 -1 -4.5 -7.5t-2.5 -9.5zM106 58q-3 0 -3 -4t3 -4t3 4t-3 4zM114 74q-3 0 -3 -4t3 -4q4 0 4 4t-4 4zM107 81q-3 0 -3.5 -3.5t2.5 -3.5t4 3.5t-3 3.5zM107 114q-3 0 -3 -4
t3 -4q4 0 4 4t-4 4zM132 119q-4 1 -4 -4t4 -4q3 1 3 4t-3 4zM100 132q-3 0 -3.5 -4t2.5 -4q3 -1 4 3t-3 5zM158 141q1 5 -4.5 5.5t-4.5 -3.5t4 -4.5t5 2.5zM108 151q6 4 12 9t6 12l-1 4zM133 156q-3 0 -3 -4.5t3 -4.5t3 4.5t-3 4.5zM158 171q-4 1 -4 -3t4 -5q2 0 2 4t-2 4z
M142 192q1 4 -4 4t-4 -4t4 -4t4 4zM117 204q-2 0 -2 -4t2 -4q4 0 4 4t-4 4zM134 208l8 17h-8v-17zM159 216q1 3 -4.5 3.5t-4.5 -2.5q2 -4 5 -4.5t4 3.5zM194 317q-4 0 -4 -4.5t4 -4.5q3 0 3 4.5t-3 4.5zM283 314q-3 0 -3 -4t3 -4t3 4t-3 4zM381 308q8 4 8 12v5zM339 350
q0 -4 -1 -10t-4 -11.5t-7.5 -9t-11.5 -1.5q1 0 4 -0.5t4 -0.5q14 0 18 10t4 23h-6zM356 326q-3 1 -3 -4t3 -4q4 1 4 4t-4 4zM413 320q-3 0 -3 -4t3 -4q4 -1 4 3t-4 5zM431 336q-3 0 -3.5 -4.5t1.5 -4.5q4 0 4.5 4.5t-2.5 4.5zM162 350q-3 0 -3 -4.5t3 -4.5t3 4.5t-3 4.5z
M316 346q-2 0 -2 -4t2 -4q4 0 4 4t-4 4zM366 365q1 4 -4.5 4.5t-3.5 -3.5q1 -4 4 -4.5t4 3.5zM243 376q4 0 16 -0.5t25 -0.5t24.5 -0.5t16.5 -0.5q19 0 48 0.5t56 1.5t47 2l20 1l10 8l1 57q-2 1 -8.5 18t-13.5 37t-12 37.5t-5 19.5q0 8 8 10q-8 8 -14.5 15.5t-8.5 18.5
l-68 238q-5 8 -13 8h-4l-53 -162q-1 1 -4 -2t-4 -5q0 -5 -3.5 -20.5t-7 -33.5t-6 -33t-1.5 -19l-44 -161zM554 386h8v8zM221 454q-2 0 -2 -4t2 -4q4 0 4 4t-4 4zM531 464q-3 0 -3 -4t3 -4t3 4t-3 4zM213 479q-3 0 -3 -4t3 -4q4 0 4 4t-4 4zM539 479q-3 0 -3 -3.5t3 -3.5
t3 3.5t-3 3.5zM508 489q-4 0 -4.5 -4.5t3.5 -4.5q3 0 3.5 4.5t-2.5 4.5zM508 526q1 4 -4 4t-4 -4q1 -5 3.5 -5t4.5 5zM523 529q-2 1 -2 -3.5t2 -5.5q4 0 4 4.5t-4 4.5zM501 541q1 5 -4 5t-4 -5q0 -3 3 -3t5 3zM525 585q-3 0 -3 -3.5t3 -3.5t3 3.5t-3 3.5zM225 617
q-3 0 -3 -4t3 -4t3 4t-3 4zM249 625q-2 0 -2 -4t2 -4q4 0 4 4t-4 4zM259 650q-3 0 -3.5 -4t2.5 -4q2 0 2.5 4t-1.5 4zM283 669q-3 1 -3 -4.5t3 -4.5q4 2 4 4.5t-4 4.5zM300 690q-4 0 -4 -4t4 -4q2 0 2 4t-2 4zM448 754q-2 4 -7 -1t-1 -7q2 -1 6 2.5t2 5.5zM423 796q2 3 -3 4
t-5 -3q2 -4 4.5 -4.5t3.5 3.5zM375 1060q-1 0 -2 0.5t-2 0.5l-27 -51q-1 -8 -3 -14t-8 -12l-5 -3l-5 -4l-71 -2q-7 -2 -13.5 -0.5t-11.5 2.5l-4 7q-1 3 2 8t4 9q3 8 5 11.5t10 8.5l6 6l5 6q2 7 4 9l6 7l61 92q1 12 10 17t19 -1h62q6 3 11.5 2.5t9.5 -2.5h1l1 -1q6 -5 8 -11
q13 -2 17 -16q2 -6 3.5 -12t4.5 -12l18 -29q14 -18 29.5 -35.5t24.5 -38.5q3 -7 1 -14l-10 -13q-8 -5 -18 0h-56q-7 -2 -13 0l-8 7q-2 1 -4 5q0 1 -0.5 1.5t-0.5 1.5l-42 77q-5 -5 -12 -6q-2 0 -3.5 -0.5t-3.5 -0.5zM428 1094l2 -1q2 5 5.5 5t7.5 -1q1 0 1 2h-10t-6 -5z
M527 993q-5 1 -8 2t-6 3q-5 0 -1 -2q4 -1 7 -2t7 -3q1 0 1 2zM454 1090q-1 0 -2 -1q4 -6 5 -9h1l1 1zM437 1121q-1 0 -1.5 0.5t-1.5 0.5q-5 0 -1 -2q1 0 1.5 -0.5t1.5 -0.5t1 2zM470 1074q-2 2 -2 3q-5 0 -1 -2l1 -2h1zM443 1090q0 3 -2 1v-3l2 -1v3zM473 1069q0 3 -2 1v-3
l2 -1v3zM421 1106q0 -1 0.5 -1.5t0.5 -1.5h1l1 1q-1 1 -1 3q-1 0 -2 -1zM425 1130q-1 1 -1 3q-1 0 -2 -1q0 -1 0.5 -1.5t0.5 -1.5h1zM463 1074l-2 2q-5 0 -1 -2l1 -1h1zM420 1130q0 -3 -1 -4l2 -1q-1 1 1 4zM483 1058q-1 0 -1 0.5t-1 0.5v1q0 3 -2 1q1 -3 2 -3h1h1z
M472 1062q-1 1 -1 2q-1 0 -2 -1q0 -1 1 -2h1zM449 1081l2 -1v2q0 3 -2 1v-2zM425 1117q0 -1 -1 -2l2 -1l1 2zM437 1112q0 3 -2 1v-1l2 -1v1z" />
    <glyph glyph-name="aacute" unicode="&#xe1;" horiz-adv-x="753" 
d="M224 286l-84 -273l-7 -7q-2 -1 -15 -1h-19q-2 0 -12.5 -1t-22.5 -0.5t-21.5 4.5t-9.5 13v5t1 4l271 898h163l283 -915v-3q0 -8 -9 -13h-29q-7 0 -19 -0.5t-24.5 0t-22.5 4t-13 12.5l-82 273h-328zM19 150q3 0 6 -5t4.5 -11.5t1 -13.5t-2.5 -11v-9h-9l-9 50h9zM676 25
q-3 0 -3 -3.5t3 -3.5t3 3.5t-3 3.5zM149 117q-3 0 -3 -4t3 -4t3 4t-3 4zM116 124q-3 0 -3 -3.5t3 -3.5q4 0 4 3.5t-4 3.5zM651 175q-3 0 -3 -4.5t3 -4.5t3 4.5t-3 4.5zM140 191q-2 0 -2 -4.5t2 -4.5q4 0 4 4.5t-4 4.5zM651 191q-3 0 -3 -4.5t3 -4.5t3 4.5t-3 4.5zM133 281
q-4 0 -4 -4.5t4 -4.5q3 0 3 4.5t-3 4.5zM544 331q-3 0 -3 -4t3 -4q4 0 4 4t-4 4zM224 392q-4 1 -4 -4.5t4 -3.5q3 1 3 4t-3 4zM522 384l-126 453l-12 25l-132 -478h270zM552 446q0 -9 9 -12q4 5 6.5 9.5t2.5 11.5v3q-8 -1 -13 -3t-5 -9zM577 491q-20 -2 -20 -19q18 0 20 19z
M528 491h9v25h-9v-25zM552 495q-2 0 -2 -3.5t2 -3.5q3 0 3 3.5t-3 3.5zM495 669q-3 0 -3 -4.5t3 -4.5t3 4.5t-3 4.5zM462 853q-2 4 -6.5 -1t-2.5 -7q4 -2 7.5 2t1.5 6zM330 865q-3 0 -3 -3.5t3 -3.5q4 0 4 3.5t-4 3.5zM311 1053v8l2 4q1 5 4 13t3 12l2 3l2 5l1 5l1 1h-1l4 6
q0 4 0.5 4t2.5 5l17 28l3 6q3 1 14.5 1h25.5h26.5t25 -1t19.5 -2t9 -2l3 -1l-2 -4q-1 -1 -1 -4l-20 -34q-1 -1 -3 -1l-3 -6l-13 -20l-3 -5l-4 -2l-3 -6q-1 0 -1 -1l-5 -7l-34 -54q6 2 8 5l-19 -33q-2 -3 -12 -7l-2 -3h-11q-8 0 -17.5 -3t-19.5 -3q-18 0 -30 6l-2 1l-1 1
l6 12q-2 0 -2 1l11 22q-2 -1 -5 -1l13 21q0 8 1 12l7 13l1 2zM307 1045q-1 -1 -1 -2z" />
    <glyph glyph-name="agrave" unicode="&#xe0;" horiz-adv-x="753" 
d="M542 283h-328l-83 -280h-115l284 929h143q1 0 5 -2t8 -4.5t7.5 -5.5t4.5 -5l279 -912l-16 -8h-90q-1 0 -4 3t-4 5q-3 5 -9 20.5t-8 20.5q-4 12 -13.5 44t-20 67t-19.5 67t-13 44zM559 319q-3 0 -3 -4t3 -4t3 4t-3 4zM519 381l-133 469q-1 0 -2 1q-1 0 -2 1
q-6 0 -8.5 -7.5t-3.5 -11.5l-128 -452h277zM246 624q-3 0 -3 -4t3 -4t3 4t-3 4zM402 1148h4l8 -20l7 -12v-6l39 -99l6 -10q1 -4 4 -12t5 -16l3 -7l-4 -1q-3 -3 -11.5 -4t-17.5 -1q-27 0 -33 6h-12l-95 139q-7 4 -10 9l-20 34q6 3 16.5 4.5t21.5 1.5q13 0 25 -2t20 -4h35v5
l3 -5h5v2zM382 1074q5 -3 14.5 -7.5t18.5 -10.5t15.5 -13t6.5 -13l2 -2q0 2 -0.5 2.5t-0.5 2.5l-1 2q-6 7 -15.5 14t-18.5 13.5t-16 13t-7 11.5l-2 2q0 -7 3 -13zM426 1071q6 0 7 -3.5t1 -6.5v-1l2 -2v2v8l-1 2l-12 4l1 -1q0 1 -1 1l-4 2v-2zM444 1012l2 -2v7l-2 2v-7z
M464 980l-6 11v-2zM416 1096q0 4 -3 12v-2zM422 1090l-7 5l6 -5h1zM431 1065l2 -4q0 -1 1 -1q0 1 -0.5 1.5t-0.5 1.5zM406 1124q-1 0 -1 2q0 -3 1 -4v2zM421 1090q0 -3 1 -4v1q0 1 -0.5 1.5t-0.5 1.5z" />
    <glyph glyph-name="acircumflex" unicode="&#xe2;" horiz-adv-x="753" 
d="M546 286l-17 1.5t-40.5 2.5t-49 2.5t-41.5 1.5h-85h-86q-14 -10 -17 -25l-82 -262h-98q-5 0 -6.5 4.5t-1.5 7.5v5l287 908h155l279 -916v-9q0 -3 -5.5 -4.5t-13 -2l-15 -1t-11.5 -0.5q-6 0 -16 0.5t-20 1.5t-17.5 2.5t-8.5 3.5l-9 17zM595 17q0 -1 3 -2t3 -9h-18l9 23z
M161 236v9h-8zM517 393l-127 458h-1q-1 0 -2 1q-10 0 -13 -9l-128 -450h271zM367 1040q-1 0 -2 0.5t-2 0.5l-27 -51q-1 -8 -3 -14t-8 -12l-5 -3l-5 -4l-71 -2q-7 -2 -13.5 -0.5t-11.5 2.5l-4 7q-1 3 2 8t4 9q3 8 5 11.5t10 8.5l6 6l5 6q2 7 4 9l6 7l61 92q1 12 10 17t19 -1
h62q6 3 11.5 2.5t9.5 -2.5h1l1 -1q6 -5 8 -11q13 -2 17 -16q2 -6 3.5 -12t4.5 -12l18 -29q14 -18 29.5 -35.5t24.5 -38.5q3 -7 1 -14l-10 -13q-8 -5 -18 0h-56q-7 -2 -13 0l-8 7q-2 1 -4 5q0 1 -0.5 1.5t-0.5 1.5l-42 77q-5 -5 -12 -6q-2 0 -3.5 -0.5t-3.5 -0.5zM420 1074
l2 -1q2 5 5.5 5t7.5 -1q1 0 1 2h-10t-6 -5zM519 973q-5 1 -8 2t-6 3q-5 0 -1 -2q4 -1 7 -2t7 -3q1 0 1 2zM446 1070q-1 0 -2 -1q4 -6 5 -9h1l1 1zM429 1101q-1 0 -1.5 0.5t-1.5 0.5q-5 0 -1 -2q1 0 1.5 -0.5t1.5 -0.5t1 2zM462 1054q-2 2 -2 3q-5 0 -1 -2l1 -2h1zM435 1070
q0 3 -2 1v-3l2 -1v3zM465 1049q0 3 -2 1v-3l2 -1v3zM413 1086q0 -1 0.5 -1.5t0.5 -1.5h1l1 1q-1 1 -1 3q-1 0 -2 -1zM417 1110q-1 1 -1 3q-1 0 -2 -1q0 -1 0.5 -1.5t0.5 -1.5h1zM455 1054l-2 2q-5 0 -1 -2l1 -1h1zM412 1110q0 -3 -1 -4l2 -1q-1 1 1 4zM475 1038q-1 0 -1 0.5
t-1 0.5v1q0 3 -2 1q1 -3 2 -3h1h1zM464 1042q-1 1 -1 2q-1 0 -2 -1q0 -1 1 -2h1zM441 1061l2 -1v2q0 3 -2 1v-2zM417 1097q0 -1 -1 -2l2 -1l1 2zM429 1092q0 3 -2 1v-1l2 -1v1z" />
    <glyph glyph-name="atilde" unicode="&#xe3;" horiz-adv-x="753" 
d="M303 930h154l269 -879q1 -2 1 -8.5v-8.5q0 -13 -7 -19t-17 -7.5t-22 -0.5t-21 1h-19q-6 0 -12 1l-82 262q-3 8 -8.5 16t-16.5 8h-310l-80 -261q-3 -8 -6 -13t-6 -8.5t-5 -3.5h-103zM629 144q-4 0 -4 -4t4 -4q2 0 2 4t-2 4zM132 160q-4 0 -4 -3.5t4 -3.5q2 0 2 3.5t-2 3.5
zM148 209q-4 0 -4 -3.5t4 -3.5q3 0 3 3.5t-3 3.5zM139 213q1 4 -4 4t-3 -4q1 -4 3.5 -4t3.5 4zM612 229q-4 2 -4 -3.5t4 -3.5q3 1 3 3.5t-3 3.5zM603 242q-2 0 -2 -4.5t2 -4.5q3 0 3 4.5t-3 4.5zM636 282q-3 0 -3 -3.5t3 -3.5t3 3.5t-3 3.5zM603 319q1 2 -1.5 3t-6 1
t-6.5 -1t-2 -3q2 -3 8 -3t8 3zM432 331q-2 0 -2 -3.5t2 -3.5q3 0 3 3.5t-3 3.5zM510 393l-127 464q-5 -5 -9.5 -11.5t-6.5 -13.5l-125 -439h268zM498 515h7l-7 8v-8zM442 1054q4 -2 10 -8q10 1 16 6q1 8 2.5 15.5t2.5 15.5q3 11 11 14q0 3 1 5h45q5 5 18 -1.5t17 -16.5
q-2 -6 -6 -13.5t-9 -15.5q-7 -40 -27 -64q-29 -37 -74 -37q-32 0 -87 37q-22 14 -36 19q-7 0 -17 2q-2 0 -3 0.5t-3 0.5q-14 -2 -23 -14q-11 -15 -11 -47h-45q-1 -1 -2 -1q-5 -1 -11 1h-13q-1 8 -1 15q-4 4 -4 6q-2 11 -0.5 18t-5.5 18q2 6 4 8q1 4 5 8q7 18 16.5 28
t21.5 16q30 32 72 32q30 0 79 -29q14 -6 27 -12t30 -6zM463 989q13 3 8 13l-1 1q-1 0 -3 -7l1 -1q1 2 1 5q0 1 1 1q5 -7 -8 -11zM277 1083q5 1 9 1.5t8 0.5q1 0 1 1q-5 0 -9 -0.5t-9 -1.5v-1zM516 1045q1 4 2 6.5t2 4.5l-1 1q-1 -2 -2 -4.5t-2 -6.5zM533 1069q-4 -3 -4 -9
l1 -1q0 3 1 5.5t2 4.5zM522 1064q2 4 2 5l-1 1q0 -1 -2 -5zM498 1032q3 1 3 3l-1 1v-1q-1 0 -3 -2zM495 1012l-2 1v3l-1 1v-4l2 -2q1 0 1 1zM510 1037q1 0 1 1h-5l-1 -1h5zM468 976q6 2 10 4q-5 -3 -10 -3v-1zM520 1036l-1 -4l1 -1v5zM515 1021l-2 -2l3 2h-1zM506 1014h-2
v-1zM535 1072v-1l1 1h-1zM521 1044l1 -1v1h-1zM486 987v-1l1 1h-1zM515 1022v-1l1 1h-1zM535 1071l-1 -1q1 0 1 0.5t1 0.5h-1zM487 986q-2 0 -2 -1q0 1 1 1h1z" />
    <glyph glyph-name="adieresis" unicode="&#xe4;" horiz-adv-x="753" 
d="M81 205q-1 0 -1 4q0 14 6 33.5t12.5 37.5t12 30.5t5.5 13.5q0 10 -1 12l70 230q5 3 12 10t13.5 15.5t11 17t4.5 14.5h-16v-17l-10 1q0 19 5.5 41t12.5 44.5t14.5 44.5t12.5 41q5 18 8.5 38.5t9.5 41t15.5 38.5t25.5 30q34 4 63 5.5t62 0.5q13 0 15 -8l87 -273l-1 -24h9
l197 -596v-23l-101 -8l-92 290l-321 4q-2 0 -5.5 -4t-5.5 -9q-4 -5 -6 -12l-77 -270l-107 2zM63 8q0 2 -3 3t-6 1q-8 2 -8 -3q0 -2 3 -3t5 -2q6 0 9 4zM103 25q-18 0 -18 -20h7q8 0 17 2t11 10q-2 6 -7 7t-10 1zM71 24h8q1 0 3.5 4t5.5 10t5 11.5t2 8.5q0 4 -2.5 9t-5.5 7z
M46 38q-4 0 -4 -5q0 -3 4 -3q2 0 2 3q0 5 -2 5zM128 48q0 1 -2 1q-2 1 -5 -2t-3 -5t3 -2q7 0 7 5v3zM63 53q-4 0 -4 -4t4 -4q2 0 2 4t-2 4zM103 53q-2 0 -2 -4t2 -4q4 0 4 4t-4 4zM120 57q7 2 8.5 6.5t1.5 9.5q0 1 -0.5 4t-0.5 4l-17 -16zM112 82q0 1 -1 1q-2 0 -5 -3t-3 -5
q0 -3 3 -3q6 0 6 8v2zM55 86q-3 1 -3 -4q0 -4 3 -5q3 0 3 4q0 5 -3 5zM96 99q0 -2 3 -5.5t5 -3.5q14 5 21 10.5t7 18.5q-11 1 -23.5 -2t-12.5 -18zM64 102q-4 0 -4 -5q0 -3 4 -3q2 0 2 3q0 5 -2 5zM96 127q-3 0 -3 -5q0 -3 3 -3t3 3q0 5 -3 5zM146 130l9 8h-8zM130 146
q0 1 -2 1q-2 1 -5 -1.5t-3 -5.5q0 -1 3 -1q7 0 7 5v2zM156 237q-10 0 -19 -11t-16.5 -25.5t-12 -30t-4.5 -24.5q11 0 15 6.5t6.5 14.5t6.5 14.5t15 6.5l-9 8q7 10 17 10l1 15l-17 -8zM155 163q0 3 -5 3q-3 0 -3 -3q0 -4 3 -4t5 4zM88 192q-2 0 -2 -4t2 -4q4 0 4 4t-4 4z
M113 201q-2 0 -2 -5q0 -4 2 -4q4 0 4 4q0 5 -4 5zM172 250q-3 0 -3 -5q0 -4 3 -4t3 4q0 5 -3 5zM148 258q-4 0 -4 -5q0 -3 4 -3q2 0 2 3q0 5 -2 5zM592 252q-4 0 -4 -5q0 -3 4 -3q2 0 2 3q0 5 -2 5zM164 266q-3 0 -3 -5q0 -3 3 -3t3 3q0 5 -3 5zM181 266q-4 0 -4 -5
q0 -3 4 -3q2 0 2 3q0 5 -2 5zM131 278h17l-8 8zM616 301q-2 0 -2 -5q0 -4 2 -4q4 0 4 4q0 5 -4 5zM190 311q0 4 -5 4q-3 0 -3 -4q0 -3 3 -3t5 3zM206 314q-3 0 -3 -5q0 -3 3 -3t3 3q0 5 -3 5zM239 310h8l-8 9v-9zM280 309q0 3 -8 5q-8 0 -8 -4q0 -3 8 -3q6 -2 8 2zM312 318
q0 -2 3.5 -5.5t5.5 -3.5q14 5 16 13.5t2 18.5q0 2 -0.5 8.5t-0.5 8.5q-6 -2 -13.5 -6t-12.5 -11q2 0 5.5 -2.5t3.5 -5.5q0 -1 -4.5 -7.5t-4.5 -7.5zM391 325q-7 0 -9 -6t-3 -11l17 17h-5zM181 328q-3 0 -6 -2.5t-3 -4.5q0 -3 3 -3q2 0 4.5 3t2.5 6v1h-1zM354 317l8 8l-8 7
v-15zM411 320q-2 0 -2 -5q0 -3 2 -3q4 0 4 3q0 5 -4 5zM428 319q-3 0 -3 -5q0 -3 3 -3t3 3q0 5 -3 5zM478 319q-4 0 -4 -5q0 -3 4 -3q2 0 2 3q0 5 -2 5zM230 331q-2 0 -2 -5q0 -4 2 -4q4 0 4 4q0 5 -4 5zM329 330q4 0 4 -5q0 -4 -4 -4q-2 0 -2 4q0 5 2 5zM508 330
q-2 0 -2 -3q0 -4 2 -4q6 0 6 4q0 1 -4 3h-2zM197 335q0 1 0.5 2.5t0.5 2.5q0 8 -8 12l-8 -9zM428 336q-3 0 -3 -5q0 -3 3 -3t3 3q0 5 -3 5zM169 353q-5 0 -9.5 -2.5t-10.5 -7.5q8 -1 12.5 1.5t11.5 7.5q-1 0 -2 0.5t-2 0.5zM272 347q-4 0 -4 -5q0 -3 4 -3q2 0 2 2q0 6 -2 6z
M379 345q-4 0 -4 -5q0 -3 4 -3q2 0 2 3q0 5 -2 5zM396 345q-4 0 -4 -5q0 -3 4 -3q2 0 2 3q0 5 -2 5zM304 354q-2 0 -2 -4t2 -4q4 0 4 4t-4 4zM338 375q6 0 8 -4.5t3.5 -10t4 -10t8.5 -4.5l1 28l116 -1q3 0 8 3t10 7t9 8t5 6q0 1 -1.5 4.5t-3 7.5t-2.5 8t-1 5q0 8 5.5 14
t12 11.5t12 12t5.5 15.5l-1 4q-6 -9 -14.5 -18t-20.5 -9q-2 0 -3 1q-1 0 -3 1l-7 59q2 0 8.5 6t7.5 9q0 5 -5.5 12t-8.5 8q0 -5 -1 -14.5t-9 -12.5q-1 14 -9 33.5t-17.5 39t-16.5 37.5t-7 30q0 5 2 7l-55 182v14q-11 0 -19 -12t-14 -30.5t-10 -39.5t-8 -38q-6 -1 -8.5 -8.5
t-3.5 -16.5t-2 -18.5t-4 -13.5q-2 3 -10.5 5.5t-11.5 2.5q-8 0 -9.5 -9.5t-1.5 -14.5q0 -1 0.5 -4.5t0.5 -4.5l17 17q-2 -3 -2 -5q0 -6 5 -11.5t5 -12.5q-1 -31 -11 -64.5t-22 -68.5t-22 -70.5t-10 -70.5zM594 354q0 1 -3 1q-2 0 -5 -3t-3 -5q0 -1 3 -1q6 0 8 7v1zM420 362
q-2 0 -2 -5q0 -4 1 -4q2 -1 3.5 0.5t1.5 2.5q0 5 -4 6zM462 364q-4 0 -4 -4t3 -4q4 0 4 4q0 2 -3 4zM536 360q-3 0 -3 -5q0 -4 2 -4q4 0 4 4q0 5 -3 5zM150 397q-4 0 -4 -5q0 -3 4 -3q2 0 2 3q0 5 -2 5zM174 397q-3 0 -3 -5q0 -3 3 -3t3 3q0 5 -3 5zM223 396q-2 0 -2 -5
q0 -3 2 -3q4 0 4 3q0 5 -4 5zM552 388l17 -1l-9 10zM207 417q-6 -2 -8 -6.5t-1 -17.5zM158 422q-4 0 -4 -5q0 -3 4 -3q2 0 2 3q0 5 -2 5zM552 425q-2 0 -2 -5q0 -3 2 -3q3 0 3 3q0 5 -3 5zM159 438q-4 0 -4 -4t4 -4q2 0 2 4t-2 4zM175 438q-3 0 -3 -4t3 -4t3 4t-3 4z
M570 441q-4 0 -4 -4q0 -1 1 -3t3 -2t2 4q0 5 -2 5zM224 466q-6 -4 -7 -6.5t-1 -10.5q9 5 9 13zM192 472q-3 0 -3 -5q0 -4 3 -4q2 0 2 4q0 5 -2 5zM208 466l8 8h-8v-8zM512 482q-3 0 -3 -3q0 -4 3 -4t3 4q0 3 -3 3zM216 494q-3 0 -3 -4t3 -4t3 4t-3 4zM504 490q-3 0 -3 -4
t3 -4t3 4t-3 4zM209 503q-4 0 -4 -5q0 -4 3 -4t3 4q0 5 -2 5zM242 503q-4 0 -4 -5q0 -4 3 -4t3 4q0 5 -2 5zM258 519q-3 0 -3 -4t3 -4t3 4t-3 4zM200 529q-2 0 -2 -5q0 -4 2 -4q4 -1 4 3q0 5 -4 6zM529 536q0 1 -1 1q-3 0 -5.5 -2.5t-2.5 -4.5q0 -3 3 -3t4.5 2t1.5 4v3z
M200 545q-2 0 -2 -4t2 -4q4 -1 4 3t-4 5zM193 554q-3 0 -3 -5q0 -4 3 -4q2 0 2 4q0 5 -2 5zM250 569q0 -8 8 -13q0 8 -1 10.5t-7 6.5v-4zM529 557q-2 0 -2 -5q0 -3 2 -3q4 0 4 3q0 5 -4 5zM209 569q-3 0 -3 -4t3 -4t3 4t-3 4zM497 565q-3 0 -3 -4t3 -4t3 4t-3 4zM243 589
q0 4 -5 4q-4 0 -4 -4q0 -3 4 -3q3 0 5 3zM530 585q0 2 -3 3t-5 1q-8 0 -8 -4q0 -2 3 -2.5t5 -0.5q6 0 8 3zM268 610q-4 0 -4 -5q0 -4 4 -4q2 0 2 4q0 5 -2 5zM465 607q-4 0 -4 -5q0 -4 4 -4q2 0 2 4q0 5 -2 5zM243 626q-3 0 -3 -4t3 -4t3 4t-3 4zM482 632q-4 0 -4 -5
q0 -4 4 -4q2 0 2 4q0 5 -2 5zM465 640q-4 0 -4 -5q0 -3 4 -3q2 0 2 3q0 5 -2 5zM252 651q-1 0 -3 -5q0 -3 2 -3t2 3q2 5 -1 5zM244 660q-3 0 -3 -5q0 -4 3 -4t3 4q0 5 -3 5zM235 684q-2 0 -2 -4t2 -4q4 0 4 4t-4 4zM433 705q-3 0 -3 -5q0 -3 3 -3t3 3q0 5 -3 5zM449 705
q-2 0 -2 -5q0 -3 2 -3q4 0 4 3q0 5 -4 5zM442 739q-2 0 -2 -5q0 -4 2 -4q4 0 4 4q0 5 -4 5zM475 747q-3 0 -3 -5q0 -3 3 -3t3 3q0 5 -3 5zM425 750h17v9h-17v-9zM467 755q-4 0 -4 -5q0 -3 4 -3q2 0 2 3q0 5 -2 5zM409 773q-3 0 -3 -5q0 -4 3 -4t3 4q0 5 -3 5zM459 772
q-3 0 -3 -5q0 -4 3 -4q2 0 2 4q0 5 -2 5zM270 791q-4 0 -4 -4t4 -4q2 0 2 4t-2 4zM460 796q-3 0 -3 -4q-2 -4 2 -4q2 0 2 4q1 1 0.5 2.5t-1.5 1.5zM418 801q0 4 -5 4q-3 0 -3 -4q0 -3 4 -3q2 0 4 3zM311 814q-2 0 -2 -5q0 -3 2 -3q4 0 4 3q0 5 -4 5zM418 830q-2 0 -2 -5
q0 -4 2 -4q4 0 4 4q0 5 -4 5zM328 864q-3 0 -3 -5q0 -3 3 -3t3 3q0 5 -3 5zM354 871q-3 0 -3 -4q-2 -4 2 -4q1 0 3 4q0 4 -2 4zM444 879q-2 0 -2 -5q0 -4 2 -4q4 0 4 4q0 5 -4 5zM288 929q3 0 3 -4t-3 -4t-3 4t3 4zM309 1038v-7t1 -9q-3 -3 -3 -8t6 -10v-1h2v1q0 -1 1 -1
q-1 0 -1 2v-1v1q-1 1 -1 4q0 2 -0.5 3t-0.5 3v3q0 1 -1 2v1q6 3 16.5 -2.5t15.5 -26.5q0 -1 -0.5 -1.5t-0.5 -1.5q-2 -13 -7 -14l-44 -19q-23 -3 -44.5 0.5t-38.5 31.5q1 9 -1 13t0 12v12q-2 8 0 17q-8 24 17 46q3 2 6 2.5t6 1.5q5 2 9 3t7 2q2 2 7 6q23 11 44 1
q8 -4 19 -15l13 -20q5 -11 7 -20q0 -1 1 -1q0 -8 1 -23.5t-1 -29.5q-5 21 -15.5 26.5t-17.5 1.5v14q0 5 -2 1zM517 985l-2 -2q-5 -11 -16.5 -18t-29.5 -5q-21 8 -34 25h-1v1q-4 5 -7 10t-5 10q-13 10 -16 26q-8 10 -7 21q1 8 6 11t7 9q2 5 6.5 9t6.5 9q3 8 13 10.5t16 6.5v1
q10 7 21 6.5t21 -6.5l38 -34q11 -17 11 -36.5t-11 -36.5zM510 1059q2 -8 4 -15t-2 -15l-3 1q-10 -5 -7.5 -13.5t13.5 -6.5q4 2 7 5t4 7q2 9 2 17.5t2 17.5q0 10 -9 11.5t-11 -9.5zM311 1019q0 -3 1 -6t1 -7q-10 8 -2 14v-1zM313 1052l2 -1v13q0 5 -2 1v-13zM342 988
q-14 -3 -22 7q8 -11 22 -7zM329 1041q2 -6 1 -11l2 -1q-2 8 -1 11q0 5 -2 1zM314 1076q0 -1 -0.5 -1.5t-0.5 -1.5l2 -1q0 1 0.5 1.5t0.5 1.5l-1 1h-1zM321 1037l1 -2l1 2q0 1 -1 2z" />
    <glyph glyph-name="aring" unicode="&#xe5;" horiz-adv-x="753" 
d="M550 289h-145l-17 21l-8 -21h-158q-5 0 -12.5 -19.5t-16.5 -49t-19 -63.5t-18 -62q-6 1 -8 7t-2 13q0 5 0.5 8.5t0.5 4.5t-0.5 4t-0.5 8q0 7 2 13t8 7l-8 10v140q-6 0 -9.5 -11.5t-5.5 -27.5t-3 -34t-1 -30q0 -21 0.5 -39.5t2.5 -31.5l-17 -17v9q-17 -7 -17 -15
q0 -1 1 -5.5l2 -9t2.5 -8t2.5 -3.5q-1 0 5.5 2.5t11.5 5.5q-2 -16 -8 -19.5t-12 -8t-11 -17.5t-5 -47h-69l71 232q4 2 7.5 5.5t3.5 7.5q0 2 -0.5 2.5t-0.5 1.5l41 132q5 2 7 6.5t2 9.5q0 2 -0.5 4.5t-0.5 4.5l100 340q-1 0 -1 4q0 3 1 4q1 4 5.5 20.5t10.5 34.5t10.5 33.5
t5.5 19.5v5v12q3 6 7 14.5t8 16.5t7 13.5l3 5.5h157l167 -531q10 -13 10.5 -27.5t5.5 -30.5q3 -11 10 -33.5t16 -51t19 -60t19.5 -60t16.5 -51t11 -33.5l2.5 -17.5t3 -20t2.5 -16t1 -5.5h-108zM-76 95q2 -5 5.5 -15.5l7.5 -22.5l7.5 -22.5t4.5 -14.5q0 -11 -8 -14.5
t-17 -3.5v93zM678 20q-3 0 -3 -5q0 -3 2 -3q5 0 5 4q0 2 -4 4zM123 44v-16q-11 7 -11 16h11zM670 33q-3 0 -3 -5q0 -4 3 -4t3 4q0 5 -3 5zM61 54q-8 0 -11.5 -7t-3.5 -14q8 0 12.5 6.5t6.5 14.5h-4zM132 78q1 -7 -1.5 -10t-7.5 -6q0 7 1.5 9.5t7.5 6.5zM148 78q3 -2 3 -4
q0 -4 -4 -4q-3 0 -3 3q0 5 4 5zM645 103q0 4 -4 4t-4 -3q0 -5 4 -5q3 0 4 4zM132 124q2 0 2 -4t-2 -4q-4 0 -4 4t4 4zM99 128q2 2 5 12t3 12q0 3 -3 9.5t-5 8.5v-42zM686 129q0 3 -8 3t-8 -3t3 -4.5t5 -1.5q6 0 8 5v1zM156 149q-3 0 -3 -5q0 -4 3 -4t3 4q0 5 -3 5zM173 214
q-3 0 -3 -4t3 -4t3 4t-3 4zM637 248q-4 0 -4 -4t4 -4t4 4t-4 4zM181 277q0 4 -4 4t-4 -3q0 -5 4 -5q3 0 4 4zM355 343q0 -2 -6.5 -6t-15 -9.5t-15 -13t-6.5 -14.5q12 0 22 7t12 20q0 -2 3.5 -5t5.5 -3t8.5 3t8.5 5zM150 338q-9 0 -14 -7.5t-5 -16.5q0 -1 0.5 -2t0.5 -2
q8 6 13 11.5t5 16.5zM189 319h8v8zM438 335q-4 0 -4 -4t3 -4q5 0 5 4q0 2 -4 4zM529 339q-4 0 -4 -4t4 -4t4 4t-4 4zM578 336q0 2 -7 2q-9 0 -9 -3q0 -2 3 -3t5 -1q7 0 8 4v1zM604 339q-4 0 -4 -4t4 -4q3 0 3 4t-3 4zM140 352h8v8h-8v-8zM148 381q-4 0 -4 -4t4 -4q3 0 3 4
t-3 4zM521 384l-127 473h-14q-1 0 -3.5 -5t-5.5 -11.5t-5.5 -12.5t-2.5 -8q0 -4 1 -4l-119 -432h276zM214 397q-3 0 -3 -4t3 -4t3 4t-3 4zM239 438q-3 0 -3 -4t3 -4t3 4t-3 4zM231 447q-3 0 -3 -5q0 -4 3 -4t3 4q0 5 -3 5zM513 538q-4 0 -4 -4t4 -4q2 0 2 4t-2 4zM231 571
q-3 0 -3 -4t3 -4t3 4t-3 4zM521 587q-4 0 -4 -4t4 -4q2 0 2 4t-2 4zM264 625q-4 0 -4 -4t3 -4q4 0 4 4q0 2 -3 4zM438 737q-3 0 -3 -4t3 -4t3 4t-3 4zM322 845q-3 0 -3 -4t3 -4t3 4t-3 4zM283 1108q2 8 10 8q3 0 4 -1q12 23 34.5 39.5t42.5 16.5h6q21 0 38.5 -10.5t30 -28
t20 -41t7.5 -49.5l-3 -13q-3 -21 -11.5 -39t-21.5 -30.5t-28.5 -19.5t-31.5 -7q-17 0 -35 8.5t-33 23.5t-25 34.5t-10 40.5q0 19 2.5 37.5t3.5 30.5zM347 1110q-13 -23 -13 -47q0 -29 14.5 -52t34.5 -29q20 2 37 21t17 50q0 30 -17 50.5t-39 20.5z" />
    <glyph glyph-name="Ccedilla" unicode="&#xc7;" horiz-adv-x="713" 
d="M668 288q9 -5 9 -12q0 -8 -9 -12v24zM634 232q0 4 2 4q3 0 3 -4q0 -5 -3 -5q-2 0 -2 5zM561 657q0 5 3 5t3 -5q0 -4 -3 -4t-3 4zM620 215q12 0 18 5.5t10 12t8.5 12t14.5 5.5q0 -11 -2.5 -21t-7.5 -21q-17 -36 -32 -62t-33 -46.5t-41 -37t-55 -32.5q-8 -3 -12.5 -6.5
t-8 -6.5t-8 -4.5t-11.5 -1.5v28q-6 -11 -10 -17t-8.5 -10t-11.5 -5t-18 -1q-7 0 -10 1v-8v-40q-4 -4 -6 -7.5t-5 -7.5q35 -7 57 -31q24 -27 24 -65q0 -30 -13 -53q-3 -23 -15.5 -37.5t-29.5 -22t-38 -9t-41 0.5q-5 -1 -15 -1q-44 0 -79 8v6q0 1 -1 1v40q2 -2 4 -2l1 11v19h2
v1q17 -1 30 -1.5t23 -0.5q43 0 63 13.5t20 34.5q0 20 -17 31q-16 2 -33 -1.5t-31 -3.5v18h-3l3 13v9h2l3 12v3l2 7l9 35v14q0 4 1 6q-60 5 -106.5 28.5t-80.5 60t-58 83.5t-38 99t-20.5 106t-6.5 105q0 87 18.5 168.5t60 144.5t108.5 100.5t163 37.5q89 0 152 -39t109 -114
q6 -11 15.5 -29.5t9.5 -31.5q0 -5 -9.5 -11t-15.5 -10l8 -7q6 9 12 9q8 0 12 -5.5t9 -12.5q-3 -5 -12.5 -9.5t-20.5 -7.5t-21.5 -5t-15.5 -2q-3 0 -9 2.5t-12 5.5t-10.5 6.5t-4.5 6.5q-2 -1 0.5 2.5t7 8l9.5 9.5l8 8q-14 0 -17.5 -4.5t-10.5 -4.5q-4 0 -8 6t-7 14t-4.5 15.5
t-1.5 10.5q0 10 17 11q-2 2 -8 5t-8 3t-8 -3t-8 -5q-7 26 -28 43.5t-48 27.5t-56 14t-50 4q-48 0 -82.5 -20.5t-60 -53t-42 -72.5t-28.5 -80v-6q0 -5 -0.5 -13.5t-2 -16t-4.5 -13t-8 -5.5q9 -7 9 -14t-6 -11.5t-11 -8.5h13q0 -47 3.5 -98.5t13.5 -100.5t28 -93t48 -77.5
t73 -53t103 -19.5q43 0 74.5 16t54.5 40t38.5 52.5t25.5 52.5t16 40t10 16q3 0 11.5 -1t17.5 -3l24 -4v-14q-20 0 -26.5 -12.5t-6.5 -29.5q0 -3 0.5 -12t0.5 -13zM620 718q-2 0 -2 -4q0 -5 2 -5q3 0 3 5q0 4 -3 4zM605 681v25q-11 -3 -19 -10t-14 -15h16v-7h24v7h-7z
M588 746l8 -9v9h-8zM580 770q-3 0 -3 -4t2 -4q5 0 5 4q0 2 -4 4zM556 742q0 -8 5 -10t11 -2l-16 16v-4zM503 810q0 4 -3 4t-3 -4q0 -3 3 -3t3 3zM491 870q-7 0 -7 -3q0 -4 7 -4t9 3v1q0 2 -3 2.5t-6 0.5zM484 854q-4 0 -4 -4q0 -3 4 -3q3 0 3 3q0 4 -3 4zM476 879
q-3 0 -3 -4q0 -5 3 -5q2 0 2 5q0 4 -2 4zM427 847q-3 0 -3 -5q0 -4 3 -4q4 0 4 4q0 5 -4 5zM420 851q-4 6 -7 7t-9 1q4 -9 11 -9q2 0 3 0.5t2 0.5zM243 879q-4 0 -4 -4q0 -5 4 -5q3 0 3 5q0 4 -3 4zM186 798q-3 0 -3 -4t3 -4q4 0 4 4t-4 4zM170 802q-3 0 -3 -4q0 -3 2 -3
q5 0 5 3q0 2 -4 4zM133 758q-3 0 -3 -3q0 -5 3 -5q4 0 5 4q0 4 -5 4zM106 681h8l-8 9v-9zM114 662q-8 0 -8 -3t3 -4t5 -1q5 0 7 3v2q0 3 -7 3zM81 533q4 0 4 3q0 5 -4 5q-2 0 -2 -5q0 -3 2 -3zM85 480q0 4 -4 4q-2 0 -2 -4q0 -3 2 -3q4 0 4 3zM90 577q-9 0 -13 -1.5
t-12 -6.5l16 -16zM65 641q7 -4 10.5 -10.5t5.5 -13.5v24h-16zM74 597q0 8 -5.5 11t-10.5 2l7 -25q9 4 9 12zM58 517q3 0 3 3q0 4 -3 4q-4 0 -4 -4q0 -3 4 -3zM58 533q3 0 3 3q0 5 -3 5q-4 0 -4 -5q0 -3 4 -3zM64 506q0 -2 3 -2q7 0 7 6v3q0 1 -2 1q-3 0 -5.5 -3t-2.5 -5z
M74 453q3 0 3 3q0 5 -3 5t-3 -5q0 -3 3 -3zM79 424q0 -3 2 -3q4 0 4 3q0 4 -4 4q-2 0 -2 -4zM90 344l-9 16v-16h9zM90 444q2 0 2 5q0 4 -2 4q-3 0 -3 -4q0 -5 3 -5zM98 332q3 0 3 3q0 5 -3 5q-4 0 -4 -5q0 -3 4 -3zM371 55q-3 0 -3 -4t2 -4q4 0 4 3t-3 5zM210 99q3 0 3 4
t-3 4q-2 0 -2 -4t2 -4zM435 42q3 0 3 5q0 4 -3 4q-2 0 -2 -4q0 -5 2 -5zM476 35q2 0 2 3q0 4 -2 4q-3 0 -3 -4q0 -3 3 -3zM479 63q7 0 10.5 5.5t3.5 10.5h-36q0 -9 8 -12.5t14 -3.5zM504 54q14 0 12 16l-16 -15q1 -1 2 -1h2zM575 147q4 0 5 5q0 3 -5 3q-3 0 -3 -3q0 -5 3 -5
zM596 243q3 0 3 5q0 4 -3 4t-3 -4q0 -5 3 -5zM605 268q-4 0 -4 -4t4 -4q2 0 2 4t-2 4zM604 232q4 0 4 3t-3 5q-5 0 -5 -4t4 -4z" />
    <glyph glyph-name="ccedilla" unicode="&#xe7;" horiz-adv-x="719" 
d="M622 304h25t23 -2.5t16.5 -9.5t6.5 -21q0 -12 -1.5 -20.5t-4.5 -17t-8 -18.5t-11 -24q-42 -91 -105 -137t-156 -54v-2v-40q-4 -4 -6 -7.5t-5 -7.5q35 -7 57 -31q24 -27 24 -65q0 -30 -13 -53q-3 -23 -15.5 -37.5t-29.5 -22t-38 -9t-41 0.5q-5 -1 -15 -1q-44 0 -79 8v6
q0 1 -1 1v40q2 -2 4 -2l1 11v19h2v1q17 -1 30 -1.5t23 -0.5q43 0 63 13.5t20 34.5q0 20 -17 31q-16 2 -33 -1.5t-31 -3.5v18h-3l3 13v9h2l3 12v3l2 7l9 35v14q0 4 2 8q-57 6 -102 31.5t-78 63.5t-56 86t-37 101t-20.5 107t-6.5 104q0 86 20 165t62 139.5t107.5 96.5
t156.5 36q85 0 153.5 -33.5t111.5 -111.5q1 -2 5 -11t9.5 -21t10 -23.5t7.5 -17.5q5 -12 6.5 -16.5t1.5 -14.5v-8q-6 -2 -15 -6.5t-20.5 -8.5t-23.5 -7t-22 -3q-1 0 -3.5 0.5t-4.5 0.5q-17 42 -37 77.5t-47 61t-62.5 40t-82.5 14.5q-110 0 -172 -97l-8 8q-3 -10 -9 -17
t-12 -13.5t-11 -14.5t-7 -20q-1 -2 0 -7.5t2.5 -12t3 -12.5t1.5 -7q0 -3 -1 -11.5t-2.5 -18t-2.5 -17.5t-1 -10q-1 -2 -1.5 -16t-0.5 -32.5v-37v-29.5q0 -64 10.5 -132t38.5 -123.5t77.5 -91.5t127.5 -36q44 0 76.5 15.5t56 39t39 50.5t26.5 50.5t18.5 39t14.5 15.5z
M611 741q-3 0 -3 -4.5t3 -4.5t3 4.5t-3 4.5zM572 801q-2 4 -6.5 -1t-1.5 -7t6.5 1.5t1.5 6.5zM139 757q-3 0 -3 -4t3 -4q2 0 2 4t-2 4zM139 741q-3 0 -3 -4.5t3 -4.5q2 0 2 4.5t-2 4.5zM139 724q-3 0 -3 -4t3 -4q2 0 2 4t-2 4zM115 724q3 0 3 4t-3 4q-5 0 -5 -4t5 -4z
M139 708q-3 0 -3 -4t3 -4q2 0 2 4t-2 4zM170 187q3 0 3 4t-3 4t-3 -4t3 -4zM587 98q3 0 3 4t-3 4t-3 -4t3 -4zM603 114q3 0 3 4t-3 4t-3 -4t3 -4zM178 724q-3 0 -3 4t3 4t3 -4t-3 -4z" />
    </font>
</defs>
</svg>
